G04 #@! TF.FileFunction,Profile,NP*
%FSLAX46Y46*%
G04 Gerber Fmt 4.6, Leading zero omitted, Abs format (unit mm)*
G04 Created by KiCad (PCBNEW 4.0.6) date Friday, May 24, 2019 'PMt' 09:54:45 PM*
%MOMM*%
%LPD*%
G01*
G04 APERTURE LIST*
%ADD10C,0.100000*%
%ADD11C,0.200000*%
%ADD12C,0.150000*%
G04 APERTURE END LIST*
D10*
D11*
X62680000Y-107000000D02*
X74300000Y-107000000D01*
X49840000Y-110000000D02*
X62680000Y-110000000D01*
D12*
X62680000Y-107000000D02*
X62680000Y-110000000D01*
X49840000Y-107000000D02*
X49840000Y-110000000D01*
D11*
X62680000Y-33000000D02*
X74300000Y-33000000D01*
X49840000Y-30000000D02*
X62680000Y-30000000D01*
D12*
X62680000Y-33000000D02*
X62680000Y-30000000D01*
X49840000Y-30000000D02*
X49840000Y-33000000D01*
D11*
X124400000Y-81000000D02*
X124400000Y-90000000D01*
X124400000Y-81000000D02*
X127400000Y-81000000D01*
X124400000Y-71900000D02*
X127400000Y-71900000D01*
D12*
X127400000Y-71900000D02*
X127400000Y-81000000D01*
X117800000Y-49500000D02*
X127400000Y-49500000D01*
X127400000Y-30000000D02*
X127400000Y-49500000D01*
X117800000Y-30000000D02*
X127400000Y-30000000D01*
D11*
X25800000Y-49500000D02*
X16200000Y-49500000D01*
X16200000Y-30000000D02*
X16200000Y-49500000D01*
X25800000Y-30000000D02*
X16200000Y-30000000D01*
X16200000Y-90500000D02*
X25800000Y-90500000D01*
D12*
X117800000Y-90500000D02*
X127400000Y-90500000D01*
D11*
X16200000Y-110000000D02*
X16200000Y-90500000D01*
X25800000Y-110000000D02*
X16200000Y-110000000D01*
D12*
X117800000Y-90500000D02*
X117800000Y-90000000D01*
X127400000Y-110000000D02*
X127400000Y-90500000D01*
X117800000Y-110000000D02*
X127400000Y-110000000D01*
X74300000Y-110000000D02*
X99300000Y-110000000D01*
X104300000Y-110000000D02*
X117800000Y-110000000D01*
X25800000Y-110000000D02*
X39300000Y-110000000D01*
X117790000Y-30010000D02*
X117790000Y-30030000D01*
X104300000Y-30000000D02*
X117800000Y-30000000D01*
X74300000Y-30000000D02*
X99300000Y-30000000D01*
X38330000Y-30010000D02*
X38330000Y-29990000D01*
X25800000Y-30000000D02*
X39300000Y-30000000D01*
X104300000Y-110000000D02*
X104300000Y-107000000D01*
X99300000Y-107000000D02*
X104300000Y-107000000D01*
X99300000Y-107000000D02*
X99300000Y-110000000D01*
X39300000Y-107000000D02*
X49840000Y-107000000D01*
X74300000Y-110000000D02*
X74300000Y-107000000D01*
X39300000Y-107000000D02*
X39300000Y-110000000D01*
X104300000Y-33000000D02*
X104300000Y-30000000D01*
X99300000Y-33000000D02*
X104300000Y-33000000D01*
X99300000Y-30000000D02*
X99300000Y-33000000D01*
X39300000Y-33000000D02*
X49840000Y-33000000D01*
X74300000Y-33000000D02*
X74300000Y-30000000D01*
X39300000Y-30000000D02*
X39300000Y-33000000D01*
X124400000Y-50000000D02*
X124400000Y-71900000D01*
X117800000Y-90000000D02*
X124400000Y-90000000D01*
X117800000Y-50000000D02*
X124400000Y-50000000D01*
X117800000Y-49500000D02*
X117800000Y-50000000D01*
X25800000Y-90000000D02*
X25800000Y-90500000D01*
X16200000Y-90000000D02*
X25800000Y-90000000D01*
X25800000Y-50000000D02*
X25800000Y-49500000D01*
X16200000Y-50000000D02*
X25800000Y-50000000D01*
X16200000Y-50000000D02*
X16200000Y-90000000D01*
M02*
