G04 #@! TF.GenerationSoftware,KiCad,Pcbnew,(5.1.9-0-10_14)*
G04 #@! TF.CreationDate,2022-03-08T21:37:20-05:00*
G04 #@! TF.ProjectId,FlexFox80,466c6578-466f-4783-9830-2e6b69636164,1.10*
G04 #@! TF.SameCoordinates,Original*
G04 #@! TF.FileFunction,Soldermask,Top*
G04 #@! TF.FilePolarity,Negative*
%FSLAX46Y46*%
G04 Gerber Fmt 4.6, Leading zero omitted, Abs format (unit mm)*
G04 Created by KiCad (PCBNEW (5.1.9-0-10_14)) date 2022-03-08 21:37:20*
%MOMM*%
%LPD*%
G01*
G04 APERTURE LIST*
%ADD10R,0.530000X1.980000*%
%ADD11R,1.505000X0.802000*%
%ADD12R,2.500000X3.300000*%
%ADD13R,1.100000X0.900000*%
%ADD14R,0.900000X0.950000*%
%ADD15C,1.300000*%
%ADD16C,1.000000*%
%ADD17R,3.540000X2.600000*%
%ADD18R,3.660000X2.600000*%
%ADD19R,0.600000X1.550000*%
%ADD20C,0.400000*%
%ADD21C,1.200000*%
%ADD22R,2.845000X1.651000*%
%ADD23R,1.000000X3.000000*%
%ADD24R,3.000000X1.000000*%
%ADD25C,2.500000*%
%ADD26R,2.500000X2.500000*%
%ADD27C,2.100000*%
%ADD28C,0.100000*%
%ADD29R,3.599180X1.998980*%
%ADD30R,0.750000X0.800000*%
%ADD31C,2.000000*%
%ADD32C,6.000000*%
%ADD33R,2.700000X1.600000*%
%ADD34R,2.500000X1.200000*%
%ADD35R,5.000000X5.000000*%
%ADD36C,1.524000*%
%ADD37C,0.600000*%
%ADD38C,2.235200*%
%ADD39O,1.699260X3.500120*%
%ADD40R,2.235200X2.235200*%
%ADD41R,1.000000X2.500000*%
%ADD42R,2.770000X2.550000*%
%ADD43R,1.250000X1.000000*%
%ADD44R,1.000000X1.250000*%
%ADD45R,2.550000X2.770000*%
%ADD46R,0.700000X1.300000*%
%ADD47R,0.500000X0.900000*%
%ADD48R,0.900000X0.500000*%
%ADD49C,2.300000*%
%ADD50C,3.500000*%
%ADD51R,1.778000X5.080000*%
%ADD52R,0.800100X0.800100*%
%ADD53R,1.300000X0.700000*%
%ADD54R,1.750000X1.300000*%
%ADD55R,2.032000X1.727200*%
%ADD56O,2.032000X1.727200*%
%ADD57R,2.032000X2.032000*%
%ADD58O,2.032000X2.032000*%
%ADD59R,1.727200X2.032000*%
%ADD60O,1.727200X2.032000*%
%ADD61R,1.200000X0.760000*%
%ADD62R,1.100000X0.600000*%
%ADD63C,2.032000*%
%ADD64C,0.254000*%
G04 APERTURE END LIST*
G36*
G01*
X91380000Y-98520000D02*
X91380000Y-97920000D01*
G75*
G02*
X91440000Y-97860000I60000J0D01*
G01*
X92540000Y-97860000D01*
G75*
G02*
X92600000Y-97920000I0J-60000D01*
G01*
X92600000Y-98520000D01*
G75*
G02*
X92540000Y-98580000I-60000J0D01*
G01*
X91440000Y-98580000D01*
G75*
G02*
X91380000Y-98520000I0J60000D01*
G01*
G37*
G36*
G01*
X91380000Y-99470000D02*
X91380000Y-98870000D01*
G75*
G02*
X91440000Y-98810000I60000J0D01*
G01*
X92540000Y-98810000D01*
G75*
G02*
X92600000Y-98870000I0J-60000D01*
G01*
X92600000Y-99470000D01*
G75*
G02*
X92540000Y-99530000I-60000J0D01*
G01*
X91440000Y-99530000D01*
G75*
G02*
X91380000Y-99470000I0J60000D01*
G01*
G37*
G36*
G01*
X91380000Y-100420000D02*
X91380000Y-99820000D01*
G75*
G02*
X91440000Y-99760000I60000J0D01*
G01*
X92540000Y-99760000D01*
G75*
G02*
X92600000Y-99820000I0J-60000D01*
G01*
X92600000Y-100420000D01*
G75*
G02*
X92540000Y-100480000I-60000J0D01*
G01*
X91440000Y-100480000D01*
G75*
G02*
X91380000Y-100420000I0J60000D01*
G01*
G37*
G36*
G01*
X93980000Y-100420000D02*
X93980000Y-99820000D01*
G75*
G02*
X94040000Y-99760000I60000J0D01*
G01*
X95140000Y-99760000D01*
G75*
G02*
X95200000Y-99820000I0J-60000D01*
G01*
X95200000Y-100420000D01*
G75*
G02*
X95140000Y-100480000I-60000J0D01*
G01*
X94040000Y-100480000D01*
G75*
G02*
X93980000Y-100420000I0J60000D01*
G01*
G37*
G36*
G01*
X93980000Y-98520000D02*
X93980000Y-97920000D01*
G75*
G02*
X94040000Y-97860000I60000J0D01*
G01*
X95140000Y-97860000D01*
G75*
G02*
X95200000Y-97920000I0J-60000D01*
G01*
X95200000Y-98520000D01*
G75*
G02*
X95140000Y-98580000I-60000J0D01*
G01*
X94040000Y-98580000D01*
G75*
G02*
X93980000Y-98520000I0J60000D01*
G01*
G37*
D10*
X84095000Y-53545000D03*
X85415000Y-53545000D03*
X86685000Y-53545000D03*
X87955000Y-53545000D03*
X89225000Y-53545000D03*
X90495000Y-53545000D03*
X91765000Y-53545000D03*
X93085000Y-53545000D03*
X93085000Y-44175000D03*
X91765000Y-44175000D03*
X90495000Y-44175000D03*
X89225000Y-44175000D03*
X87955000Y-44175000D03*
X86685000Y-44175000D03*
X85415000Y-44175000D03*
X84095000Y-44175000D03*
D11*
X98192000Y-89375000D03*
X98192000Y-88105000D03*
X98192000Y-86835000D03*
X98192000Y-85565000D03*
X103188000Y-85565000D03*
X103188000Y-86835000D03*
X103188000Y-88105000D03*
X103188000Y-89375000D03*
G36*
G01*
X108800000Y-81570000D02*
X108140000Y-81570000D01*
G75*
G02*
X108080000Y-81510000I0J60000D01*
G01*
X108080000Y-81210000D01*
G75*
G02*
X108140000Y-81150000I60000J0D01*
G01*
X108800000Y-81150000D01*
G75*
G02*
X108860000Y-81210000I0J-60000D01*
G01*
X108860000Y-81510000D01*
G75*
G02*
X108800000Y-81570000I-60000J0D01*
G01*
G37*
G36*
G01*
X108800000Y-80920000D02*
X108140000Y-80920000D01*
G75*
G02*
X108080000Y-80860000I0J60000D01*
G01*
X108080000Y-80560000D01*
G75*
G02*
X108140000Y-80500000I60000J0D01*
G01*
X108800000Y-80500000D01*
G75*
G02*
X108860000Y-80560000I0J-60000D01*
G01*
X108860000Y-80860000D01*
G75*
G02*
X108800000Y-80920000I-60000J0D01*
G01*
G37*
G36*
G01*
X108800000Y-80270000D02*
X108140000Y-80270000D01*
G75*
G02*
X108080000Y-80210000I0J60000D01*
G01*
X108080000Y-79910000D01*
G75*
G02*
X108140000Y-79850000I60000J0D01*
G01*
X108800000Y-79850000D01*
G75*
G02*
X108860000Y-79910000I0J-60000D01*
G01*
X108860000Y-80210000D01*
G75*
G02*
X108800000Y-80270000I-60000J0D01*
G01*
G37*
G36*
G01*
X106960000Y-80270000D02*
X106300000Y-80270000D01*
G75*
G02*
X106240000Y-80210000I0J60000D01*
G01*
X106240000Y-79910000D01*
G75*
G02*
X106300000Y-79850000I60000J0D01*
G01*
X106960000Y-79850000D01*
G75*
G02*
X107020000Y-79910000I0J-60000D01*
G01*
X107020000Y-80210000D01*
G75*
G02*
X106960000Y-80270000I-60000J0D01*
G01*
G37*
G36*
G01*
X106960000Y-80920000D02*
X106300000Y-80920000D01*
G75*
G02*
X106240000Y-80860000I0J60000D01*
G01*
X106240000Y-80560000D01*
G75*
G02*
X106300000Y-80500000I60000J0D01*
G01*
X106960000Y-80500000D01*
G75*
G02*
X107020000Y-80560000I0J-60000D01*
G01*
X107020000Y-80860000D01*
G75*
G02*
X106960000Y-80920000I-60000J0D01*
G01*
G37*
G36*
G01*
X106960000Y-81570000D02*
X106300000Y-81570000D01*
G75*
G02*
X106240000Y-81510000I0J60000D01*
G01*
X106240000Y-81210000D01*
G75*
G02*
X106300000Y-81150000I60000J0D01*
G01*
X106960000Y-81150000D01*
G75*
G02*
X107020000Y-81210000I0J-60000D01*
G01*
X107020000Y-81510000D01*
G75*
G02*
X106960000Y-81570000I-60000J0D01*
G01*
G37*
D12*
X107100000Y-89240000D03*
X114000000Y-89240000D03*
X101040000Y-64580000D03*
X107940000Y-64580000D03*
G36*
G01*
X77330000Y-46140000D02*
X77330000Y-45440000D01*
G75*
G02*
X77390000Y-45380000I60000J0D01*
G01*
X78390000Y-45380000D01*
G75*
G02*
X78450000Y-45440000I0J-60000D01*
G01*
X78450000Y-46140000D01*
G75*
G02*
X78390000Y-46200000I-60000J0D01*
G01*
X77390000Y-46200000D01*
G75*
G02*
X77330000Y-46140000I0J60000D01*
G01*
G37*
G36*
G01*
X77330000Y-47090000D02*
X77330000Y-46390000D01*
G75*
G02*
X77390000Y-46330000I60000J0D01*
G01*
X78390000Y-46330000D01*
G75*
G02*
X78450000Y-46390000I0J-60000D01*
G01*
X78450000Y-47090000D01*
G75*
G02*
X78390000Y-47150000I-60000J0D01*
G01*
X77390000Y-47150000D01*
G75*
G02*
X77330000Y-47090000I0J60000D01*
G01*
G37*
G36*
G01*
X77330000Y-48040000D02*
X77330000Y-47340000D01*
G75*
G02*
X77390000Y-47280000I60000J0D01*
G01*
X78390000Y-47280000D01*
G75*
G02*
X78450000Y-47340000I0J-60000D01*
G01*
X78450000Y-48040000D01*
G75*
G02*
X78390000Y-48100000I-60000J0D01*
G01*
X77390000Y-48100000D01*
G75*
G02*
X77330000Y-48040000I0J60000D01*
G01*
G37*
G36*
G01*
X79730000Y-48040000D02*
X79730000Y-47340000D01*
G75*
G02*
X79790000Y-47280000I60000J0D01*
G01*
X80790000Y-47280000D01*
G75*
G02*
X80850000Y-47340000I0J-60000D01*
G01*
X80850000Y-48040000D01*
G75*
G02*
X80790000Y-48100000I-60000J0D01*
G01*
X79790000Y-48100000D01*
G75*
G02*
X79730000Y-48040000I0J60000D01*
G01*
G37*
G36*
G01*
X79730000Y-46140000D02*
X79730000Y-45440000D01*
G75*
G02*
X79790000Y-45380000I60000J0D01*
G01*
X80790000Y-45380000D01*
G75*
G02*
X80850000Y-45440000I0J-60000D01*
G01*
X80850000Y-46140000D01*
G75*
G02*
X80790000Y-46200000I-60000J0D01*
G01*
X79790000Y-46200000D01*
G75*
G02*
X79730000Y-46140000I0J60000D01*
G01*
G37*
D13*
X42690000Y-65090000D03*
X42690000Y-67490000D03*
X44190000Y-67490000D03*
X44190000Y-65090000D03*
G36*
G01*
X38750000Y-70160000D02*
X38750000Y-69560000D01*
G75*
G02*
X38820000Y-69490000I70000J0D01*
G01*
X40020000Y-69490000D01*
G75*
G02*
X40090000Y-69560000I0J-70000D01*
G01*
X40090000Y-70160000D01*
G75*
G02*
X40020000Y-70230000I-70000J0D01*
G01*
X38820000Y-70230000D01*
G75*
G02*
X38750000Y-70160000I0J70000D01*
G01*
G37*
G36*
G01*
X38750000Y-72060000D02*
X38750000Y-71460000D01*
G75*
G02*
X38820000Y-71390000I70000J0D01*
G01*
X40020000Y-71390000D01*
G75*
G02*
X40090000Y-71460000I0J-70000D01*
G01*
X40090000Y-72060000D01*
G75*
G02*
X40020000Y-72130000I-70000J0D01*
G01*
X38820000Y-72130000D01*
G75*
G02*
X38750000Y-72060000I0J70000D01*
G01*
G37*
G36*
G01*
X36450000Y-72060000D02*
X36450000Y-71460000D01*
G75*
G02*
X36520000Y-71390000I70000J0D01*
G01*
X37720000Y-71390000D01*
G75*
G02*
X37790000Y-71460000I0J-70000D01*
G01*
X37790000Y-72060000D01*
G75*
G02*
X37720000Y-72130000I-70000J0D01*
G01*
X36520000Y-72130000D01*
G75*
G02*
X36450000Y-72060000I0J70000D01*
G01*
G37*
G36*
G01*
X36450000Y-71110000D02*
X36450000Y-70510000D01*
G75*
G02*
X36520000Y-70440000I70000J0D01*
G01*
X37720000Y-70440000D01*
G75*
G02*
X37790000Y-70510000I0J-70000D01*
G01*
X37790000Y-71110000D01*
G75*
G02*
X37720000Y-71180000I-70000J0D01*
G01*
X36520000Y-71180000D01*
G75*
G02*
X36450000Y-71110000I0J70000D01*
G01*
G37*
G36*
G01*
X36450000Y-70160000D02*
X36450000Y-69560000D01*
G75*
G02*
X36520000Y-69490000I70000J0D01*
G01*
X37720000Y-69490000D01*
G75*
G02*
X37790000Y-69560000I0J-70000D01*
G01*
X37790000Y-70160000D01*
G75*
G02*
X37720000Y-70230000I-70000J0D01*
G01*
X36520000Y-70230000D01*
G75*
G02*
X36450000Y-70160000I0J70000D01*
G01*
G37*
G36*
G01*
X77310000Y-69260000D02*
X76710000Y-69260000D01*
G75*
G02*
X76650000Y-69200000I0J60000D01*
G01*
X76650000Y-68000000D01*
G75*
G02*
X76710000Y-67940000I60000J0D01*
G01*
X77310000Y-67940000D01*
G75*
G02*
X77370000Y-68000000I0J-60000D01*
G01*
X77370000Y-69200000D01*
G75*
G02*
X77310000Y-69260000I-60000J0D01*
G01*
G37*
G36*
G01*
X78260000Y-69260000D02*
X77660000Y-69260000D01*
G75*
G02*
X77600000Y-69200000I0J60000D01*
G01*
X77600000Y-68000000D01*
G75*
G02*
X77660000Y-67940000I60000J0D01*
G01*
X78260000Y-67940000D01*
G75*
G02*
X78320000Y-68000000I0J-60000D01*
G01*
X78320000Y-69200000D01*
G75*
G02*
X78260000Y-69260000I-60000J0D01*
G01*
G37*
G36*
G01*
X79210000Y-69260000D02*
X78610000Y-69260000D01*
G75*
G02*
X78550000Y-69200000I0J60000D01*
G01*
X78550000Y-68000000D01*
G75*
G02*
X78610000Y-67940000I60000J0D01*
G01*
X79210000Y-67940000D01*
G75*
G02*
X79270000Y-68000000I0J-60000D01*
G01*
X79270000Y-69200000D01*
G75*
G02*
X79210000Y-69260000I-60000J0D01*
G01*
G37*
G36*
G01*
X79210000Y-66960000D02*
X78610000Y-66960000D01*
G75*
G02*
X78550000Y-66900000I0J60000D01*
G01*
X78550000Y-65700000D01*
G75*
G02*
X78610000Y-65640000I60000J0D01*
G01*
X79210000Y-65640000D01*
G75*
G02*
X79270000Y-65700000I0J-60000D01*
G01*
X79270000Y-66900000D01*
G75*
G02*
X79210000Y-66960000I-60000J0D01*
G01*
G37*
G36*
G01*
X77310000Y-66960000D02*
X76710000Y-66960000D01*
G75*
G02*
X76650000Y-66900000I0J60000D01*
G01*
X76650000Y-65700000D01*
G75*
G02*
X76710000Y-65640000I60000J0D01*
G01*
X77310000Y-65640000D01*
G75*
G02*
X77370000Y-65700000I0J-60000D01*
G01*
X77370000Y-66900000D01*
G75*
G02*
X77310000Y-66960000I-60000J0D01*
G01*
G37*
D14*
X52945000Y-57290000D03*
X56095000Y-57290000D03*
D15*
X69120000Y-48600000D03*
D16*
X61620000Y-48600000D03*
D17*
X73350000Y-48600000D03*
D18*
X57550000Y-48600000D03*
D19*
X111005000Y-69600000D03*
X112275000Y-69600000D03*
X113545000Y-69600000D03*
X114815000Y-69600000D03*
X114815000Y-75000000D03*
X113545000Y-75000000D03*
X112275000Y-75000000D03*
X111005000Y-75000000D03*
D20*
X87110000Y-79270000D03*
X87130000Y-80370000D03*
X86640000Y-79830000D03*
X88950000Y-79830000D03*
X88960000Y-80370000D03*
X88480000Y-80380000D03*
X88950000Y-79270000D03*
D21*
X87800000Y-79820000D03*
D20*
X88470000Y-79280000D03*
X86640000Y-79270000D03*
X86640000Y-80390000D03*
D22*
X87800000Y-79830000D03*
G36*
G01*
X88395000Y-81448000D02*
X88395000Y-83037000D01*
G75*
G02*
X88335000Y-83097000I-60000J0D01*
G01*
X87915000Y-83097000D01*
G75*
G02*
X87855000Y-83037000I0J60000D01*
G01*
X87855000Y-81448000D01*
G75*
G02*
X87915000Y-81388000I60000J0D01*
G01*
X88335000Y-81388000D01*
G75*
G02*
X88395000Y-81448000I0J-60000D01*
G01*
G37*
G36*
G01*
X87745000Y-81448000D02*
X87745000Y-83037000D01*
G75*
G02*
X87685000Y-83097000I-60000J0D01*
G01*
X87265000Y-83097000D01*
G75*
G02*
X87205000Y-83037000I0J60000D01*
G01*
X87205000Y-81448000D01*
G75*
G02*
X87265000Y-81388000I60000J0D01*
G01*
X87685000Y-81388000D01*
G75*
G02*
X87745000Y-81448000I0J-60000D01*
G01*
G37*
G36*
G01*
X87095000Y-81448000D02*
X87095000Y-83037000D01*
G75*
G02*
X87035000Y-83097000I-60000J0D01*
G01*
X86615000Y-83097000D01*
G75*
G02*
X86555000Y-83037000I0J60000D01*
G01*
X86555000Y-81448000D01*
G75*
G02*
X86615000Y-81388000I60000J0D01*
G01*
X87035000Y-81388000D01*
G75*
G02*
X87095000Y-81448000I0J-60000D01*
G01*
G37*
G36*
G01*
X86445000Y-81448000D02*
X86445000Y-83037000D01*
G75*
G02*
X86385000Y-83097000I-60000J0D01*
G01*
X85965000Y-83097000D01*
G75*
G02*
X85905000Y-83037000I0J60000D01*
G01*
X85905000Y-81448000D01*
G75*
G02*
X85965000Y-81388000I60000J0D01*
G01*
X86385000Y-81388000D01*
G75*
G02*
X86445000Y-81448000I0J-60000D01*
G01*
G37*
G36*
G01*
X87745000Y-76623000D02*
X87745000Y-78212000D01*
G75*
G02*
X87685000Y-78272000I-60000J0D01*
G01*
X87265000Y-78272000D01*
G75*
G02*
X87205000Y-78212000I0J60000D01*
G01*
X87205000Y-76623000D01*
G75*
G02*
X87265000Y-76563000I60000J0D01*
G01*
X87685000Y-76563000D01*
G75*
G02*
X87745000Y-76623000I0J-60000D01*
G01*
G37*
G36*
G01*
X88395000Y-76623000D02*
X88395000Y-78212000D01*
G75*
G02*
X88335000Y-78272000I-60000J0D01*
G01*
X87915000Y-78272000D01*
G75*
G02*
X87855000Y-78212000I0J60000D01*
G01*
X87855000Y-76623000D01*
G75*
G02*
X87915000Y-76563000I60000J0D01*
G01*
X88335000Y-76563000D01*
G75*
G02*
X88395000Y-76623000I0J-60000D01*
G01*
G37*
G36*
G01*
X89045000Y-76623000D02*
X89045000Y-78212000D01*
G75*
G02*
X88985000Y-78272000I-60000J0D01*
G01*
X88565000Y-78272000D01*
G75*
G02*
X88505000Y-78212000I0J60000D01*
G01*
X88505000Y-76623000D01*
G75*
G02*
X88565000Y-76563000I60000J0D01*
G01*
X88985000Y-76563000D01*
G75*
G02*
X89045000Y-76623000I0J-60000D01*
G01*
G37*
G36*
G01*
X89695000Y-76623000D02*
X89695000Y-78212000D01*
G75*
G02*
X89635000Y-78272000I-60000J0D01*
G01*
X89215000Y-78272000D01*
G75*
G02*
X89155000Y-78212000I0J60000D01*
G01*
X89155000Y-76623000D01*
G75*
G02*
X89215000Y-76563000I60000J0D01*
G01*
X89635000Y-76563000D01*
G75*
G02*
X89695000Y-76623000I0J-60000D01*
G01*
G37*
G36*
G01*
X89045000Y-81448000D02*
X89045000Y-83037000D01*
G75*
G02*
X88985000Y-83097000I-60000J0D01*
G01*
X88565000Y-83097000D01*
G75*
G02*
X88505000Y-83037000I0J60000D01*
G01*
X88505000Y-81448000D01*
G75*
G02*
X88565000Y-81388000I60000J0D01*
G01*
X88985000Y-81388000D01*
G75*
G02*
X89045000Y-81448000I0J-60000D01*
G01*
G37*
G36*
G01*
X89695000Y-81448000D02*
X89695000Y-83037000D01*
G75*
G02*
X89635000Y-83097000I-60000J0D01*
G01*
X89215000Y-83097000D01*
G75*
G02*
X89155000Y-83037000I0J60000D01*
G01*
X89155000Y-81448000D01*
G75*
G02*
X89215000Y-81388000I60000J0D01*
G01*
X89635000Y-81388000D01*
G75*
G02*
X89695000Y-81448000I0J-60000D01*
G01*
G37*
G36*
G01*
X87095000Y-76623000D02*
X87095000Y-78212000D01*
G75*
G02*
X87035000Y-78272000I-60000J0D01*
G01*
X86615000Y-78272000D01*
G75*
G02*
X86555000Y-78212000I0J60000D01*
G01*
X86555000Y-76623000D01*
G75*
G02*
X86615000Y-76563000I60000J0D01*
G01*
X87035000Y-76563000D01*
G75*
G02*
X87095000Y-76623000I0J-60000D01*
G01*
G37*
G36*
G01*
X86445000Y-76623000D02*
X86445000Y-78212000D01*
G75*
G02*
X86385000Y-78272000I-60000J0D01*
G01*
X85965000Y-78272000D01*
G75*
G02*
X85905000Y-78212000I0J60000D01*
G01*
X85905000Y-76623000D01*
G75*
G02*
X85965000Y-76563000I60000J0D01*
G01*
X86385000Y-76563000D01*
G75*
G02*
X86445000Y-76623000I0J-60000D01*
G01*
G37*
D23*
X73750000Y-56590000D03*
X76290000Y-60890000D03*
X78830000Y-56590000D03*
X81370000Y-60890000D03*
X83910000Y-56590000D03*
X86450000Y-60890000D03*
X88990000Y-56590000D03*
X91530000Y-60890000D03*
X94070000Y-56590000D03*
X96610000Y-60890000D03*
X73724600Y-36595100D03*
X76264600Y-40895100D03*
X78804600Y-36595100D03*
X81344600Y-40895100D03*
X83884600Y-36595100D03*
X86424600Y-40895100D03*
X88964600Y-36595100D03*
X91504600Y-40895100D03*
X94044600Y-36595100D03*
X96584600Y-40895100D03*
D24*
X100444850Y-55032850D03*
X104744850Y-52492850D03*
X100444850Y-49952850D03*
X104744850Y-47412850D03*
X100444850Y-44872850D03*
X104744850Y-42332850D03*
D25*
X97390000Y-66085000D03*
D26*
X97390000Y-74845000D03*
D27*
X117390000Y-62715000D03*
X117390000Y-78215000D03*
D28*
G36*
X97490752Y-72025756D02*
G01*
X100035756Y-69480752D01*
X101449248Y-70894244D01*
X98904244Y-73439248D01*
X97490752Y-72025756D01*
G37*
G36*
X102950752Y-77485756D02*
G01*
X105495756Y-74940752D01*
X106909248Y-76354244D01*
X104364244Y-78899248D01*
X102950752Y-77485756D01*
G37*
D29*
X82530000Y-90960803D03*
D28*
G36*
X84329590Y-84238687D02*
G01*
X80730410Y-84238687D01*
X80730410Y-82239707D01*
X84329590Y-82239707D01*
X84329590Y-84238687D01*
G37*
D30*
X30460000Y-54380000D03*
X30460000Y-55880000D03*
G36*
G01*
X69530000Y-74240000D02*
X69530000Y-73940000D01*
G75*
G02*
X69590000Y-73880000I60000J0D01*
G01*
X71090000Y-73880000D01*
G75*
G02*
X71150000Y-73940000I0J-60000D01*
G01*
X71150000Y-74240000D01*
G75*
G02*
X71090000Y-74300000I-60000J0D01*
G01*
X69590000Y-74300000D01*
G75*
G02*
X69530000Y-74240000I0J60000D01*
G01*
G37*
G36*
G01*
X69530000Y-74740000D02*
X69530000Y-74440000D01*
G75*
G02*
X69590000Y-74380000I60000J0D01*
G01*
X71090000Y-74380000D01*
G75*
G02*
X71150000Y-74440000I0J-60000D01*
G01*
X71150000Y-74740000D01*
G75*
G02*
X71090000Y-74800000I-60000J0D01*
G01*
X69590000Y-74800000D01*
G75*
G02*
X69530000Y-74740000I0J60000D01*
G01*
G37*
G36*
G01*
X69530000Y-75240000D02*
X69530000Y-74940000D01*
G75*
G02*
X69590000Y-74880000I60000J0D01*
G01*
X71090000Y-74880000D01*
G75*
G02*
X71150000Y-74940000I0J-60000D01*
G01*
X71150000Y-75240000D01*
G75*
G02*
X71090000Y-75300000I-60000J0D01*
G01*
X69590000Y-75300000D01*
G75*
G02*
X69530000Y-75240000I0J60000D01*
G01*
G37*
G36*
G01*
X69530000Y-75740000D02*
X69530000Y-75440000D01*
G75*
G02*
X69590000Y-75380000I60000J0D01*
G01*
X71090000Y-75380000D01*
G75*
G02*
X71150000Y-75440000I0J-60000D01*
G01*
X71150000Y-75740000D01*
G75*
G02*
X71090000Y-75800000I-60000J0D01*
G01*
X69590000Y-75800000D01*
G75*
G02*
X69530000Y-75740000I0J60000D01*
G01*
G37*
G36*
G01*
X69530000Y-76240000D02*
X69530000Y-75940000D01*
G75*
G02*
X69590000Y-75880000I60000J0D01*
G01*
X71090000Y-75880000D01*
G75*
G02*
X71150000Y-75940000I0J-60000D01*
G01*
X71150000Y-76240000D01*
G75*
G02*
X71090000Y-76300000I-60000J0D01*
G01*
X69590000Y-76300000D01*
G75*
G02*
X69530000Y-76240000I0J60000D01*
G01*
G37*
G36*
G01*
X69530000Y-76740000D02*
X69530000Y-76440000D01*
G75*
G02*
X69590000Y-76380000I60000J0D01*
G01*
X71090000Y-76380000D01*
G75*
G02*
X71150000Y-76440000I0J-60000D01*
G01*
X71150000Y-76740000D01*
G75*
G02*
X71090000Y-76800000I-60000J0D01*
G01*
X69590000Y-76800000D01*
G75*
G02*
X69530000Y-76740000I0J60000D01*
G01*
G37*
G36*
G01*
X69530000Y-77240000D02*
X69530000Y-76940000D01*
G75*
G02*
X69590000Y-76880000I60000J0D01*
G01*
X71090000Y-76880000D01*
G75*
G02*
X71150000Y-76940000I0J-60000D01*
G01*
X71150000Y-77240000D01*
G75*
G02*
X71090000Y-77300000I-60000J0D01*
G01*
X69590000Y-77300000D01*
G75*
G02*
X69530000Y-77240000I0J60000D01*
G01*
G37*
G36*
G01*
X69530000Y-77740000D02*
X69530000Y-77440000D01*
G75*
G02*
X69590000Y-77380000I60000J0D01*
G01*
X71090000Y-77380000D01*
G75*
G02*
X71150000Y-77440000I0J-60000D01*
G01*
X71150000Y-77740000D01*
G75*
G02*
X71090000Y-77800000I-60000J0D01*
G01*
X69590000Y-77800000D01*
G75*
G02*
X69530000Y-77740000I0J60000D01*
G01*
G37*
G36*
G01*
X69530000Y-78240000D02*
X69530000Y-77940000D01*
G75*
G02*
X69590000Y-77880000I60000J0D01*
G01*
X71090000Y-77880000D01*
G75*
G02*
X71150000Y-77940000I0J-60000D01*
G01*
X71150000Y-78240000D01*
G75*
G02*
X71090000Y-78300000I-60000J0D01*
G01*
X69590000Y-78300000D01*
G75*
G02*
X69530000Y-78240000I0J60000D01*
G01*
G37*
G36*
G01*
X69530000Y-78740000D02*
X69530000Y-78440000D01*
G75*
G02*
X69590000Y-78380000I60000J0D01*
G01*
X71090000Y-78380000D01*
G75*
G02*
X71150000Y-78440000I0J-60000D01*
G01*
X71150000Y-78740000D01*
G75*
G02*
X71090000Y-78800000I-60000J0D01*
G01*
X69590000Y-78800000D01*
G75*
G02*
X69530000Y-78740000I0J60000D01*
G01*
G37*
G36*
G01*
X69530000Y-79240000D02*
X69530000Y-78940000D01*
G75*
G02*
X69590000Y-78880000I60000J0D01*
G01*
X71090000Y-78880000D01*
G75*
G02*
X71150000Y-78940000I0J-60000D01*
G01*
X71150000Y-79240000D01*
G75*
G02*
X71090000Y-79300000I-60000J0D01*
G01*
X69590000Y-79300000D01*
G75*
G02*
X69530000Y-79240000I0J60000D01*
G01*
G37*
G36*
G01*
X69530000Y-79740000D02*
X69530000Y-79440000D01*
G75*
G02*
X69590000Y-79380000I60000J0D01*
G01*
X71090000Y-79380000D01*
G75*
G02*
X71150000Y-79440000I0J-60000D01*
G01*
X71150000Y-79740000D01*
G75*
G02*
X71090000Y-79800000I-60000J0D01*
G01*
X69590000Y-79800000D01*
G75*
G02*
X69530000Y-79740000I0J60000D01*
G01*
G37*
G36*
G01*
X68740000Y-80230000D02*
X69040000Y-80230000D01*
G75*
G02*
X69100000Y-80290000I0J-60000D01*
G01*
X69100000Y-81790000D01*
G75*
G02*
X69040000Y-81850000I-60000J0D01*
G01*
X68740000Y-81850000D01*
G75*
G02*
X68680000Y-81790000I0J60000D01*
G01*
X68680000Y-80290000D01*
G75*
G02*
X68740000Y-80230000I60000J0D01*
G01*
G37*
G36*
G01*
X68240000Y-80230000D02*
X68540000Y-80230000D01*
G75*
G02*
X68600000Y-80290000I0J-60000D01*
G01*
X68600000Y-81790000D01*
G75*
G02*
X68540000Y-81850000I-60000J0D01*
G01*
X68240000Y-81850000D01*
G75*
G02*
X68180000Y-81790000I0J60000D01*
G01*
X68180000Y-80290000D01*
G75*
G02*
X68240000Y-80230000I60000J0D01*
G01*
G37*
G36*
G01*
X67740000Y-80230000D02*
X68040000Y-80230000D01*
G75*
G02*
X68100000Y-80290000I0J-60000D01*
G01*
X68100000Y-81790000D01*
G75*
G02*
X68040000Y-81850000I-60000J0D01*
G01*
X67740000Y-81850000D01*
G75*
G02*
X67680000Y-81790000I0J60000D01*
G01*
X67680000Y-80290000D01*
G75*
G02*
X67740000Y-80230000I60000J0D01*
G01*
G37*
G36*
G01*
X67240000Y-80230000D02*
X67540000Y-80230000D01*
G75*
G02*
X67600000Y-80290000I0J-60000D01*
G01*
X67600000Y-81790000D01*
G75*
G02*
X67540000Y-81850000I-60000J0D01*
G01*
X67240000Y-81850000D01*
G75*
G02*
X67180000Y-81790000I0J60000D01*
G01*
X67180000Y-80290000D01*
G75*
G02*
X67240000Y-80230000I60000J0D01*
G01*
G37*
G36*
G01*
X66740000Y-80230000D02*
X67040000Y-80230000D01*
G75*
G02*
X67100000Y-80290000I0J-60000D01*
G01*
X67100000Y-81790000D01*
G75*
G02*
X67040000Y-81850000I-60000J0D01*
G01*
X66740000Y-81850000D01*
G75*
G02*
X66680000Y-81790000I0J60000D01*
G01*
X66680000Y-80290000D01*
G75*
G02*
X66740000Y-80230000I60000J0D01*
G01*
G37*
G36*
G01*
X66240000Y-80230000D02*
X66540000Y-80230000D01*
G75*
G02*
X66600000Y-80290000I0J-60000D01*
G01*
X66600000Y-81790000D01*
G75*
G02*
X66540000Y-81850000I-60000J0D01*
G01*
X66240000Y-81850000D01*
G75*
G02*
X66180000Y-81790000I0J60000D01*
G01*
X66180000Y-80290000D01*
G75*
G02*
X66240000Y-80230000I60000J0D01*
G01*
G37*
G36*
G01*
X65740000Y-80230000D02*
X66040000Y-80230000D01*
G75*
G02*
X66100000Y-80290000I0J-60000D01*
G01*
X66100000Y-81790000D01*
G75*
G02*
X66040000Y-81850000I-60000J0D01*
G01*
X65740000Y-81850000D01*
G75*
G02*
X65680000Y-81790000I0J60000D01*
G01*
X65680000Y-80290000D01*
G75*
G02*
X65740000Y-80230000I60000J0D01*
G01*
G37*
G36*
G01*
X65240000Y-80230000D02*
X65540000Y-80230000D01*
G75*
G02*
X65600000Y-80290000I0J-60000D01*
G01*
X65600000Y-81790000D01*
G75*
G02*
X65540000Y-81850000I-60000J0D01*
G01*
X65240000Y-81850000D01*
G75*
G02*
X65180000Y-81790000I0J60000D01*
G01*
X65180000Y-80290000D01*
G75*
G02*
X65240000Y-80230000I60000J0D01*
G01*
G37*
G36*
G01*
X64740000Y-80230000D02*
X65040000Y-80230000D01*
G75*
G02*
X65100000Y-80290000I0J-60000D01*
G01*
X65100000Y-81790000D01*
G75*
G02*
X65040000Y-81850000I-60000J0D01*
G01*
X64740000Y-81850000D01*
G75*
G02*
X64680000Y-81790000I0J60000D01*
G01*
X64680000Y-80290000D01*
G75*
G02*
X64740000Y-80230000I60000J0D01*
G01*
G37*
G36*
G01*
X64240000Y-80230000D02*
X64540000Y-80230000D01*
G75*
G02*
X64600000Y-80290000I0J-60000D01*
G01*
X64600000Y-81790000D01*
G75*
G02*
X64540000Y-81850000I-60000J0D01*
G01*
X64240000Y-81850000D01*
G75*
G02*
X64180000Y-81790000I0J60000D01*
G01*
X64180000Y-80290000D01*
G75*
G02*
X64240000Y-80230000I60000J0D01*
G01*
G37*
G36*
G01*
X63740000Y-80230000D02*
X64040000Y-80230000D01*
G75*
G02*
X64100000Y-80290000I0J-60000D01*
G01*
X64100000Y-81790000D01*
G75*
G02*
X64040000Y-81850000I-60000J0D01*
G01*
X63740000Y-81850000D01*
G75*
G02*
X63680000Y-81790000I0J60000D01*
G01*
X63680000Y-80290000D01*
G75*
G02*
X63740000Y-80230000I60000J0D01*
G01*
G37*
G36*
G01*
X63240000Y-80230000D02*
X63540000Y-80230000D01*
G75*
G02*
X63600000Y-80290000I0J-60000D01*
G01*
X63600000Y-81790000D01*
G75*
G02*
X63540000Y-81850000I-60000J0D01*
G01*
X63240000Y-81850000D01*
G75*
G02*
X63180000Y-81790000I0J60000D01*
G01*
X63180000Y-80290000D01*
G75*
G02*
X63240000Y-80230000I60000J0D01*
G01*
G37*
G36*
G01*
X61130000Y-79740000D02*
X61130000Y-79440000D01*
G75*
G02*
X61190000Y-79380000I60000J0D01*
G01*
X62690000Y-79380000D01*
G75*
G02*
X62750000Y-79440000I0J-60000D01*
G01*
X62750000Y-79740000D01*
G75*
G02*
X62690000Y-79800000I-60000J0D01*
G01*
X61190000Y-79800000D01*
G75*
G02*
X61130000Y-79740000I0J60000D01*
G01*
G37*
G36*
G01*
X61130000Y-79240000D02*
X61130000Y-78940000D01*
G75*
G02*
X61190000Y-78880000I60000J0D01*
G01*
X62690000Y-78880000D01*
G75*
G02*
X62750000Y-78940000I0J-60000D01*
G01*
X62750000Y-79240000D01*
G75*
G02*
X62690000Y-79300000I-60000J0D01*
G01*
X61190000Y-79300000D01*
G75*
G02*
X61130000Y-79240000I0J60000D01*
G01*
G37*
G36*
G01*
X61130000Y-78740000D02*
X61130000Y-78440000D01*
G75*
G02*
X61190000Y-78380000I60000J0D01*
G01*
X62690000Y-78380000D01*
G75*
G02*
X62750000Y-78440000I0J-60000D01*
G01*
X62750000Y-78740000D01*
G75*
G02*
X62690000Y-78800000I-60000J0D01*
G01*
X61190000Y-78800000D01*
G75*
G02*
X61130000Y-78740000I0J60000D01*
G01*
G37*
G36*
G01*
X61130000Y-78240000D02*
X61130000Y-77940000D01*
G75*
G02*
X61190000Y-77880000I60000J0D01*
G01*
X62690000Y-77880000D01*
G75*
G02*
X62750000Y-77940000I0J-60000D01*
G01*
X62750000Y-78240000D01*
G75*
G02*
X62690000Y-78300000I-60000J0D01*
G01*
X61190000Y-78300000D01*
G75*
G02*
X61130000Y-78240000I0J60000D01*
G01*
G37*
G36*
G01*
X61130000Y-77740000D02*
X61130000Y-77440000D01*
G75*
G02*
X61190000Y-77380000I60000J0D01*
G01*
X62690000Y-77380000D01*
G75*
G02*
X62750000Y-77440000I0J-60000D01*
G01*
X62750000Y-77740000D01*
G75*
G02*
X62690000Y-77800000I-60000J0D01*
G01*
X61190000Y-77800000D01*
G75*
G02*
X61130000Y-77740000I0J60000D01*
G01*
G37*
G36*
G01*
X61130000Y-77240000D02*
X61130000Y-76940000D01*
G75*
G02*
X61190000Y-76880000I60000J0D01*
G01*
X62690000Y-76880000D01*
G75*
G02*
X62750000Y-76940000I0J-60000D01*
G01*
X62750000Y-77240000D01*
G75*
G02*
X62690000Y-77300000I-60000J0D01*
G01*
X61190000Y-77300000D01*
G75*
G02*
X61130000Y-77240000I0J60000D01*
G01*
G37*
G36*
G01*
X61130000Y-76740000D02*
X61130000Y-76440000D01*
G75*
G02*
X61190000Y-76380000I60000J0D01*
G01*
X62690000Y-76380000D01*
G75*
G02*
X62750000Y-76440000I0J-60000D01*
G01*
X62750000Y-76740000D01*
G75*
G02*
X62690000Y-76800000I-60000J0D01*
G01*
X61190000Y-76800000D01*
G75*
G02*
X61130000Y-76740000I0J60000D01*
G01*
G37*
G36*
G01*
X61130000Y-76240000D02*
X61130000Y-75940000D01*
G75*
G02*
X61190000Y-75880000I60000J0D01*
G01*
X62690000Y-75880000D01*
G75*
G02*
X62750000Y-75940000I0J-60000D01*
G01*
X62750000Y-76240000D01*
G75*
G02*
X62690000Y-76300000I-60000J0D01*
G01*
X61190000Y-76300000D01*
G75*
G02*
X61130000Y-76240000I0J60000D01*
G01*
G37*
G36*
G01*
X61130000Y-75740000D02*
X61130000Y-75440000D01*
G75*
G02*
X61190000Y-75380000I60000J0D01*
G01*
X62690000Y-75380000D01*
G75*
G02*
X62750000Y-75440000I0J-60000D01*
G01*
X62750000Y-75740000D01*
G75*
G02*
X62690000Y-75800000I-60000J0D01*
G01*
X61190000Y-75800000D01*
G75*
G02*
X61130000Y-75740000I0J60000D01*
G01*
G37*
G36*
G01*
X61130000Y-75240000D02*
X61130000Y-74940000D01*
G75*
G02*
X61190000Y-74880000I60000J0D01*
G01*
X62690000Y-74880000D01*
G75*
G02*
X62750000Y-74940000I0J-60000D01*
G01*
X62750000Y-75240000D01*
G75*
G02*
X62690000Y-75300000I-60000J0D01*
G01*
X61190000Y-75300000D01*
G75*
G02*
X61130000Y-75240000I0J60000D01*
G01*
G37*
G36*
G01*
X61130000Y-74740000D02*
X61130000Y-74440000D01*
G75*
G02*
X61190000Y-74380000I60000J0D01*
G01*
X62690000Y-74380000D01*
G75*
G02*
X62750000Y-74440000I0J-60000D01*
G01*
X62750000Y-74740000D01*
G75*
G02*
X62690000Y-74800000I-60000J0D01*
G01*
X61190000Y-74800000D01*
G75*
G02*
X61130000Y-74740000I0J60000D01*
G01*
G37*
G36*
G01*
X61130000Y-74240000D02*
X61130000Y-73940000D01*
G75*
G02*
X61190000Y-73880000I60000J0D01*
G01*
X62690000Y-73880000D01*
G75*
G02*
X62750000Y-73940000I0J-60000D01*
G01*
X62750000Y-74240000D01*
G75*
G02*
X62690000Y-74300000I-60000J0D01*
G01*
X61190000Y-74300000D01*
G75*
G02*
X61130000Y-74240000I0J60000D01*
G01*
G37*
G36*
G01*
X63240000Y-71830000D02*
X63540000Y-71830000D01*
G75*
G02*
X63600000Y-71890000I0J-60000D01*
G01*
X63600000Y-73390000D01*
G75*
G02*
X63540000Y-73450000I-60000J0D01*
G01*
X63240000Y-73450000D01*
G75*
G02*
X63180000Y-73390000I0J60000D01*
G01*
X63180000Y-71890000D01*
G75*
G02*
X63240000Y-71830000I60000J0D01*
G01*
G37*
G36*
G01*
X63740000Y-71830000D02*
X64040000Y-71830000D01*
G75*
G02*
X64100000Y-71890000I0J-60000D01*
G01*
X64100000Y-73390000D01*
G75*
G02*
X64040000Y-73450000I-60000J0D01*
G01*
X63740000Y-73450000D01*
G75*
G02*
X63680000Y-73390000I0J60000D01*
G01*
X63680000Y-71890000D01*
G75*
G02*
X63740000Y-71830000I60000J0D01*
G01*
G37*
G36*
G01*
X64240000Y-71830000D02*
X64540000Y-71830000D01*
G75*
G02*
X64600000Y-71890000I0J-60000D01*
G01*
X64600000Y-73390000D01*
G75*
G02*
X64540000Y-73450000I-60000J0D01*
G01*
X64240000Y-73450000D01*
G75*
G02*
X64180000Y-73390000I0J60000D01*
G01*
X64180000Y-71890000D01*
G75*
G02*
X64240000Y-71830000I60000J0D01*
G01*
G37*
G36*
G01*
X64740000Y-71830000D02*
X65040000Y-71830000D01*
G75*
G02*
X65100000Y-71890000I0J-60000D01*
G01*
X65100000Y-73390000D01*
G75*
G02*
X65040000Y-73450000I-60000J0D01*
G01*
X64740000Y-73450000D01*
G75*
G02*
X64680000Y-73390000I0J60000D01*
G01*
X64680000Y-71890000D01*
G75*
G02*
X64740000Y-71830000I60000J0D01*
G01*
G37*
G36*
G01*
X65240000Y-71830000D02*
X65540000Y-71830000D01*
G75*
G02*
X65600000Y-71890000I0J-60000D01*
G01*
X65600000Y-73390000D01*
G75*
G02*
X65540000Y-73450000I-60000J0D01*
G01*
X65240000Y-73450000D01*
G75*
G02*
X65180000Y-73390000I0J60000D01*
G01*
X65180000Y-71890000D01*
G75*
G02*
X65240000Y-71830000I60000J0D01*
G01*
G37*
G36*
G01*
X65740000Y-71830000D02*
X66040000Y-71830000D01*
G75*
G02*
X66100000Y-71890000I0J-60000D01*
G01*
X66100000Y-73390000D01*
G75*
G02*
X66040000Y-73450000I-60000J0D01*
G01*
X65740000Y-73450000D01*
G75*
G02*
X65680000Y-73390000I0J60000D01*
G01*
X65680000Y-71890000D01*
G75*
G02*
X65740000Y-71830000I60000J0D01*
G01*
G37*
G36*
G01*
X66240000Y-71830000D02*
X66540000Y-71830000D01*
G75*
G02*
X66600000Y-71890000I0J-60000D01*
G01*
X66600000Y-73390000D01*
G75*
G02*
X66540000Y-73450000I-60000J0D01*
G01*
X66240000Y-73450000D01*
G75*
G02*
X66180000Y-73390000I0J60000D01*
G01*
X66180000Y-71890000D01*
G75*
G02*
X66240000Y-71830000I60000J0D01*
G01*
G37*
G36*
G01*
X66740000Y-71830000D02*
X67040000Y-71830000D01*
G75*
G02*
X67100000Y-71890000I0J-60000D01*
G01*
X67100000Y-73390000D01*
G75*
G02*
X67040000Y-73450000I-60000J0D01*
G01*
X66740000Y-73450000D01*
G75*
G02*
X66680000Y-73390000I0J60000D01*
G01*
X66680000Y-71890000D01*
G75*
G02*
X66740000Y-71830000I60000J0D01*
G01*
G37*
G36*
G01*
X67240000Y-71830000D02*
X67540000Y-71830000D01*
G75*
G02*
X67600000Y-71890000I0J-60000D01*
G01*
X67600000Y-73390000D01*
G75*
G02*
X67540000Y-73450000I-60000J0D01*
G01*
X67240000Y-73450000D01*
G75*
G02*
X67180000Y-73390000I0J60000D01*
G01*
X67180000Y-71890000D01*
G75*
G02*
X67240000Y-71830000I60000J0D01*
G01*
G37*
G36*
G01*
X67740000Y-71830000D02*
X68040000Y-71830000D01*
G75*
G02*
X68100000Y-71890000I0J-60000D01*
G01*
X68100000Y-73390000D01*
G75*
G02*
X68040000Y-73450000I-60000J0D01*
G01*
X67740000Y-73450000D01*
G75*
G02*
X67680000Y-73390000I0J60000D01*
G01*
X67680000Y-71890000D01*
G75*
G02*
X67740000Y-71830000I60000J0D01*
G01*
G37*
G36*
G01*
X68240000Y-71830000D02*
X68540000Y-71830000D01*
G75*
G02*
X68600000Y-71890000I0J-60000D01*
G01*
X68600000Y-73390000D01*
G75*
G02*
X68540000Y-73450000I-60000J0D01*
G01*
X68240000Y-73450000D01*
G75*
G02*
X68180000Y-73390000I0J60000D01*
G01*
X68180000Y-71890000D01*
G75*
G02*
X68240000Y-71830000I60000J0D01*
G01*
G37*
G36*
G01*
X68740000Y-71830000D02*
X69040000Y-71830000D01*
G75*
G02*
X69100000Y-71890000I0J-60000D01*
G01*
X69100000Y-73390000D01*
G75*
G02*
X69040000Y-73450000I-60000J0D01*
G01*
X68740000Y-73450000D01*
G75*
G02*
X68680000Y-73390000I0J60000D01*
G01*
X68680000Y-71890000D01*
G75*
G02*
X68740000Y-71830000I60000J0D01*
G01*
G37*
D19*
X114595000Y-84610000D03*
X113325000Y-84610000D03*
X112055000Y-84610000D03*
X110785000Y-84610000D03*
X110785000Y-79210000D03*
X112055000Y-79210000D03*
X113325000Y-79210000D03*
X114595000Y-79210000D03*
D31*
X32864900Y-54810000D03*
X30921800Y-58810000D03*
D32*
X110300000Y-104000000D03*
X33300000Y-104000000D03*
X110300000Y-36000000D03*
X33300000Y-36000000D03*
G36*
G01*
X59723230Y-91719760D02*
X60274410Y-91719760D01*
G75*
G02*
X60334410Y-91779760I0J-60000D01*
G01*
X60334410Y-92079480D01*
G75*
G02*
X60274410Y-92139480I-60000J0D01*
G01*
X59723230Y-92139480D01*
G75*
G02*
X59663230Y-92079480I0J60000D01*
G01*
X59663230Y-91779760D01*
G75*
G02*
X59723230Y-91719760I60000J0D01*
G01*
G37*
G36*
G01*
X59723230Y-92370140D02*
X60274410Y-92370140D01*
G75*
G02*
X60334410Y-92430140I0J-60000D01*
G01*
X60334410Y-92729860D01*
G75*
G02*
X60274410Y-92789860I-60000J0D01*
G01*
X59723230Y-92789860D01*
G75*
G02*
X59663230Y-92729860I0J60000D01*
G01*
X59663230Y-92430140D01*
G75*
G02*
X59723230Y-92370140I60000J0D01*
G01*
G37*
G36*
G01*
X59723230Y-93020520D02*
X60274410Y-93020520D01*
G75*
G02*
X60334410Y-93080520I0J-60000D01*
G01*
X60334410Y-93380240D01*
G75*
G02*
X60274410Y-93440240I-60000J0D01*
G01*
X59723230Y-93440240D01*
G75*
G02*
X59663230Y-93380240I0J60000D01*
G01*
X59663230Y-93080520D01*
G75*
G02*
X59723230Y-93020520I60000J0D01*
G01*
G37*
G36*
G01*
X58285590Y-93020520D02*
X58836770Y-93020520D01*
G75*
G02*
X58896770Y-93080520I0J-60000D01*
G01*
X58896770Y-93380240D01*
G75*
G02*
X58836770Y-93440240I-60000J0D01*
G01*
X58285590Y-93440240D01*
G75*
G02*
X58225590Y-93380240I0J60000D01*
G01*
X58225590Y-93080520D01*
G75*
G02*
X58285590Y-93020520I60000J0D01*
G01*
G37*
G36*
G01*
X58285590Y-92370140D02*
X58836770Y-92370140D01*
G75*
G02*
X58896770Y-92430140I0J-60000D01*
G01*
X58896770Y-92729860D01*
G75*
G02*
X58836770Y-92789860I-60000J0D01*
G01*
X58285590Y-92789860D01*
G75*
G02*
X58225590Y-92729860I0J60000D01*
G01*
X58225590Y-92430140D01*
G75*
G02*
X58285590Y-92370140I60000J0D01*
G01*
G37*
G36*
G01*
X58285590Y-91719760D02*
X58836770Y-91719760D01*
G75*
G02*
X58896770Y-91779760I0J-60000D01*
G01*
X58896770Y-92079480D01*
G75*
G02*
X58836770Y-92139480I-60000J0D01*
G01*
X58285590Y-92139480D01*
G75*
G02*
X58225590Y-92079480I0J60000D01*
G01*
X58225590Y-91779760D01*
G75*
G02*
X58285590Y-91719760I60000J0D01*
G01*
G37*
G36*
G01*
X46860000Y-68820000D02*
X46560000Y-68820000D01*
G75*
G02*
X46500000Y-68760000I0J60000D01*
G01*
X46500000Y-67360000D01*
G75*
G02*
X46560000Y-67300000I60000J0D01*
G01*
X46860000Y-67300000D01*
G75*
G02*
X46920000Y-67360000I0J-60000D01*
G01*
X46920000Y-68760000D01*
G75*
G02*
X46860000Y-68820000I-60000J0D01*
G01*
G37*
G36*
G01*
X47360000Y-68820000D02*
X47060000Y-68820000D01*
G75*
G02*
X47000000Y-68760000I0J60000D01*
G01*
X47000000Y-67360000D01*
G75*
G02*
X47060000Y-67300000I60000J0D01*
G01*
X47360000Y-67300000D01*
G75*
G02*
X47420000Y-67360000I0J-60000D01*
G01*
X47420000Y-68760000D01*
G75*
G02*
X47360000Y-68820000I-60000J0D01*
G01*
G37*
G36*
G01*
X47860000Y-68820000D02*
X47560000Y-68820000D01*
G75*
G02*
X47500000Y-68760000I0J60000D01*
G01*
X47500000Y-67360000D01*
G75*
G02*
X47560000Y-67300000I60000J0D01*
G01*
X47860000Y-67300000D01*
G75*
G02*
X47920000Y-67360000I0J-60000D01*
G01*
X47920000Y-68760000D01*
G75*
G02*
X47860000Y-68820000I-60000J0D01*
G01*
G37*
G36*
G01*
X48360000Y-68820000D02*
X48060000Y-68820000D01*
G75*
G02*
X48000000Y-68760000I0J60000D01*
G01*
X48000000Y-67360000D01*
G75*
G02*
X48060000Y-67300000I60000J0D01*
G01*
X48360000Y-67300000D01*
G75*
G02*
X48420000Y-67360000I0J-60000D01*
G01*
X48420000Y-68760000D01*
G75*
G02*
X48360000Y-68820000I-60000J0D01*
G01*
G37*
G36*
G01*
X48860000Y-68820000D02*
X48560000Y-68820000D01*
G75*
G02*
X48500000Y-68760000I0J60000D01*
G01*
X48500000Y-67360000D01*
G75*
G02*
X48560000Y-67300000I60000J0D01*
G01*
X48860000Y-67300000D01*
G75*
G02*
X48920000Y-67360000I0J-60000D01*
G01*
X48920000Y-68760000D01*
G75*
G02*
X48860000Y-68820000I-60000J0D01*
G01*
G37*
G36*
G01*
X48860000Y-64420000D02*
X48560000Y-64420000D01*
G75*
G02*
X48500000Y-64360000I0J60000D01*
G01*
X48500000Y-62960000D01*
G75*
G02*
X48560000Y-62900000I60000J0D01*
G01*
X48860000Y-62900000D01*
G75*
G02*
X48920000Y-62960000I0J-60000D01*
G01*
X48920000Y-64360000D01*
G75*
G02*
X48860000Y-64420000I-60000J0D01*
G01*
G37*
G36*
G01*
X48360000Y-64420000D02*
X48060000Y-64420000D01*
G75*
G02*
X48000000Y-64360000I0J60000D01*
G01*
X48000000Y-62960000D01*
G75*
G02*
X48060000Y-62900000I60000J0D01*
G01*
X48360000Y-62900000D01*
G75*
G02*
X48420000Y-62960000I0J-60000D01*
G01*
X48420000Y-64360000D01*
G75*
G02*
X48360000Y-64420000I-60000J0D01*
G01*
G37*
G36*
G01*
X47860000Y-64420000D02*
X47560000Y-64420000D01*
G75*
G02*
X47500000Y-64360000I0J60000D01*
G01*
X47500000Y-62960000D01*
G75*
G02*
X47560000Y-62900000I60000J0D01*
G01*
X47860000Y-62900000D01*
G75*
G02*
X47920000Y-62960000I0J-60000D01*
G01*
X47920000Y-64360000D01*
G75*
G02*
X47860000Y-64420000I-60000J0D01*
G01*
G37*
G36*
G01*
X47360000Y-64420000D02*
X47060000Y-64420000D01*
G75*
G02*
X47000000Y-64360000I0J60000D01*
G01*
X47000000Y-62960000D01*
G75*
G02*
X47060000Y-62900000I60000J0D01*
G01*
X47360000Y-62900000D01*
G75*
G02*
X47420000Y-62960000I0J-60000D01*
G01*
X47420000Y-64360000D01*
G75*
G02*
X47360000Y-64420000I-60000J0D01*
G01*
G37*
G36*
G01*
X46860000Y-64420000D02*
X46560000Y-64420000D01*
G75*
G02*
X46500000Y-64360000I0J60000D01*
G01*
X46500000Y-62960000D01*
G75*
G02*
X46560000Y-62900000I60000J0D01*
G01*
X46860000Y-62900000D01*
G75*
G02*
X46920000Y-62960000I0J-60000D01*
G01*
X46920000Y-64360000D01*
G75*
G02*
X46860000Y-64420000I-60000J0D01*
G01*
G37*
D33*
X66690000Y-94840000D03*
D34*
X71190000Y-95840000D03*
X71190000Y-93840000D03*
D35*
X31180000Y-93150000D03*
X119590000Y-55690000D03*
D36*
X55666854Y-51783146D03*
X50010000Y-57440000D03*
D37*
X50010000Y-57440000D03*
X55666854Y-51783146D03*
D38*
X37750000Y-79420000D03*
D39*
X49500000Y-49790000D03*
X46960000Y-49790000D03*
X52040000Y-49790000D03*
D40*
X113710000Y-44380000D03*
D38*
X50790000Y-36520000D03*
D36*
X77260000Y-91240000D03*
X77260000Y-83240000D03*
D37*
X77260000Y-83240000D03*
X77260000Y-91240000D03*
D36*
X38020000Y-60020000D03*
X46020000Y-60020000D03*
D37*
X46020000Y-60020000D03*
X38020000Y-60020000D03*
D36*
X36930000Y-52760000D03*
X36930000Y-44760000D03*
D37*
X36930000Y-44760000D03*
X36930000Y-52760000D03*
D36*
X20650000Y-53290000D03*
X28650000Y-53290000D03*
D37*
X28650000Y-53290000D03*
X20650000Y-53290000D03*
D36*
X41580000Y-41880000D03*
X41580000Y-49880000D03*
D37*
X41580000Y-49880000D03*
X41580000Y-41880000D03*
D36*
X65150000Y-97910000D03*
X73150000Y-97910000D03*
D37*
X73150000Y-97910000D03*
X65150000Y-97910000D03*
D31*
X45740000Y-44150000D03*
X45740000Y-38150000D03*
X48240000Y-38150000D03*
X43240000Y-44150000D03*
X36464900Y-47490000D03*
X34521800Y-51490000D03*
D41*
X49670000Y-54520000D03*
X52670000Y-54520000D03*
D42*
X55070000Y-38270000D03*
X61530000Y-38270000D03*
D43*
X51970000Y-41340000D03*
X51970000Y-39340000D03*
X39950000Y-46330000D03*
X39950000Y-44330000D03*
X34340000Y-43830000D03*
X34340000Y-45830000D03*
D44*
X30380000Y-51530000D03*
X32380000Y-51530000D03*
X28640000Y-58610000D03*
X26640000Y-58610000D03*
X99420000Y-81500000D03*
X97420000Y-81500000D03*
X108910000Y-57780000D03*
X106910000Y-57780000D03*
X98260000Y-98280000D03*
X96260000Y-98280000D03*
D43*
X100000000Y-91240000D03*
X100000000Y-93240000D03*
X94860000Y-80640000D03*
X94860000Y-78640000D03*
D44*
X92760000Y-74560000D03*
X94760000Y-74560000D03*
D42*
X107520000Y-95730000D03*
X113980000Y-95730000D03*
D41*
X91130000Y-86600000D03*
X88130000Y-86600000D03*
D44*
X92280000Y-90030000D03*
X90280000Y-90030000D03*
X77340000Y-93700000D03*
X79340000Y-93700000D03*
D43*
X85600000Y-74730000D03*
X85600000Y-72730000D03*
D42*
X93450000Y-93980000D03*
X86990000Y-93980000D03*
D45*
X102680000Y-96510000D03*
X102680000Y-102970000D03*
D44*
X109060000Y-69530000D03*
X107060000Y-69530000D03*
D45*
X112720000Y-59840000D03*
X112720000Y-66300000D03*
D43*
X120370000Y-70100000D03*
X120370000Y-72100000D03*
D44*
X116640000Y-67170000D03*
X118640000Y-67170000D03*
X80500000Y-51200000D03*
X82500000Y-51200000D03*
D43*
X64880000Y-85190000D03*
X64880000Y-83190000D03*
X35370000Y-69710000D03*
X35370000Y-71710000D03*
X74910000Y-79110000D03*
X74910000Y-81110000D03*
D44*
X58030000Y-74600000D03*
X60030000Y-74600000D03*
X72670000Y-77110000D03*
X74670000Y-77110000D03*
X42650000Y-63050000D03*
X44650000Y-63050000D03*
X46700000Y-70090000D03*
X44700000Y-70090000D03*
X78080000Y-43870000D03*
X80080000Y-43870000D03*
X48210000Y-61590000D03*
X50210000Y-61590000D03*
X82730000Y-65500000D03*
X84730000Y-65500000D03*
D43*
X80640000Y-68470000D03*
X80640000Y-66470000D03*
X94180000Y-65340000D03*
X94180000Y-67340000D03*
D44*
X74100000Y-64460000D03*
X76100000Y-64460000D03*
X39300000Y-67770000D03*
X37300000Y-67770000D03*
X61990000Y-94900000D03*
X63990000Y-94900000D03*
X50500000Y-94910000D03*
X48500000Y-94910000D03*
G36*
G01*
X34079760Y-65326770D02*
X34079760Y-64775590D01*
G75*
G02*
X34149760Y-64705590I70000J0D01*
G01*
X34449480Y-64705590D01*
G75*
G02*
X34519480Y-64775590I0J-70000D01*
G01*
X34519480Y-65326770D01*
G75*
G02*
X34449480Y-65396770I-70000J0D01*
G01*
X34149760Y-65396770D01*
G75*
G02*
X34079760Y-65326770I0J70000D01*
G01*
G37*
G36*
G01*
X34730140Y-65326770D02*
X34730140Y-64775590D01*
G75*
G02*
X34800140Y-64705590I70000J0D01*
G01*
X35099860Y-64705590D01*
G75*
G02*
X35169860Y-64775590I0J-70000D01*
G01*
X35169860Y-65326770D01*
G75*
G02*
X35099860Y-65396770I-70000J0D01*
G01*
X34800140Y-65396770D01*
G75*
G02*
X34730140Y-65326770I0J70000D01*
G01*
G37*
G36*
G01*
X35380520Y-65326770D02*
X35380520Y-64775590D01*
G75*
G02*
X35450520Y-64705590I70000J0D01*
G01*
X35750240Y-64705590D01*
G75*
G02*
X35820240Y-64775590I0J-70000D01*
G01*
X35820240Y-65326770D01*
G75*
G02*
X35750240Y-65396770I-70000J0D01*
G01*
X35450520Y-65396770D01*
G75*
G02*
X35380520Y-65326770I0J70000D01*
G01*
G37*
G36*
G01*
X35380520Y-66764410D02*
X35380520Y-66213230D01*
G75*
G02*
X35450520Y-66143230I70000J0D01*
G01*
X35750240Y-66143230D01*
G75*
G02*
X35820240Y-66213230I0J-70000D01*
G01*
X35820240Y-66764410D01*
G75*
G02*
X35750240Y-66834410I-70000J0D01*
G01*
X35450520Y-66834410D01*
G75*
G02*
X35380520Y-66764410I0J70000D01*
G01*
G37*
G36*
G01*
X34730140Y-66764410D02*
X34730140Y-66213230D01*
G75*
G02*
X34800140Y-66143230I70000J0D01*
G01*
X35099860Y-66143230D01*
G75*
G02*
X35169860Y-66213230I0J-70000D01*
G01*
X35169860Y-66764410D01*
G75*
G02*
X35099860Y-66834410I-70000J0D01*
G01*
X34800140Y-66834410D01*
G75*
G02*
X34730140Y-66764410I0J70000D01*
G01*
G37*
G36*
G01*
X34079760Y-66764410D02*
X34079760Y-66213230D01*
G75*
G02*
X34149760Y-66143230I70000J0D01*
G01*
X34449480Y-66143230D01*
G75*
G02*
X34519480Y-66213230I0J-70000D01*
G01*
X34519480Y-66764410D01*
G75*
G02*
X34449480Y-66834410I-70000J0D01*
G01*
X34149760Y-66834410D01*
G75*
G02*
X34079760Y-66764410I0J70000D01*
G01*
G37*
D46*
X49850000Y-84480000D03*
X51750000Y-84480000D03*
X51750000Y-86830000D03*
X49850000Y-86830000D03*
D47*
X51930000Y-95020000D03*
X53430000Y-95020000D03*
D48*
X54900000Y-93800000D03*
X54900000Y-95300000D03*
D49*
X31280000Y-65020000D03*
D50*
X24280000Y-77520000D03*
D49*
X28830000Y-62520000D03*
X28830000Y-70020000D03*
X28830000Y-77520000D03*
X31280000Y-75020000D03*
D50*
X24280000Y-62520000D03*
D49*
X19280000Y-72520000D03*
X19280000Y-67520000D03*
D51*
X53366000Y-98770000D03*
X56160000Y-98770000D03*
X58954000Y-98770000D03*
X61748000Y-98770000D03*
X50572000Y-98770000D03*
D52*
X55970000Y-90119240D03*
X54070000Y-90119240D03*
X55020000Y-92118220D03*
D46*
X97720000Y-83620000D03*
X99620000Y-83620000D03*
X102950000Y-83620000D03*
X101050000Y-83620000D03*
X76830000Y-96700000D03*
X74930000Y-96700000D03*
X75660000Y-98760000D03*
X77560000Y-98760000D03*
X103700000Y-59830000D03*
X105600000Y-59830000D03*
D53*
X88410000Y-100050000D03*
X88410000Y-98150000D03*
D46*
X93210000Y-76670000D03*
X95110000Y-76670000D03*
X103680000Y-91420000D03*
X101780000Y-91420000D03*
D53*
X88090000Y-74470000D03*
X88090000Y-72570000D03*
D46*
X80620000Y-95910000D03*
X78720000Y-95910000D03*
X82020000Y-95890000D03*
X83920000Y-95890000D03*
X108860000Y-59830000D03*
X106960000Y-59830000D03*
X107290000Y-74370000D03*
X109190000Y-74370000D03*
X118380000Y-74050000D03*
X116480000Y-74050000D03*
X116540000Y-71810000D03*
X118440000Y-71810000D03*
X107360000Y-71850000D03*
X109260000Y-71850000D03*
D53*
X116640000Y-82280000D03*
X116640000Y-80380000D03*
D46*
X55620000Y-84430000D03*
X53720000Y-84430000D03*
X53720000Y-86800000D03*
X55620000Y-86800000D03*
X37150000Y-73640000D03*
X35250000Y-73640000D03*
X56470000Y-81520000D03*
X54570000Y-81520000D03*
X31640000Y-82160000D03*
X29740000Y-82160000D03*
X22260000Y-82070000D03*
X24160000Y-82070000D03*
D53*
X72310000Y-90130000D03*
X72310000Y-92030000D03*
X63100000Y-92900000D03*
X63100000Y-91000000D03*
D46*
X95730000Y-69210000D03*
X93830000Y-69210000D03*
X56940000Y-88320000D03*
X58840000Y-88320000D03*
X46540000Y-92770000D03*
X44640000Y-92770000D03*
X44650000Y-94950000D03*
X46550000Y-94950000D03*
D28*
G36*
X67160570Y-90864570D02*
G01*
X65159430Y-90864570D01*
X65659430Y-89363430D01*
X66660570Y-89363430D01*
X67160570Y-90864570D01*
G37*
G36*
X65148000Y-91184000D02*
G01*
X67172000Y-91184000D01*
X66672000Y-92708000D01*
X65648000Y-92708000D01*
X65148000Y-91184000D01*
G37*
D54*
X47060000Y-83520000D03*
X39260000Y-83520000D03*
X39260000Y-88020000D03*
X47060000Y-88020000D03*
D55*
X54020000Y-63060000D03*
D56*
X54020000Y-65600000D03*
X54020000Y-68140000D03*
X54020000Y-70680000D03*
G36*
G01*
X47440000Y-53810000D02*
X48040000Y-53810000D01*
G75*
G02*
X48100000Y-53870000I0J-60000D01*
G01*
X48100000Y-54970000D01*
G75*
G02*
X48040000Y-55030000I-60000J0D01*
G01*
X47440000Y-55030000D01*
G75*
G02*
X47380000Y-54970000I0J60000D01*
G01*
X47380000Y-53870000D01*
G75*
G02*
X47440000Y-53810000I60000J0D01*
G01*
G37*
G36*
G01*
X46490000Y-53810000D02*
X47090000Y-53810000D01*
G75*
G02*
X47150000Y-53870000I0J-60000D01*
G01*
X47150000Y-54970000D01*
G75*
G02*
X47090000Y-55030000I-60000J0D01*
G01*
X46490000Y-55030000D01*
G75*
G02*
X46430000Y-54970000I0J60000D01*
G01*
X46430000Y-53870000D01*
G75*
G02*
X46490000Y-53810000I60000J0D01*
G01*
G37*
G36*
G01*
X45540000Y-53810000D02*
X46140000Y-53810000D01*
G75*
G02*
X46200000Y-53870000I0J-60000D01*
G01*
X46200000Y-54970000D01*
G75*
G02*
X46140000Y-55030000I-60000J0D01*
G01*
X45540000Y-55030000D01*
G75*
G02*
X45480000Y-54970000I0J60000D01*
G01*
X45480000Y-53870000D01*
G75*
G02*
X45540000Y-53810000I60000J0D01*
G01*
G37*
G36*
G01*
X45540000Y-56410000D02*
X46140000Y-56410000D01*
G75*
G02*
X46200000Y-56470000I0J-60000D01*
G01*
X46200000Y-57570000D01*
G75*
G02*
X46140000Y-57630000I-60000J0D01*
G01*
X45540000Y-57630000D01*
G75*
G02*
X45480000Y-57570000I0J60000D01*
G01*
X45480000Y-56470000D01*
G75*
G02*
X45540000Y-56410000I60000J0D01*
G01*
G37*
G36*
G01*
X47440000Y-56410000D02*
X48040000Y-56410000D01*
G75*
G02*
X48100000Y-56470000I0J-60000D01*
G01*
X48100000Y-57570000D01*
G75*
G02*
X48040000Y-57630000I-60000J0D01*
G01*
X47440000Y-57630000D01*
G75*
G02*
X47380000Y-57570000I0J60000D01*
G01*
X47380000Y-56470000D01*
G75*
G02*
X47440000Y-56410000I60000J0D01*
G01*
G37*
G36*
G01*
X46490000Y-56410000D02*
X47090000Y-56410000D01*
G75*
G02*
X47150000Y-56470000I0J-60000D01*
G01*
X47150000Y-57570000D01*
G75*
G02*
X47090000Y-57630000I-60000J0D01*
G01*
X46490000Y-57630000D01*
G75*
G02*
X46430000Y-57570000I0J60000D01*
G01*
X46430000Y-56470000D01*
G75*
G02*
X46490000Y-56410000I60000J0D01*
G01*
G37*
D55*
X108920000Y-42090000D03*
D56*
X108920000Y-44630000D03*
X108920000Y-47170000D03*
X108920000Y-49710000D03*
X108920000Y-52250000D03*
X108920000Y-54790000D03*
D57*
X41940000Y-56300000D03*
D58*
X41940000Y-53760000D03*
D59*
X98020000Y-103200000D03*
D60*
X95480000Y-103200000D03*
X92940000Y-103200000D03*
X90400000Y-103200000D03*
X87860000Y-103200000D03*
X85320000Y-103200000D03*
X82780000Y-103200000D03*
X80240000Y-103200000D03*
X77700000Y-103200000D03*
X75160000Y-103200000D03*
D46*
X94840000Y-41790000D03*
X92940000Y-41790000D03*
X53020000Y-73510000D03*
X51120000Y-73510000D03*
D53*
X50640000Y-66630000D03*
X50640000Y-68530000D03*
D59*
X20480000Y-85720000D03*
D60*
X23020000Y-85720000D03*
X25560000Y-85720000D03*
X28100000Y-85720000D03*
D61*
X86756000Y-65355000D03*
X86756000Y-66625000D03*
X86756000Y-67895000D03*
X86756000Y-69165000D03*
X91964000Y-69165000D03*
X91964000Y-67895000D03*
X91964000Y-66625000D03*
X91964000Y-65355000D03*
D46*
X96520000Y-100360000D03*
X98420000Y-100360000D03*
D47*
X33810000Y-63550000D03*
X35310000Y-63550000D03*
D43*
X63260000Y-60410000D03*
X63260000Y-58410000D03*
D62*
X61350000Y-58370000D03*
X61350000Y-57420000D03*
X61350000Y-56470000D03*
X58750000Y-56470000D03*
X58750000Y-58370000D03*
X58750000Y-57420000D03*
D58*
X36060000Y-84560000D03*
D57*
X36060000Y-87100000D03*
X49030000Y-91090000D03*
D58*
X51570000Y-91090000D03*
D57*
X48940000Y-80420000D03*
D58*
X51480000Y-80420000D03*
D44*
X40680000Y-96530000D03*
X42680000Y-96530000D03*
D63*
X37960000Y-99350000D03*
D58*
X40500000Y-99350000D03*
G36*
G01*
X39460000Y-94520000D02*
X39460000Y-95120000D01*
G75*
G02*
X39400000Y-95180000I-60000J0D01*
G01*
X38300000Y-95180000D01*
G75*
G02*
X38240000Y-95120000I0J60000D01*
G01*
X38240000Y-94520000D01*
G75*
G02*
X38300000Y-94460000I60000J0D01*
G01*
X39400000Y-94460000D01*
G75*
G02*
X39460000Y-94520000I0J-60000D01*
G01*
G37*
G36*
G01*
X39460000Y-93570000D02*
X39460000Y-94170000D01*
G75*
G02*
X39400000Y-94230000I-60000J0D01*
G01*
X38300000Y-94230000D01*
G75*
G02*
X38240000Y-94170000I0J60000D01*
G01*
X38240000Y-93570000D01*
G75*
G02*
X38300000Y-93510000I60000J0D01*
G01*
X39400000Y-93510000D01*
G75*
G02*
X39460000Y-93570000I0J-60000D01*
G01*
G37*
G36*
G01*
X39460000Y-92620000D02*
X39460000Y-93220000D01*
G75*
G02*
X39400000Y-93280000I-60000J0D01*
G01*
X38300000Y-93280000D01*
G75*
G02*
X38240000Y-93220000I0J60000D01*
G01*
X38240000Y-92620000D01*
G75*
G02*
X38300000Y-92560000I60000J0D01*
G01*
X39400000Y-92560000D01*
G75*
G02*
X39460000Y-92620000I0J-60000D01*
G01*
G37*
G36*
G01*
X36860000Y-92620000D02*
X36860000Y-93220000D01*
G75*
G02*
X36800000Y-93280000I-60000J0D01*
G01*
X35700000Y-93280000D01*
G75*
G02*
X35640000Y-93220000I0J60000D01*
G01*
X35640000Y-92620000D01*
G75*
G02*
X35700000Y-92560000I60000J0D01*
G01*
X36800000Y-92560000D01*
G75*
G02*
X36860000Y-92620000I0J-60000D01*
G01*
G37*
G36*
G01*
X36860000Y-94520000D02*
X36860000Y-95120000D01*
G75*
G02*
X36800000Y-95180000I-60000J0D01*
G01*
X35700000Y-95180000D01*
G75*
G02*
X35640000Y-95120000I0J60000D01*
G01*
X35640000Y-94520000D01*
G75*
G02*
X35700000Y-94460000I60000J0D01*
G01*
X36800000Y-94460000D01*
G75*
G02*
X36860000Y-94520000I0J-60000D01*
G01*
G37*
G36*
G01*
X36860000Y-93570000D02*
X36860000Y-94170000D01*
G75*
G02*
X36800000Y-94230000I-60000J0D01*
G01*
X35700000Y-94230000D01*
G75*
G02*
X35640000Y-94170000I0J60000D01*
G01*
X35640000Y-93570000D01*
G75*
G02*
X35700000Y-93510000I60000J0D01*
G01*
X36800000Y-93510000D01*
G75*
G02*
X36860000Y-93570000I0J-60000D01*
G01*
G37*
D28*
G36*
X41554570Y-90359430D02*
G01*
X41554570Y-92360570D01*
X40053430Y-91860570D01*
X40053430Y-90859430D01*
X41554570Y-90359430D01*
G37*
G36*
X41874000Y-92372000D02*
G01*
X41874000Y-90348000D01*
X43398000Y-90848000D01*
X43398000Y-91872000D01*
X41874000Y-92372000D01*
G37*
D64*
X41793000Y-92353000D02*
X41577000Y-92353000D01*
X41577000Y-90317000D01*
X41793000Y-90317000D01*
X41793000Y-92353000D01*
D28*
G36*
X41793000Y-92353000D02*
G01*
X41577000Y-92353000D01*
X41577000Y-90317000D01*
X41793000Y-90317000D01*
X41793000Y-92353000D01*
G37*
M02*
