M48
; DRILL file {KiCad (5.1.9-0-10_14)} date Friday, March 04, 2022 at 01:11:10 PM
; FORMAT={3:3/ absolute / metric / suppress leading zeros}
; #@! TF.CreationDate,2022-03-04T13:11:10-05:00
; #@! TF.GenerationSoftware,Kicad,Pcbnew,(5.1.9-0-10_14)
; #@! TF.FileFunction,Plated,1,4,PTH
FMAT,2
METRIC,TZ
T1C0.200
T2C0.330
T3C0.331
T4C1.000
T5C1.001
T6C1.016
T7C1.100
T8C1.300
T9C1.500
T10C2.400
T11C4.000
%
G90
G05
T1
X86640Y-79270
X86640Y-79830
X86640Y-80390
X87110Y-79270
X87130Y-80370
X88470Y-79280
X88480Y-80380
X88950Y-79270
X88950Y-79830
X88960Y-80370
T2
X17880Y-61920
X17910Y-55180
X17910Y-58530
X17930Y-64580
X17940Y-52650
X18140Y-74680
X18140Y-78590
X18230Y-81700
X18230Y-84990
X18320Y-87660
X18920Y-51670
X20680Y-88740
X21460Y-51740
X23780Y-88660
X24480Y-51630
X25110Y-59460
X25680Y-57220
X26630Y-60030
X26880Y-50680
X26940Y-100360
X26960Y-96050
X27000Y-103100
X27090Y-88640
X27110Y-105780
X27130Y-92150
X27210Y-37160
X27210Y-40010
X27210Y-42800
X27270Y-34590
X27270Y-45990
X27330Y-48390
X27880Y-32130
X27950Y-108130
X30120Y-31570
X30380Y-50120
X30800Y-108690
X31710Y-50120
X32800Y-31570
X32900Y-42690
X32960Y-44700
X33070Y-50100
X33090Y-69240
X33820Y-72270
X33840Y-73800
X34160Y-68790
X34210Y-108740
X34300Y-75280
X34340Y-42370
X34940Y-67560
X35540Y-31570
X35960Y-67530
X36160Y-75240
X36690Y-63530
X37330Y-66110
X37500Y-32300
X37730Y-108240
X38170Y-105840
X38420Y-73660
X38440Y-34260
X38470Y-62920
X38490Y-64290
X38940Y-103210
X39370Y-61790
X39430Y-70770
X40070Y-64670
X40115Y-92930
X40200Y-66070
X40260Y-94030
X40380Y-63440
X40670Y-60710
X40970Y-69810
X41070Y-34260
X41300Y-103160
X41324Y-75564
X41510Y-63080
X42150Y-71120
X42270Y-60710
X42300Y-93940
X42840Y-86810
X42840Y-88760
X43130Y-34270
X43280Y-100030
X43310Y-103170
X43350Y-94900
X43400Y-92810
X43440Y-66180
X43510Y-69510
X44120Y-60710
X44690Y-84120
X45450Y-66180
X45480Y-71310
X45610Y-99970
X46000Y-64990
X46020Y-34250
X46640Y-62240
X47080Y-85120
X47090Y-86500
X47266Y-64976
X47710Y-52290
X48040Y-69690
X48330Y-99940
X48650Y-87190
X48680Y-84470
X48880Y-34330
X48890Y-97140
X49370Y-69590
X49530Y-64990
X49720Y-52260
X50010Y-57440
X50180Y-71490
X50440Y-41680
X50460Y-64000
X50920Y-42580
X50950Y-93200
X51330Y-63110
X51540Y-47060
X51590Y-34260
X52030Y-52290
X52710Y-94980
X53060Y-42520
X53380Y-34200
X53550Y-41600
X53620Y-47160
X53660Y-81450
X53780Y-51450
X53840Y-49370
X53980Y-54530
X54880Y-94520
X55460Y-54460
X55530Y-34240
X55620Y-91130
X55667Y-51783
X56300Y-75380
X56380Y-73980
X56551Y-85651
X56660Y-79160
X56840Y-53530
X57000Y-76340
X57350Y-72990
X57480Y-93380
X57550Y-45670
X57970Y-34120
X58310Y-83600
X58330Y-79370
X58600Y-95250
X58797Y-77972
X58960Y-76782
X59610Y-94440
X59700Y-67840
X59750Y-80880
X60030Y-68995
X60190Y-34140
X60370Y-95270
X60448Y-82710
X60510Y-60750
X60570Y-51090
X60700Y-45670
X60700Y-85010
X60820Y-93130
X61565Y-86716
X61580Y-67720
X61850Y-40440
X62230Y-52000
X62260Y-82050
X62460Y-34080
X62730Y-81080
X62830Y-82760
X63070Y-68900
X63140Y-66200
X63210Y-77990
X63210Y-76990
X63268Y-76012
X63277Y-75088
X63580Y-40250
X63600Y-36300
X63727Y-55810
X63810Y-99920
X63850Y-88020
X63880Y-65060
X64010Y-38300
X64380Y-79280
X64700Y-56880
X64700Y-58320
X64703Y-62240
X65296Y-34124
X65342Y-79787
X65570Y-66390
X65590Y-68030
X65810Y-86590
X65838Y-79132
X66090Y-73890
X66180Y-82765
X66190Y-69800
X66680Y-88610
X66714Y-69178
X67040Y-100000
X67070Y-82750
X67295Y-71080
X67330Y-66110
X67370Y-67570
X67380Y-70140
X67470Y-79350
X67550Y-64510
X67630Y-76520
X67880Y-77420
X68000Y-82730
X68170Y-34160
X68390Y-69500
X68850Y-75260
X68920Y-78310
X68979Y-82449
X69030Y-74100
X69090Y-76600
X69130Y-97680
X69280Y-69200
X69460Y-67580
X69580Y-99960
X69580Y-103760
X69840Y-86590
X70280Y-34250
X70460Y-70130
X70470Y-66820
X70730Y-85750
X70800Y-87830
X70821Y-82291
X71170Y-67750
X71320Y-83180
X71610Y-86560
X71831Y-81281
X71930Y-69240
X72340Y-103190
X72380Y-59710
X72530Y-62710
X72530Y-64020
X72710Y-34200
X72820Y-70840
X73480Y-70120
X74045Y-45030
X74160Y-62690
X74560Y-98610
X74860Y-41320
X74900Y-70180
X75070Y-75590
X75200Y-73530
X75270Y-34180
X75330Y-95050
X75520Y-92170
X75704Y-62852
X75830Y-31630
X75830Y-108010
X75890Y-106650
X75900Y-71590
X76060Y-92970
X76210Y-100855
X76280Y-80670
X76350Y-78250
X76960Y-100220
X77260Y-85900
X77940Y-94950
X78050Y-108900
X78229Y-75031
X78230Y-31570
X78300Y-100640
X78430Y-64610
X78570Y-76010
X78801Y-74311
X78880Y-53090
X79100Y-91630
X79190Y-99550
X79220Y-42270
X79965Y-100422
X80020Y-77360
X80190Y-48820
X80602Y-97505
X80699Y-74926
X80900Y-108990
X81030Y-31360
X81200Y-80020
X81240Y-77930
X82400Y-54060
X82426Y-75392
X82550Y-49460
X82830Y-99720
X82970Y-72770
X83360Y-108920
X83650Y-47060
X83740Y-31290
X83870Y-80200
X83870Y-81590
X83950Y-78480
X83990Y-77060
X84090Y-73900
X84170Y-71540
X84190Y-41800
X84680Y-80950
X84700Y-79490
X84730Y-78010
X85130Y-46470
X85507Y-77018
X86040Y-96185
X86080Y-50880
X86600Y-57690
X86749Y-71718
X86820Y-31330
X86890Y-108960
X87920Y-89710
X87920Y-96185
X87955Y-90775
X87970Y-42040
X88470Y-84210
X88870Y-31400
X88997Y-66223
X89170Y-46510
X89210Y-50980
X89600Y-96185
X89650Y-41360
X89660Y-98860
X89750Y-71710
X89880Y-65340
X89990Y-93900
X90060Y-109000
X90410Y-69170
X90450Y-98220
X90660Y-82180
X90711Y-99069
X90790Y-83150
X90930Y-79450
X90940Y-78090
X90980Y-81000
X91140Y-71680
X91300Y-76310
X91300Y-96190
X91330Y-92410
X91620Y-77340
X91700Y-80280
X91720Y-78760
X91720Y-81670
X91970Y-83590
X92030Y-108960
X92090Y-31350
X92440Y-86890
X92490Y-85630
X92550Y-88150
X93060Y-51090
X93060Y-96260
X93070Y-71600
X93100Y-46690
X93300Y-80630
X93351Y-86329
X93360Y-82010
X93430Y-88610
X93460Y-87350
X93540Y-99090
X94030Y-31350
X94280Y-84570
X94310Y-83060
X94540Y-43930
X94590Y-108810
X94650Y-45920
X94730Y-99160
X95230Y-62580
X95270Y-60830
X95310Y-58560
X95420Y-64830
X95550Y-38630
X95590Y-40700
X95610Y-42900
X96280Y-83700
X96280Y-84900
X96620Y-108770
X96690Y-77880
X97220Y-31390
X97420Y-78900
X97420Y-96260
X97430Y-80120
X97660Y-32770
X97920Y-107700
X98040Y-40930
X98060Y-58640
X98060Y-60870
X98070Y-42900
X98100Y-62620
X98120Y-38710
X98150Y-33870
X98315Y-106495
X98490Y-93240
X99220Y-96260
X99355Y-88100
X99570Y-85660
X99750Y-74060
X99750Y-75340
X99950Y-94850
X100320Y-34560
X100640Y-105830
X100840Y-81830
X101580Y-93220
X101820Y-81830
X102270Y-40770
X102300Y-43520
X103140Y-34560
X103180Y-105750
X103940Y-69610
X104310Y-72150
X104690Y-43520
X104750Y-40830
X104900Y-85540
X105290Y-68430
X105310Y-33570
X105330Y-105810
X105400Y-61920
X105600Y-69590
X105720Y-107990
X105750Y-71170
X105960Y-31740
X106000Y-72710
X106100Y-74370
X106780Y-40660
X106900Y-43520
X106970Y-85710
X106970Y-86580
X107280Y-82240
X107540Y-108770
X108320Y-31280
X109320Y-80700
X110110Y-108850
X110720Y-31360
X110770Y-77520
X111000Y-71340
X112910Y-108800
X112960Y-71050
X113230Y-77070
X113440Y-31470
X114680Y-71050
X115200Y-108440
X115660Y-32270
X116010Y-49620
X116170Y-44150
X116170Y-46830
X116210Y-70010
X116240Y-91250
X116280Y-38050
X116280Y-41160
X116290Y-102120
X116310Y-96730
X116310Y-106790
X116320Y-94220
X116340Y-104470
X116360Y-88960
X116370Y-34850
X116370Y-99550
X116640Y-83560
X117400Y-51800
X117460Y-69270
X118340Y-83450
X118360Y-81580
X118770Y-68600
X119060Y-88810
X120090Y-51740
X120440Y-68600
X121770Y-88770
X123100Y-51690
X123290Y-70980
X123330Y-53870
X123360Y-65080
X123380Y-55910
X123380Y-76990
X123380Y-88620
X123420Y-62810
X123430Y-59040
X123440Y-74100
X123480Y-84280
X123520Y-67970
X123530Y-86360
X123550Y-79700
X123560Y-82180
X123560Y-82180
T3
X20650Y-53290
X28650Y-53290
X36930Y-44760
X36930Y-52760
X38020Y-60020
X41580Y-41880
X41580Y-49880
X46020Y-60020
X65150Y-97910
X73150Y-97910
X77260Y-83240
X77260Y-91240
T4
X87800Y-79820
T5
X46960Y-49790
X49500Y-49790
X52040Y-49790
T6
X20480Y-85720
X23020Y-85720
X25560Y-85720
X28100Y-85720
X30922Y-58810
X32865Y-54810
X34522Y-51490
X36060Y-84560
X36060Y-87100
X36465Y-47490
X37750Y-79420
X37960Y-99350
X40500Y-99350
X41940Y-53760
X41940Y-56300
X43240Y-44150
X45740Y-38150
X45740Y-44150
X48240Y-38150
X48940Y-80420
X49030Y-91090
X50790Y-36520
X51480Y-80420
X51570Y-91090
X54020Y-63060
X54020Y-65600
X54020Y-68140
X54020Y-70680
X75160Y-103200
X77700Y-103200
X80240Y-103200
X82780Y-103200
X85320Y-103200
X87860Y-103200
X90400Y-103200
X92940Y-103200
X95480Y-103200
X98020Y-103200
X108920Y-42090
X108920Y-44630
X108920Y-47170
X108920Y-49710
X108920Y-52250
X108920Y-54790
X113710Y-44380
T7
X117390Y-62715
X117390Y-78215
T8
X19280Y-67520
X19280Y-72520
X28830Y-62520
X28830Y-70020
X28830Y-77520
X31280Y-65020
X31280Y-75020
T9
X97390Y-66085
X97390Y-74845
T10
X24280Y-62520
X24280Y-77520
T11
X31180Y-93150
X33300Y-36000
X33300Y-36000
X33300Y-104000
X33300Y-104000
X110300Y-36000
X110300Y-36000
X110300Y-104000
X110300Y-104000
X119590Y-55690
T0
M30
