G04 #@! TF.GenerationSoftware,KiCad,Pcbnew,(5.1.9-0-10_14)*
G04 #@! TF.CreationDate,2022-01-29T13:46:09-05:00*
G04 #@! TF.ProjectId,FlexFox80,466c6578-466f-4783-9830-2e6b69636164,1.10*
G04 #@! TF.SameCoordinates,Original*
G04 #@! TF.FileFunction,Legend,Bot*
G04 #@! TF.FilePolarity,Positive*
%FSLAX46Y46*%
G04 Gerber Fmt 4.6, Leading zero omitted, Abs format (unit mm)*
G04 Created by KiCad (PCBNEW (5.1.9-0-10_14)) date 2022-01-29 13:46:09*
%MOMM*%
%LPD*%
G01*
G04 APERTURE LIST*
%ADD10C,0.175000*%
%ADD11C,0.200000*%
%ADD12C,0.125000*%
%ADD13C,0.500000*%
%ADD14C,0.150000*%
%ADD15C,0.100000*%
%ADD16C,0.250000*%
G04 APERTURE END LIST*
D10*
X52403333Y-67170000D02*
X52436666Y-67270000D01*
X52436666Y-67436666D01*
X52403333Y-67503333D01*
X52370000Y-67536666D01*
X52303333Y-67570000D01*
X52236666Y-67570000D01*
X52170000Y-67536666D01*
X52136666Y-67503333D01*
X52103333Y-67436666D01*
X52070000Y-67303333D01*
X52036666Y-67236666D01*
X52003333Y-67203333D01*
X51936666Y-67170000D01*
X51870000Y-67170000D01*
X51803333Y-67203333D01*
X51770000Y-67236666D01*
X51736666Y-67303333D01*
X51736666Y-67470000D01*
X51770000Y-67570000D01*
X52436666Y-67870000D02*
X51736666Y-67870000D01*
X51736666Y-68036666D01*
X51770000Y-68136666D01*
X51836666Y-68203333D01*
X51903333Y-68236666D01*
X52036666Y-68270000D01*
X52136666Y-68270000D01*
X52270000Y-68236666D01*
X52336666Y-68203333D01*
X52403333Y-68136666D01*
X52436666Y-68036666D01*
X52436666Y-67870000D01*
X52236666Y-68536666D02*
X52236666Y-68870000D01*
X52436666Y-68470000D02*
X51736666Y-68703333D01*
X52436666Y-68936666D01*
X51466666Y-64930000D02*
X52166666Y-65163333D01*
X51466666Y-65396666D01*
X51700000Y-65630000D02*
X52400000Y-65630000D01*
X51733333Y-65630000D02*
X51700000Y-65696666D01*
X51700000Y-65830000D01*
X51733333Y-65896666D01*
X51766666Y-65930000D01*
X51833333Y-65963333D01*
X52033333Y-65963333D01*
X52100000Y-65930000D01*
X52133333Y-65896666D01*
X52166666Y-65830000D01*
X52166666Y-65696666D01*
X52133333Y-65630000D01*
X52303333Y-69776666D02*
X52336666Y-69876666D01*
X52336666Y-70043333D01*
X52303333Y-70110000D01*
X52270000Y-70143333D01*
X52203333Y-70176666D01*
X52136666Y-70176666D01*
X52070000Y-70143333D01*
X52036666Y-70110000D01*
X52003333Y-70043333D01*
X51970000Y-69910000D01*
X51936666Y-69843333D01*
X51903333Y-69810000D01*
X51836666Y-69776666D01*
X51770000Y-69776666D01*
X51703333Y-69810000D01*
X51670000Y-69843333D01*
X51636666Y-69910000D01*
X51636666Y-70076666D01*
X51670000Y-70176666D01*
X52270000Y-70876666D02*
X52303333Y-70843333D01*
X52336666Y-70743333D01*
X52336666Y-70676666D01*
X52303333Y-70576666D01*
X52236666Y-70510000D01*
X52170000Y-70476666D01*
X52036666Y-70443333D01*
X51936666Y-70443333D01*
X51803333Y-70476666D01*
X51736666Y-70510000D01*
X51670000Y-70576666D01*
X51636666Y-70676666D01*
X51636666Y-70743333D01*
X51670000Y-70843333D01*
X51703333Y-70876666D01*
X52336666Y-71510000D02*
X52336666Y-71176666D01*
X51636666Y-71176666D01*
D11*
X81408095Y-107251428D02*
X81741428Y-107251428D01*
X81884285Y-106727619D02*
X81408095Y-106727619D01*
X81408095Y-107727619D01*
X81884285Y-107727619D01*
X82217619Y-106727619D02*
X82741428Y-107394285D01*
X82217619Y-107394285D02*
X82741428Y-106727619D01*
X83122380Y-107394285D02*
X83122380Y-106394285D01*
X83122380Y-107346666D02*
X83217619Y-107394285D01*
X83408095Y-107394285D01*
X83503333Y-107346666D01*
X83550952Y-107299047D01*
X83598571Y-107203809D01*
X83598571Y-106918095D01*
X83550952Y-106822857D01*
X83503333Y-106775238D01*
X83408095Y-106727619D01*
X83217619Y-106727619D01*
X83122380Y-106775238D01*
X84455714Y-106727619D02*
X84455714Y-107251428D01*
X84408095Y-107346666D01*
X84312857Y-107394285D01*
X84122380Y-107394285D01*
X84027142Y-107346666D01*
X84455714Y-106775238D02*
X84360476Y-106727619D01*
X84122380Y-106727619D01*
X84027142Y-106775238D01*
X83979523Y-106870476D01*
X83979523Y-106965714D01*
X84027142Y-107060952D01*
X84122380Y-107108571D01*
X84360476Y-107108571D01*
X84455714Y-107156190D01*
X84931904Y-107394285D02*
X84931904Y-106727619D01*
X84931904Y-107299047D02*
X84979523Y-107346666D01*
X85074761Y-107394285D01*
X85217619Y-107394285D01*
X85312857Y-107346666D01*
X85360476Y-107251428D01*
X85360476Y-106727619D01*
X85789047Y-106775238D02*
X85884285Y-106727619D01*
X86074761Y-106727619D01*
X86170000Y-106775238D01*
X86217619Y-106870476D01*
X86217619Y-106918095D01*
X86170000Y-107013333D01*
X86074761Y-107060952D01*
X85931904Y-107060952D01*
X85836666Y-107108571D01*
X85789047Y-107203809D01*
X85789047Y-107251428D01*
X85836666Y-107346666D01*
X85931904Y-107394285D01*
X86074761Y-107394285D01*
X86170000Y-107346666D01*
X86646190Y-106727619D02*
X86646190Y-107394285D01*
X86646190Y-107727619D02*
X86598571Y-107680000D01*
X86646190Y-107632380D01*
X86693809Y-107680000D01*
X86646190Y-107727619D01*
X86646190Y-107632380D01*
X87265238Y-106727619D02*
X87170000Y-106775238D01*
X87122380Y-106822857D01*
X87074761Y-106918095D01*
X87074761Y-107203809D01*
X87122380Y-107299047D01*
X87170000Y-107346666D01*
X87265238Y-107394285D01*
X87408095Y-107394285D01*
X87503333Y-107346666D01*
X87550952Y-107299047D01*
X87598571Y-107203809D01*
X87598571Y-106918095D01*
X87550952Y-106822857D01*
X87503333Y-106775238D01*
X87408095Y-106727619D01*
X87265238Y-106727619D01*
X88027142Y-107394285D02*
X88027142Y-106727619D01*
X88027142Y-107299047D02*
X88074761Y-107346666D01*
X88170000Y-107394285D01*
X88312857Y-107394285D01*
X88408095Y-107346666D01*
X88455714Y-107251428D01*
X88455714Y-106727619D01*
X90027142Y-107251428D02*
X90170000Y-107203809D01*
X90217619Y-107156190D01*
X90265238Y-107060952D01*
X90265238Y-106918095D01*
X90217619Y-106822857D01*
X90170000Y-106775238D01*
X90074761Y-106727619D01*
X89693809Y-106727619D01*
X89693809Y-107727619D01*
X90027142Y-107727619D01*
X90122380Y-107680000D01*
X90170000Y-107632380D01*
X90217619Y-107537142D01*
X90217619Y-107441904D01*
X90170000Y-107346666D01*
X90122380Y-107299047D01*
X90027142Y-107251428D01*
X89693809Y-107251428D01*
X91122380Y-107394285D02*
X91122380Y-106727619D01*
X90693809Y-107394285D02*
X90693809Y-106870476D01*
X90741428Y-106775238D01*
X90836666Y-106727619D01*
X90979523Y-106727619D01*
X91074761Y-106775238D01*
X91122380Y-106822857D01*
X91550952Y-106775238D02*
X91646190Y-106727619D01*
X91836666Y-106727619D01*
X91931904Y-106775238D01*
X91979523Y-106870476D01*
X91979523Y-106918095D01*
X91931904Y-107013333D01*
X91836666Y-107060952D01*
X91693809Y-107060952D01*
X91598571Y-107108571D01*
X91550952Y-107203809D01*
X91550952Y-107251428D01*
X91598571Y-107346666D01*
X91693809Y-107394285D01*
X91836666Y-107394285D01*
X91931904Y-107346666D01*
D10*
X24213333Y-83820000D02*
X23680000Y-83820000D01*
X23946666Y-84086666D02*
X23946666Y-83553333D01*
X23413333Y-83386666D02*
X22980000Y-83386666D01*
X23213333Y-83653333D01*
X23113333Y-83653333D01*
X23046666Y-83686666D01*
X23013333Y-83720000D01*
X22980000Y-83786666D01*
X22980000Y-83953333D01*
X23013333Y-84020000D01*
X23046666Y-84053333D01*
X23113333Y-84086666D01*
X23313333Y-84086666D01*
X23380000Y-84053333D01*
X23413333Y-84020000D01*
X22780000Y-83386666D02*
X22546666Y-84086666D01*
X22313333Y-83386666D01*
X22146666Y-83386666D02*
X21713333Y-83386666D01*
X21946666Y-83653333D01*
X21846666Y-83653333D01*
X21780000Y-83686666D01*
X21746666Y-83720000D01*
X21713333Y-83786666D01*
X21713333Y-83953333D01*
X21746666Y-84020000D01*
X21780000Y-84053333D01*
X21846666Y-84086666D01*
X22046666Y-84086666D01*
X22113333Y-84053333D01*
X22146666Y-84020000D01*
D11*
X61940000Y-75560000D02*
G75*
G02*
X62020000Y-73900000I870000J790000D01*
G01*
D10*
X29073333Y-84103333D02*
X28973333Y-84136666D01*
X28806666Y-84136666D01*
X28740000Y-84103333D01*
X28706666Y-84070000D01*
X28673333Y-84003333D01*
X28673333Y-83936666D01*
X28706666Y-83870000D01*
X28740000Y-83836666D01*
X28806666Y-83803333D01*
X28940000Y-83770000D01*
X29006666Y-83736666D01*
X29040000Y-83703333D01*
X29073333Y-83636666D01*
X29073333Y-83570000D01*
X29040000Y-83503333D01*
X29006666Y-83470000D01*
X28940000Y-83436666D01*
X28773333Y-83436666D01*
X28673333Y-83470000D01*
X27973333Y-84070000D02*
X28006666Y-84103333D01*
X28106666Y-84136666D01*
X28173333Y-84136666D01*
X28273333Y-84103333D01*
X28340000Y-84036666D01*
X28373333Y-83970000D01*
X28406666Y-83836666D01*
X28406666Y-83736666D01*
X28373333Y-83603333D01*
X28340000Y-83536666D01*
X28273333Y-83470000D01*
X28173333Y-83436666D01*
X28106666Y-83436666D01*
X28006666Y-83470000D01*
X27973333Y-83503333D01*
X27340000Y-84136666D02*
X27673333Y-84136666D01*
X27673333Y-83436666D01*
X26510000Y-84053333D02*
X26410000Y-84086666D01*
X26243333Y-84086666D01*
X26176666Y-84053333D01*
X26143333Y-84020000D01*
X26110000Y-83953333D01*
X26110000Y-83886666D01*
X26143333Y-83820000D01*
X26176666Y-83786666D01*
X26243333Y-83753333D01*
X26376666Y-83720000D01*
X26443333Y-83686666D01*
X26476666Y-83653333D01*
X26510000Y-83586666D01*
X26510000Y-83520000D01*
X26476666Y-83453333D01*
X26443333Y-83420000D01*
X26376666Y-83386666D01*
X26210000Y-83386666D01*
X26110000Y-83420000D01*
X25810000Y-84086666D02*
X25810000Y-83386666D01*
X25643333Y-83386666D01*
X25543333Y-83420000D01*
X25476666Y-83486666D01*
X25443333Y-83553333D01*
X25410000Y-83686666D01*
X25410000Y-83786666D01*
X25443333Y-83920000D01*
X25476666Y-83986666D01*
X25543333Y-84053333D01*
X25643333Y-84086666D01*
X25810000Y-84086666D01*
X25143333Y-83886666D02*
X24810000Y-83886666D01*
X25210000Y-84086666D02*
X24976666Y-83386666D01*
X24743333Y-84086666D01*
X116263333Y-42150000D02*
X116330000Y-42116666D01*
X116430000Y-42116666D01*
X116530000Y-42150000D01*
X116596666Y-42216666D01*
X116630000Y-42283333D01*
X116663333Y-42416666D01*
X116663333Y-42516666D01*
X116630000Y-42650000D01*
X116596666Y-42716666D01*
X116530000Y-42783333D01*
X116430000Y-42816666D01*
X116363333Y-42816666D01*
X116263333Y-42783333D01*
X116230000Y-42750000D01*
X116230000Y-42516666D01*
X116363333Y-42516666D01*
X115930000Y-42816666D02*
X115930000Y-42116666D01*
X115530000Y-42816666D01*
X115530000Y-42116666D01*
X115196666Y-42816666D02*
X115196666Y-42116666D01*
X115030000Y-42116666D01*
X114930000Y-42150000D01*
X114863333Y-42216666D01*
X114830000Y-42283333D01*
X114796666Y-42416666D01*
X114796666Y-42516666D01*
X114830000Y-42650000D01*
X114863333Y-42716666D01*
X114930000Y-42783333D01*
X115030000Y-42816666D01*
X115196666Y-42816666D01*
D12*
X76180952Y-72030000D02*
X76228571Y-72006190D01*
X76300000Y-72006190D01*
X76371428Y-72030000D01*
X76419047Y-72077619D01*
X76442857Y-72125238D01*
X76466666Y-72220476D01*
X76466666Y-72291904D01*
X76442857Y-72387142D01*
X76419047Y-72434761D01*
X76371428Y-72482380D01*
X76300000Y-72506190D01*
X76252380Y-72506190D01*
X76180952Y-72482380D01*
X76157142Y-72458571D01*
X76157142Y-72291904D01*
X76252380Y-72291904D01*
X75942857Y-72506190D02*
X75942857Y-72006190D01*
X75657142Y-72506190D01*
X75657142Y-72006190D01*
X75419047Y-72506190D02*
X75419047Y-72006190D01*
X75300000Y-72006190D01*
X75228571Y-72030000D01*
X75180952Y-72077619D01*
X75157142Y-72125238D01*
X75133333Y-72220476D01*
X75133333Y-72291904D01*
X75157142Y-72387142D01*
X75180952Y-72434761D01*
X75228571Y-72482380D01*
X75300000Y-72506190D01*
X75419047Y-72506190D01*
X76374761Y-75056190D02*
X76374761Y-74556190D01*
X76089047Y-75056190D01*
X76089047Y-74556190D01*
X75493809Y-74532380D02*
X75922380Y-75175238D01*
X75041428Y-75008571D02*
X75065238Y-75032380D01*
X75136666Y-75056190D01*
X75184285Y-75056190D01*
X75255714Y-75032380D01*
X75303333Y-74984761D01*
X75327142Y-74937142D01*
X75350952Y-74841904D01*
X75350952Y-74770476D01*
X75327142Y-74675238D01*
X75303333Y-74627619D01*
X75255714Y-74580000D01*
X75184285Y-74556190D01*
X75136666Y-74556190D01*
X75065238Y-74580000D01*
X75041428Y-74603809D01*
X76918095Y-77056190D02*
X76751428Y-77556190D01*
X76584761Y-77056190D01*
X76418095Y-77222857D02*
X76418095Y-77722857D01*
X76418095Y-77246666D02*
X76370476Y-77222857D01*
X76275238Y-77222857D01*
X76227619Y-77246666D01*
X76203809Y-77270476D01*
X76180000Y-77318095D01*
X76180000Y-77460952D01*
X76203809Y-77508571D01*
X76227619Y-77532380D01*
X76275238Y-77556190D01*
X76370476Y-77556190D01*
X76418095Y-77532380D01*
X75965714Y-77556190D02*
X75965714Y-77222857D01*
X75965714Y-77318095D02*
X75941904Y-77270476D01*
X75918095Y-77246666D01*
X75870476Y-77222857D01*
X75822857Y-77222857D01*
X75584761Y-77556190D02*
X75632380Y-77532380D01*
X75656190Y-77508571D01*
X75680000Y-77460952D01*
X75680000Y-77318095D01*
X75656190Y-77270476D01*
X75632380Y-77246666D01*
X75584761Y-77222857D01*
X75513333Y-77222857D01*
X75465714Y-77246666D01*
X75441904Y-77270476D01*
X75418095Y-77318095D01*
X75418095Y-77460952D01*
X75441904Y-77508571D01*
X75465714Y-77532380D01*
X75513333Y-77556190D01*
X75584761Y-77556190D01*
X74989523Y-77532380D02*
X75037142Y-77556190D01*
X75132380Y-77556190D01*
X75180000Y-77532380D01*
X75203809Y-77508571D01*
X75227619Y-77460952D01*
X75227619Y-77318095D01*
X75203809Y-77270476D01*
X75180000Y-77246666D01*
X75132380Y-77222857D01*
X75037142Y-77222857D01*
X74989523Y-77246666D01*
X63374761Y-75036190D02*
X63374761Y-74536190D01*
X63089047Y-75036190D01*
X63089047Y-74536190D01*
X62493809Y-74512380D02*
X62922380Y-75155238D01*
X62041428Y-74988571D02*
X62065238Y-75012380D01*
X62136666Y-75036190D01*
X62184285Y-75036190D01*
X62255714Y-75012380D01*
X62303333Y-74964761D01*
X62327142Y-74917142D01*
X62350952Y-74821904D01*
X62350952Y-74750476D01*
X62327142Y-74655238D01*
X62303333Y-74607619D01*
X62255714Y-74560000D01*
X62184285Y-74536190D01*
X62136666Y-74536190D01*
X62065238Y-74560000D01*
X62041428Y-74583809D01*
X63391904Y-77096190D02*
X63391904Y-77500952D01*
X63368095Y-77548571D01*
X63344285Y-77572380D01*
X63296666Y-77596190D01*
X63201428Y-77596190D01*
X63153809Y-77572380D01*
X63130000Y-77548571D01*
X63106190Y-77500952D01*
X63106190Y-77096190D01*
X62868095Y-77596190D02*
X62868095Y-77096190D01*
X62677619Y-77096190D01*
X62630000Y-77120000D01*
X62606190Y-77143809D01*
X62582380Y-77191428D01*
X62582380Y-77262857D01*
X62606190Y-77310476D01*
X62630000Y-77334285D01*
X62677619Y-77358095D01*
X62868095Y-77358095D01*
X62368095Y-77596190D02*
X62368095Y-77096190D01*
X62249047Y-77096190D01*
X62177619Y-77120000D01*
X62130000Y-77167619D01*
X62106190Y-77215238D01*
X62082380Y-77310476D01*
X62082380Y-77381904D01*
X62106190Y-77477142D01*
X62130000Y-77524761D01*
X62177619Y-77572380D01*
X62249047Y-77596190D01*
X62368095Y-77596190D01*
X61868095Y-77596190D02*
X61868095Y-77096190D01*
X63414761Y-72486190D02*
X63414761Y-71986190D01*
X63129047Y-72486190D01*
X63129047Y-71986190D01*
X62533809Y-71962380D02*
X62962380Y-72605238D01*
X62081428Y-72438571D02*
X62105238Y-72462380D01*
X62176666Y-72486190D01*
X62224285Y-72486190D01*
X62295714Y-72462380D01*
X62343333Y-72414761D01*
X62367142Y-72367142D01*
X62390952Y-72271904D01*
X62390952Y-72200476D01*
X62367142Y-72105238D01*
X62343333Y-72057619D01*
X62295714Y-72010000D01*
X62224285Y-71986190D01*
X62176666Y-71986190D01*
X62105238Y-72010000D01*
X62081428Y-72033809D01*
D13*
X89952142Y-40747142D02*
X90618809Y-40747142D01*
X90618809Y-41794761D02*
X90618809Y-39794761D01*
X89666428Y-39794761D01*
X88618809Y-41794761D02*
X88809285Y-41699523D01*
X88904523Y-41509047D01*
X88904523Y-39794761D01*
X87095000Y-41699523D02*
X87285476Y-41794761D01*
X87666428Y-41794761D01*
X87856904Y-41699523D01*
X87952142Y-41509047D01*
X87952142Y-40747142D01*
X87856904Y-40556666D01*
X87666428Y-40461428D01*
X87285476Y-40461428D01*
X87095000Y-40556666D01*
X86999761Y-40747142D01*
X86999761Y-40937619D01*
X87952142Y-41128095D01*
X86333095Y-41794761D02*
X85285476Y-40461428D01*
X86333095Y-40461428D02*
X85285476Y-41794761D01*
X83856904Y-40747142D02*
X84523571Y-40747142D01*
X84523571Y-41794761D02*
X84523571Y-39794761D01*
X83571190Y-39794761D01*
X82523571Y-41794761D02*
X82714047Y-41699523D01*
X82809285Y-41604285D01*
X82904523Y-41413809D01*
X82904523Y-40842380D01*
X82809285Y-40651904D01*
X82714047Y-40556666D01*
X82523571Y-40461428D01*
X82237857Y-40461428D01*
X82047380Y-40556666D01*
X81952142Y-40651904D01*
X81856904Y-40842380D01*
X81856904Y-41413809D01*
X81952142Y-41604285D01*
X82047380Y-41699523D01*
X82237857Y-41794761D01*
X82523571Y-41794761D01*
X81190238Y-41794761D02*
X80142619Y-40461428D01*
X81190238Y-40461428D02*
X80142619Y-41794761D01*
X79095000Y-40651904D02*
X79285476Y-40556666D01*
X79380714Y-40461428D01*
X79475952Y-40270952D01*
X79475952Y-40175714D01*
X79380714Y-39985238D01*
X79285476Y-39890000D01*
X79095000Y-39794761D01*
X78714047Y-39794761D01*
X78523571Y-39890000D01*
X78428333Y-39985238D01*
X78333095Y-40175714D01*
X78333095Y-40270952D01*
X78428333Y-40461428D01*
X78523571Y-40556666D01*
X78714047Y-40651904D01*
X79095000Y-40651904D01*
X79285476Y-40747142D01*
X79380714Y-40842380D01*
X79475952Y-41032857D01*
X79475952Y-41413809D01*
X79380714Y-41604285D01*
X79285476Y-41699523D01*
X79095000Y-41794761D01*
X78714047Y-41794761D01*
X78523571Y-41699523D01*
X78428333Y-41604285D01*
X78333095Y-41413809D01*
X78333095Y-41032857D01*
X78428333Y-40842380D01*
X78523571Y-40747142D01*
X78714047Y-40651904D01*
X77095000Y-39794761D02*
X76904523Y-39794761D01*
X76714047Y-39890000D01*
X76618809Y-39985238D01*
X76523571Y-40175714D01*
X76428333Y-40556666D01*
X76428333Y-41032857D01*
X76523571Y-41413809D01*
X76618809Y-41604285D01*
X76714047Y-41699523D01*
X76904523Y-41794761D01*
X77095000Y-41794761D01*
X77285476Y-41699523D01*
X77380714Y-41604285D01*
X77475952Y-41413809D01*
X77571190Y-41032857D01*
X77571190Y-40556666D01*
X77475952Y-40175714D01*
X77380714Y-39985238D01*
X77285476Y-39890000D01*
X77095000Y-39794761D01*
X90904523Y-43294761D02*
X90237857Y-45294761D01*
X89571190Y-43294761D01*
X88142619Y-45199523D02*
X88333095Y-45294761D01*
X88714047Y-45294761D01*
X88904523Y-45199523D01*
X88999761Y-45009047D01*
X88999761Y-44247142D01*
X88904523Y-44056666D01*
X88714047Y-43961428D01*
X88333095Y-43961428D01*
X88142619Y-44056666D01*
X88047380Y-44247142D01*
X88047380Y-44437619D01*
X88999761Y-44628095D01*
X87190238Y-45294761D02*
X87190238Y-43961428D01*
X87190238Y-44342380D02*
X87095000Y-44151904D01*
X86999761Y-44056666D01*
X86809285Y-43961428D01*
X86618809Y-43961428D01*
X86047380Y-45199523D02*
X85856904Y-45294761D01*
X85475952Y-45294761D01*
X85285476Y-45199523D01*
X85190238Y-45009047D01*
X85190238Y-44913809D01*
X85285476Y-44723333D01*
X85475952Y-44628095D01*
X85761666Y-44628095D01*
X85952142Y-44532857D01*
X86047380Y-44342380D01*
X86047380Y-44247142D01*
X85952142Y-44056666D01*
X85761666Y-43961428D01*
X85475952Y-43961428D01*
X85285476Y-44056666D01*
X84333095Y-45294761D02*
X84333095Y-43961428D01*
X84333095Y-43294761D02*
X84428333Y-43390000D01*
X84333095Y-43485238D01*
X84237857Y-43390000D01*
X84333095Y-43294761D01*
X84333095Y-43485238D01*
X83095000Y-45294761D02*
X83285476Y-45199523D01*
X83380714Y-45104285D01*
X83475952Y-44913809D01*
X83475952Y-44342380D01*
X83380714Y-44151904D01*
X83285476Y-44056666D01*
X83095000Y-43961428D01*
X82809285Y-43961428D01*
X82618809Y-44056666D01*
X82523571Y-44151904D01*
X82428333Y-44342380D01*
X82428333Y-44913809D01*
X82523571Y-45104285D01*
X82618809Y-45199523D01*
X82809285Y-45294761D01*
X83095000Y-45294761D01*
X81571190Y-43961428D02*
X81571190Y-45294761D01*
X81571190Y-44151904D02*
X81475952Y-44056666D01*
X81285476Y-43961428D01*
X80999761Y-43961428D01*
X80809285Y-44056666D01*
X80714047Y-44247142D01*
X80714047Y-45294761D01*
X78333095Y-43485238D02*
X78237857Y-43390000D01*
X78047380Y-43294761D01*
X77571190Y-43294761D01*
X77380714Y-43390000D01*
X77285476Y-43485238D01*
X77190238Y-43675714D01*
X77190238Y-43866190D01*
X77285476Y-44151904D01*
X78428333Y-45294761D01*
X77190238Y-45294761D01*
X76333095Y-45104285D02*
X76237857Y-45199523D01*
X76333095Y-45294761D01*
X76428333Y-45199523D01*
X76333095Y-45104285D01*
X76333095Y-45294761D01*
X74999761Y-43294761D02*
X74809285Y-43294761D01*
X74618809Y-43390000D01*
X74523571Y-43485238D01*
X74428333Y-43675714D01*
X74333095Y-44056666D01*
X74333095Y-44532857D01*
X74428333Y-44913809D01*
X74523571Y-45104285D01*
X74618809Y-45199523D01*
X74809285Y-45294761D01*
X74999761Y-45294761D01*
X75190238Y-45199523D01*
X75285476Y-45104285D01*
X75380714Y-44913809D01*
X75475952Y-44532857D01*
X75475952Y-44056666D01*
X75380714Y-43675714D01*
X75285476Y-43485238D01*
X75190238Y-43390000D01*
X74999761Y-43294761D01*
X71952142Y-44532857D02*
X70428333Y-44532857D01*
X67380714Y-43294761D02*
X67380714Y-44723333D01*
X67475952Y-45009047D01*
X67666428Y-45199523D01*
X67952142Y-45294761D01*
X68142619Y-45294761D01*
X65571190Y-45294761D02*
X65571190Y-44247142D01*
X65666428Y-44056666D01*
X65856904Y-43961428D01*
X66237857Y-43961428D01*
X66428333Y-44056666D01*
X65571190Y-45199523D02*
X65761666Y-45294761D01*
X66237857Y-45294761D01*
X66428333Y-45199523D01*
X66523571Y-45009047D01*
X66523571Y-44818571D01*
X66428333Y-44628095D01*
X66237857Y-44532857D01*
X65761666Y-44532857D01*
X65571190Y-44437619D01*
X64618809Y-43961428D02*
X64618809Y-45294761D01*
X64618809Y-44151904D02*
X64523571Y-44056666D01*
X64333095Y-43961428D01*
X64047380Y-43961428D01*
X63856904Y-44056666D01*
X63761666Y-44247142D01*
X63761666Y-45294761D01*
X61380714Y-43485238D02*
X61285476Y-43390000D01*
X61095000Y-43294761D01*
X60618809Y-43294761D01*
X60428333Y-43390000D01*
X60333095Y-43485238D01*
X60237857Y-43675714D01*
X60237857Y-43866190D01*
X60333095Y-44151904D01*
X61475952Y-45294761D01*
X60237857Y-45294761D01*
X58999761Y-43294761D02*
X58809285Y-43294761D01*
X58618809Y-43390000D01*
X58523571Y-43485238D01*
X58428333Y-43675714D01*
X58333095Y-44056666D01*
X58333095Y-44532857D01*
X58428333Y-44913809D01*
X58523571Y-45104285D01*
X58618809Y-45199523D01*
X58809285Y-45294761D01*
X58999761Y-45294761D01*
X59190238Y-45199523D01*
X59285476Y-45104285D01*
X59380714Y-44913809D01*
X59475952Y-44532857D01*
X59475952Y-44056666D01*
X59380714Y-43675714D01*
X59285476Y-43485238D01*
X59190238Y-43390000D01*
X58999761Y-43294761D01*
X57571190Y-43485238D02*
X57475952Y-43390000D01*
X57285476Y-43294761D01*
X56809285Y-43294761D01*
X56618809Y-43390000D01*
X56523571Y-43485238D01*
X56428333Y-43675714D01*
X56428333Y-43866190D01*
X56523571Y-44151904D01*
X57666428Y-45294761D01*
X56428333Y-45294761D01*
X55666428Y-43485238D02*
X55571190Y-43390000D01*
X55380714Y-43294761D01*
X54904523Y-43294761D01*
X54714047Y-43390000D01*
X54618809Y-43485238D01*
X54523571Y-43675714D01*
X54523571Y-43866190D01*
X54618809Y-44151904D01*
X55761666Y-45294761D01*
X54523571Y-45294761D01*
D14*
X66700000Y-76130000D02*
X66700000Y-71050000D01*
X66420000Y-78950000D02*
X67970000Y-78950000D01*
X69240000Y-78670000D02*
X69240000Y-76130000D01*
X69240000Y-76130000D02*
X66700000Y-76130000D01*
X66700000Y-71050000D02*
X71780000Y-71050000D01*
X71780000Y-71050000D02*
X71780000Y-76130000D01*
X66420000Y-78950000D02*
X66420000Y-77400000D01*
X71780000Y-78670000D02*
X69240000Y-78670000D01*
X71780000Y-76130000D02*
X71780000Y-78670000D01*
X127390000Y-61695000D02*
X102390000Y-61695000D01*
X127390000Y-79235000D02*
X102390000Y-79235000D01*
X127390000Y-79235000D02*
X127390000Y-61695000D01*
X102390000Y-61695000D02*
X102390000Y-79235000D01*
X117390000Y-64465000D02*
X117390000Y-76465000D01*
X127390000Y-70465000D02*
X102390000Y-70465000D01*
X121100000Y-30810000D02*
X121100000Y-32360000D01*
X119800000Y-30810000D02*
X121100000Y-30810000D01*
X118276000Y-32106000D02*
X118657000Y-32106000D01*
X118276000Y-32614000D02*
X118657000Y-32614000D01*
X118276000Y-34646000D02*
X118657000Y-34646000D01*
X118276000Y-35154000D02*
X118657000Y-35154000D01*
X118276000Y-37186000D02*
X118657000Y-37186000D01*
X118276000Y-37694000D02*
X118657000Y-37694000D01*
X118276000Y-45314000D02*
X118657000Y-45314000D01*
X118276000Y-44806000D02*
X118657000Y-44806000D01*
X118276000Y-42774000D02*
X118657000Y-42774000D01*
X118276000Y-42266000D02*
X118657000Y-42266000D01*
X118276000Y-40234000D02*
X118657000Y-40234000D01*
X118276000Y-39726000D02*
X118657000Y-39726000D01*
D15*
X54850358Y-52599642D02*
X55110785Y-52339215D01*
X50818223Y-56667698D02*
X51078650Y-56407271D01*
D16*
X51057122Y-57448980D02*
G75*
G03*
X51057122Y-57448980I-1038142J0D01*
G01*
D15*
X77260000Y-90085300D02*
X77260000Y-90453600D01*
X77234600Y-84357600D02*
X77234600Y-84725900D01*
D16*
X78285442Y-83240000D02*
G75*
G03*
X78285442Y-83240000I-1038142J0D01*
G01*
D15*
X39174700Y-60020000D02*
X38806400Y-60020000D01*
X44902400Y-59994600D02*
X44534100Y-59994600D01*
D16*
X47058142Y-60007300D02*
G75*
G03*
X47058142Y-60007300I-1038142J0D01*
G01*
D15*
X36930000Y-51605300D02*
X36930000Y-51973600D01*
X36904600Y-45877600D02*
X36904600Y-46245900D01*
D16*
X37955442Y-44760000D02*
G75*
G03*
X37955442Y-44760000I-1038142J0D01*
G01*
D15*
X21804700Y-53290000D02*
X21436400Y-53290000D01*
X27532400Y-53264600D02*
X27164100Y-53264600D01*
D16*
X29688142Y-53277300D02*
G75*
G03*
X29688142Y-53277300I-1038142J0D01*
G01*
D15*
X41580000Y-43034700D02*
X41580000Y-42666400D01*
X41605400Y-48762400D02*
X41605400Y-48394100D01*
D16*
X42630842Y-49880000D02*
G75*
G03*
X42630842Y-49880000I-1038142J0D01*
G01*
D15*
X66304700Y-97910000D02*
X65936400Y-97910000D01*
X72032400Y-97884600D02*
X71664100Y-97884600D01*
D16*
X74188142Y-97897300D02*
G75*
G03*
X74188142Y-97897300I-1038142J0D01*
G01*
D14*
X71290476Y-80202380D02*
X71290476Y-79202380D01*
X70909523Y-79202380D01*
X70814285Y-79250000D01*
X70766666Y-79297619D01*
X70719047Y-79392857D01*
X70719047Y-79535714D01*
X70766666Y-79630952D01*
X70814285Y-79678571D01*
X70909523Y-79726190D01*
X71290476Y-79726190D01*
X70385714Y-79202380D02*
X69766666Y-79202380D01*
X70100000Y-79583333D01*
X69957142Y-79583333D01*
X69861904Y-79630952D01*
X69814285Y-79678571D01*
X69766666Y-79773809D01*
X69766666Y-80011904D01*
X69814285Y-80107142D01*
X69861904Y-80154761D01*
X69957142Y-80202380D01*
X70242857Y-80202380D01*
X70338095Y-80154761D01*
X70385714Y-80107142D01*
X69147619Y-79202380D02*
X69052380Y-79202380D01*
X68957142Y-79250000D01*
X68909523Y-79297619D01*
X68861904Y-79392857D01*
X68814285Y-79583333D01*
X68814285Y-79821428D01*
X68861904Y-80011904D01*
X68909523Y-80107142D01*
X68957142Y-80154761D01*
X69052380Y-80202380D01*
X69147619Y-80202380D01*
X69242857Y-80154761D01*
X69290476Y-80107142D01*
X69338095Y-80011904D01*
X69385714Y-79821428D01*
X69385714Y-79583333D01*
X69338095Y-79392857D01*
X69290476Y-79297619D01*
X69242857Y-79250000D01*
X69147619Y-79202380D01*
X67861904Y-80202380D02*
X68433333Y-80202380D01*
X68147619Y-80202380D02*
X68147619Y-79202380D01*
X68242857Y-79345238D01*
X68338095Y-79440476D01*
X68433333Y-79488095D01*
X101072380Y-68744523D02*
X100072380Y-68744523D01*
X100072380Y-69125476D01*
X100120000Y-69220714D01*
X100167619Y-69268333D01*
X100262857Y-69315952D01*
X100405714Y-69315952D01*
X100500952Y-69268333D01*
X100548571Y-69220714D01*
X100596190Y-69125476D01*
X100596190Y-68744523D01*
X100167619Y-69696904D02*
X100120000Y-69744523D01*
X100072380Y-69839761D01*
X100072380Y-70077857D01*
X100120000Y-70173095D01*
X100167619Y-70220714D01*
X100262857Y-70268333D01*
X100358095Y-70268333D01*
X100500952Y-70220714D01*
X101072380Y-69649285D01*
X101072380Y-70268333D01*
X100072380Y-70887380D02*
X100072380Y-70982619D01*
X100120000Y-71077857D01*
X100167619Y-71125476D01*
X100262857Y-71173095D01*
X100453333Y-71220714D01*
X100691428Y-71220714D01*
X100881904Y-71173095D01*
X100977142Y-71125476D01*
X101024761Y-71077857D01*
X101072380Y-70982619D01*
X101072380Y-70887380D01*
X101024761Y-70792142D01*
X100977142Y-70744523D01*
X100881904Y-70696904D01*
X100691428Y-70649285D01*
X100453333Y-70649285D01*
X100262857Y-70696904D01*
X100167619Y-70744523D01*
X100120000Y-70792142D01*
X100072380Y-70887380D01*
X100072380Y-71554047D02*
X100072380Y-72173095D01*
X100453333Y-71839761D01*
X100453333Y-71982619D01*
X100500952Y-72077857D01*
X100548571Y-72125476D01*
X100643809Y-72173095D01*
X100881904Y-72173095D01*
X100977142Y-72125476D01*
X101024761Y-72077857D01*
X101072380Y-71982619D01*
X101072380Y-71696904D01*
X101024761Y-71601666D01*
X100977142Y-71554047D01*
X109048571Y-72663095D02*
X109096190Y-72805952D01*
X109143809Y-72853571D01*
X109239047Y-72901190D01*
X109381904Y-72901190D01*
X109477142Y-72853571D01*
X109524761Y-72805952D01*
X109572380Y-72710714D01*
X109572380Y-72329761D01*
X108572380Y-72329761D01*
X108572380Y-72663095D01*
X108620000Y-72758333D01*
X108667619Y-72805952D01*
X108762857Y-72853571D01*
X108858095Y-72853571D01*
X108953333Y-72805952D01*
X109000952Y-72758333D01*
X109048571Y-72663095D01*
X109048571Y-72329761D01*
X109572380Y-73805952D02*
X109572380Y-73329761D01*
X108572380Y-73329761D01*
X109286666Y-74091666D02*
X109286666Y-74567857D01*
X109572380Y-73996428D02*
X108572380Y-74329761D01*
X109572380Y-74663095D01*
X109477142Y-75567857D02*
X109524761Y-75520238D01*
X109572380Y-75377380D01*
X109572380Y-75282142D01*
X109524761Y-75139285D01*
X109429523Y-75044047D01*
X109334285Y-74996428D01*
X109143809Y-74948809D01*
X109000952Y-74948809D01*
X108810476Y-74996428D01*
X108715238Y-75044047D01*
X108620000Y-75139285D01*
X108572380Y-75282142D01*
X108572380Y-75377380D01*
X108620000Y-75520238D01*
X108667619Y-75567857D01*
X109572380Y-75996428D02*
X108572380Y-75996428D01*
X109572380Y-76567857D02*
X109000952Y-76139285D01*
X108572380Y-76567857D02*
X109143809Y-75996428D01*
X109542380Y-65572142D02*
X109066190Y-65238809D01*
X109542380Y-65000714D02*
X108542380Y-65000714D01*
X108542380Y-65381666D01*
X108590000Y-65476904D01*
X108637619Y-65524523D01*
X108732857Y-65572142D01*
X108875714Y-65572142D01*
X108970952Y-65524523D01*
X109018571Y-65476904D01*
X109066190Y-65381666D01*
X109066190Y-65000714D01*
X109018571Y-66000714D02*
X109018571Y-66334047D01*
X109542380Y-66476904D02*
X109542380Y-66000714D01*
X108542380Y-66000714D01*
X108542380Y-66476904D01*
X109542380Y-66905476D02*
X108542380Y-66905476D01*
X108542380Y-67143571D01*
X108590000Y-67286428D01*
X108685238Y-67381666D01*
X108780476Y-67429285D01*
X108970952Y-67476904D01*
X109113809Y-67476904D01*
X109304285Y-67429285D01*
X109399523Y-67381666D01*
X109494761Y-67286428D01*
X109542380Y-67143571D01*
X109542380Y-66905476D01*
X121086666Y-37740000D02*
X121586666Y-37740000D01*
X121686666Y-37706666D01*
X121753333Y-37640000D01*
X121786666Y-37540000D01*
X121786666Y-37473333D01*
X121086666Y-38006666D02*
X121086666Y-38440000D01*
X121353333Y-38206666D01*
X121353333Y-38306666D01*
X121386666Y-38373333D01*
X121420000Y-38406666D01*
X121486666Y-38440000D01*
X121653333Y-38440000D01*
X121720000Y-38406666D01*
X121753333Y-38373333D01*
X121786666Y-38306666D01*
X121786666Y-38106666D01*
X121753333Y-38040000D01*
X121720000Y-38006666D01*
X121086666Y-38873333D02*
X121086666Y-38940000D01*
X121120000Y-39006666D01*
X121153333Y-39040000D01*
X121220000Y-39073333D01*
X121353333Y-39106666D01*
X121520000Y-39106666D01*
X121653333Y-39073333D01*
X121720000Y-39040000D01*
X121753333Y-39006666D01*
X121786666Y-38940000D01*
X121786666Y-38873333D01*
X121753333Y-38806666D01*
X121720000Y-38773333D01*
X121653333Y-38740000D01*
X121520000Y-38706666D01*
X121353333Y-38706666D01*
X121220000Y-38740000D01*
X121153333Y-38773333D01*
X121120000Y-38806666D01*
X121086666Y-38873333D01*
X121153333Y-39373333D02*
X121120000Y-39406666D01*
X121086666Y-39473333D01*
X121086666Y-39640000D01*
X121120000Y-39706666D01*
X121153333Y-39740000D01*
X121220000Y-39773333D01*
X121286666Y-39773333D01*
X121386666Y-39740000D01*
X121786666Y-39340000D01*
X121786666Y-39773333D01*
D15*
X56752094Y-52409103D02*
X56765563Y-52368697D01*
X56805969Y-52328291D01*
X56859844Y-52301353D01*
X56913719Y-52301353D01*
X56954125Y-52314822D01*
X57021468Y-52355228D01*
X57061874Y-52395634D01*
X57102281Y-52462978D01*
X57115749Y-52503384D01*
X57115749Y-52557259D01*
X57088812Y-52611133D01*
X57061874Y-52638071D01*
X57008000Y-52665008D01*
X56981062Y-52665008D01*
X56886781Y-52570727D01*
X56940656Y-52516853D01*
X56886781Y-52813164D02*
X56603939Y-52530321D01*
X56725157Y-52974788D01*
X56442314Y-52691946D01*
X56590470Y-53109475D02*
X56307627Y-52826633D01*
X56240284Y-52893976D01*
X56213346Y-52947851D01*
X56213346Y-53001726D01*
X56226815Y-53042132D01*
X56267221Y-53109475D01*
X56307627Y-53149881D01*
X56374971Y-53190288D01*
X56415377Y-53203756D01*
X56469252Y-53203756D01*
X56523126Y-53176819D01*
X56590470Y-53109475D01*
X78090000Y-89965238D02*
X78070952Y-89927142D01*
X78070952Y-89870000D01*
X78090000Y-89812857D01*
X78128095Y-89774761D01*
X78166190Y-89755714D01*
X78242380Y-89736666D01*
X78299523Y-89736666D01*
X78375714Y-89755714D01*
X78413809Y-89774761D01*
X78451904Y-89812857D01*
X78470952Y-89870000D01*
X78470952Y-89908095D01*
X78451904Y-89965238D01*
X78432857Y-89984285D01*
X78299523Y-89984285D01*
X78299523Y-89908095D01*
X78470952Y-90155714D02*
X78070952Y-90155714D01*
X78470952Y-90384285D01*
X78070952Y-90384285D01*
X78470952Y-90574761D02*
X78070952Y-90574761D01*
X78070952Y-90670000D01*
X78090000Y-90727142D01*
X78128095Y-90765238D01*
X78166190Y-90784285D01*
X78242380Y-90803333D01*
X78299523Y-90803333D01*
X78375714Y-90784285D01*
X78413809Y-90765238D01*
X78451904Y-90727142D01*
X78470952Y-90670000D01*
X78470952Y-90574761D01*
X39824761Y-59330000D02*
X39862857Y-59310952D01*
X39920000Y-59310952D01*
X39977142Y-59330000D01*
X40015238Y-59368095D01*
X40034285Y-59406190D01*
X40053333Y-59482380D01*
X40053333Y-59539523D01*
X40034285Y-59615714D01*
X40015238Y-59653809D01*
X39977142Y-59691904D01*
X39920000Y-59710952D01*
X39881904Y-59710952D01*
X39824761Y-59691904D01*
X39805714Y-59672857D01*
X39805714Y-59539523D01*
X39881904Y-59539523D01*
X39634285Y-59710952D02*
X39634285Y-59310952D01*
X39405714Y-59710952D01*
X39405714Y-59310952D01*
X39215238Y-59710952D02*
X39215238Y-59310952D01*
X39120000Y-59310952D01*
X39062857Y-59330000D01*
X39024761Y-59368095D01*
X39005714Y-59406190D01*
X38986666Y-59482380D01*
X38986666Y-59539523D01*
X39005714Y-59615714D01*
X39024761Y-59653809D01*
X39062857Y-59691904D01*
X39120000Y-59710952D01*
X39215238Y-59710952D01*
X37980000Y-52685238D02*
X37960952Y-52647142D01*
X37960952Y-52590000D01*
X37980000Y-52532857D01*
X38018095Y-52494761D01*
X38056190Y-52475714D01*
X38132380Y-52456666D01*
X38189523Y-52456666D01*
X38265714Y-52475714D01*
X38303809Y-52494761D01*
X38341904Y-52532857D01*
X38360952Y-52590000D01*
X38360952Y-52628095D01*
X38341904Y-52685238D01*
X38322857Y-52704285D01*
X38189523Y-52704285D01*
X38189523Y-52628095D01*
X38360952Y-52875714D02*
X37960952Y-52875714D01*
X38360952Y-53104285D01*
X37960952Y-53104285D01*
X38360952Y-53294761D02*
X37960952Y-53294761D01*
X37960952Y-53390000D01*
X37980000Y-53447142D01*
X38018095Y-53485238D01*
X38056190Y-53504285D01*
X38132380Y-53523333D01*
X38189523Y-53523333D01*
X38265714Y-53504285D01*
X38303809Y-53485238D01*
X38341904Y-53447142D01*
X38360952Y-53390000D01*
X38360952Y-53294761D01*
X20934761Y-51680000D02*
X20972857Y-51660952D01*
X21030000Y-51660952D01*
X21087142Y-51680000D01*
X21125238Y-51718095D01*
X21144285Y-51756190D01*
X21163333Y-51832380D01*
X21163333Y-51889523D01*
X21144285Y-51965714D01*
X21125238Y-52003809D01*
X21087142Y-52041904D01*
X21030000Y-52060952D01*
X20991904Y-52060952D01*
X20934761Y-52041904D01*
X20915714Y-52022857D01*
X20915714Y-51889523D01*
X20991904Y-51889523D01*
X20744285Y-52060952D02*
X20744285Y-51660952D01*
X20515714Y-52060952D01*
X20515714Y-51660952D01*
X20325238Y-52060952D02*
X20325238Y-51660952D01*
X20230000Y-51660952D01*
X20172857Y-51680000D01*
X20134761Y-51718095D01*
X20115714Y-51756190D01*
X20096666Y-51832380D01*
X20096666Y-51889523D01*
X20115714Y-51965714D01*
X20134761Y-52003809D01*
X20172857Y-52041904D01*
X20230000Y-52060952D01*
X20325238Y-52060952D01*
X42790000Y-41555238D02*
X42770952Y-41517142D01*
X42770952Y-41460000D01*
X42790000Y-41402857D01*
X42828095Y-41364761D01*
X42866190Y-41345714D01*
X42942380Y-41326666D01*
X42999523Y-41326666D01*
X43075714Y-41345714D01*
X43113809Y-41364761D01*
X43151904Y-41402857D01*
X43170952Y-41460000D01*
X43170952Y-41498095D01*
X43151904Y-41555238D01*
X43132857Y-41574285D01*
X42999523Y-41574285D01*
X42999523Y-41498095D01*
X43170952Y-41745714D02*
X42770952Y-41745714D01*
X43170952Y-41974285D01*
X42770952Y-41974285D01*
X43170952Y-42164761D02*
X42770952Y-42164761D01*
X42770952Y-42260000D01*
X42790000Y-42317142D01*
X42828095Y-42355238D01*
X42866190Y-42374285D01*
X42942380Y-42393333D01*
X42999523Y-42393333D01*
X43075714Y-42374285D01*
X43113809Y-42355238D01*
X43151904Y-42317142D01*
X43170952Y-42260000D01*
X43170952Y-42164761D01*
X63984761Y-97230000D02*
X64022857Y-97210952D01*
X64080000Y-97210952D01*
X64137142Y-97230000D01*
X64175238Y-97268095D01*
X64194285Y-97306190D01*
X64213333Y-97382380D01*
X64213333Y-97439523D01*
X64194285Y-97515714D01*
X64175238Y-97553809D01*
X64137142Y-97591904D01*
X64080000Y-97610952D01*
X64041904Y-97610952D01*
X63984761Y-97591904D01*
X63965714Y-97572857D01*
X63965714Y-97439523D01*
X64041904Y-97439523D01*
X63794285Y-97610952D02*
X63794285Y-97210952D01*
X63565714Y-97610952D01*
X63565714Y-97210952D01*
X63375238Y-97610952D02*
X63375238Y-97210952D01*
X63280000Y-97210952D01*
X63222857Y-97230000D01*
X63184761Y-97268095D01*
X63165714Y-97306190D01*
X63146666Y-97382380D01*
X63146666Y-97439523D01*
X63165714Y-97515714D01*
X63184761Y-97553809D01*
X63222857Y-97591904D01*
X63280000Y-97610952D01*
X63375238Y-97610952D01*
M02*
