G04 #@! TF.GenerationSoftware,KiCad,Pcbnew,(5.1.9-0-10_14)*
G04 #@! TF.CreationDate,2022-02-27T13:46:45-05:00*
G04 #@! TF.ProjectId,FlexFox80,466c6578-466f-4783-9830-2e6b69636164,1.10*
G04 #@! TF.SameCoordinates,Original*
G04 #@! TF.FileFunction,Soldermask,Top*
G04 #@! TF.FilePolarity,Negative*
%FSLAX46Y46*%
G04 Gerber Fmt 4.6, Leading zero omitted, Abs format (unit mm)*
G04 Created by KiCad (PCBNEW (5.1.9-0-10_14)) date 2022-02-27 13:46:45*
%MOMM*%
%LPD*%
G01*
G04 APERTURE LIST*
%ADD10C,0.540000*%
%ADD11C,0.100000*%
%ADD12C,2.640000*%
%ADD13C,2.240000*%
%ADD14C,2.140000*%
%ADD15C,1.440000*%
%ADD16C,1.140000*%
%ADD17C,6.140000*%
%ADD18C,1.664000*%
%ADD19C,0.740000*%
%ADD20C,2.375200*%
%ADD21O,1.839260X3.640120*%
%ADD22C,2.440000*%
%ADD23C,3.640000*%
%ADD24O,2.172000X1.867200*%
%ADD25O,2.172000X2.172000*%
%ADD26O,1.867200X2.172000*%
%ADD27C,2.172000*%
%ADD28C,0.254000*%
G04 APERTURE END LIST*
D10*
X87730000Y-79290000D03*
X87750000Y-79810000D03*
X87760000Y-80370000D03*
X87170000Y-79830000D03*
X88350000Y-79830000D03*
X87150000Y-79280000D03*
X87210000Y-80380000D03*
X86640000Y-79830000D03*
X88950000Y-79830000D03*
X88960000Y-80370000D03*
X88360000Y-80360000D03*
X88950000Y-79270000D03*
X88350000Y-79300000D03*
X86640000Y-79270000D03*
X86640000Y-80390000D03*
G36*
G01*
X89292500Y-79004500D02*
X89292500Y-80655500D01*
G75*
G02*
X89222500Y-80725500I-70000J0D01*
G01*
X86377500Y-80725500D01*
G75*
G02*
X86307500Y-80655500I0J70000D01*
G01*
X86307500Y-79004500D01*
G75*
G02*
X86377500Y-78934500I70000J0D01*
G01*
X89222500Y-78934500D01*
G75*
G02*
X89292500Y-79004500I0J-70000D01*
G01*
G37*
G36*
G01*
X88395000Y-81430000D02*
X88395000Y-82319000D01*
G75*
G02*
X88335000Y-82379000I-60000J0D01*
G01*
X87915000Y-82379000D01*
G75*
G02*
X87855000Y-82319000I0J60000D01*
G01*
X87855000Y-81430000D01*
G75*
G02*
X87915000Y-81370000I60000J0D01*
G01*
X88335000Y-81370000D01*
G75*
G02*
X88395000Y-81430000I0J-60000D01*
G01*
G37*
G36*
G01*
X87745000Y-81430000D02*
X87745000Y-82319000D01*
G75*
G02*
X87685000Y-82379000I-60000J0D01*
G01*
X87265000Y-82379000D01*
G75*
G02*
X87205000Y-82319000I0J60000D01*
G01*
X87205000Y-81430000D01*
G75*
G02*
X87265000Y-81370000I60000J0D01*
G01*
X87685000Y-81370000D01*
G75*
G02*
X87745000Y-81430000I0J-60000D01*
G01*
G37*
G36*
G01*
X87095000Y-81430000D02*
X87095000Y-82319000D01*
G75*
G02*
X87035000Y-82379000I-60000J0D01*
G01*
X86615000Y-82379000D01*
G75*
G02*
X86555000Y-82319000I0J60000D01*
G01*
X86555000Y-81430000D01*
G75*
G02*
X86615000Y-81370000I60000J0D01*
G01*
X87035000Y-81370000D01*
G75*
G02*
X87095000Y-81430000I0J-60000D01*
G01*
G37*
G36*
G01*
X86445000Y-81430000D02*
X86445000Y-82319000D01*
G75*
G02*
X86385000Y-82379000I-60000J0D01*
G01*
X85965000Y-82379000D01*
G75*
G02*
X85905000Y-82319000I0J60000D01*
G01*
X85905000Y-81430000D01*
G75*
G02*
X85965000Y-81370000I60000J0D01*
G01*
X86385000Y-81370000D01*
G75*
G02*
X86445000Y-81430000I0J-60000D01*
G01*
G37*
G36*
G01*
X87745000Y-77341000D02*
X87745000Y-78230000D01*
G75*
G02*
X87685000Y-78290000I-60000J0D01*
G01*
X87265000Y-78290000D01*
G75*
G02*
X87205000Y-78230000I0J60000D01*
G01*
X87205000Y-77341000D01*
G75*
G02*
X87265000Y-77281000I60000J0D01*
G01*
X87685000Y-77281000D01*
G75*
G02*
X87745000Y-77341000I0J-60000D01*
G01*
G37*
G36*
G01*
X88395000Y-77341000D02*
X88395000Y-78230000D01*
G75*
G02*
X88335000Y-78290000I-60000J0D01*
G01*
X87915000Y-78290000D01*
G75*
G02*
X87855000Y-78230000I0J60000D01*
G01*
X87855000Y-77341000D01*
G75*
G02*
X87915000Y-77281000I60000J0D01*
G01*
X88335000Y-77281000D01*
G75*
G02*
X88395000Y-77341000I0J-60000D01*
G01*
G37*
G36*
G01*
X89045000Y-77341000D02*
X89045000Y-78230000D01*
G75*
G02*
X88985000Y-78290000I-60000J0D01*
G01*
X88565000Y-78290000D01*
G75*
G02*
X88505000Y-78230000I0J60000D01*
G01*
X88505000Y-77341000D01*
G75*
G02*
X88565000Y-77281000I60000J0D01*
G01*
X88985000Y-77281000D01*
G75*
G02*
X89045000Y-77341000I0J-60000D01*
G01*
G37*
G36*
G01*
X89695000Y-77340500D02*
X89695000Y-78229500D01*
G75*
G02*
X89635000Y-78289500I-60000J0D01*
G01*
X89215000Y-78289500D01*
G75*
G02*
X89155000Y-78229500I0J60000D01*
G01*
X89155000Y-77340500D01*
G75*
G02*
X89215000Y-77280500I60000J0D01*
G01*
X89635000Y-77280500D01*
G75*
G02*
X89695000Y-77340500I0J-60000D01*
G01*
G37*
G36*
G01*
X89045000Y-81430000D02*
X89045000Y-82319000D01*
G75*
G02*
X88985000Y-82379000I-60000J0D01*
G01*
X88565000Y-82379000D01*
G75*
G02*
X88505000Y-82319000I0J60000D01*
G01*
X88505000Y-81430000D01*
G75*
G02*
X88565000Y-81370000I60000J0D01*
G01*
X88985000Y-81370000D01*
G75*
G02*
X89045000Y-81430000I0J-60000D01*
G01*
G37*
G36*
G01*
X89695000Y-81430500D02*
X89695000Y-82319500D01*
G75*
G02*
X89635000Y-82379500I-60000J0D01*
G01*
X89215000Y-82379500D01*
G75*
G02*
X89155000Y-82319500I0J60000D01*
G01*
X89155000Y-81430500D01*
G75*
G02*
X89215000Y-81370500I60000J0D01*
G01*
X89635000Y-81370500D01*
G75*
G02*
X89695000Y-81430500I0J-60000D01*
G01*
G37*
G36*
G01*
X87095000Y-77341000D02*
X87095000Y-78230000D01*
G75*
G02*
X87035000Y-78290000I-60000J0D01*
G01*
X86615000Y-78290000D01*
G75*
G02*
X86555000Y-78230000I0J60000D01*
G01*
X86555000Y-77341000D01*
G75*
G02*
X86615000Y-77281000I60000J0D01*
G01*
X87035000Y-77281000D01*
G75*
G02*
X87095000Y-77341000I0J-60000D01*
G01*
G37*
G36*
G01*
X86445000Y-77341000D02*
X86445000Y-78230000D01*
G75*
G02*
X86385000Y-78290000I-60000J0D01*
G01*
X85965000Y-78290000D01*
G75*
G02*
X85905000Y-78230000I0J60000D01*
G01*
X85905000Y-77341000D01*
G75*
G02*
X85965000Y-77281000I60000J0D01*
G01*
X86385000Y-77281000D01*
G75*
G02*
X86445000Y-77341000I0J-60000D01*
G01*
G37*
G36*
G01*
X97441255Y-71976259D02*
X99986259Y-69431255D01*
G75*
G02*
X100085253Y-69431255I49497J-49497D01*
G01*
X101498745Y-70844747D01*
G75*
G02*
X101498745Y-70943741I-49497J-49497D01*
G01*
X98953741Y-73488745D01*
G75*
G02*
X98854747Y-73488745I-49497J49497D01*
G01*
X97441255Y-72075253D01*
G75*
G02*
X97441255Y-71976259I49497J49497D01*
G01*
G37*
D11*
G36*
X102851757Y-77485756D02*
G01*
X105495756Y-74841757D01*
X107008243Y-76354244D01*
X104364244Y-78998243D01*
X102851757Y-77485756D01*
G37*
G36*
G01*
X84329590Y-92030293D02*
X80730410Y-92030293D01*
G75*
G02*
X80660410Y-91960293I0J70000D01*
G01*
X80660410Y-89961313D01*
G75*
G02*
X80730410Y-89891313I70000J0D01*
G01*
X84329590Y-89891313D01*
G75*
G02*
X84399590Y-89961313I0J-70000D01*
G01*
X84399590Y-91960293D01*
G75*
G02*
X84329590Y-92030293I-70000J0D01*
G01*
G37*
G36*
X84399590Y-84308687D02*
G01*
X80660410Y-84308687D01*
X80660410Y-82169707D01*
X84399590Y-82169707D01*
X84399590Y-84308687D01*
G37*
G36*
G01*
X30835000Y-54850000D02*
X30085000Y-54850000D01*
G75*
G02*
X30015000Y-54780000I0J70000D01*
G01*
X30015000Y-53980000D01*
G75*
G02*
X30085000Y-53910000I70000J0D01*
G01*
X30835000Y-53910000D01*
G75*
G02*
X30905000Y-53980000I0J-70000D01*
G01*
X30905000Y-54780000D01*
G75*
G02*
X30835000Y-54850000I-70000J0D01*
G01*
G37*
G36*
G01*
X30835000Y-56350000D02*
X30085000Y-56350000D01*
G75*
G02*
X30015000Y-56280000I0J70000D01*
G01*
X30015000Y-55480000D01*
G75*
G02*
X30085000Y-55410000I70000J0D01*
G01*
X30835000Y-55410000D01*
G75*
G02*
X30905000Y-55480000I0J-70000D01*
G01*
X30905000Y-56280000D01*
G75*
G02*
X30835000Y-56350000I-70000J0D01*
G01*
G37*
G36*
G01*
X69530000Y-74240000D02*
X69530000Y-73940000D01*
G75*
G02*
X69590000Y-73880000I60000J0D01*
G01*
X71090000Y-73880000D01*
G75*
G02*
X71150000Y-73940000I0J-60000D01*
G01*
X71150000Y-74240000D01*
G75*
G02*
X71090000Y-74300000I-60000J0D01*
G01*
X69590000Y-74300000D01*
G75*
G02*
X69530000Y-74240000I0J60000D01*
G01*
G37*
G36*
G01*
X69530000Y-74740000D02*
X69530000Y-74440000D01*
G75*
G02*
X69590000Y-74380000I60000J0D01*
G01*
X71090000Y-74380000D01*
G75*
G02*
X71150000Y-74440000I0J-60000D01*
G01*
X71150000Y-74740000D01*
G75*
G02*
X71090000Y-74800000I-60000J0D01*
G01*
X69590000Y-74800000D01*
G75*
G02*
X69530000Y-74740000I0J60000D01*
G01*
G37*
G36*
G01*
X69530000Y-75240000D02*
X69530000Y-74940000D01*
G75*
G02*
X69590000Y-74880000I60000J0D01*
G01*
X71090000Y-74880000D01*
G75*
G02*
X71150000Y-74940000I0J-60000D01*
G01*
X71150000Y-75240000D01*
G75*
G02*
X71090000Y-75300000I-60000J0D01*
G01*
X69590000Y-75300000D01*
G75*
G02*
X69530000Y-75240000I0J60000D01*
G01*
G37*
G36*
G01*
X69530000Y-75740000D02*
X69530000Y-75440000D01*
G75*
G02*
X69590000Y-75380000I60000J0D01*
G01*
X71090000Y-75380000D01*
G75*
G02*
X71150000Y-75440000I0J-60000D01*
G01*
X71150000Y-75740000D01*
G75*
G02*
X71090000Y-75800000I-60000J0D01*
G01*
X69590000Y-75800000D01*
G75*
G02*
X69530000Y-75740000I0J60000D01*
G01*
G37*
G36*
G01*
X69530000Y-76240000D02*
X69530000Y-75940000D01*
G75*
G02*
X69590000Y-75880000I60000J0D01*
G01*
X71090000Y-75880000D01*
G75*
G02*
X71150000Y-75940000I0J-60000D01*
G01*
X71150000Y-76240000D01*
G75*
G02*
X71090000Y-76300000I-60000J0D01*
G01*
X69590000Y-76300000D01*
G75*
G02*
X69530000Y-76240000I0J60000D01*
G01*
G37*
G36*
G01*
X69530000Y-76740000D02*
X69530000Y-76440000D01*
G75*
G02*
X69590000Y-76380000I60000J0D01*
G01*
X71090000Y-76380000D01*
G75*
G02*
X71150000Y-76440000I0J-60000D01*
G01*
X71150000Y-76740000D01*
G75*
G02*
X71090000Y-76800000I-60000J0D01*
G01*
X69590000Y-76800000D01*
G75*
G02*
X69530000Y-76740000I0J60000D01*
G01*
G37*
G36*
G01*
X69530000Y-77240000D02*
X69530000Y-76940000D01*
G75*
G02*
X69590000Y-76880000I60000J0D01*
G01*
X71090000Y-76880000D01*
G75*
G02*
X71150000Y-76940000I0J-60000D01*
G01*
X71150000Y-77240000D01*
G75*
G02*
X71090000Y-77300000I-60000J0D01*
G01*
X69590000Y-77300000D01*
G75*
G02*
X69530000Y-77240000I0J60000D01*
G01*
G37*
G36*
G01*
X69530000Y-77740000D02*
X69530000Y-77440000D01*
G75*
G02*
X69590000Y-77380000I60000J0D01*
G01*
X71090000Y-77380000D01*
G75*
G02*
X71150000Y-77440000I0J-60000D01*
G01*
X71150000Y-77740000D01*
G75*
G02*
X71090000Y-77800000I-60000J0D01*
G01*
X69590000Y-77800000D01*
G75*
G02*
X69530000Y-77740000I0J60000D01*
G01*
G37*
G36*
G01*
X69530000Y-78240000D02*
X69530000Y-77940000D01*
G75*
G02*
X69590000Y-77880000I60000J0D01*
G01*
X71090000Y-77880000D01*
G75*
G02*
X71150000Y-77940000I0J-60000D01*
G01*
X71150000Y-78240000D01*
G75*
G02*
X71090000Y-78300000I-60000J0D01*
G01*
X69590000Y-78300000D01*
G75*
G02*
X69530000Y-78240000I0J60000D01*
G01*
G37*
G36*
G01*
X69530000Y-78740000D02*
X69530000Y-78440000D01*
G75*
G02*
X69590000Y-78380000I60000J0D01*
G01*
X71090000Y-78380000D01*
G75*
G02*
X71150000Y-78440000I0J-60000D01*
G01*
X71150000Y-78740000D01*
G75*
G02*
X71090000Y-78800000I-60000J0D01*
G01*
X69590000Y-78800000D01*
G75*
G02*
X69530000Y-78740000I0J60000D01*
G01*
G37*
G36*
G01*
X69530000Y-79240000D02*
X69530000Y-78940000D01*
G75*
G02*
X69590000Y-78880000I60000J0D01*
G01*
X71090000Y-78880000D01*
G75*
G02*
X71150000Y-78940000I0J-60000D01*
G01*
X71150000Y-79240000D01*
G75*
G02*
X71090000Y-79300000I-60000J0D01*
G01*
X69590000Y-79300000D01*
G75*
G02*
X69530000Y-79240000I0J60000D01*
G01*
G37*
G36*
G01*
X69530000Y-79740000D02*
X69530000Y-79440000D01*
G75*
G02*
X69590000Y-79380000I60000J0D01*
G01*
X71090000Y-79380000D01*
G75*
G02*
X71150000Y-79440000I0J-60000D01*
G01*
X71150000Y-79740000D01*
G75*
G02*
X71090000Y-79800000I-60000J0D01*
G01*
X69590000Y-79800000D01*
G75*
G02*
X69530000Y-79740000I0J60000D01*
G01*
G37*
G36*
G01*
X68740000Y-80230000D02*
X69040000Y-80230000D01*
G75*
G02*
X69100000Y-80290000I0J-60000D01*
G01*
X69100000Y-81790000D01*
G75*
G02*
X69040000Y-81850000I-60000J0D01*
G01*
X68740000Y-81850000D01*
G75*
G02*
X68680000Y-81790000I0J60000D01*
G01*
X68680000Y-80290000D01*
G75*
G02*
X68740000Y-80230000I60000J0D01*
G01*
G37*
G36*
G01*
X68240000Y-80230000D02*
X68540000Y-80230000D01*
G75*
G02*
X68600000Y-80290000I0J-60000D01*
G01*
X68600000Y-81790000D01*
G75*
G02*
X68540000Y-81850000I-60000J0D01*
G01*
X68240000Y-81850000D01*
G75*
G02*
X68180000Y-81790000I0J60000D01*
G01*
X68180000Y-80290000D01*
G75*
G02*
X68240000Y-80230000I60000J0D01*
G01*
G37*
G36*
G01*
X67740000Y-80230000D02*
X68040000Y-80230000D01*
G75*
G02*
X68100000Y-80290000I0J-60000D01*
G01*
X68100000Y-81790000D01*
G75*
G02*
X68040000Y-81850000I-60000J0D01*
G01*
X67740000Y-81850000D01*
G75*
G02*
X67680000Y-81790000I0J60000D01*
G01*
X67680000Y-80290000D01*
G75*
G02*
X67740000Y-80230000I60000J0D01*
G01*
G37*
G36*
G01*
X67240000Y-80230000D02*
X67540000Y-80230000D01*
G75*
G02*
X67600000Y-80290000I0J-60000D01*
G01*
X67600000Y-81790000D01*
G75*
G02*
X67540000Y-81850000I-60000J0D01*
G01*
X67240000Y-81850000D01*
G75*
G02*
X67180000Y-81790000I0J60000D01*
G01*
X67180000Y-80290000D01*
G75*
G02*
X67240000Y-80230000I60000J0D01*
G01*
G37*
G36*
G01*
X66740000Y-80230000D02*
X67040000Y-80230000D01*
G75*
G02*
X67100000Y-80290000I0J-60000D01*
G01*
X67100000Y-81790000D01*
G75*
G02*
X67040000Y-81850000I-60000J0D01*
G01*
X66740000Y-81850000D01*
G75*
G02*
X66680000Y-81790000I0J60000D01*
G01*
X66680000Y-80290000D01*
G75*
G02*
X66740000Y-80230000I60000J0D01*
G01*
G37*
G36*
G01*
X66240000Y-80230000D02*
X66540000Y-80230000D01*
G75*
G02*
X66600000Y-80290000I0J-60000D01*
G01*
X66600000Y-81790000D01*
G75*
G02*
X66540000Y-81850000I-60000J0D01*
G01*
X66240000Y-81850000D01*
G75*
G02*
X66180000Y-81790000I0J60000D01*
G01*
X66180000Y-80290000D01*
G75*
G02*
X66240000Y-80230000I60000J0D01*
G01*
G37*
G36*
G01*
X65740000Y-80230000D02*
X66040000Y-80230000D01*
G75*
G02*
X66100000Y-80290000I0J-60000D01*
G01*
X66100000Y-81790000D01*
G75*
G02*
X66040000Y-81850000I-60000J0D01*
G01*
X65740000Y-81850000D01*
G75*
G02*
X65680000Y-81790000I0J60000D01*
G01*
X65680000Y-80290000D01*
G75*
G02*
X65740000Y-80230000I60000J0D01*
G01*
G37*
G36*
G01*
X65240000Y-80230000D02*
X65540000Y-80230000D01*
G75*
G02*
X65600000Y-80290000I0J-60000D01*
G01*
X65600000Y-81790000D01*
G75*
G02*
X65540000Y-81850000I-60000J0D01*
G01*
X65240000Y-81850000D01*
G75*
G02*
X65180000Y-81790000I0J60000D01*
G01*
X65180000Y-80290000D01*
G75*
G02*
X65240000Y-80230000I60000J0D01*
G01*
G37*
G36*
G01*
X64740000Y-80230000D02*
X65040000Y-80230000D01*
G75*
G02*
X65100000Y-80290000I0J-60000D01*
G01*
X65100000Y-81790000D01*
G75*
G02*
X65040000Y-81850000I-60000J0D01*
G01*
X64740000Y-81850000D01*
G75*
G02*
X64680000Y-81790000I0J60000D01*
G01*
X64680000Y-80290000D01*
G75*
G02*
X64740000Y-80230000I60000J0D01*
G01*
G37*
G36*
G01*
X64240000Y-80230000D02*
X64540000Y-80230000D01*
G75*
G02*
X64600000Y-80290000I0J-60000D01*
G01*
X64600000Y-81790000D01*
G75*
G02*
X64540000Y-81850000I-60000J0D01*
G01*
X64240000Y-81850000D01*
G75*
G02*
X64180000Y-81790000I0J60000D01*
G01*
X64180000Y-80290000D01*
G75*
G02*
X64240000Y-80230000I60000J0D01*
G01*
G37*
G36*
G01*
X63740000Y-80230000D02*
X64040000Y-80230000D01*
G75*
G02*
X64100000Y-80290000I0J-60000D01*
G01*
X64100000Y-81790000D01*
G75*
G02*
X64040000Y-81850000I-60000J0D01*
G01*
X63740000Y-81850000D01*
G75*
G02*
X63680000Y-81790000I0J60000D01*
G01*
X63680000Y-80290000D01*
G75*
G02*
X63740000Y-80230000I60000J0D01*
G01*
G37*
G36*
G01*
X63240000Y-80230000D02*
X63540000Y-80230000D01*
G75*
G02*
X63600000Y-80290000I0J-60000D01*
G01*
X63600000Y-81790000D01*
G75*
G02*
X63540000Y-81850000I-60000J0D01*
G01*
X63240000Y-81850000D01*
G75*
G02*
X63180000Y-81790000I0J60000D01*
G01*
X63180000Y-80290000D01*
G75*
G02*
X63240000Y-80230000I60000J0D01*
G01*
G37*
G36*
G01*
X61130000Y-79740000D02*
X61130000Y-79440000D01*
G75*
G02*
X61190000Y-79380000I60000J0D01*
G01*
X62690000Y-79380000D01*
G75*
G02*
X62750000Y-79440000I0J-60000D01*
G01*
X62750000Y-79740000D01*
G75*
G02*
X62690000Y-79800000I-60000J0D01*
G01*
X61190000Y-79800000D01*
G75*
G02*
X61130000Y-79740000I0J60000D01*
G01*
G37*
G36*
G01*
X61130000Y-79240000D02*
X61130000Y-78940000D01*
G75*
G02*
X61190000Y-78880000I60000J0D01*
G01*
X62690000Y-78880000D01*
G75*
G02*
X62750000Y-78940000I0J-60000D01*
G01*
X62750000Y-79240000D01*
G75*
G02*
X62690000Y-79300000I-60000J0D01*
G01*
X61190000Y-79300000D01*
G75*
G02*
X61130000Y-79240000I0J60000D01*
G01*
G37*
G36*
G01*
X61130000Y-78740000D02*
X61130000Y-78440000D01*
G75*
G02*
X61190000Y-78380000I60000J0D01*
G01*
X62690000Y-78380000D01*
G75*
G02*
X62750000Y-78440000I0J-60000D01*
G01*
X62750000Y-78740000D01*
G75*
G02*
X62690000Y-78800000I-60000J0D01*
G01*
X61190000Y-78800000D01*
G75*
G02*
X61130000Y-78740000I0J60000D01*
G01*
G37*
G36*
G01*
X61130000Y-78240000D02*
X61130000Y-77940000D01*
G75*
G02*
X61190000Y-77880000I60000J0D01*
G01*
X62690000Y-77880000D01*
G75*
G02*
X62750000Y-77940000I0J-60000D01*
G01*
X62750000Y-78240000D01*
G75*
G02*
X62690000Y-78300000I-60000J0D01*
G01*
X61190000Y-78300000D01*
G75*
G02*
X61130000Y-78240000I0J60000D01*
G01*
G37*
G36*
G01*
X61130000Y-77740000D02*
X61130000Y-77440000D01*
G75*
G02*
X61190000Y-77380000I60000J0D01*
G01*
X62690000Y-77380000D01*
G75*
G02*
X62750000Y-77440000I0J-60000D01*
G01*
X62750000Y-77740000D01*
G75*
G02*
X62690000Y-77800000I-60000J0D01*
G01*
X61190000Y-77800000D01*
G75*
G02*
X61130000Y-77740000I0J60000D01*
G01*
G37*
G36*
G01*
X61130000Y-77240000D02*
X61130000Y-76940000D01*
G75*
G02*
X61190000Y-76880000I60000J0D01*
G01*
X62690000Y-76880000D01*
G75*
G02*
X62750000Y-76940000I0J-60000D01*
G01*
X62750000Y-77240000D01*
G75*
G02*
X62690000Y-77300000I-60000J0D01*
G01*
X61190000Y-77300000D01*
G75*
G02*
X61130000Y-77240000I0J60000D01*
G01*
G37*
G36*
G01*
X61130000Y-76740000D02*
X61130000Y-76440000D01*
G75*
G02*
X61190000Y-76380000I60000J0D01*
G01*
X62690000Y-76380000D01*
G75*
G02*
X62750000Y-76440000I0J-60000D01*
G01*
X62750000Y-76740000D01*
G75*
G02*
X62690000Y-76800000I-60000J0D01*
G01*
X61190000Y-76800000D01*
G75*
G02*
X61130000Y-76740000I0J60000D01*
G01*
G37*
G36*
G01*
X61130000Y-76240000D02*
X61130000Y-75940000D01*
G75*
G02*
X61190000Y-75880000I60000J0D01*
G01*
X62690000Y-75880000D01*
G75*
G02*
X62750000Y-75940000I0J-60000D01*
G01*
X62750000Y-76240000D01*
G75*
G02*
X62690000Y-76300000I-60000J0D01*
G01*
X61190000Y-76300000D01*
G75*
G02*
X61130000Y-76240000I0J60000D01*
G01*
G37*
G36*
G01*
X61130000Y-75740000D02*
X61130000Y-75440000D01*
G75*
G02*
X61190000Y-75380000I60000J0D01*
G01*
X62690000Y-75380000D01*
G75*
G02*
X62750000Y-75440000I0J-60000D01*
G01*
X62750000Y-75740000D01*
G75*
G02*
X62690000Y-75800000I-60000J0D01*
G01*
X61190000Y-75800000D01*
G75*
G02*
X61130000Y-75740000I0J60000D01*
G01*
G37*
G36*
G01*
X61130000Y-75240000D02*
X61130000Y-74940000D01*
G75*
G02*
X61190000Y-74880000I60000J0D01*
G01*
X62690000Y-74880000D01*
G75*
G02*
X62750000Y-74940000I0J-60000D01*
G01*
X62750000Y-75240000D01*
G75*
G02*
X62690000Y-75300000I-60000J0D01*
G01*
X61190000Y-75300000D01*
G75*
G02*
X61130000Y-75240000I0J60000D01*
G01*
G37*
G36*
G01*
X61130000Y-74740000D02*
X61130000Y-74440000D01*
G75*
G02*
X61190000Y-74380000I60000J0D01*
G01*
X62690000Y-74380000D01*
G75*
G02*
X62750000Y-74440000I0J-60000D01*
G01*
X62750000Y-74740000D01*
G75*
G02*
X62690000Y-74800000I-60000J0D01*
G01*
X61190000Y-74800000D01*
G75*
G02*
X61130000Y-74740000I0J60000D01*
G01*
G37*
G36*
G01*
X61130000Y-74240000D02*
X61130000Y-73940000D01*
G75*
G02*
X61190000Y-73880000I60000J0D01*
G01*
X62690000Y-73880000D01*
G75*
G02*
X62750000Y-73940000I0J-60000D01*
G01*
X62750000Y-74240000D01*
G75*
G02*
X62690000Y-74300000I-60000J0D01*
G01*
X61190000Y-74300000D01*
G75*
G02*
X61130000Y-74240000I0J60000D01*
G01*
G37*
G36*
G01*
X63240000Y-71830000D02*
X63540000Y-71830000D01*
G75*
G02*
X63600000Y-71890000I0J-60000D01*
G01*
X63600000Y-73390000D01*
G75*
G02*
X63540000Y-73450000I-60000J0D01*
G01*
X63240000Y-73450000D01*
G75*
G02*
X63180000Y-73390000I0J60000D01*
G01*
X63180000Y-71890000D01*
G75*
G02*
X63240000Y-71830000I60000J0D01*
G01*
G37*
G36*
G01*
X63740000Y-71830000D02*
X64040000Y-71830000D01*
G75*
G02*
X64100000Y-71890000I0J-60000D01*
G01*
X64100000Y-73390000D01*
G75*
G02*
X64040000Y-73450000I-60000J0D01*
G01*
X63740000Y-73450000D01*
G75*
G02*
X63680000Y-73390000I0J60000D01*
G01*
X63680000Y-71890000D01*
G75*
G02*
X63740000Y-71830000I60000J0D01*
G01*
G37*
G36*
G01*
X64240000Y-71830000D02*
X64540000Y-71830000D01*
G75*
G02*
X64600000Y-71890000I0J-60000D01*
G01*
X64600000Y-73390000D01*
G75*
G02*
X64540000Y-73450000I-60000J0D01*
G01*
X64240000Y-73450000D01*
G75*
G02*
X64180000Y-73390000I0J60000D01*
G01*
X64180000Y-71890000D01*
G75*
G02*
X64240000Y-71830000I60000J0D01*
G01*
G37*
G36*
G01*
X64740000Y-71830000D02*
X65040000Y-71830000D01*
G75*
G02*
X65100000Y-71890000I0J-60000D01*
G01*
X65100000Y-73390000D01*
G75*
G02*
X65040000Y-73450000I-60000J0D01*
G01*
X64740000Y-73450000D01*
G75*
G02*
X64680000Y-73390000I0J60000D01*
G01*
X64680000Y-71890000D01*
G75*
G02*
X64740000Y-71830000I60000J0D01*
G01*
G37*
G36*
G01*
X65240000Y-71830000D02*
X65540000Y-71830000D01*
G75*
G02*
X65600000Y-71890000I0J-60000D01*
G01*
X65600000Y-73390000D01*
G75*
G02*
X65540000Y-73450000I-60000J0D01*
G01*
X65240000Y-73450000D01*
G75*
G02*
X65180000Y-73390000I0J60000D01*
G01*
X65180000Y-71890000D01*
G75*
G02*
X65240000Y-71830000I60000J0D01*
G01*
G37*
G36*
G01*
X65740000Y-71830000D02*
X66040000Y-71830000D01*
G75*
G02*
X66100000Y-71890000I0J-60000D01*
G01*
X66100000Y-73390000D01*
G75*
G02*
X66040000Y-73450000I-60000J0D01*
G01*
X65740000Y-73450000D01*
G75*
G02*
X65680000Y-73390000I0J60000D01*
G01*
X65680000Y-71890000D01*
G75*
G02*
X65740000Y-71830000I60000J0D01*
G01*
G37*
G36*
G01*
X66240000Y-71830000D02*
X66540000Y-71830000D01*
G75*
G02*
X66600000Y-71890000I0J-60000D01*
G01*
X66600000Y-73390000D01*
G75*
G02*
X66540000Y-73450000I-60000J0D01*
G01*
X66240000Y-73450000D01*
G75*
G02*
X66180000Y-73390000I0J60000D01*
G01*
X66180000Y-71890000D01*
G75*
G02*
X66240000Y-71830000I60000J0D01*
G01*
G37*
G36*
G01*
X66740000Y-71830000D02*
X67040000Y-71830000D01*
G75*
G02*
X67100000Y-71890000I0J-60000D01*
G01*
X67100000Y-73390000D01*
G75*
G02*
X67040000Y-73450000I-60000J0D01*
G01*
X66740000Y-73450000D01*
G75*
G02*
X66680000Y-73390000I0J60000D01*
G01*
X66680000Y-71890000D01*
G75*
G02*
X66740000Y-71830000I60000J0D01*
G01*
G37*
G36*
G01*
X67240000Y-71830000D02*
X67540000Y-71830000D01*
G75*
G02*
X67600000Y-71890000I0J-60000D01*
G01*
X67600000Y-73390000D01*
G75*
G02*
X67540000Y-73450000I-60000J0D01*
G01*
X67240000Y-73450000D01*
G75*
G02*
X67180000Y-73390000I0J60000D01*
G01*
X67180000Y-71890000D01*
G75*
G02*
X67240000Y-71830000I60000J0D01*
G01*
G37*
G36*
G01*
X67740000Y-71830000D02*
X68040000Y-71830000D01*
G75*
G02*
X68100000Y-71890000I0J-60000D01*
G01*
X68100000Y-73390000D01*
G75*
G02*
X68040000Y-73450000I-60000J0D01*
G01*
X67740000Y-73450000D01*
G75*
G02*
X67680000Y-73390000I0J60000D01*
G01*
X67680000Y-71890000D01*
G75*
G02*
X67740000Y-71830000I60000J0D01*
G01*
G37*
G36*
G01*
X68240000Y-71830000D02*
X68540000Y-71830000D01*
G75*
G02*
X68600000Y-71890000I0J-60000D01*
G01*
X68600000Y-73390000D01*
G75*
G02*
X68540000Y-73450000I-60000J0D01*
G01*
X68240000Y-73450000D01*
G75*
G02*
X68180000Y-73390000I0J60000D01*
G01*
X68180000Y-71890000D01*
G75*
G02*
X68240000Y-71830000I60000J0D01*
G01*
G37*
G36*
G01*
X68740000Y-71830000D02*
X69040000Y-71830000D01*
G75*
G02*
X69100000Y-71890000I0J-60000D01*
G01*
X69100000Y-73390000D01*
G75*
G02*
X69040000Y-73450000I-60000J0D01*
G01*
X68740000Y-73450000D01*
G75*
G02*
X68680000Y-73390000I0J60000D01*
G01*
X68680000Y-71890000D01*
G75*
G02*
X68740000Y-71830000I60000J0D01*
G01*
G37*
G36*
G01*
X83625000Y-54460000D02*
X83625000Y-52060000D01*
G75*
G02*
X83695000Y-51990000I70000J0D01*
G01*
X84495000Y-51990000D01*
G75*
G02*
X84565000Y-52060000I0J-70000D01*
G01*
X84565000Y-54460000D01*
G75*
G02*
X84495000Y-54530000I-70000J0D01*
G01*
X83695000Y-54530000D01*
G75*
G02*
X83625000Y-54460000I0J70000D01*
G01*
G37*
G36*
G01*
X84995000Y-54460000D02*
X84995000Y-52060000D01*
G75*
G02*
X85065000Y-51990000I70000J0D01*
G01*
X85765000Y-51990000D01*
G75*
G02*
X85835000Y-52060000I0J-70000D01*
G01*
X85835000Y-54460000D01*
G75*
G02*
X85765000Y-54530000I-70000J0D01*
G01*
X85065000Y-54530000D01*
G75*
G02*
X84995000Y-54460000I0J70000D01*
G01*
G37*
G36*
G01*
X86265000Y-54460000D02*
X86265000Y-52060000D01*
G75*
G02*
X86335000Y-51990000I70000J0D01*
G01*
X87035000Y-51990000D01*
G75*
G02*
X87105000Y-52060000I0J-70000D01*
G01*
X87105000Y-54460000D01*
G75*
G02*
X87035000Y-54530000I-70000J0D01*
G01*
X86335000Y-54530000D01*
G75*
G02*
X86265000Y-54460000I0J70000D01*
G01*
G37*
G36*
G01*
X87535000Y-54460000D02*
X87535000Y-52060000D01*
G75*
G02*
X87605000Y-51990000I70000J0D01*
G01*
X88305000Y-51990000D01*
G75*
G02*
X88375000Y-52060000I0J-70000D01*
G01*
X88375000Y-54460000D01*
G75*
G02*
X88305000Y-54530000I-70000J0D01*
G01*
X87605000Y-54530000D01*
G75*
G02*
X87535000Y-54460000I0J70000D01*
G01*
G37*
G36*
G01*
X88805000Y-54460000D02*
X88805000Y-52060000D01*
G75*
G02*
X88875000Y-51990000I70000J0D01*
G01*
X89575000Y-51990000D01*
G75*
G02*
X89645000Y-52060000I0J-70000D01*
G01*
X89645000Y-54460000D01*
G75*
G02*
X89575000Y-54530000I-70000J0D01*
G01*
X88875000Y-54530000D01*
G75*
G02*
X88805000Y-54460000I0J70000D01*
G01*
G37*
G36*
G01*
X90075000Y-54460000D02*
X90075000Y-52060000D01*
G75*
G02*
X90145000Y-51990000I70000J0D01*
G01*
X90845000Y-51990000D01*
G75*
G02*
X90915000Y-52060000I0J-70000D01*
G01*
X90915000Y-54460000D01*
G75*
G02*
X90845000Y-54530000I-70000J0D01*
G01*
X90145000Y-54530000D01*
G75*
G02*
X90075000Y-54460000I0J70000D01*
G01*
G37*
G36*
G01*
X91345000Y-54460000D02*
X91345000Y-52060000D01*
G75*
G02*
X91415000Y-51990000I70000J0D01*
G01*
X92115000Y-51990000D01*
G75*
G02*
X92185000Y-52060000I0J-70000D01*
G01*
X92185000Y-54460000D01*
G75*
G02*
X92115000Y-54530000I-70000J0D01*
G01*
X91415000Y-54530000D01*
G75*
G02*
X91345000Y-54460000I0J70000D01*
G01*
G37*
G36*
G01*
X92615000Y-54460000D02*
X92615000Y-52060000D01*
G75*
G02*
X92685000Y-51990000I70000J0D01*
G01*
X93485000Y-51990000D01*
G75*
G02*
X93555000Y-52060000I0J-70000D01*
G01*
X93555000Y-54460000D01*
G75*
G02*
X93485000Y-54530000I-70000J0D01*
G01*
X92685000Y-54530000D01*
G75*
G02*
X92615000Y-54460000I0J70000D01*
G01*
G37*
G36*
G01*
X92615000Y-45660000D02*
X92615000Y-43260000D01*
G75*
G02*
X92685000Y-43190000I70000J0D01*
G01*
X93485000Y-43190000D01*
G75*
G02*
X93555000Y-43260000I0J-70000D01*
G01*
X93555000Y-45660000D01*
G75*
G02*
X93485000Y-45730000I-70000J0D01*
G01*
X92685000Y-45730000D01*
G75*
G02*
X92615000Y-45660000I0J70000D01*
G01*
G37*
G36*
G01*
X91345000Y-45660000D02*
X91345000Y-43260000D01*
G75*
G02*
X91415000Y-43190000I70000J0D01*
G01*
X92115000Y-43190000D01*
G75*
G02*
X92185000Y-43260000I0J-70000D01*
G01*
X92185000Y-45660000D01*
G75*
G02*
X92115000Y-45730000I-70000J0D01*
G01*
X91415000Y-45730000D01*
G75*
G02*
X91345000Y-45660000I0J70000D01*
G01*
G37*
G36*
G01*
X90075000Y-45660000D02*
X90075000Y-43260000D01*
G75*
G02*
X90145000Y-43190000I70000J0D01*
G01*
X90845000Y-43190000D01*
G75*
G02*
X90915000Y-43260000I0J-70000D01*
G01*
X90915000Y-45660000D01*
G75*
G02*
X90845000Y-45730000I-70000J0D01*
G01*
X90145000Y-45730000D01*
G75*
G02*
X90075000Y-45660000I0J70000D01*
G01*
G37*
G36*
G01*
X88805000Y-45660000D02*
X88805000Y-43260000D01*
G75*
G02*
X88875000Y-43190000I70000J0D01*
G01*
X89575000Y-43190000D01*
G75*
G02*
X89645000Y-43260000I0J-70000D01*
G01*
X89645000Y-45660000D01*
G75*
G02*
X89575000Y-45730000I-70000J0D01*
G01*
X88875000Y-45730000D01*
G75*
G02*
X88805000Y-45660000I0J70000D01*
G01*
G37*
G36*
G01*
X87535000Y-45660000D02*
X87535000Y-43260000D01*
G75*
G02*
X87605000Y-43190000I70000J0D01*
G01*
X88305000Y-43190000D01*
G75*
G02*
X88375000Y-43260000I0J-70000D01*
G01*
X88375000Y-45660000D01*
G75*
G02*
X88305000Y-45730000I-70000J0D01*
G01*
X87605000Y-45730000D01*
G75*
G02*
X87535000Y-45660000I0J70000D01*
G01*
G37*
G36*
G01*
X86265000Y-45660000D02*
X86265000Y-43260000D01*
G75*
G02*
X86335000Y-43190000I70000J0D01*
G01*
X87035000Y-43190000D01*
G75*
G02*
X87105000Y-43260000I0J-70000D01*
G01*
X87105000Y-45660000D01*
G75*
G02*
X87035000Y-45730000I-70000J0D01*
G01*
X86335000Y-45730000D01*
G75*
G02*
X86265000Y-45660000I0J70000D01*
G01*
G37*
G36*
G01*
X84995000Y-45660000D02*
X84995000Y-43260000D01*
G75*
G02*
X85065000Y-43190000I70000J0D01*
G01*
X85765000Y-43190000D01*
G75*
G02*
X85835000Y-43260000I0J-70000D01*
G01*
X85835000Y-45660000D01*
G75*
G02*
X85765000Y-45730000I-70000J0D01*
G01*
X85065000Y-45730000D01*
G75*
G02*
X84995000Y-45660000I0J70000D01*
G01*
G37*
G36*
G01*
X83625000Y-45660000D02*
X83625000Y-43260000D01*
G75*
G02*
X83695000Y-43190000I70000J0D01*
G01*
X84495000Y-43190000D01*
G75*
G02*
X84565000Y-43260000I0J-70000D01*
G01*
X84565000Y-45660000D01*
G75*
G02*
X84495000Y-45730000I-70000J0D01*
G01*
X83695000Y-45730000D01*
G75*
G02*
X83625000Y-45660000I0J70000D01*
G01*
G37*
G36*
G01*
X108544410Y-81570240D02*
X107993230Y-81570240D01*
G75*
G02*
X107933230Y-81510240I0J60000D01*
G01*
X107933230Y-81210520D01*
G75*
G02*
X107993230Y-81150520I60000J0D01*
G01*
X108544410Y-81150520D01*
G75*
G02*
X108604410Y-81210520I0J-60000D01*
G01*
X108604410Y-81510240D01*
G75*
G02*
X108544410Y-81570240I-60000J0D01*
G01*
G37*
G36*
G01*
X108544410Y-80919860D02*
X107993230Y-80919860D01*
G75*
G02*
X107933230Y-80859860I0J60000D01*
G01*
X107933230Y-80560140D01*
G75*
G02*
X107993230Y-80500140I60000J0D01*
G01*
X108544410Y-80500140D01*
G75*
G02*
X108604410Y-80560140I0J-60000D01*
G01*
X108604410Y-80859860D01*
G75*
G02*
X108544410Y-80919860I-60000J0D01*
G01*
G37*
G36*
G01*
X108544410Y-80269480D02*
X107993230Y-80269480D01*
G75*
G02*
X107933230Y-80209480I0J60000D01*
G01*
X107933230Y-79909760D01*
G75*
G02*
X107993230Y-79849760I60000J0D01*
G01*
X108544410Y-79849760D01*
G75*
G02*
X108604410Y-79909760I0J-60000D01*
G01*
X108604410Y-80209480D01*
G75*
G02*
X108544410Y-80269480I-60000J0D01*
G01*
G37*
G36*
G01*
X107106770Y-80269480D02*
X106555590Y-80269480D01*
G75*
G02*
X106495590Y-80209480I0J60000D01*
G01*
X106495590Y-79909760D01*
G75*
G02*
X106555590Y-79849760I60000J0D01*
G01*
X107106770Y-79849760D01*
G75*
G02*
X107166770Y-79909760I0J-60000D01*
G01*
X107166770Y-80209480D01*
G75*
G02*
X107106770Y-80269480I-60000J0D01*
G01*
G37*
G36*
G01*
X107106770Y-80919860D02*
X106555590Y-80919860D01*
G75*
G02*
X106495590Y-80859860I0J60000D01*
G01*
X106495590Y-80560140D01*
G75*
G02*
X106555590Y-80500140I60000J0D01*
G01*
X107106770Y-80500140D01*
G75*
G02*
X107166770Y-80560140I0J-60000D01*
G01*
X107166770Y-80859860D01*
G75*
G02*
X107106770Y-80919860I-60000J0D01*
G01*
G37*
G36*
G01*
X107106770Y-81570240D02*
X106555590Y-81570240D01*
G75*
G02*
X106495590Y-81510240I0J60000D01*
G01*
X106495590Y-81210520D01*
G75*
G02*
X106555590Y-81150520I60000J0D01*
G01*
X107106770Y-81150520D01*
G75*
G02*
X107166770Y-81210520I0J-60000D01*
G01*
X107166770Y-81510240D01*
G75*
G02*
X107106770Y-81570240I-60000J0D01*
G01*
G37*
G36*
G01*
X111305000Y-70445000D02*
X110705000Y-70445000D01*
G75*
G02*
X110635000Y-70375000I0J70000D01*
G01*
X110635000Y-68825000D01*
G75*
G02*
X110705000Y-68755000I70000J0D01*
G01*
X111305000Y-68755000D01*
G75*
G02*
X111375000Y-68825000I0J-70000D01*
G01*
X111375000Y-70375000D01*
G75*
G02*
X111305000Y-70445000I-70000J0D01*
G01*
G37*
G36*
G01*
X112575000Y-70445000D02*
X111975000Y-70445000D01*
G75*
G02*
X111905000Y-70375000I0J70000D01*
G01*
X111905000Y-68825000D01*
G75*
G02*
X111975000Y-68755000I70000J0D01*
G01*
X112575000Y-68755000D01*
G75*
G02*
X112645000Y-68825000I0J-70000D01*
G01*
X112645000Y-70375000D01*
G75*
G02*
X112575000Y-70445000I-70000J0D01*
G01*
G37*
G36*
G01*
X113845000Y-70445000D02*
X113245000Y-70445000D01*
G75*
G02*
X113175000Y-70375000I0J70000D01*
G01*
X113175000Y-68825000D01*
G75*
G02*
X113245000Y-68755000I70000J0D01*
G01*
X113845000Y-68755000D01*
G75*
G02*
X113915000Y-68825000I0J-70000D01*
G01*
X113915000Y-70375000D01*
G75*
G02*
X113845000Y-70445000I-70000J0D01*
G01*
G37*
G36*
G01*
X115115000Y-70445000D02*
X114515000Y-70445000D01*
G75*
G02*
X114445000Y-70375000I0J70000D01*
G01*
X114445000Y-68825000D01*
G75*
G02*
X114515000Y-68755000I70000J0D01*
G01*
X115115000Y-68755000D01*
G75*
G02*
X115185000Y-68825000I0J-70000D01*
G01*
X115185000Y-70375000D01*
G75*
G02*
X115115000Y-70445000I-70000J0D01*
G01*
G37*
G36*
G01*
X115115000Y-75845000D02*
X114515000Y-75845000D01*
G75*
G02*
X114445000Y-75775000I0J70000D01*
G01*
X114445000Y-74225000D01*
G75*
G02*
X114515000Y-74155000I70000J0D01*
G01*
X115115000Y-74155000D01*
G75*
G02*
X115185000Y-74225000I0J-70000D01*
G01*
X115185000Y-75775000D01*
G75*
G02*
X115115000Y-75845000I-70000J0D01*
G01*
G37*
G36*
G01*
X113845000Y-75845000D02*
X113245000Y-75845000D01*
G75*
G02*
X113175000Y-75775000I0J70000D01*
G01*
X113175000Y-74225000D01*
G75*
G02*
X113245000Y-74155000I70000J0D01*
G01*
X113845000Y-74155000D01*
G75*
G02*
X113915000Y-74225000I0J-70000D01*
G01*
X113915000Y-75775000D01*
G75*
G02*
X113845000Y-75845000I-70000J0D01*
G01*
G37*
G36*
G01*
X112575000Y-75845000D02*
X111975000Y-75845000D01*
G75*
G02*
X111905000Y-75775000I0J70000D01*
G01*
X111905000Y-74225000D01*
G75*
G02*
X111975000Y-74155000I70000J0D01*
G01*
X112575000Y-74155000D01*
G75*
G02*
X112645000Y-74225000I0J-70000D01*
G01*
X112645000Y-75775000D01*
G75*
G02*
X112575000Y-75845000I-70000J0D01*
G01*
G37*
G36*
G01*
X111305000Y-75845000D02*
X110705000Y-75845000D01*
G75*
G02*
X110635000Y-75775000I0J70000D01*
G01*
X110635000Y-74225000D01*
G75*
G02*
X110705000Y-74155000I70000J0D01*
G01*
X111305000Y-74155000D01*
G75*
G02*
X111375000Y-74225000I0J-70000D01*
G01*
X111375000Y-75775000D01*
G75*
G02*
X111305000Y-75845000I-70000J0D01*
G01*
G37*
G36*
G01*
X114295000Y-83765000D02*
X114895000Y-83765000D01*
G75*
G02*
X114965000Y-83835000I0J-70000D01*
G01*
X114965000Y-85385000D01*
G75*
G02*
X114895000Y-85455000I-70000J0D01*
G01*
X114295000Y-85455000D01*
G75*
G02*
X114225000Y-85385000I0J70000D01*
G01*
X114225000Y-83835000D01*
G75*
G02*
X114295000Y-83765000I70000J0D01*
G01*
G37*
G36*
G01*
X113025000Y-83765000D02*
X113625000Y-83765000D01*
G75*
G02*
X113695000Y-83835000I0J-70000D01*
G01*
X113695000Y-85385000D01*
G75*
G02*
X113625000Y-85455000I-70000J0D01*
G01*
X113025000Y-85455000D01*
G75*
G02*
X112955000Y-85385000I0J70000D01*
G01*
X112955000Y-83835000D01*
G75*
G02*
X113025000Y-83765000I70000J0D01*
G01*
G37*
G36*
G01*
X111755000Y-83765000D02*
X112355000Y-83765000D01*
G75*
G02*
X112425000Y-83835000I0J-70000D01*
G01*
X112425000Y-85385000D01*
G75*
G02*
X112355000Y-85455000I-70000J0D01*
G01*
X111755000Y-85455000D01*
G75*
G02*
X111685000Y-85385000I0J70000D01*
G01*
X111685000Y-83835000D01*
G75*
G02*
X111755000Y-83765000I70000J0D01*
G01*
G37*
G36*
G01*
X110485000Y-83765000D02*
X111085000Y-83765000D01*
G75*
G02*
X111155000Y-83835000I0J-70000D01*
G01*
X111155000Y-85385000D01*
G75*
G02*
X111085000Y-85455000I-70000J0D01*
G01*
X110485000Y-85455000D01*
G75*
G02*
X110415000Y-85385000I0J70000D01*
G01*
X110415000Y-83835000D01*
G75*
G02*
X110485000Y-83765000I70000J0D01*
G01*
G37*
G36*
G01*
X110485000Y-78365000D02*
X111085000Y-78365000D01*
G75*
G02*
X111155000Y-78435000I0J-70000D01*
G01*
X111155000Y-79985000D01*
G75*
G02*
X111085000Y-80055000I-70000J0D01*
G01*
X110485000Y-80055000D01*
G75*
G02*
X110415000Y-79985000I0J70000D01*
G01*
X110415000Y-78435000D01*
G75*
G02*
X110485000Y-78365000I70000J0D01*
G01*
G37*
G36*
G01*
X111755000Y-78365000D02*
X112355000Y-78365000D01*
G75*
G02*
X112425000Y-78435000I0J-70000D01*
G01*
X112425000Y-79985000D01*
G75*
G02*
X112355000Y-80055000I-70000J0D01*
G01*
X111755000Y-80055000D01*
G75*
G02*
X111685000Y-79985000I0J70000D01*
G01*
X111685000Y-78435000D01*
G75*
G02*
X111755000Y-78365000I70000J0D01*
G01*
G37*
G36*
G01*
X113025000Y-78365000D02*
X113625000Y-78365000D01*
G75*
G02*
X113695000Y-78435000I0J-70000D01*
G01*
X113695000Y-79985000D01*
G75*
G02*
X113625000Y-80055000I-70000J0D01*
G01*
X113025000Y-80055000D01*
G75*
G02*
X112955000Y-79985000I0J70000D01*
G01*
X112955000Y-78435000D01*
G75*
G02*
X113025000Y-78365000I70000J0D01*
G01*
G37*
G36*
G01*
X114295000Y-78365000D02*
X114895000Y-78365000D01*
G75*
G02*
X114965000Y-78435000I0J-70000D01*
G01*
X114965000Y-79985000D01*
G75*
G02*
X114895000Y-80055000I-70000J0D01*
G01*
X114295000Y-80055000D01*
G75*
G02*
X114225000Y-79985000I0J70000D01*
G01*
X114225000Y-78435000D01*
G75*
G02*
X114295000Y-78365000I70000J0D01*
G01*
G37*
G36*
G01*
X98835000Y-89075000D02*
X98835000Y-89675000D01*
G75*
G02*
X98765000Y-89745000I-70000J0D01*
G01*
X97215000Y-89745000D01*
G75*
G02*
X97145000Y-89675000I0J70000D01*
G01*
X97145000Y-89075000D01*
G75*
G02*
X97215000Y-89005000I70000J0D01*
G01*
X98765000Y-89005000D01*
G75*
G02*
X98835000Y-89075000I0J-70000D01*
G01*
G37*
G36*
G01*
X98835000Y-87805000D02*
X98835000Y-88405000D01*
G75*
G02*
X98765000Y-88475000I-70000J0D01*
G01*
X97215000Y-88475000D01*
G75*
G02*
X97145000Y-88405000I0J70000D01*
G01*
X97145000Y-87805000D01*
G75*
G02*
X97215000Y-87735000I70000J0D01*
G01*
X98765000Y-87735000D01*
G75*
G02*
X98835000Y-87805000I0J-70000D01*
G01*
G37*
G36*
G01*
X98835000Y-86535000D02*
X98835000Y-87135000D01*
G75*
G02*
X98765000Y-87205000I-70000J0D01*
G01*
X97215000Y-87205000D01*
G75*
G02*
X97145000Y-87135000I0J70000D01*
G01*
X97145000Y-86535000D01*
G75*
G02*
X97215000Y-86465000I70000J0D01*
G01*
X98765000Y-86465000D01*
G75*
G02*
X98835000Y-86535000I0J-70000D01*
G01*
G37*
G36*
G01*
X98835000Y-85265000D02*
X98835000Y-85865000D01*
G75*
G02*
X98765000Y-85935000I-70000J0D01*
G01*
X97215000Y-85935000D01*
G75*
G02*
X97145000Y-85865000I0J70000D01*
G01*
X97145000Y-85265000D01*
G75*
G02*
X97215000Y-85195000I70000J0D01*
G01*
X98765000Y-85195000D01*
G75*
G02*
X98835000Y-85265000I0J-70000D01*
G01*
G37*
G36*
G01*
X104235000Y-85265000D02*
X104235000Y-85865000D01*
G75*
G02*
X104165000Y-85935000I-70000J0D01*
G01*
X102615000Y-85935000D01*
G75*
G02*
X102545000Y-85865000I0J70000D01*
G01*
X102545000Y-85265000D01*
G75*
G02*
X102615000Y-85195000I70000J0D01*
G01*
X104165000Y-85195000D01*
G75*
G02*
X104235000Y-85265000I0J-70000D01*
G01*
G37*
G36*
G01*
X104235000Y-86535000D02*
X104235000Y-87135000D01*
G75*
G02*
X104165000Y-87205000I-70000J0D01*
G01*
X102615000Y-87205000D01*
G75*
G02*
X102545000Y-87135000I0J70000D01*
G01*
X102545000Y-86535000D01*
G75*
G02*
X102615000Y-86465000I70000J0D01*
G01*
X104165000Y-86465000D01*
G75*
G02*
X104235000Y-86535000I0J-70000D01*
G01*
G37*
G36*
G01*
X104235000Y-87805000D02*
X104235000Y-88405000D01*
G75*
G02*
X104165000Y-88475000I-70000J0D01*
G01*
X102615000Y-88475000D01*
G75*
G02*
X102545000Y-88405000I0J70000D01*
G01*
X102545000Y-87805000D01*
G75*
G02*
X102615000Y-87735000I70000J0D01*
G01*
X104165000Y-87735000D01*
G75*
G02*
X104235000Y-87805000I0J-70000D01*
G01*
G37*
G36*
G01*
X104235000Y-89075000D02*
X104235000Y-89675000D01*
G75*
G02*
X104165000Y-89745000I-70000J0D01*
G01*
X102615000Y-89745000D01*
G75*
G02*
X102545000Y-89675000I0J70000D01*
G01*
X102545000Y-89075000D01*
G75*
G02*
X102615000Y-89005000I70000J0D01*
G01*
X104165000Y-89005000D01*
G75*
G02*
X104235000Y-89075000I0J-70000D01*
G01*
G37*
D12*
X97390000Y-66085000D03*
G36*
G01*
X98640000Y-76165000D02*
X96140000Y-76165000D01*
G75*
G02*
X96070000Y-76095000I0J70000D01*
G01*
X96070000Y-73595000D01*
G75*
G02*
X96140000Y-73525000I70000J0D01*
G01*
X98640000Y-73525000D01*
G75*
G02*
X98710000Y-73595000I0J-70000D01*
G01*
X98710000Y-76095000D01*
G75*
G02*
X98640000Y-76165000I-70000J0D01*
G01*
G37*
D13*
X117390000Y-62965000D03*
X117390000Y-77965000D03*
D14*
X32864900Y-54810000D03*
X30921800Y-58810000D03*
D15*
X69120000Y-48600000D03*
D16*
X61620000Y-48600000D03*
G36*
G01*
X71510000Y-49900000D02*
X71510000Y-47300000D01*
G75*
G02*
X71580000Y-47230000I70000J0D01*
G01*
X75120000Y-47230000D01*
G75*
G02*
X75190000Y-47300000I0J-70000D01*
G01*
X75190000Y-49900000D01*
G75*
G02*
X75120000Y-49970000I-70000J0D01*
G01*
X71580000Y-49970000D01*
G75*
G02*
X71510000Y-49900000I0J70000D01*
G01*
G37*
G36*
G01*
X55650000Y-49900000D02*
X55650000Y-47300000D01*
G75*
G02*
X55720000Y-47230000I70000J0D01*
G01*
X59380000Y-47230000D01*
G75*
G02*
X59450000Y-47300000I0J-70000D01*
G01*
X59450000Y-49900000D01*
G75*
G02*
X59380000Y-49970000I-70000J0D01*
G01*
X55720000Y-49970000D01*
G75*
G02*
X55650000Y-49900000I0J70000D01*
G01*
G37*
D17*
X110300000Y-104000000D03*
X33300000Y-104000000D03*
X110300000Y-36000000D03*
X33300000Y-36000000D03*
G36*
G01*
X105580000Y-90840000D02*
X105580000Y-87640000D01*
G75*
G02*
X105650000Y-87570000I70000J0D01*
G01*
X108250000Y-87570000D01*
G75*
G02*
X108320000Y-87640000I0J-70000D01*
G01*
X108320000Y-90840000D01*
G75*
G02*
X108250000Y-90910000I-70000J0D01*
G01*
X105650000Y-90910000D01*
G75*
G02*
X105580000Y-90840000I0J70000D01*
G01*
G37*
G36*
G01*
X112780000Y-90840000D02*
X112780000Y-87640000D01*
G75*
G02*
X112850000Y-87570000I70000J0D01*
G01*
X115450000Y-87570000D01*
G75*
G02*
X115520000Y-87640000I0J-70000D01*
G01*
X115520000Y-90840000D01*
G75*
G02*
X115450000Y-90910000I-70000J0D01*
G01*
X112850000Y-90910000D01*
G75*
G02*
X112780000Y-90840000I0J70000D01*
G01*
G37*
G36*
G01*
X102260000Y-62980000D02*
X102260000Y-66180000D01*
G75*
G02*
X102190000Y-66250000I-70000J0D01*
G01*
X99590000Y-66250000D01*
G75*
G02*
X99520000Y-66180000I0J70000D01*
G01*
X99520000Y-62980000D01*
G75*
G02*
X99590000Y-62910000I70000J0D01*
G01*
X102190000Y-62910000D01*
G75*
G02*
X102260000Y-62980000I0J-70000D01*
G01*
G37*
G36*
G01*
X109460000Y-62980000D02*
X109460000Y-66180000D01*
G75*
G02*
X109390000Y-66250000I-70000J0D01*
G01*
X106790000Y-66250000D01*
G75*
G02*
X106720000Y-66180000I0J70000D01*
G01*
X106720000Y-62980000D01*
G75*
G02*
X106790000Y-62910000I70000J0D01*
G01*
X109390000Y-62910000D01*
G75*
G02*
X109460000Y-62980000I0J-70000D01*
G01*
G37*
G36*
G01*
X73250000Y-55020000D02*
X74250000Y-55020000D01*
G75*
G02*
X74320000Y-55090000I0J-70000D01*
G01*
X74320000Y-58090000D01*
G75*
G02*
X74250000Y-58160000I-70000J0D01*
G01*
X73250000Y-58160000D01*
G75*
G02*
X73180000Y-58090000I0J70000D01*
G01*
X73180000Y-55090000D01*
G75*
G02*
X73250000Y-55020000I70000J0D01*
G01*
G37*
G36*
G01*
X75790000Y-59320000D02*
X76790000Y-59320000D01*
G75*
G02*
X76860000Y-59390000I0J-70000D01*
G01*
X76860000Y-62390000D01*
G75*
G02*
X76790000Y-62460000I-70000J0D01*
G01*
X75790000Y-62460000D01*
G75*
G02*
X75720000Y-62390000I0J70000D01*
G01*
X75720000Y-59390000D01*
G75*
G02*
X75790000Y-59320000I70000J0D01*
G01*
G37*
G36*
G01*
X78330000Y-55020000D02*
X79330000Y-55020000D01*
G75*
G02*
X79400000Y-55090000I0J-70000D01*
G01*
X79400000Y-58090000D01*
G75*
G02*
X79330000Y-58160000I-70000J0D01*
G01*
X78330000Y-58160000D01*
G75*
G02*
X78260000Y-58090000I0J70000D01*
G01*
X78260000Y-55090000D01*
G75*
G02*
X78330000Y-55020000I70000J0D01*
G01*
G37*
G36*
G01*
X80870000Y-59320000D02*
X81870000Y-59320000D01*
G75*
G02*
X81940000Y-59390000I0J-70000D01*
G01*
X81940000Y-62390000D01*
G75*
G02*
X81870000Y-62460000I-70000J0D01*
G01*
X80870000Y-62460000D01*
G75*
G02*
X80800000Y-62390000I0J70000D01*
G01*
X80800000Y-59390000D01*
G75*
G02*
X80870000Y-59320000I70000J0D01*
G01*
G37*
G36*
G01*
X83410000Y-55020000D02*
X84410000Y-55020000D01*
G75*
G02*
X84480000Y-55090000I0J-70000D01*
G01*
X84480000Y-58090000D01*
G75*
G02*
X84410000Y-58160000I-70000J0D01*
G01*
X83410000Y-58160000D01*
G75*
G02*
X83340000Y-58090000I0J70000D01*
G01*
X83340000Y-55090000D01*
G75*
G02*
X83410000Y-55020000I70000J0D01*
G01*
G37*
G36*
G01*
X85950000Y-59320000D02*
X86950000Y-59320000D01*
G75*
G02*
X87020000Y-59390000I0J-70000D01*
G01*
X87020000Y-62390000D01*
G75*
G02*
X86950000Y-62460000I-70000J0D01*
G01*
X85950000Y-62460000D01*
G75*
G02*
X85880000Y-62390000I0J70000D01*
G01*
X85880000Y-59390000D01*
G75*
G02*
X85950000Y-59320000I70000J0D01*
G01*
G37*
G36*
G01*
X88490000Y-55020000D02*
X89490000Y-55020000D01*
G75*
G02*
X89560000Y-55090000I0J-70000D01*
G01*
X89560000Y-58090000D01*
G75*
G02*
X89490000Y-58160000I-70000J0D01*
G01*
X88490000Y-58160000D01*
G75*
G02*
X88420000Y-58090000I0J70000D01*
G01*
X88420000Y-55090000D01*
G75*
G02*
X88490000Y-55020000I70000J0D01*
G01*
G37*
G36*
G01*
X91030000Y-59320000D02*
X92030000Y-59320000D01*
G75*
G02*
X92100000Y-59390000I0J-70000D01*
G01*
X92100000Y-62390000D01*
G75*
G02*
X92030000Y-62460000I-70000J0D01*
G01*
X91030000Y-62460000D01*
G75*
G02*
X90960000Y-62390000I0J70000D01*
G01*
X90960000Y-59390000D01*
G75*
G02*
X91030000Y-59320000I70000J0D01*
G01*
G37*
G36*
G01*
X93570000Y-55020000D02*
X94570000Y-55020000D01*
G75*
G02*
X94640000Y-55090000I0J-70000D01*
G01*
X94640000Y-58090000D01*
G75*
G02*
X94570000Y-58160000I-70000J0D01*
G01*
X93570000Y-58160000D01*
G75*
G02*
X93500000Y-58090000I0J70000D01*
G01*
X93500000Y-55090000D01*
G75*
G02*
X93570000Y-55020000I70000J0D01*
G01*
G37*
G36*
G01*
X96110000Y-59320000D02*
X97110000Y-59320000D01*
G75*
G02*
X97180000Y-59390000I0J-70000D01*
G01*
X97180000Y-62390000D01*
G75*
G02*
X97110000Y-62460000I-70000J0D01*
G01*
X96110000Y-62460000D01*
G75*
G02*
X96040000Y-62390000I0J70000D01*
G01*
X96040000Y-59390000D01*
G75*
G02*
X96110000Y-59320000I70000J0D01*
G01*
G37*
G36*
G01*
X73224600Y-35025100D02*
X74224600Y-35025100D01*
G75*
G02*
X74294600Y-35095100I0J-70000D01*
G01*
X74294600Y-38095100D01*
G75*
G02*
X74224600Y-38165100I-70000J0D01*
G01*
X73224600Y-38165100D01*
G75*
G02*
X73154600Y-38095100I0J70000D01*
G01*
X73154600Y-35095100D01*
G75*
G02*
X73224600Y-35025100I70000J0D01*
G01*
G37*
G36*
G01*
X75764600Y-39325100D02*
X76764600Y-39325100D01*
G75*
G02*
X76834600Y-39395100I0J-70000D01*
G01*
X76834600Y-42395100D01*
G75*
G02*
X76764600Y-42465100I-70000J0D01*
G01*
X75764600Y-42465100D01*
G75*
G02*
X75694600Y-42395100I0J70000D01*
G01*
X75694600Y-39395100D01*
G75*
G02*
X75764600Y-39325100I70000J0D01*
G01*
G37*
G36*
G01*
X78304600Y-35025100D02*
X79304600Y-35025100D01*
G75*
G02*
X79374600Y-35095100I0J-70000D01*
G01*
X79374600Y-38095100D01*
G75*
G02*
X79304600Y-38165100I-70000J0D01*
G01*
X78304600Y-38165100D01*
G75*
G02*
X78234600Y-38095100I0J70000D01*
G01*
X78234600Y-35095100D01*
G75*
G02*
X78304600Y-35025100I70000J0D01*
G01*
G37*
G36*
G01*
X80844600Y-39325100D02*
X81844600Y-39325100D01*
G75*
G02*
X81914600Y-39395100I0J-70000D01*
G01*
X81914600Y-42395100D01*
G75*
G02*
X81844600Y-42465100I-70000J0D01*
G01*
X80844600Y-42465100D01*
G75*
G02*
X80774600Y-42395100I0J70000D01*
G01*
X80774600Y-39395100D01*
G75*
G02*
X80844600Y-39325100I70000J0D01*
G01*
G37*
G36*
G01*
X83384600Y-35025100D02*
X84384600Y-35025100D01*
G75*
G02*
X84454600Y-35095100I0J-70000D01*
G01*
X84454600Y-38095100D01*
G75*
G02*
X84384600Y-38165100I-70000J0D01*
G01*
X83384600Y-38165100D01*
G75*
G02*
X83314600Y-38095100I0J70000D01*
G01*
X83314600Y-35095100D01*
G75*
G02*
X83384600Y-35025100I70000J0D01*
G01*
G37*
G36*
G01*
X85924600Y-39325100D02*
X86924600Y-39325100D01*
G75*
G02*
X86994600Y-39395100I0J-70000D01*
G01*
X86994600Y-42395100D01*
G75*
G02*
X86924600Y-42465100I-70000J0D01*
G01*
X85924600Y-42465100D01*
G75*
G02*
X85854600Y-42395100I0J70000D01*
G01*
X85854600Y-39395100D01*
G75*
G02*
X85924600Y-39325100I70000J0D01*
G01*
G37*
G36*
G01*
X88464600Y-35025100D02*
X89464600Y-35025100D01*
G75*
G02*
X89534600Y-35095100I0J-70000D01*
G01*
X89534600Y-38095100D01*
G75*
G02*
X89464600Y-38165100I-70000J0D01*
G01*
X88464600Y-38165100D01*
G75*
G02*
X88394600Y-38095100I0J70000D01*
G01*
X88394600Y-35095100D01*
G75*
G02*
X88464600Y-35025100I70000J0D01*
G01*
G37*
G36*
G01*
X91004600Y-39325100D02*
X92004600Y-39325100D01*
G75*
G02*
X92074600Y-39395100I0J-70000D01*
G01*
X92074600Y-42395100D01*
G75*
G02*
X92004600Y-42465100I-70000J0D01*
G01*
X91004600Y-42465100D01*
G75*
G02*
X90934600Y-42395100I0J70000D01*
G01*
X90934600Y-39395100D01*
G75*
G02*
X91004600Y-39325100I70000J0D01*
G01*
G37*
G36*
G01*
X93544600Y-35025100D02*
X94544600Y-35025100D01*
G75*
G02*
X94614600Y-35095100I0J-70000D01*
G01*
X94614600Y-38095100D01*
G75*
G02*
X94544600Y-38165100I-70000J0D01*
G01*
X93544600Y-38165100D01*
G75*
G02*
X93474600Y-38095100I0J70000D01*
G01*
X93474600Y-35095100D01*
G75*
G02*
X93544600Y-35025100I70000J0D01*
G01*
G37*
G36*
G01*
X96084600Y-39325100D02*
X97084600Y-39325100D01*
G75*
G02*
X97154600Y-39395100I0J-70000D01*
G01*
X97154600Y-42395100D01*
G75*
G02*
X97084600Y-42465100I-70000J0D01*
G01*
X96084600Y-42465100D01*
G75*
G02*
X96014600Y-42395100I0J70000D01*
G01*
X96014600Y-39395100D01*
G75*
G02*
X96084600Y-39325100I70000J0D01*
G01*
G37*
G36*
G01*
X98874850Y-55532850D02*
X98874850Y-54532850D01*
G75*
G02*
X98944850Y-54462850I70000J0D01*
G01*
X101944850Y-54462850D01*
G75*
G02*
X102014850Y-54532850I0J-70000D01*
G01*
X102014850Y-55532850D01*
G75*
G02*
X101944850Y-55602850I-70000J0D01*
G01*
X98944850Y-55602850D01*
G75*
G02*
X98874850Y-55532850I0J70000D01*
G01*
G37*
G36*
G01*
X103174850Y-52992850D02*
X103174850Y-51992850D01*
G75*
G02*
X103244850Y-51922850I70000J0D01*
G01*
X106244850Y-51922850D01*
G75*
G02*
X106314850Y-51992850I0J-70000D01*
G01*
X106314850Y-52992850D01*
G75*
G02*
X106244850Y-53062850I-70000J0D01*
G01*
X103244850Y-53062850D01*
G75*
G02*
X103174850Y-52992850I0J70000D01*
G01*
G37*
G36*
G01*
X98874850Y-50452850D02*
X98874850Y-49452850D01*
G75*
G02*
X98944850Y-49382850I70000J0D01*
G01*
X101944850Y-49382850D01*
G75*
G02*
X102014850Y-49452850I0J-70000D01*
G01*
X102014850Y-50452850D01*
G75*
G02*
X101944850Y-50522850I-70000J0D01*
G01*
X98944850Y-50522850D01*
G75*
G02*
X98874850Y-50452850I0J70000D01*
G01*
G37*
G36*
G01*
X103174850Y-47912850D02*
X103174850Y-46912850D01*
G75*
G02*
X103244850Y-46842850I70000J0D01*
G01*
X106244850Y-46842850D01*
G75*
G02*
X106314850Y-46912850I0J-70000D01*
G01*
X106314850Y-47912850D01*
G75*
G02*
X106244850Y-47982850I-70000J0D01*
G01*
X103244850Y-47982850D01*
G75*
G02*
X103174850Y-47912850I0J70000D01*
G01*
G37*
G36*
G01*
X98874850Y-45372850D02*
X98874850Y-44372850D01*
G75*
G02*
X98944850Y-44302850I70000J0D01*
G01*
X101944850Y-44302850D01*
G75*
G02*
X102014850Y-44372850I0J-70000D01*
G01*
X102014850Y-45372850D01*
G75*
G02*
X101944850Y-45442850I-70000J0D01*
G01*
X98944850Y-45442850D01*
G75*
G02*
X98874850Y-45372850I0J70000D01*
G01*
G37*
G36*
G01*
X103174850Y-42832850D02*
X103174850Y-41832850D01*
G75*
G02*
X103244850Y-41762850I70000J0D01*
G01*
X106244850Y-41762850D01*
G75*
G02*
X106314850Y-41832850I0J-70000D01*
G01*
X106314850Y-42832850D01*
G75*
G02*
X106244850Y-42902850I-70000J0D01*
G01*
X103244850Y-42902850D01*
G75*
G02*
X103174850Y-42832850I0J70000D01*
G01*
G37*
G36*
G01*
X59723230Y-91719760D02*
X60274410Y-91719760D01*
G75*
G02*
X60334410Y-91779760I0J-60000D01*
G01*
X60334410Y-92079480D01*
G75*
G02*
X60274410Y-92139480I-60000J0D01*
G01*
X59723230Y-92139480D01*
G75*
G02*
X59663230Y-92079480I0J60000D01*
G01*
X59663230Y-91779760D01*
G75*
G02*
X59723230Y-91719760I60000J0D01*
G01*
G37*
G36*
G01*
X59723230Y-92370140D02*
X60274410Y-92370140D01*
G75*
G02*
X60334410Y-92430140I0J-60000D01*
G01*
X60334410Y-92729860D01*
G75*
G02*
X60274410Y-92789860I-60000J0D01*
G01*
X59723230Y-92789860D01*
G75*
G02*
X59663230Y-92729860I0J60000D01*
G01*
X59663230Y-92430140D01*
G75*
G02*
X59723230Y-92370140I60000J0D01*
G01*
G37*
G36*
G01*
X59723230Y-93020520D02*
X60274410Y-93020520D01*
G75*
G02*
X60334410Y-93080520I0J-60000D01*
G01*
X60334410Y-93380240D01*
G75*
G02*
X60274410Y-93440240I-60000J0D01*
G01*
X59723230Y-93440240D01*
G75*
G02*
X59663230Y-93380240I0J60000D01*
G01*
X59663230Y-93080520D01*
G75*
G02*
X59723230Y-93020520I60000J0D01*
G01*
G37*
G36*
G01*
X58285590Y-93020520D02*
X58836770Y-93020520D01*
G75*
G02*
X58896770Y-93080520I0J-60000D01*
G01*
X58896770Y-93380240D01*
G75*
G02*
X58836770Y-93440240I-60000J0D01*
G01*
X58285590Y-93440240D01*
G75*
G02*
X58225590Y-93380240I0J60000D01*
G01*
X58225590Y-93080520D01*
G75*
G02*
X58285590Y-93020520I60000J0D01*
G01*
G37*
G36*
G01*
X58285590Y-92370140D02*
X58836770Y-92370140D01*
G75*
G02*
X58896770Y-92430140I0J-60000D01*
G01*
X58896770Y-92729860D01*
G75*
G02*
X58836770Y-92789860I-60000J0D01*
G01*
X58285590Y-92789860D01*
G75*
G02*
X58225590Y-92729860I0J60000D01*
G01*
X58225590Y-92430140D01*
G75*
G02*
X58285590Y-92370140I60000J0D01*
G01*
G37*
G36*
G01*
X58285590Y-91719760D02*
X58836770Y-91719760D01*
G75*
G02*
X58896770Y-91779760I0J-60000D01*
G01*
X58896770Y-92079480D01*
G75*
G02*
X58836770Y-92139480I-60000J0D01*
G01*
X58285590Y-92139480D01*
G75*
G02*
X58225590Y-92079480I0J60000D01*
G01*
X58225590Y-91779760D01*
G75*
G02*
X58285590Y-91719760I60000J0D01*
G01*
G37*
G36*
G01*
X41910000Y-64400000D02*
X43010000Y-64400000D01*
G75*
G02*
X43080000Y-64470000I0J-70000D01*
G01*
X43080000Y-65770000D01*
G75*
G02*
X43010000Y-65840000I-70000J0D01*
G01*
X41910000Y-65840000D01*
G75*
G02*
X41840000Y-65770000I0J70000D01*
G01*
X41840000Y-64470000D01*
G75*
G02*
X41910000Y-64400000I70000J0D01*
G01*
G37*
G36*
G01*
X41910000Y-66740000D02*
X43010000Y-66740000D01*
G75*
G02*
X43080000Y-66810000I0J-70000D01*
G01*
X43080000Y-68110000D01*
G75*
G02*
X43010000Y-68180000I-70000J0D01*
G01*
X41910000Y-68180000D01*
G75*
G02*
X41840000Y-68110000I0J70000D01*
G01*
X41840000Y-66810000D01*
G75*
G02*
X41910000Y-66740000I70000J0D01*
G01*
G37*
G36*
G01*
X43870000Y-66740000D02*
X44970000Y-66740000D01*
G75*
G02*
X45040000Y-66810000I0J-70000D01*
G01*
X45040000Y-68110000D01*
G75*
G02*
X44970000Y-68180000I-70000J0D01*
G01*
X43870000Y-68180000D01*
G75*
G02*
X43800000Y-68110000I0J70000D01*
G01*
X43800000Y-66810000D01*
G75*
G02*
X43870000Y-66740000I70000J0D01*
G01*
G37*
G36*
G01*
X43870000Y-64400000D02*
X44970000Y-64400000D01*
G75*
G02*
X45040000Y-64470000I0J-70000D01*
G01*
X45040000Y-65770000D01*
G75*
G02*
X44970000Y-65840000I-70000J0D01*
G01*
X43870000Y-65840000D01*
G75*
G02*
X43800000Y-65770000I0J70000D01*
G01*
X43800000Y-64470000D01*
G75*
G02*
X43870000Y-64400000I70000J0D01*
G01*
G37*
G36*
G01*
X46860000Y-68820000D02*
X46560000Y-68820000D01*
G75*
G02*
X46500000Y-68760000I0J60000D01*
G01*
X46500000Y-67360000D01*
G75*
G02*
X46560000Y-67300000I60000J0D01*
G01*
X46860000Y-67300000D01*
G75*
G02*
X46920000Y-67360000I0J-60000D01*
G01*
X46920000Y-68760000D01*
G75*
G02*
X46860000Y-68820000I-60000J0D01*
G01*
G37*
G36*
G01*
X47360000Y-68820000D02*
X47060000Y-68820000D01*
G75*
G02*
X47000000Y-68760000I0J60000D01*
G01*
X47000000Y-67360000D01*
G75*
G02*
X47060000Y-67300000I60000J0D01*
G01*
X47360000Y-67300000D01*
G75*
G02*
X47420000Y-67360000I0J-60000D01*
G01*
X47420000Y-68760000D01*
G75*
G02*
X47360000Y-68820000I-60000J0D01*
G01*
G37*
G36*
G01*
X47860000Y-68820000D02*
X47560000Y-68820000D01*
G75*
G02*
X47500000Y-68760000I0J60000D01*
G01*
X47500000Y-67360000D01*
G75*
G02*
X47560000Y-67300000I60000J0D01*
G01*
X47860000Y-67300000D01*
G75*
G02*
X47920000Y-67360000I0J-60000D01*
G01*
X47920000Y-68760000D01*
G75*
G02*
X47860000Y-68820000I-60000J0D01*
G01*
G37*
G36*
G01*
X48360000Y-68820000D02*
X48060000Y-68820000D01*
G75*
G02*
X48000000Y-68760000I0J60000D01*
G01*
X48000000Y-67360000D01*
G75*
G02*
X48060000Y-67300000I60000J0D01*
G01*
X48360000Y-67300000D01*
G75*
G02*
X48420000Y-67360000I0J-60000D01*
G01*
X48420000Y-68760000D01*
G75*
G02*
X48360000Y-68820000I-60000J0D01*
G01*
G37*
G36*
G01*
X48860000Y-68820000D02*
X48560000Y-68820000D01*
G75*
G02*
X48500000Y-68760000I0J60000D01*
G01*
X48500000Y-67360000D01*
G75*
G02*
X48560000Y-67300000I60000J0D01*
G01*
X48860000Y-67300000D01*
G75*
G02*
X48920000Y-67360000I0J-60000D01*
G01*
X48920000Y-68760000D01*
G75*
G02*
X48860000Y-68820000I-60000J0D01*
G01*
G37*
G36*
G01*
X48860000Y-64420000D02*
X48560000Y-64420000D01*
G75*
G02*
X48500000Y-64360000I0J60000D01*
G01*
X48500000Y-62960000D01*
G75*
G02*
X48560000Y-62900000I60000J0D01*
G01*
X48860000Y-62900000D01*
G75*
G02*
X48920000Y-62960000I0J-60000D01*
G01*
X48920000Y-64360000D01*
G75*
G02*
X48860000Y-64420000I-60000J0D01*
G01*
G37*
G36*
G01*
X48360000Y-64420000D02*
X48060000Y-64420000D01*
G75*
G02*
X48000000Y-64360000I0J60000D01*
G01*
X48000000Y-62960000D01*
G75*
G02*
X48060000Y-62900000I60000J0D01*
G01*
X48360000Y-62900000D01*
G75*
G02*
X48420000Y-62960000I0J-60000D01*
G01*
X48420000Y-64360000D01*
G75*
G02*
X48360000Y-64420000I-60000J0D01*
G01*
G37*
G36*
G01*
X47860000Y-64420000D02*
X47560000Y-64420000D01*
G75*
G02*
X47500000Y-64360000I0J60000D01*
G01*
X47500000Y-62960000D01*
G75*
G02*
X47560000Y-62900000I60000J0D01*
G01*
X47860000Y-62900000D01*
G75*
G02*
X47920000Y-62960000I0J-60000D01*
G01*
X47920000Y-64360000D01*
G75*
G02*
X47860000Y-64420000I-60000J0D01*
G01*
G37*
G36*
G01*
X47360000Y-64420000D02*
X47060000Y-64420000D01*
G75*
G02*
X47000000Y-64360000I0J60000D01*
G01*
X47000000Y-62960000D01*
G75*
G02*
X47060000Y-62900000I60000J0D01*
G01*
X47360000Y-62900000D01*
G75*
G02*
X47420000Y-62960000I0J-60000D01*
G01*
X47420000Y-64360000D01*
G75*
G02*
X47360000Y-64420000I-60000J0D01*
G01*
G37*
G36*
G01*
X46860000Y-64420000D02*
X46560000Y-64420000D01*
G75*
G02*
X46500000Y-64360000I0J60000D01*
G01*
X46500000Y-62960000D01*
G75*
G02*
X46560000Y-62900000I60000J0D01*
G01*
X46860000Y-62900000D01*
G75*
G02*
X46920000Y-62960000I0J-60000D01*
G01*
X46920000Y-64360000D01*
G75*
G02*
X46860000Y-64420000I-60000J0D01*
G01*
G37*
G36*
G01*
X68040000Y-95710000D02*
X65340000Y-95710000D01*
G75*
G02*
X65270000Y-95640000I0J70000D01*
G01*
X65270000Y-94040000D01*
G75*
G02*
X65340000Y-93970000I70000J0D01*
G01*
X68040000Y-93970000D01*
G75*
G02*
X68110000Y-94040000I0J-70000D01*
G01*
X68110000Y-95640000D01*
G75*
G02*
X68040000Y-95710000I-70000J0D01*
G01*
G37*
G36*
G01*
X72440000Y-96510000D02*
X69940000Y-96510000D01*
G75*
G02*
X69870000Y-96440000I0J70000D01*
G01*
X69870000Y-95240000D01*
G75*
G02*
X69940000Y-95170000I70000J0D01*
G01*
X72440000Y-95170000D01*
G75*
G02*
X72510000Y-95240000I0J-70000D01*
G01*
X72510000Y-96440000D01*
G75*
G02*
X72440000Y-96510000I-70000J0D01*
G01*
G37*
G36*
G01*
X72440000Y-94510000D02*
X69940000Y-94510000D01*
G75*
G02*
X69870000Y-94440000I0J70000D01*
G01*
X69870000Y-93240000D01*
G75*
G02*
X69940000Y-93170000I70000J0D01*
G01*
X72440000Y-93170000D01*
G75*
G02*
X72510000Y-93240000I0J-70000D01*
G01*
X72510000Y-94440000D01*
G75*
G02*
X72440000Y-94510000I-70000J0D01*
G01*
G37*
G36*
G01*
X28610000Y-95650000D02*
X28610000Y-90650000D01*
G75*
G02*
X28680000Y-90580000I70000J0D01*
G01*
X33680000Y-90580000D01*
G75*
G02*
X33750000Y-90650000I0J-70000D01*
G01*
X33750000Y-95650000D01*
G75*
G02*
X33680000Y-95720000I-70000J0D01*
G01*
X28680000Y-95720000D01*
G75*
G02*
X28610000Y-95650000I0J70000D01*
G01*
G37*
G36*
G01*
X117020000Y-58190000D02*
X117020000Y-53190000D01*
G75*
G02*
X117090000Y-53120000I70000J0D01*
G01*
X122090000Y-53120000D01*
G75*
G02*
X122160000Y-53190000I0J-70000D01*
G01*
X122160000Y-58190000D01*
G75*
G02*
X122090000Y-58260000I-70000J0D01*
G01*
X117090000Y-58260000D01*
G75*
G02*
X117020000Y-58190000I0J70000D01*
G01*
G37*
D18*
X55666854Y-51783146D03*
X50010000Y-57440000D03*
D19*
X50010000Y-57440000D03*
X55666854Y-51783146D03*
D20*
X37750000Y-79420000D03*
D21*
X49500000Y-49790000D03*
X46960000Y-49790000D03*
X52040000Y-49790000D03*
G36*
G01*
X112522400Y-45497600D02*
X112522400Y-43262400D01*
G75*
G02*
X112592400Y-43192400I70000J0D01*
G01*
X114827600Y-43192400D01*
G75*
G02*
X114897600Y-43262400I0J-70000D01*
G01*
X114897600Y-45497600D01*
G75*
G02*
X114827600Y-45567600I-70000J0D01*
G01*
X112592400Y-45567600D01*
G75*
G02*
X112522400Y-45497600I0J70000D01*
G01*
G37*
D20*
X50790000Y-36520000D03*
G36*
G01*
X57680000Y-56680000D02*
X57680000Y-57900000D01*
G75*
G02*
X57610000Y-57970000I-70000J0D01*
G01*
X55700000Y-57970000D01*
G75*
G02*
X55630000Y-57900000I0J70000D01*
G01*
X55630000Y-56680000D01*
G75*
G02*
X55700000Y-56610000I70000J0D01*
G01*
X57610000Y-56610000D01*
G75*
G02*
X57680000Y-56680000I0J-70000D01*
G01*
G37*
G36*
G01*
X53410000Y-56680000D02*
X53410000Y-57900000D01*
G75*
G02*
X53340000Y-57970000I-70000J0D01*
G01*
X51430000Y-57970000D01*
G75*
G02*
X51360000Y-57900000I0J70000D01*
G01*
X51360000Y-56680000D01*
G75*
G02*
X51430000Y-56610000I70000J0D01*
G01*
X53340000Y-56610000D01*
G75*
G02*
X53410000Y-56680000I0J-70000D01*
G01*
G37*
D18*
X77260000Y-91240000D03*
X77260000Y-83240000D03*
D19*
X77260000Y-83240000D03*
X77260000Y-91240000D03*
D18*
X38020000Y-60020000D03*
X46020000Y-60020000D03*
D19*
X46020000Y-60020000D03*
X38020000Y-60020000D03*
D18*
X36930000Y-52760000D03*
X36930000Y-44760000D03*
D19*
X36930000Y-44760000D03*
X36930000Y-52760000D03*
D18*
X20650000Y-53290000D03*
X28650000Y-53290000D03*
D19*
X28650000Y-53290000D03*
X20650000Y-53290000D03*
D18*
X41580000Y-41880000D03*
X41580000Y-49880000D03*
D19*
X41580000Y-49880000D03*
X41580000Y-41880000D03*
D18*
X65150000Y-97910000D03*
X73150000Y-97910000D03*
D19*
X73150000Y-97910000D03*
X65150000Y-97910000D03*
D14*
X45740000Y-44150000D03*
X45740000Y-38150000D03*
X48240000Y-38150000D03*
X43240000Y-44150000D03*
X36464900Y-47490000D03*
X34521800Y-51490000D03*
G36*
G01*
X49100000Y-55770000D02*
X49100000Y-53270000D01*
G75*
G02*
X49170000Y-53200000I70000J0D01*
G01*
X50170000Y-53200000D01*
G75*
G02*
X50240000Y-53270000I0J-70000D01*
G01*
X50240000Y-55770000D01*
G75*
G02*
X50170000Y-55840000I-70000J0D01*
G01*
X49170000Y-55840000D01*
G75*
G02*
X49100000Y-55770000I0J70000D01*
G01*
G37*
G36*
G01*
X52100000Y-55770000D02*
X52100000Y-53270000D01*
G75*
G02*
X52170000Y-53200000I70000J0D01*
G01*
X53170000Y-53200000D01*
G75*
G02*
X53240000Y-53270000I0J-70000D01*
G01*
X53240000Y-55770000D01*
G75*
G02*
X53170000Y-55840000I-70000J0D01*
G01*
X52170000Y-55840000D01*
G75*
G02*
X52100000Y-55770000I0J70000D01*
G01*
G37*
G36*
G01*
X53615000Y-39545000D02*
X53615000Y-36995000D01*
G75*
G02*
X53685000Y-36925000I70000J0D01*
G01*
X56455000Y-36925000D01*
G75*
G02*
X56525000Y-36995000I0J-70000D01*
G01*
X56525000Y-39545000D01*
G75*
G02*
X56455000Y-39615000I-70000J0D01*
G01*
X53685000Y-39615000D01*
G75*
G02*
X53615000Y-39545000I0J70000D01*
G01*
G37*
G36*
G01*
X60075000Y-39545000D02*
X60075000Y-36995000D01*
G75*
G02*
X60145000Y-36925000I70000J0D01*
G01*
X62915000Y-36925000D01*
G75*
G02*
X62985000Y-36995000I0J-70000D01*
G01*
X62985000Y-39545000D01*
G75*
G02*
X62915000Y-39615000I-70000J0D01*
G01*
X60145000Y-39615000D01*
G75*
G02*
X60075000Y-39545000I0J70000D01*
G01*
G37*
G36*
G01*
X51345000Y-40770000D02*
X52595000Y-40770000D01*
G75*
G02*
X52665000Y-40840000I0J-70000D01*
G01*
X52665000Y-41840000D01*
G75*
G02*
X52595000Y-41910000I-70000J0D01*
G01*
X51345000Y-41910000D01*
G75*
G02*
X51275000Y-41840000I0J70000D01*
G01*
X51275000Y-40840000D01*
G75*
G02*
X51345000Y-40770000I70000J0D01*
G01*
G37*
G36*
G01*
X51345000Y-38770000D02*
X52595000Y-38770000D01*
G75*
G02*
X52665000Y-38840000I0J-70000D01*
G01*
X52665000Y-39840000D01*
G75*
G02*
X52595000Y-39910000I-70000J0D01*
G01*
X51345000Y-39910000D01*
G75*
G02*
X51275000Y-39840000I0J70000D01*
G01*
X51275000Y-38840000D01*
G75*
G02*
X51345000Y-38770000I70000J0D01*
G01*
G37*
G36*
G01*
X39325000Y-45760000D02*
X40575000Y-45760000D01*
G75*
G02*
X40645000Y-45830000I0J-70000D01*
G01*
X40645000Y-46830000D01*
G75*
G02*
X40575000Y-46900000I-70000J0D01*
G01*
X39325000Y-46900000D01*
G75*
G02*
X39255000Y-46830000I0J70000D01*
G01*
X39255000Y-45830000D01*
G75*
G02*
X39325000Y-45760000I70000J0D01*
G01*
G37*
G36*
G01*
X39325000Y-43760000D02*
X40575000Y-43760000D01*
G75*
G02*
X40645000Y-43830000I0J-70000D01*
G01*
X40645000Y-44830000D01*
G75*
G02*
X40575000Y-44900000I-70000J0D01*
G01*
X39325000Y-44900000D01*
G75*
G02*
X39255000Y-44830000I0J70000D01*
G01*
X39255000Y-43830000D01*
G75*
G02*
X39325000Y-43760000I70000J0D01*
G01*
G37*
G36*
G01*
X34965000Y-44400000D02*
X33715000Y-44400000D01*
G75*
G02*
X33645000Y-44330000I0J70000D01*
G01*
X33645000Y-43330000D01*
G75*
G02*
X33715000Y-43260000I70000J0D01*
G01*
X34965000Y-43260000D01*
G75*
G02*
X35035000Y-43330000I0J-70000D01*
G01*
X35035000Y-44330000D01*
G75*
G02*
X34965000Y-44400000I-70000J0D01*
G01*
G37*
G36*
G01*
X34965000Y-46400000D02*
X33715000Y-46400000D01*
G75*
G02*
X33645000Y-46330000I0J70000D01*
G01*
X33645000Y-45330000D01*
G75*
G02*
X33715000Y-45260000I70000J0D01*
G01*
X34965000Y-45260000D01*
G75*
G02*
X35035000Y-45330000I0J-70000D01*
G01*
X35035000Y-46330000D01*
G75*
G02*
X34965000Y-46400000I-70000J0D01*
G01*
G37*
G36*
G01*
X29810000Y-52155000D02*
X29810000Y-50905000D01*
G75*
G02*
X29880000Y-50835000I70000J0D01*
G01*
X30880000Y-50835000D01*
G75*
G02*
X30950000Y-50905000I0J-70000D01*
G01*
X30950000Y-52155000D01*
G75*
G02*
X30880000Y-52225000I-70000J0D01*
G01*
X29880000Y-52225000D01*
G75*
G02*
X29810000Y-52155000I0J70000D01*
G01*
G37*
G36*
G01*
X31810000Y-52155000D02*
X31810000Y-50905000D01*
G75*
G02*
X31880000Y-50835000I70000J0D01*
G01*
X32880000Y-50835000D01*
G75*
G02*
X32950000Y-50905000I0J-70000D01*
G01*
X32950000Y-52155000D01*
G75*
G02*
X32880000Y-52225000I-70000J0D01*
G01*
X31880000Y-52225000D01*
G75*
G02*
X31810000Y-52155000I0J70000D01*
G01*
G37*
G36*
G01*
X29210000Y-57985000D02*
X29210000Y-59235000D01*
G75*
G02*
X29140000Y-59305000I-70000J0D01*
G01*
X28140000Y-59305000D01*
G75*
G02*
X28070000Y-59235000I0J70000D01*
G01*
X28070000Y-57985000D01*
G75*
G02*
X28140000Y-57915000I70000J0D01*
G01*
X29140000Y-57915000D01*
G75*
G02*
X29210000Y-57985000I0J-70000D01*
G01*
G37*
G36*
G01*
X27210000Y-57985000D02*
X27210000Y-59235000D01*
G75*
G02*
X27140000Y-59305000I-70000J0D01*
G01*
X26140000Y-59305000D01*
G75*
G02*
X26070000Y-59235000I0J70000D01*
G01*
X26070000Y-57985000D01*
G75*
G02*
X26140000Y-57915000I70000J0D01*
G01*
X27140000Y-57915000D01*
G75*
G02*
X27210000Y-57985000I0J-70000D01*
G01*
G37*
G36*
G01*
X99990000Y-80875000D02*
X99990000Y-82125000D01*
G75*
G02*
X99920000Y-82195000I-70000J0D01*
G01*
X98920000Y-82195000D01*
G75*
G02*
X98850000Y-82125000I0J70000D01*
G01*
X98850000Y-80875000D01*
G75*
G02*
X98920000Y-80805000I70000J0D01*
G01*
X99920000Y-80805000D01*
G75*
G02*
X99990000Y-80875000I0J-70000D01*
G01*
G37*
G36*
G01*
X97990000Y-80875000D02*
X97990000Y-82125000D01*
G75*
G02*
X97920000Y-82195000I-70000J0D01*
G01*
X96920000Y-82195000D01*
G75*
G02*
X96850000Y-82125000I0J70000D01*
G01*
X96850000Y-80875000D01*
G75*
G02*
X96920000Y-80805000I70000J0D01*
G01*
X97920000Y-80805000D01*
G75*
G02*
X97990000Y-80875000I0J-70000D01*
G01*
G37*
G36*
G01*
X109480000Y-57155000D02*
X109480000Y-58405000D01*
G75*
G02*
X109410000Y-58475000I-70000J0D01*
G01*
X108410000Y-58475000D01*
G75*
G02*
X108340000Y-58405000I0J70000D01*
G01*
X108340000Y-57155000D01*
G75*
G02*
X108410000Y-57085000I70000J0D01*
G01*
X109410000Y-57085000D01*
G75*
G02*
X109480000Y-57155000I0J-70000D01*
G01*
G37*
G36*
G01*
X107480000Y-57155000D02*
X107480000Y-58405000D01*
G75*
G02*
X107410000Y-58475000I-70000J0D01*
G01*
X106410000Y-58475000D01*
G75*
G02*
X106340000Y-58405000I0J70000D01*
G01*
X106340000Y-57155000D01*
G75*
G02*
X106410000Y-57085000I70000J0D01*
G01*
X107410000Y-57085000D01*
G75*
G02*
X107480000Y-57155000I0J-70000D01*
G01*
G37*
G36*
G01*
X98830000Y-97655000D02*
X98830000Y-98905000D01*
G75*
G02*
X98760000Y-98975000I-70000J0D01*
G01*
X97760000Y-98975000D01*
G75*
G02*
X97690000Y-98905000I0J70000D01*
G01*
X97690000Y-97655000D01*
G75*
G02*
X97760000Y-97585000I70000J0D01*
G01*
X98760000Y-97585000D01*
G75*
G02*
X98830000Y-97655000I0J-70000D01*
G01*
G37*
G36*
G01*
X96830000Y-97655000D02*
X96830000Y-98905000D01*
G75*
G02*
X96760000Y-98975000I-70000J0D01*
G01*
X95760000Y-98975000D01*
G75*
G02*
X95690000Y-98905000I0J70000D01*
G01*
X95690000Y-97655000D01*
G75*
G02*
X95760000Y-97585000I70000J0D01*
G01*
X96760000Y-97585000D01*
G75*
G02*
X96830000Y-97655000I0J-70000D01*
G01*
G37*
G36*
G01*
X99375000Y-90670000D02*
X100625000Y-90670000D01*
G75*
G02*
X100695000Y-90740000I0J-70000D01*
G01*
X100695000Y-91740000D01*
G75*
G02*
X100625000Y-91810000I-70000J0D01*
G01*
X99375000Y-91810000D01*
G75*
G02*
X99305000Y-91740000I0J70000D01*
G01*
X99305000Y-90740000D01*
G75*
G02*
X99375000Y-90670000I70000J0D01*
G01*
G37*
G36*
G01*
X99375000Y-92670000D02*
X100625000Y-92670000D01*
G75*
G02*
X100695000Y-92740000I0J-70000D01*
G01*
X100695000Y-93740000D01*
G75*
G02*
X100625000Y-93810000I-70000J0D01*
G01*
X99375000Y-93810000D01*
G75*
G02*
X99305000Y-93740000I0J70000D01*
G01*
X99305000Y-92740000D01*
G75*
G02*
X99375000Y-92670000I70000J0D01*
G01*
G37*
G36*
G01*
X94235000Y-80070000D02*
X95485000Y-80070000D01*
G75*
G02*
X95555000Y-80140000I0J-70000D01*
G01*
X95555000Y-81140000D01*
G75*
G02*
X95485000Y-81210000I-70000J0D01*
G01*
X94235000Y-81210000D01*
G75*
G02*
X94165000Y-81140000I0J70000D01*
G01*
X94165000Y-80140000D01*
G75*
G02*
X94235000Y-80070000I70000J0D01*
G01*
G37*
G36*
G01*
X94235000Y-78070000D02*
X95485000Y-78070000D01*
G75*
G02*
X95555000Y-78140000I0J-70000D01*
G01*
X95555000Y-79140000D01*
G75*
G02*
X95485000Y-79210000I-70000J0D01*
G01*
X94235000Y-79210000D01*
G75*
G02*
X94165000Y-79140000I0J70000D01*
G01*
X94165000Y-78140000D01*
G75*
G02*
X94235000Y-78070000I70000J0D01*
G01*
G37*
G36*
G01*
X92190000Y-75185000D02*
X92190000Y-73935000D01*
G75*
G02*
X92260000Y-73865000I70000J0D01*
G01*
X93260000Y-73865000D01*
G75*
G02*
X93330000Y-73935000I0J-70000D01*
G01*
X93330000Y-75185000D01*
G75*
G02*
X93260000Y-75255000I-70000J0D01*
G01*
X92260000Y-75255000D01*
G75*
G02*
X92190000Y-75185000I0J70000D01*
G01*
G37*
G36*
G01*
X94190000Y-75185000D02*
X94190000Y-73935000D01*
G75*
G02*
X94260000Y-73865000I70000J0D01*
G01*
X95260000Y-73865000D01*
G75*
G02*
X95330000Y-73935000I0J-70000D01*
G01*
X95330000Y-75185000D01*
G75*
G02*
X95260000Y-75255000I-70000J0D01*
G01*
X94260000Y-75255000D01*
G75*
G02*
X94190000Y-75185000I0J70000D01*
G01*
G37*
G36*
G01*
X106065000Y-97005000D02*
X106065000Y-94455000D01*
G75*
G02*
X106135000Y-94385000I70000J0D01*
G01*
X108905000Y-94385000D01*
G75*
G02*
X108975000Y-94455000I0J-70000D01*
G01*
X108975000Y-97005000D01*
G75*
G02*
X108905000Y-97075000I-70000J0D01*
G01*
X106135000Y-97075000D01*
G75*
G02*
X106065000Y-97005000I0J70000D01*
G01*
G37*
G36*
G01*
X112525000Y-97005000D02*
X112525000Y-94455000D01*
G75*
G02*
X112595000Y-94385000I70000J0D01*
G01*
X115365000Y-94385000D01*
G75*
G02*
X115435000Y-94455000I0J-70000D01*
G01*
X115435000Y-97005000D01*
G75*
G02*
X115365000Y-97075000I-70000J0D01*
G01*
X112595000Y-97075000D01*
G75*
G02*
X112525000Y-97005000I0J70000D01*
G01*
G37*
G36*
G01*
X90560000Y-87850000D02*
X90560000Y-85350000D01*
G75*
G02*
X90630000Y-85280000I70000J0D01*
G01*
X91630000Y-85280000D01*
G75*
G02*
X91700000Y-85350000I0J-70000D01*
G01*
X91700000Y-87850000D01*
G75*
G02*
X91630000Y-87920000I-70000J0D01*
G01*
X90630000Y-87920000D01*
G75*
G02*
X90560000Y-87850000I0J70000D01*
G01*
G37*
G36*
G01*
X87560000Y-87850000D02*
X87560000Y-85350000D01*
G75*
G02*
X87630000Y-85280000I70000J0D01*
G01*
X88630000Y-85280000D01*
G75*
G02*
X88700000Y-85350000I0J-70000D01*
G01*
X88700000Y-87850000D01*
G75*
G02*
X88630000Y-87920000I-70000J0D01*
G01*
X87630000Y-87920000D01*
G75*
G02*
X87560000Y-87850000I0J70000D01*
G01*
G37*
G36*
G01*
X91710000Y-90655000D02*
X91710000Y-89405000D01*
G75*
G02*
X91780000Y-89335000I70000J0D01*
G01*
X92780000Y-89335000D01*
G75*
G02*
X92850000Y-89405000I0J-70000D01*
G01*
X92850000Y-90655000D01*
G75*
G02*
X92780000Y-90725000I-70000J0D01*
G01*
X91780000Y-90725000D01*
G75*
G02*
X91710000Y-90655000I0J70000D01*
G01*
G37*
G36*
G01*
X89710000Y-90655000D02*
X89710000Y-89405000D01*
G75*
G02*
X89780000Y-89335000I70000J0D01*
G01*
X90780000Y-89335000D01*
G75*
G02*
X90850000Y-89405000I0J-70000D01*
G01*
X90850000Y-90655000D01*
G75*
G02*
X90780000Y-90725000I-70000J0D01*
G01*
X89780000Y-90725000D01*
G75*
G02*
X89710000Y-90655000I0J70000D01*
G01*
G37*
G36*
G01*
X76770000Y-94325000D02*
X76770000Y-93075000D01*
G75*
G02*
X76840000Y-93005000I70000J0D01*
G01*
X77840000Y-93005000D01*
G75*
G02*
X77910000Y-93075000I0J-70000D01*
G01*
X77910000Y-94325000D01*
G75*
G02*
X77840000Y-94395000I-70000J0D01*
G01*
X76840000Y-94395000D01*
G75*
G02*
X76770000Y-94325000I0J70000D01*
G01*
G37*
G36*
G01*
X78770000Y-94325000D02*
X78770000Y-93075000D01*
G75*
G02*
X78840000Y-93005000I70000J0D01*
G01*
X79840000Y-93005000D01*
G75*
G02*
X79910000Y-93075000I0J-70000D01*
G01*
X79910000Y-94325000D01*
G75*
G02*
X79840000Y-94395000I-70000J0D01*
G01*
X78840000Y-94395000D01*
G75*
G02*
X78770000Y-94325000I0J70000D01*
G01*
G37*
G36*
G01*
X86225000Y-75300000D02*
X84975000Y-75300000D01*
G75*
G02*
X84905000Y-75230000I0J70000D01*
G01*
X84905000Y-74230000D01*
G75*
G02*
X84975000Y-74160000I70000J0D01*
G01*
X86225000Y-74160000D01*
G75*
G02*
X86295000Y-74230000I0J-70000D01*
G01*
X86295000Y-75230000D01*
G75*
G02*
X86225000Y-75300000I-70000J0D01*
G01*
G37*
G36*
G01*
X86225000Y-73300000D02*
X84975000Y-73300000D01*
G75*
G02*
X84905000Y-73230000I0J70000D01*
G01*
X84905000Y-72230000D01*
G75*
G02*
X84975000Y-72160000I70000J0D01*
G01*
X86225000Y-72160000D01*
G75*
G02*
X86295000Y-72230000I0J-70000D01*
G01*
X86295000Y-73230000D01*
G75*
G02*
X86225000Y-73300000I-70000J0D01*
G01*
G37*
G36*
G01*
X91995000Y-95255000D02*
X91995000Y-92705000D01*
G75*
G02*
X92065000Y-92635000I70000J0D01*
G01*
X94835000Y-92635000D01*
G75*
G02*
X94905000Y-92705000I0J-70000D01*
G01*
X94905000Y-95255000D01*
G75*
G02*
X94835000Y-95325000I-70000J0D01*
G01*
X92065000Y-95325000D01*
G75*
G02*
X91995000Y-95255000I0J70000D01*
G01*
G37*
G36*
G01*
X85535000Y-95255000D02*
X85535000Y-92705000D01*
G75*
G02*
X85605000Y-92635000I70000J0D01*
G01*
X88375000Y-92635000D01*
G75*
G02*
X88445000Y-92705000I0J-70000D01*
G01*
X88445000Y-95255000D01*
G75*
G02*
X88375000Y-95325000I-70000J0D01*
G01*
X85605000Y-95325000D01*
G75*
G02*
X85535000Y-95255000I0J70000D01*
G01*
G37*
G36*
G01*
X101405000Y-95055000D02*
X103955000Y-95055000D01*
G75*
G02*
X104025000Y-95125000I0J-70000D01*
G01*
X104025000Y-97895000D01*
G75*
G02*
X103955000Y-97965000I-70000J0D01*
G01*
X101405000Y-97965000D01*
G75*
G02*
X101335000Y-97895000I0J70000D01*
G01*
X101335000Y-95125000D01*
G75*
G02*
X101405000Y-95055000I70000J0D01*
G01*
G37*
G36*
G01*
X101405000Y-101515000D02*
X103955000Y-101515000D01*
G75*
G02*
X104025000Y-101585000I0J-70000D01*
G01*
X104025000Y-104355000D01*
G75*
G02*
X103955000Y-104425000I-70000J0D01*
G01*
X101405000Y-104425000D01*
G75*
G02*
X101335000Y-104355000I0J70000D01*
G01*
X101335000Y-101585000D01*
G75*
G02*
X101405000Y-101515000I70000J0D01*
G01*
G37*
G36*
G01*
X108490000Y-70155000D02*
X108490000Y-68905000D01*
G75*
G02*
X108560000Y-68835000I70000J0D01*
G01*
X109560000Y-68835000D01*
G75*
G02*
X109630000Y-68905000I0J-70000D01*
G01*
X109630000Y-70155000D01*
G75*
G02*
X109560000Y-70225000I-70000J0D01*
G01*
X108560000Y-70225000D01*
G75*
G02*
X108490000Y-70155000I0J70000D01*
G01*
G37*
G36*
G01*
X106490000Y-70155000D02*
X106490000Y-68905000D01*
G75*
G02*
X106560000Y-68835000I70000J0D01*
G01*
X107560000Y-68835000D01*
G75*
G02*
X107630000Y-68905000I0J-70000D01*
G01*
X107630000Y-70155000D01*
G75*
G02*
X107560000Y-70225000I-70000J0D01*
G01*
X106560000Y-70225000D01*
G75*
G02*
X106490000Y-70155000I0J70000D01*
G01*
G37*
G36*
G01*
X113995000Y-61295000D02*
X111445000Y-61295000D01*
G75*
G02*
X111375000Y-61225000I0J70000D01*
G01*
X111375000Y-58455000D01*
G75*
G02*
X111445000Y-58385000I70000J0D01*
G01*
X113995000Y-58385000D01*
G75*
G02*
X114065000Y-58455000I0J-70000D01*
G01*
X114065000Y-61225000D01*
G75*
G02*
X113995000Y-61295000I-70000J0D01*
G01*
G37*
G36*
G01*
X113995000Y-67755000D02*
X111445000Y-67755000D01*
G75*
G02*
X111375000Y-67685000I0J70000D01*
G01*
X111375000Y-64915000D01*
G75*
G02*
X111445000Y-64845000I70000J0D01*
G01*
X113995000Y-64845000D01*
G75*
G02*
X114065000Y-64915000I0J-70000D01*
G01*
X114065000Y-67685000D01*
G75*
G02*
X113995000Y-67755000I-70000J0D01*
G01*
G37*
G36*
G01*
X120995000Y-70670000D02*
X119745000Y-70670000D01*
G75*
G02*
X119675000Y-70600000I0J70000D01*
G01*
X119675000Y-69600000D01*
G75*
G02*
X119745000Y-69530000I70000J0D01*
G01*
X120995000Y-69530000D01*
G75*
G02*
X121065000Y-69600000I0J-70000D01*
G01*
X121065000Y-70600000D01*
G75*
G02*
X120995000Y-70670000I-70000J0D01*
G01*
G37*
G36*
G01*
X120995000Y-72670000D02*
X119745000Y-72670000D01*
G75*
G02*
X119675000Y-72600000I0J70000D01*
G01*
X119675000Y-71600000D01*
G75*
G02*
X119745000Y-71530000I70000J0D01*
G01*
X120995000Y-71530000D01*
G75*
G02*
X121065000Y-71600000I0J-70000D01*
G01*
X121065000Y-72600000D01*
G75*
G02*
X120995000Y-72670000I-70000J0D01*
G01*
G37*
G36*
G01*
X116070000Y-67795000D02*
X116070000Y-66545000D01*
G75*
G02*
X116140000Y-66475000I70000J0D01*
G01*
X117140000Y-66475000D01*
G75*
G02*
X117210000Y-66545000I0J-70000D01*
G01*
X117210000Y-67795000D01*
G75*
G02*
X117140000Y-67865000I-70000J0D01*
G01*
X116140000Y-67865000D01*
G75*
G02*
X116070000Y-67795000I0J70000D01*
G01*
G37*
G36*
G01*
X118070000Y-67795000D02*
X118070000Y-66545000D01*
G75*
G02*
X118140000Y-66475000I70000J0D01*
G01*
X119140000Y-66475000D01*
G75*
G02*
X119210000Y-66545000I0J-70000D01*
G01*
X119210000Y-67795000D01*
G75*
G02*
X119140000Y-67865000I-70000J0D01*
G01*
X118140000Y-67865000D01*
G75*
G02*
X118070000Y-67795000I0J70000D01*
G01*
G37*
G36*
G01*
X81070000Y-50575000D02*
X81070000Y-51825000D01*
G75*
G02*
X81000000Y-51895000I-70000J0D01*
G01*
X80000000Y-51895000D01*
G75*
G02*
X79930000Y-51825000I0J70000D01*
G01*
X79930000Y-50575000D01*
G75*
G02*
X80000000Y-50505000I70000J0D01*
G01*
X81000000Y-50505000D01*
G75*
G02*
X81070000Y-50575000I0J-70000D01*
G01*
G37*
G36*
G01*
X83070000Y-50575000D02*
X83070000Y-51825000D01*
G75*
G02*
X83000000Y-51895000I-70000J0D01*
G01*
X82000000Y-51895000D01*
G75*
G02*
X81930000Y-51825000I0J70000D01*
G01*
X81930000Y-50575000D01*
G75*
G02*
X82000000Y-50505000I70000J0D01*
G01*
X83000000Y-50505000D01*
G75*
G02*
X83070000Y-50575000I0J-70000D01*
G01*
G37*
G36*
G01*
X65505000Y-85760000D02*
X64255000Y-85760000D01*
G75*
G02*
X64185000Y-85690000I0J70000D01*
G01*
X64185000Y-84690000D01*
G75*
G02*
X64255000Y-84620000I70000J0D01*
G01*
X65505000Y-84620000D01*
G75*
G02*
X65575000Y-84690000I0J-70000D01*
G01*
X65575000Y-85690000D01*
G75*
G02*
X65505000Y-85760000I-70000J0D01*
G01*
G37*
G36*
G01*
X65505000Y-83760000D02*
X64255000Y-83760000D01*
G75*
G02*
X64185000Y-83690000I0J70000D01*
G01*
X64185000Y-82690000D01*
G75*
G02*
X64255000Y-82620000I70000J0D01*
G01*
X65505000Y-82620000D01*
G75*
G02*
X65575000Y-82690000I0J-70000D01*
G01*
X65575000Y-83690000D01*
G75*
G02*
X65505000Y-83760000I-70000J0D01*
G01*
G37*
G36*
G01*
X35995000Y-70280000D02*
X34745000Y-70280000D01*
G75*
G02*
X34675000Y-70210000I0J70000D01*
G01*
X34675000Y-69210000D01*
G75*
G02*
X34745000Y-69140000I70000J0D01*
G01*
X35995000Y-69140000D01*
G75*
G02*
X36065000Y-69210000I0J-70000D01*
G01*
X36065000Y-70210000D01*
G75*
G02*
X35995000Y-70280000I-70000J0D01*
G01*
G37*
G36*
G01*
X35995000Y-72280000D02*
X34745000Y-72280000D01*
G75*
G02*
X34675000Y-72210000I0J70000D01*
G01*
X34675000Y-71210000D01*
G75*
G02*
X34745000Y-71140000I70000J0D01*
G01*
X35995000Y-71140000D01*
G75*
G02*
X36065000Y-71210000I0J-70000D01*
G01*
X36065000Y-72210000D01*
G75*
G02*
X35995000Y-72280000I-70000J0D01*
G01*
G37*
G36*
G01*
X75535000Y-79680000D02*
X74285000Y-79680000D01*
G75*
G02*
X74215000Y-79610000I0J70000D01*
G01*
X74215000Y-78610000D01*
G75*
G02*
X74285000Y-78540000I70000J0D01*
G01*
X75535000Y-78540000D01*
G75*
G02*
X75605000Y-78610000I0J-70000D01*
G01*
X75605000Y-79610000D01*
G75*
G02*
X75535000Y-79680000I-70000J0D01*
G01*
G37*
G36*
G01*
X75535000Y-81680000D02*
X74285000Y-81680000D01*
G75*
G02*
X74215000Y-81610000I0J70000D01*
G01*
X74215000Y-80610000D01*
G75*
G02*
X74285000Y-80540000I70000J0D01*
G01*
X75535000Y-80540000D01*
G75*
G02*
X75605000Y-80610000I0J-70000D01*
G01*
X75605000Y-81610000D01*
G75*
G02*
X75535000Y-81680000I-70000J0D01*
G01*
G37*
G36*
G01*
X57460000Y-75225000D02*
X57460000Y-73975000D01*
G75*
G02*
X57530000Y-73905000I70000J0D01*
G01*
X58530000Y-73905000D01*
G75*
G02*
X58600000Y-73975000I0J-70000D01*
G01*
X58600000Y-75225000D01*
G75*
G02*
X58530000Y-75295000I-70000J0D01*
G01*
X57530000Y-75295000D01*
G75*
G02*
X57460000Y-75225000I0J70000D01*
G01*
G37*
G36*
G01*
X59460000Y-75225000D02*
X59460000Y-73975000D01*
G75*
G02*
X59530000Y-73905000I70000J0D01*
G01*
X60530000Y-73905000D01*
G75*
G02*
X60600000Y-73975000I0J-70000D01*
G01*
X60600000Y-75225000D01*
G75*
G02*
X60530000Y-75295000I-70000J0D01*
G01*
X59530000Y-75295000D01*
G75*
G02*
X59460000Y-75225000I0J70000D01*
G01*
G37*
G36*
G01*
X73240000Y-76485000D02*
X73240000Y-77735000D01*
G75*
G02*
X73170000Y-77805000I-70000J0D01*
G01*
X72170000Y-77805000D01*
G75*
G02*
X72100000Y-77735000I0J70000D01*
G01*
X72100000Y-76485000D01*
G75*
G02*
X72170000Y-76415000I70000J0D01*
G01*
X73170000Y-76415000D01*
G75*
G02*
X73240000Y-76485000I0J-70000D01*
G01*
G37*
G36*
G01*
X75240000Y-76485000D02*
X75240000Y-77735000D01*
G75*
G02*
X75170000Y-77805000I-70000J0D01*
G01*
X74170000Y-77805000D01*
G75*
G02*
X74100000Y-77735000I0J70000D01*
G01*
X74100000Y-76485000D01*
G75*
G02*
X74170000Y-76415000I70000J0D01*
G01*
X75170000Y-76415000D01*
G75*
G02*
X75240000Y-76485000I0J-70000D01*
G01*
G37*
G36*
G01*
X43220000Y-62425000D02*
X43220000Y-63675000D01*
G75*
G02*
X43150000Y-63745000I-70000J0D01*
G01*
X42150000Y-63745000D01*
G75*
G02*
X42080000Y-63675000I0J70000D01*
G01*
X42080000Y-62425000D01*
G75*
G02*
X42150000Y-62355000I70000J0D01*
G01*
X43150000Y-62355000D01*
G75*
G02*
X43220000Y-62425000I0J-70000D01*
G01*
G37*
G36*
G01*
X45220000Y-62425000D02*
X45220000Y-63675000D01*
G75*
G02*
X45150000Y-63745000I-70000J0D01*
G01*
X44150000Y-63745000D01*
G75*
G02*
X44080000Y-63675000I0J70000D01*
G01*
X44080000Y-62425000D01*
G75*
G02*
X44150000Y-62355000I70000J0D01*
G01*
X45150000Y-62355000D01*
G75*
G02*
X45220000Y-62425000I0J-70000D01*
G01*
G37*
G36*
G01*
X47270000Y-69465000D02*
X47270000Y-70715000D01*
G75*
G02*
X47200000Y-70785000I-70000J0D01*
G01*
X46200000Y-70785000D01*
G75*
G02*
X46130000Y-70715000I0J70000D01*
G01*
X46130000Y-69465000D01*
G75*
G02*
X46200000Y-69395000I70000J0D01*
G01*
X47200000Y-69395000D01*
G75*
G02*
X47270000Y-69465000I0J-70000D01*
G01*
G37*
G36*
G01*
X45270000Y-69465000D02*
X45270000Y-70715000D01*
G75*
G02*
X45200000Y-70785000I-70000J0D01*
G01*
X44200000Y-70785000D01*
G75*
G02*
X44130000Y-70715000I0J70000D01*
G01*
X44130000Y-69465000D01*
G75*
G02*
X44200000Y-69395000I70000J0D01*
G01*
X45200000Y-69395000D01*
G75*
G02*
X45270000Y-69465000I0J-70000D01*
G01*
G37*
G36*
G01*
X77510000Y-44495000D02*
X77510000Y-43245000D01*
G75*
G02*
X77580000Y-43175000I70000J0D01*
G01*
X78580000Y-43175000D01*
G75*
G02*
X78650000Y-43245000I0J-70000D01*
G01*
X78650000Y-44495000D01*
G75*
G02*
X78580000Y-44565000I-70000J0D01*
G01*
X77580000Y-44565000D01*
G75*
G02*
X77510000Y-44495000I0J70000D01*
G01*
G37*
G36*
G01*
X79510000Y-44495000D02*
X79510000Y-43245000D01*
G75*
G02*
X79580000Y-43175000I70000J0D01*
G01*
X80580000Y-43175000D01*
G75*
G02*
X80650000Y-43245000I0J-70000D01*
G01*
X80650000Y-44495000D01*
G75*
G02*
X80580000Y-44565000I-70000J0D01*
G01*
X79580000Y-44565000D01*
G75*
G02*
X79510000Y-44495000I0J70000D01*
G01*
G37*
G36*
G01*
X47640000Y-62215000D02*
X47640000Y-60965000D01*
G75*
G02*
X47710000Y-60895000I70000J0D01*
G01*
X48710000Y-60895000D01*
G75*
G02*
X48780000Y-60965000I0J-70000D01*
G01*
X48780000Y-62215000D01*
G75*
G02*
X48710000Y-62285000I-70000J0D01*
G01*
X47710000Y-62285000D01*
G75*
G02*
X47640000Y-62215000I0J70000D01*
G01*
G37*
G36*
G01*
X49640000Y-62215000D02*
X49640000Y-60965000D01*
G75*
G02*
X49710000Y-60895000I70000J0D01*
G01*
X50710000Y-60895000D01*
G75*
G02*
X50780000Y-60965000I0J-70000D01*
G01*
X50780000Y-62215000D01*
G75*
G02*
X50710000Y-62285000I-70000J0D01*
G01*
X49710000Y-62285000D01*
G75*
G02*
X49640000Y-62215000I0J70000D01*
G01*
G37*
G36*
G01*
X82160000Y-66125000D02*
X82160000Y-64875000D01*
G75*
G02*
X82230000Y-64805000I70000J0D01*
G01*
X83230000Y-64805000D01*
G75*
G02*
X83300000Y-64875000I0J-70000D01*
G01*
X83300000Y-66125000D01*
G75*
G02*
X83230000Y-66195000I-70000J0D01*
G01*
X82230000Y-66195000D01*
G75*
G02*
X82160000Y-66125000I0J70000D01*
G01*
G37*
G36*
G01*
X84160000Y-66125000D02*
X84160000Y-64875000D01*
G75*
G02*
X84230000Y-64805000I70000J0D01*
G01*
X85230000Y-64805000D01*
G75*
G02*
X85300000Y-64875000I0J-70000D01*
G01*
X85300000Y-66125000D01*
G75*
G02*
X85230000Y-66195000I-70000J0D01*
G01*
X84230000Y-66195000D01*
G75*
G02*
X84160000Y-66125000I0J70000D01*
G01*
G37*
G36*
G01*
X80015000Y-67900000D02*
X81265000Y-67900000D01*
G75*
G02*
X81335000Y-67970000I0J-70000D01*
G01*
X81335000Y-68970000D01*
G75*
G02*
X81265000Y-69040000I-70000J0D01*
G01*
X80015000Y-69040000D01*
G75*
G02*
X79945000Y-68970000I0J70000D01*
G01*
X79945000Y-67970000D01*
G75*
G02*
X80015000Y-67900000I70000J0D01*
G01*
G37*
G36*
G01*
X80015000Y-65900000D02*
X81265000Y-65900000D01*
G75*
G02*
X81335000Y-65970000I0J-70000D01*
G01*
X81335000Y-66970000D01*
G75*
G02*
X81265000Y-67040000I-70000J0D01*
G01*
X80015000Y-67040000D01*
G75*
G02*
X79945000Y-66970000I0J70000D01*
G01*
X79945000Y-65970000D01*
G75*
G02*
X80015000Y-65900000I70000J0D01*
G01*
G37*
G36*
G01*
X94805000Y-65910000D02*
X93555000Y-65910000D01*
G75*
G02*
X93485000Y-65840000I0J70000D01*
G01*
X93485000Y-64840000D01*
G75*
G02*
X93555000Y-64770000I70000J0D01*
G01*
X94805000Y-64770000D01*
G75*
G02*
X94875000Y-64840000I0J-70000D01*
G01*
X94875000Y-65840000D01*
G75*
G02*
X94805000Y-65910000I-70000J0D01*
G01*
G37*
G36*
G01*
X94805000Y-67910000D02*
X93555000Y-67910000D01*
G75*
G02*
X93485000Y-67840000I0J70000D01*
G01*
X93485000Y-66840000D01*
G75*
G02*
X93555000Y-66770000I70000J0D01*
G01*
X94805000Y-66770000D01*
G75*
G02*
X94875000Y-66840000I0J-70000D01*
G01*
X94875000Y-67840000D01*
G75*
G02*
X94805000Y-67910000I-70000J0D01*
G01*
G37*
G36*
G01*
X73530000Y-65185000D02*
X73530000Y-63935000D01*
G75*
G02*
X73600000Y-63865000I70000J0D01*
G01*
X74600000Y-63865000D01*
G75*
G02*
X74670000Y-63935000I0J-70000D01*
G01*
X74670000Y-65185000D01*
G75*
G02*
X74600000Y-65255000I-70000J0D01*
G01*
X73600000Y-65255000D01*
G75*
G02*
X73530000Y-65185000I0J70000D01*
G01*
G37*
G36*
G01*
X75530000Y-65185000D02*
X75530000Y-63935000D01*
G75*
G02*
X75600000Y-63865000I70000J0D01*
G01*
X76600000Y-63865000D01*
G75*
G02*
X76670000Y-63935000I0J-70000D01*
G01*
X76670000Y-65185000D01*
G75*
G02*
X76600000Y-65255000I-70000J0D01*
G01*
X75600000Y-65255000D01*
G75*
G02*
X75530000Y-65185000I0J70000D01*
G01*
G37*
G36*
G01*
X38730000Y-68395000D02*
X38730000Y-67145000D01*
G75*
G02*
X38800000Y-67075000I70000J0D01*
G01*
X39800000Y-67075000D01*
G75*
G02*
X39870000Y-67145000I0J-70000D01*
G01*
X39870000Y-68395000D01*
G75*
G02*
X39800000Y-68465000I-70000J0D01*
G01*
X38800000Y-68465000D01*
G75*
G02*
X38730000Y-68395000I0J70000D01*
G01*
G37*
G36*
G01*
X36730000Y-68395000D02*
X36730000Y-67145000D01*
G75*
G02*
X36800000Y-67075000I70000J0D01*
G01*
X37800000Y-67075000D01*
G75*
G02*
X37870000Y-67145000I0J-70000D01*
G01*
X37870000Y-68395000D01*
G75*
G02*
X37800000Y-68465000I-70000J0D01*
G01*
X36800000Y-68465000D01*
G75*
G02*
X36730000Y-68395000I0J70000D01*
G01*
G37*
G36*
G01*
X62560000Y-94275000D02*
X62560000Y-95525000D01*
G75*
G02*
X62490000Y-95595000I-70000J0D01*
G01*
X61490000Y-95595000D01*
G75*
G02*
X61420000Y-95525000I0J70000D01*
G01*
X61420000Y-94275000D01*
G75*
G02*
X61490000Y-94205000I70000J0D01*
G01*
X62490000Y-94205000D01*
G75*
G02*
X62560000Y-94275000I0J-70000D01*
G01*
G37*
G36*
G01*
X64560000Y-94275000D02*
X64560000Y-95525000D01*
G75*
G02*
X64490000Y-95595000I-70000J0D01*
G01*
X63490000Y-95595000D01*
G75*
G02*
X63420000Y-95525000I0J70000D01*
G01*
X63420000Y-94275000D01*
G75*
G02*
X63490000Y-94205000I70000J0D01*
G01*
X64490000Y-94205000D01*
G75*
G02*
X64560000Y-94275000I0J-70000D01*
G01*
G37*
G36*
G01*
X49930000Y-95535000D02*
X49930000Y-94285000D01*
G75*
G02*
X50000000Y-94215000I70000J0D01*
G01*
X51000000Y-94215000D01*
G75*
G02*
X51070000Y-94285000I0J-70000D01*
G01*
X51070000Y-95535000D01*
G75*
G02*
X51000000Y-95605000I-70000J0D01*
G01*
X50000000Y-95605000D01*
G75*
G02*
X49930000Y-95535000I0J70000D01*
G01*
G37*
G36*
G01*
X47930000Y-95535000D02*
X47930000Y-94285000D01*
G75*
G02*
X48000000Y-94215000I70000J0D01*
G01*
X49000000Y-94215000D01*
G75*
G02*
X49070000Y-94285000I0J-70000D01*
G01*
X49070000Y-95535000D01*
G75*
G02*
X49000000Y-95605000I-70000J0D01*
G01*
X48000000Y-95605000D01*
G75*
G02*
X47930000Y-95535000I0J70000D01*
G01*
G37*
G36*
G01*
X34079760Y-65326770D02*
X34079760Y-64775590D01*
G75*
G02*
X34149760Y-64705590I70000J0D01*
G01*
X34449480Y-64705590D01*
G75*
G02*
X34519480Y-64775590I0J-70000D01*
G01*
X34519480Y-65326770D01*
G75*
G02*
X34449480Y-65396770I-70000J0D01*
G01*
X34149760Y-65396770D01*
G75*
G02*
X34079760Y-65326770I0J70000D01*
G01*
G37*
G36*
G01*
X34730140Y-65326770D02*
X34730140Y-64775590D01*
G75*
G02*
X34800140Y-64705590I70000J0D01*
G01*
X35099860Y-64705590D01*
G75*
G02*
X35169860Y-64775590I0J-70000D01*
G01*
X35169860Y-65326770D01*
G75*
G02*
X35099860Y-65396770I-70000J0D01*
G01*
X34800140Y-65396770D01*
G75*
G02*
X34730140Y-65326770I0J70000D01*
G01*
G37*
G36*
G01*
X35380520Y-65326770D02*
X35380520Y-64775590D01*
G75*
G02*
X35450520Y-64705590I70000J0D01*
G01*
X35750240Y-64705590D01*
G75*
G02*
X35820240Y-64775590I0J-70000D01*
G01*
X35820240Y-65326770D01*
G75*
G02*
X35750240Y-65396770I-70000J0D01*
G01*
X35450520Y-65396770D01*
G75*
G02*
X35380520Y-65326770I0J70000D01*
G01*
G37*
G36*
G01*
X35380520Y-66764410D02*
X35380520Y-66213230D01*
G75*
G02*
X35450520Y-66143230I70000J0D01*
G01*
X35750240Y-66143230D01*
G75*
G02*
X35820240Y-66213230I0J-70000D01*
G01*
X35820240Y-66764410D01*
G75*
G02*
X35750240Y-66834410I-70000J0D01*
G01*
X35450520Y-66834410D01*
G75*
G02*
X35380520Y-66764410I0J70000D01*
G01*
G37*
G36*
G01*
X34730140Y-66764410D02*
X34730140Y-66213230D01*
G75*
G02*
X34800140Y-66143230I70000J0D01*
G01*
X35099860Y-66143230D01*
G75*
G02*
X35169860Y-66213230I0J-70000D01*
G01*
X35169860Y-66764410D01*
G75*
G02*
X35099860Y-66834410I-70000J0D01*
G01*
X34800140Y-66834410D01*
G75*
G02*
X34730140Y-66764410I0J70000D01*
G01*
G37*
G36*
G01*
X34079760Y-66764410D02*
X34079760Y-66213230D01*
G75*
G02*
X34149760Y-66143230I70000J0D01*
G01*
X34449480Y-66143230D01*
G75*
G02*
X34519480Y-66213230I0J-70000D01*
G01*
X34519480Y-66764410D01*
G75*
G02*
X34449480Y-66834410I-70000J0D01*
G01*
X34149760Y-66834410D01*
G75*
G02*
X34079760Y-66764410I0J70000D01*
G01*
G37*
G36*
G01*
X49430000Y-85130000D02*
X49430000Y-83830000D01*
G75*
G02*
X49500000Y-83760000I70000J0D01*
G01*
X50200000Y-83760000D01*
G75*
G02*
X50270000Y-83830000I0J-70000D01*
G01*
X50270000Y-85130000D01*
G75*
G02*
X50200000Y-85200000I-70000J0D01*
G01*
X49500000Y-85200000D01*
G75*
G02*
X49430000Y-85130000I0J70000D01*
G01*
G37*
G36*
G01*
X51330000Y-85130000D02*
X51330000Y-83830000D01*
G75*
G02*
X51400000Y-83760000I70000J0D01*
G01*
X52100000Y-83760000D01*
G75*
G02*
X52170000Y-83830000I0J-70000D01*
G01*
X52170000Y-85130000D01*
G75*
G02*
X52100000Y-85200000I-70000J0D01*
G01*
X51400000Y-85200000D01*
G75*
G02*
X51330000Y-85130000I0J70000D01*
G01*
G37*
G36*
G01*
X51330000Y-87480000D02*
X51330000Y-86180000D01*
G75*
G02*
X51400000Y-86110000I70000J0D01*
G01*
X52100000Y-86110000D01*
G75*
G02*
X52170000Y-86180000I0J-70000D01*
G01*
X52170000Y-87480000D01*
G75*
G02*
X52100000Y-87550000I-70000J0D01*
G01*
X51400000Y-87550000D01*
G75*
G02*
X51330000Y-87480000I0J70000D01*
G01*
G37*
G36*
G01*
X49430000Y-87480000D02*
X49430000Y-86180000D01*
G75*
G02*
X49500000Y-86110000I70000J0D01*
G01*
X50200000Y-86110000D01*
G75*
G02*
X50270000Y-86180000I0J-70000D01*
G01*
X50270000Y-87480000D01*
G75*
G02*
X50200000Y-87550000I-70000J0D01*
G01*
X49500000Y-87550000D01*
G75*
G02*
X49430000Y-87480000I0J70000D01*
G01*
G37*
G36*
G01*
X51610000Y-95470000D02*
X51610000Y-94570000D01*
G75*
G02*
X51680000Y-94500000I70000J0D01*
G01*
X52180000Y-94500000D01*
G75*
G02*
X52250000Y-94570000I0J-70000D01*
G01*
X52250000Y-95470000D01*
G75*
G02*
X52180000Y-95540000I-70000J0D01*
G01*
X51680000Y-95540000D01*
G75*
G02*
X51610000Y-95470000I0J70000D01*
G01*
G37*
G36*
G01*
X53110000Y-95470000D02*
X53110000Y-94570000D01*
G75*
G02*
X53180000Y-94500000I70000J0D01*
G01*
X53680000Y-94500000D01*
G75*
G02*
X53750000Y-94570000I0J-70000D01*
G01*
X53750000Y-95470000D01*
G75*
G02*
X53680000Y-95540000I-70000J0D01*
G01*
X53180000Y-95540000D01*
G75*
G02*
X53110000Y-95470000I0J70000D01*
G01*
G37*
G36*
G01*
X55350000Y-94120000D02*
X54450000Y-94120000D01*
G75*
G02*
X54380000Y-94050000I0J70000D01*
G01*
X54380000Y-93550000D01*
G75*
G02*
X54450000Y-93480000I70000J0D01*
G01*
X55350000Y-93480000D01*
G75*
G02*
X55420000Y-93550000I0J-70000D01*
G01*
X55420000Y-94050000D01*
G75*
G02*
X55350000Y-94120000I-70000J0D01*
G01*
G37*
G36*
G01*
X55350000Y-95620000D02*
X54450000Y-95620000D01*
G75*
G02*
X54380000Y-95550000I0J70000D01*
G01*
X54380000Y-95050000D01*
G75*
G02*
X54450000Y-94980000I70000J0D01*
G01*
X55350000Y-94980000D01*
G75*
G02*
X55420000Y-95050000I0J-70000D01*
G01*
X55420000Y-95550000D01*
G75*
G02*
X55350000Y-95620000I-70000J0D01*
G01*
G37*
D22*
X31280000Y-65020000D03*
D23*
X24280000Y-77520000D03*
D22*
X28830000Y-62520000D03*
X28830000Y-70020000D03*
X28830000Y-77520000D03*
X31280000Y-75020000D03*
D23*
X24280000Y-62520000D03*
D22*
X19280000Y-72520000D03*
X19280000Y-67520000D03*
G36*
G01*
X54325000Y-96230000D02*
X54325000Y-101310000D01*
G75*
G02*
X54255000Y-101380000I-70000J0D01*
G01*
X52477000Y-101380000D01*
G75*
G02*
X52407000Y-101310000I0J70000D01*
G01*
X52407000Y-96230000D01*
G75*
G02*
X52477000Y-96160000I70000J0D01*
G01*
X54255000Y-96160000D01*
G75*
G02*
X54325000Y-96230000I0J-70000D01*
G01*
G37*
G36*
G01*
X57119000Y-96230000D02*
X57119000Y-101310000D01*
G75*
G02*
X57049000Y-101380000I-70000J0D01*
G01*
X55271000Y-101380000D01*
G75*
G02*
X55201000Y-101310000I0J70000D01*
G01*
X55201000Y-96230000D01*
G75*
G02*
X55271000Y-96160000I70000J0D01*
G01*
X57049000Y-96160000D01*
G75*
G02*
X57119000Y-96230000I0J-70000D01*
G01*
G37*
G36*
G01*
X59913000Y-96230000D02*
X59913000Y-101310000D01*
G75*
G02*
X59843000Y-101380000I-70000J0D01*
G01*
X58065000Y-101380000D01*
G75*
G02*
X57995000Y-101310000I0J70000D01*
G01*
X57995000Y-96230000D01*
G75*
G02*
X58065000Y-96160000I70000J0D01*
G01*
X59843000Y-96160000D01*
G75*
G02*
X59913000Y-96230000I0J-70000D01*
G01*
G37*
G36*
G01*
X62707000Y-96230000D02*
X62707000Y-101310000D01*
G75*
G02*
X62637000Y-101380000I-70000J0D01*
G01*
X60859000Y-101380000D01*
G75*
G02*
X60789000Y-101310000I0J70000D01*
G01*
X60789000Y-96230000D01*
G75*
G02*
X60859000Y-96160000I70000J0D01*
G01*
X62637000Y-96160000D01*
G75*
G02*
X62707000Y-96230000I0J-70000D01*
G01*
G37*
G36*
G01*
X51531000Y-96230000D02*
X51531000Y-101310000D01*
G75*
G02*
X51461000Y-101380000I-70000J0D01*
G01*
X49683000Y-101380000D01*
G75*
G02*
X49613000Y-101310000I0J70000D01*
G01*
X49613000Y-96230000D01*
G75*
G02*
X49683000Y-96160000I70000J0D01*
G01*
X51461000Y-96160000D01*
G75*
G02*
X51531000Y-96230000I0J-70000D01*
G01*
G37*
G36*
G01*
X56440050Y-89719190D02*
X56440050Y-90519290D01*
G75*
G02*
X56370050Y-90589290I-70000J0D01*
G01*
X55569950Y-90589290D01*
G75*
G02*
X55499950Y-90519290I0J70000D01*
G01*
X55499950Y-89719190D01*
G75*
G02*
X55569950Y-89649190I70000J0D01*
G01*
X56370050Y-89649190D01*
G75*
G02*
X56440050Y-89719190I0J-70000D01*
G01*
G37*
G36*
G01*
X54540050Y-89719190D02*
X54540050Y-90519290D01*
G75*
G02*
X54470050Y-90589290I-70000J0D01*
G01*
X53669950Y-90589290D01*
G75*
G02*
X53599950Y-90519290I0J70000D01*
G01*
X53599950Y-89719190D01*
G75*
G02*
X53669950Y-89649190I70000J0D01*
G01*
X54470050Y-89649190D01*
G75*
G02*
X54540050Y-89719190I0J-70000D01*
G01*
G37*
G36*
G01*
X55490050Y-91718170D02*
X55490050Y-92518270D01*
G75*
G02*
X55420050Y-92588270I-70000J0D01*
G01*
X54619950Y-92588270D01*
G75*
G02*
X54549950Y-92518270I0J70000D01*
G01*
X54549950Y-91718170D01*
G75*
G02*
X54619950Y-91648170I70000J0D01*
G01*
X55420050Y-91648170D01*
G75*
G02*
X55490050Y-91718170I0J-70000D01*
G01*
G37*
G36*
G01*
X98140000Y-82970000D02*
X98140000Y-84270000D01*
G75*
G02*
X98070000Y-84340000I-70000J0D01*
G01*
X97370000Y-84340000D01*
G75*
G02*
X97300000Y-84270000I0J70000D01*
G01*
X97300000Y-82970000D01*
G75*
G02*
X97370000Y-82900000I70000J0D01*
G01*
X98070000Y-82900000D01*
G75*
G02*
X98140000Y-82970000I0J-70000D01*
G01*
G37*
G36*
G01*
X100040000Y-82970000D02*
X100040000Y-84270000D01*
G75*
G02*
X99970000Y-84340000I-70000J0D01*
G01*
X99270000Y-84340000D01*
G75*
G02*
X99200000Y-84270000I0J70000D01*
G01*
X99200000Y-82970000D01*
G75*
G02*
X99270000Y-82900000I70000J0D01*
G01*
X99970000Y-82900000D01*
G75*
G02*
X100040000Y-82970000I0J-70000D01*
G01*
G37*
G36*
G01*
X102530000Y-84270000D02*
X102530000Y-82970000D01*
G75*
G02*
X102600000Y-82900000I70000J0D01*
G01*
X103300000Y-82900000D01*
G75*
G02*
X103370000Y-82970000I0J-70000D01*
G01*
X103370000Y-84270000D01*
G75*
G02*
X103300000Y-84340000I-70000J0D01*
G01*
X102600000Y-84340000D01*
G75*
G02*
X102530000Y-84270000I0J70000D01*
G01*
G37*
G36*
G01*
X100630000Y-84270000D02*
X100630000Y-82970000D01*
G75*
G02*
X100700000Y-82900000I70000J0D01*
G01*
X101400000Y-82900000D01*
G75*
G02*
X101470000Y-82970000I0J-70000D01*
G01*
X101470000Y-84270000D01*
G75*
G02*
X101400000Y-84340000I-70000J0D01*
G01*
X100700000Y-84340000D01*
G75*
G02*
X100630000Y-84270000I0J70000D01*
G01*
G37*
G36*
G01*
X77250000Y-96050000D02*
X77250000Y-97350000D01*
G75*
G02*
X77180000Y-97420000I-70000J0D01*
G01*
X76480000Y-97420000D01*
G75*
G02*
X76410000Y-97350000I0J70000D01*
G01*
X76410000Y-96050000D01*
G75*
G02*
X76480000Y-95980000I70000J0D01*
G01*
X77180000Y-95980000D01*
G75*
G02*
X77250000Y-96050000I0J-70000D01*
G01*
G37*
G36*
G01*
X75350000Y-96050000D02*
X75350000Y-97350000D01*
G75*
G02*
X75280000Y-97420000I-70000J0D01*
G01*
X74580000Y-97420000D01*
G75*
G02*
X74510000Y-97350000I0J70000D01*
G01*
X74510000Y-96050000D01*
G75*
G02*
X74580000Y-95980000I70000J0D01*
G01*
X75280000Y-95980000D01*
G75*
G02*
X75350000Y-96050000I0J-70000D01*
G01*
G37*
G36*
G01*
X75240000Y-99410000D02*
X75240000Y-98110000D01*
G75*
G02*
X75310000Y-98040000I70000J0D01*
G01*
X76010000Y-98040000D01*
G75*
G02*
X76080000Y-98110000I0J-70000D01*
G01*
X76080000Y-99410000D01*
G75*
G02*
X76010000Y-99480000I-70000J0D01*
G01*
X75310000Y-99480000D01*
G75*
G02*
X75240000Y-99410000I0J70000D01*
G01*
G37*
G36*
G01*
X77140000Y-99410000D02*
X77140000Y-98110000D01*
G75*
G02*
X77210000Y-98040000I70000J0D01*
G01*
X77910000Y-98040000D01*
G75*
G02*
X77980000Y-98110000I0J-70000D01*
G01*
X77980000Y-99410000D01*
G75*
G02*
X77910000Y-99480000I-70000J0D01*
G01*
X77210000Y-99480000D01*
G75*
G02*
X77140000Y-99410000I0J70000D01*
G01*
G37*
G36*
G01*
X103280000Y-60480000D02*
X103280000Y-59180000D01*
G75*
G02*
X103350000Y-59110000I70000J0D01*
G01*
X104050000Y-59110000D01*
G75*
G02*
X104120000Y-59180000I0J-70000D01*
G01*
X104120000Y-60480000D01*
G75*
G02*
X104050000Y-60550000I-70000J0D01*
G01*
X103350000Y-60550000D01*
G75*
G02*
X103280000Y-60480000I0J70000D01*
G01*
G37*
G36*
G01*
X105180000Y-60480000D02*
X105180000Y-59180000D01*
G75*
G02*
X105250000Y-59110000I70000J0D01*
G01*
X105950000Y-59110000D01*
G75*
G02*
X106020000Y-59180000I0J-70000D01*
G01*
X106020000Y-60480000D01*
G75*
G02*
X105950000Y-60550000I-70000J0D01*
G01*
X105250000Y-60550000D01*
G75*
G02*
X105180000Y-60480000I0J70000D01*
G01*
G37*
G36*
G01*
X87760000Y-99630000D02*
X89060000Y-99630000D01*
G75*
G02*
X89130000Y-99700000I0J-70000D01*
G01*
X89130000Y-100400000D01*
G75*
G02*
X89060000Y-100470000I-70000J0D01*
G01*
X87760000Y-100470000D01*
G75*
G02*
X87690000Y-100400000I0J70000D01*
G01*
X87690000Y-99700000D01*
G75*
G02*
X87760000Y-99630000I70000J0D01*
G01*
G37*
G36*
G01*
X87760000Y-97730000D02*
X89060000Y-97730000D01*
G75*
G02*
X89130000Y-97800000I0J-70000D01*
G01*
X89130000Y-98500000D01*
G75*
G02*
X89060000Y-98570000I-70000J0D01*
G01*
X87760000Y-98570000D01*
G75*
G02*
X87690000Y-98500000I0J70000D01*
G01*
X87690000Y-97800000D01*
G75*
G02*
X87760000Y-97730000I70000J0D01*
G01*
G37*
G36*
G01*
X92790000Y-77320000D02*
X92790000Y-76020000D01*
G75*
G02*
X92860000Y-75950000I70000J0D01*
G01*
X93560000Y-75950000D01*
G75*
G02*
X93630000Y-76020000I0J-70000D01*
G01*
X93630000Y-77320000D01*
G75*
G02*
X93560000Y-77390000I-70000J0D01*
G01*
X92860000Y-77390000D01*
G75*
G02*
X92790000Y-77320000I0J70000D01*
G01*
G37*
G36*
G01*
X94690000Y-77320000D02*
X94690000Y-76020000D01*
G75*
G02*
X94760000Y-75950000I70000J0D01*
G01*
X95460000Y-75950000D01*
G75*
G02*
X95530000Y-76020000I0J-70000D01*
G01*
X95530000Y-77320000D01*
G75*
G02*
X95460000Y-77390000I-70000J0D01*
G01*
X94760000Y-77390000D01*
G75*
G02*
X94690000Y-77320000I0J70000D01*
G01*
G37*
G36*
G01*
X103260000Y-92070000D02*
X103260000Y-90770000D01*
G75*
G02*
X103330000Y-90700000I70000J0D01*
G01*
X104030000Y-90700000D01*
G75*
G02*
X104100000Y-90770000I0J-70000D01*
G01*
X104100000Y-92070000D01*
G75*
G02*
X104030000Y-92140000I-70000J0D01*
G01*
X103330000Y-92140000D01*
G75*
G02*
X103260000Y-92070000I0J70000D01*
G01*
G37*
G36*
G01*
X101360000Y-92070000D02*
X101360000Y-90770000D01*
G75*
G02*
X101430000Y-90700000I70000J0D01*
G01*
X102130000Y-90700000D01*
G75*
G02*
X102200000Y-90770000I0J-70000D01*
G01*
X102200000Y-92070000D01*
G75*
G02*
X102130000Y-92140000I-70000J0D01*
G01*
X101430000Y-92140000D01*
G75*
G02*
X101360000Y-92070000I0J70000D01*
G01*
G37*
G36*
G01*
X88740000Y-74890000D02*
X87440000Y-74890000D01*
G75*
G02*
X87370000Y-74820000I0J70000D01*
G01*
X87370000Y-74120000D01*
G75*
G02*
X87440000Y-74050000I70000J0D01*
G01*
X88740000Y-74050000D01*
G75*
G02*
X88810000Y-74120000I0J-70000D01*
G01*
X88810000Y-74820000D01*
G75*
G02*
X88740000Y-74890000I-70000J0D01*
G01*
G37*
G36*
G01*
X88740000Y-72990000D02*
X87440000Y-72990000D01*
G75*
G02*
X87370000Y-72920000I0J70000D01*
G01*
X87370000Y-72220000D01*
G75*
G02*
X87440000Y-72150000I70000J0D01*
G01*
X88740000Y-72150000D01*
G75*
G02*
X88810000Y-72220000I0J-70000D01*
G01*
X88810000Y-72920000D01*
G75*
G02*
X88740000Y-72990000I-70000J0D01*
G01*
G37*
G36*
G01*
X81040000Y-95260000D02*
X81040000Y-96560000D01*
G75*
G02*
X80970000Y-96630000I-70000J0D01*
G01*
X80270000Y-96630000D01*
G75*
G02*
X80200000Y-96560000I0J70000D01*
G01*
X80200000Y-95260000D01*
G75*
G02*
X80270000Y-95190000I70000J0D01*
G01*
X80970000Y-95190000D01*
G75*
G02*
X81040000Y-95260000I0J-70000D01*
G01*
G37*
G36*
G01*
X79140000Y-95260000D02*
X79140000Y-96560000D01*
G75*
G02*
X79070000Y-96630000I-70000J0D01*
G01*
X78370000Y-96630000D01*
G75*
G02*
X78300000Y-96560000I0J70000D01*
G01*
X78300000Y-95260000D01*
G75*
G02*
X78370000Y-95190000I70000J0D01*
G01*
X79070000Y-95190000D01*
G75*
G02*
X79140000Y-95260000I0J-70000D01*
G01*
G37*
G36*
G01*
X82440000Y-95240000D02*
X82440000Y-96540000D01*
G75*
G02*
X82370000Y-96610000I-70000J0D01*
G01*
X81670000Y-96610000D01*
G75*
G02*
X81600000Y-96540000I0J70000D01*
G01*
X81600000Y-95240000D01*
G75*
G02*
X81670000Y-95170000I70000J0D01*
G01*
X82370000Y-95170000D01*
G75*
G02*
X82440000Y-95240000I0J-70000D01*
G01*
G37*
G36*
G01*
X84340000Y-95240000D02*
X84340000Y-96540000D01*
G75*
G02*
X84270000Y-96610000I-70000J0D01*
G01*
X83570000Y-96610000D01*
G75*
G02*
X83500000Y-96540000I0J70000D01*
G01*
X83500000Y-95240000D01*
G75*
G02*
X83570000Y-95170000I70000J0D01*
G01*
X84270000Y-95170000D01*
G75*
G02*
X84340000Y-95240000I0J-70000D01*
G01*
G37*
G36*
G01*
X108440000Y-60480000D02*
X108440000Y-59180000D01*
G75*
G02*
X108510000Y-59110000I70000J0D01*
G01*
X109210000Y-59110000D01*
G75*
G02*
X109280000Y-59180000I0J-70000D01*
G01*
X109280000Y-60480000D01*
G75*
G02*
X109210000Y-60550000I-70000J0D01*
G01*
X108510000Y-60550000D01*
G75*
G02*
X108440000Y-60480000I0J70000D01*
G01*
G37*
G36*
G01*
X106540000Y-60480000D02*
X106540000Y-59180000D01*
G75*
G02*
X106610000Y-59110000I70000J0D01*
G01*
X107310000Y-59110000D01*
G75*
G02*
X107380000Y-59180000I0J-70000D01*
G01*
X107380000Y-60480000D01*
G75*
G02*
X107310000Y-60550000I-70000J0D01*
G01*
X106610000Y-60550000D01*
G75*
G02*
X106540000Y-60480000I0J70000D01*
G01*
G37*
G36*
G01*
X107710000Y-73720000D02*
X107710000Y-75020000D01*
G75*
G02*
X107640000Y-75090000I-70000J0D01*
G01*
X106940000Y-75090000D01*
G75*
G02*
X106870000Y-75020000I0J70000D01*
G01*
X106870000Y-73720000D01*
G75*
G02*
X106940000Y-73650000I70000J0D01*
G01*
X107640000Y-73650000D01*
G75*
G02*
X107710000Y-73720000I0J-70000D01*
G01*
G37*
G36*
G01*
X109610000Y-73720000D02*
X109610000Y-75020000D01*
G75*
G02*
X109540000Y-75090000I-70000J0D01*
G01*
X108840000Y-75090000D01*
G75*
G02*
X108770000Y-75020000I0J70000D01*
G01*
X108770000Y-73720000D01*
G75*
G02*
X108840000Y-73650000I70000J0D01*
G01*
X109540000Y-73650000D01*
G75*
G02*
X109610000Y-73720000I0J-70000D01*
G01*
G37*
G36*
G01*
X118800000Y-73400000D02*
X118800000Y-74700000D01*
G75*
G02*
X118730000Y-74770000I-70000J0D01*
G01*
X118030000Y-74770000D01*
G75*
G02*
X117960000Y-74700000I0J70000D01*
G01*
X117960000Y-73400000D01*
G75*
G02*
X118030000Y-73330000I70000J0D01*
G01*
X118730000Y-73330000D01*
G75*
G02*
X118800000Y-73400000I0J-70000D01*
G01*
G37*
G36*
G01*
X116900000Y-73400000D02*
X116900000Y-74700000D01*
G75*
G02*
X116830000Y-74770000I-70000J0D01*
G01*
X116130000Y-74770000D01*
G75*
G02*
X116060000Y-74700000I0J70000D01*
G01*
X116060000Y-73400000D01*
G75*
G02*
X116130000Y-73330000I70000J0D01*
G01*
X116830000Y-73330000D01*
G75*
G02*
X116900000Y-73400000I0J-70000D01*
G01*
G37*
G36*
G01*
X116960000Y-71160000D02*
X116960000Y-72460000D01*
G75*
G02*
X116890000Y-72530000I-70000J0D01*
G01*
X116190000Y-72530000D01*
G75*
G02*
X116120000Y-72460000I0J70000D01*
G01*
X116120000Y-71160000D01*
G75*
G02*
X116190000Y-71090000I70000J0D01*
G01*
X116890000Y-71090000D01*
G75*
G02*
X116960000Y-71160000I0J-70000D01*
G01*
G37*
G36*
G01*
X118860000Y-71160000D02*
X118860000Y-72460000D01*
G75*
G02*
X118790000Y-72530000I-70000J0D01*
G01*
X118090000Y-72530000D01*
G75*
G02*
X118020000Y-72460000I0J70000D01*
G01*
X118020000Y-71160000D01*
G75*
G02*
X118090000Y-71090000I70000J0D01*
G01*
X118790000Y-71090000D01*
G75*
G02*
X118860000Y-71160000I0J-70000D01*
G01*
G37*
G36*
G01*
X106940000Y-72500000D02*
X106940000Y-71200000D01*
G75*
G02*
X107010000Y-71130000I70000J0D01*
G01*
X107710000Y-71130000D01*
G75*
G02*
X107780000Y-71200000I0J-70000D01*
G01*
X107780000Y-72500000D01*
G75*
G02*
X107710000Y-72570000I-70000J0D01*
G01*
X107010000Y-72570000D01*
G75*
G02*
X106940000Y-72500000I0J70000D01*
G01*
G37*
G36*
G01*
X108840000Y-72500000D02*
X108840000Y-71200000D01*
G75*
G02*
X108910000Y-71130000I70000J0D01*
G01*
X109610000Y-71130000D01*
G75*
G02*
X109680000Y-71200000I0J-70000D01*
G01*
X109680000Y-72500000D01*
G75*
G02*
X109610000Y-72570000I-70000J0D01*
G01*
X108910000Y-72570000D01*
G75*
G02*
X108840000Y-72500000I0J70000D01*
G01*
G37*
G36*
G01*
X117290000Y-82700000D02*
X115990000Y-82700000D01*
G75*
G02*
X115920000Y-82630000I0J70000D01*
G01*
X115920000Y-81930000D01*
G75*
G02*
X115990000Y-81860000I70000J0D01*
G01*
X117290000Y-81860000D01*
G75*
G02*
X117360000Y-81930000I0J-70000D01*
G01*
X117360000Y-82630000D01*
G75*
G02*
X117290000Y-82700000I-70000J0D01*
G01*
G37*
G36*
G01*
X117290000Y-80800000D02*
X115990000Y-80800000D01*
G75*
G02*
X115920000Y-80730000I0J70000D01*
G01*
X115920000Y-80030000D01*
G75*
G02*
X115990000Y-79960000I70000J0D01*
G01*
X117290000Y-79960000D01*
G75*
G02*
X117360000Y-80030000I0J-70000D01*
G01*
X117360000Y-80730000D01*
G75*
G02*
X117290000Y-80800000I-70000J0D01*
G01*
G37*
G36*
G01*
X55200000Y-85080000D02*
X55200000Y-83780000D01*
G75*
G02*
X55270000Y-83710000I70000J0D01*
G01*
X55970000Y-83710000D01*
G75*
G02*
X56040000Y-83780000I0J-70000D01*
G01*
X56040000Y-85080000D01*
G75*
G02*
X55970000Y-85150000I-70000J0D01*
G01*
X55270000Y-85150000D01*
G75*
G02*
X55200000Y-85080000I0J70000D01*
G01*
G37*
G36*
G01*
X53300000Y-85080000D02*
X53300000Y-83780000D01*
G75*
G02*
X53370000Y-83710000I70000J0D01*
G01*
X54070000Y-83710000D01*
G75*
G02*
X54140000Y-83780000I0J-70000D01*
G01*
X54140000Y-85080000D01*
G75*
G02*
X54070000Y-85150000I-70000J0D01*
G01*
X53370000Y-85150000D01*
G75*
G02*
X53300000Y-85080000I0J70000D01*
G01*
G37*
G36*
G01*
X53300000Y-87450000D02*
X53300000Y-86150000D01*
G75*
G02*
X53370000Y-86080000I70000J0D01*
G01*
X54070000Y-86080000D01*
G75*
G02*
X54140000Y-86150000I0J-70000D01*
G01*
X54140000Y-87450000D01*
G75*
G02*
X54070000Y-87520000I-70000J0D01*
G01*
X53370000Y-87520000D01*
G75*
G02*
X53300000Y-87450000I0J70000D01*
G01*
G37*
G36*
G01*
X55200000Y-87450000D02*
X55200000Y-86150000D01*
G75*
G02*
X55270000Y-86080000I70000J0D01*
G01*
X55970000Y-86080000D01*
G75*
G02*
X56040000Y-86150000I0J-70000D01*
G01*
X56040000Y-87450000D01*
G75*
G02*
X55970000Y-87520000I-70000J0D01*
G01*
X55270000Y-87520000D01*
G75*
G02*
X55200000Y-87450000I0J70000D01*
G01*
G37*
G36*
G01*
X36730000Y-74290000D02*
X36730000Y-72990000D01*
G75*
G02*
X36800000Y-72920000I70000J0D01*
G01*
X37500000Y-72920000D01*
G75*
G02*
X37570000Y-72990000I0J-70000D01*
G01*
X37570000Y-74290000D01*
G75*
G02*
X37500000Y-74360000I-70000J0D01*
G01*
X36800000Y-74360000D01*
G75*
G02*
X36730000Y-74290000I0J70000D01*
G01*
G37*
G36*
G01*
X34830000Y-74290000D02*
X34830000Y-72990000D01*
G75*
G02*
X34900000Y-72920000I70000J0D01*
G01*
X35600000Y-72920000D01*
G75*
G02*
X35670000Y-72990000I0J-70000D01*
G01*
X35670000Y-74290000D01*
G75*
G02*
X35600000Y-74360000I-70000J0D01*
G01*
X34900000Y-74360000D01*
G75*
G02*
X34830000Y-74290000I0J70000D01*
G01*
G37*
G36*
G01*
X56890000Y-80870000D02*
X56890000Y-82170000D01*
G75*
G02*
X56820000Y-82240000I-70000J0D01*
G01*
X56120000Y-82240000D01*
G75*
G02*
X56050000Y-82170000I0J70000D01*
G01*
X56050000Y-80870000D01*
G75*
G02*
X56120000Y-80800000I70000J0D01*
G01*
X56820000Y-80800000D01*
G75*
G02*
X56890000Y-80870000I0J-70000D01*
G01*
G37*
G36*
G01*
X54990000Y-80870000D02*
X54990000Y-82170000D01*
G75*
G02*
X54920000Y-82240000I-70000J0D01*
G01*
X54220000Y-82240000D01*
G75*
G02*
X54150000Y-82170000I0J70000D01*
G01*
X54150000Y-80870000D01*
G75*
G02*
X54220000Y-80800000I70000J0D01*
G01*
X54920000Y-80800000D01*
G75*
G02*
X54990000Y-80870000I0J-70000D01*
G01*
G37*
G36*
G01*
X32060000Y-81510000D02*
X32060000Y-82810000D01*
G75*
G02*
X31990000Y-82880000I-70000J0D01*
G01*
X31290000Y-82880000D01*
G75*
G02*
X31220000Y-82810000I0J70000D01*
G01*
X31220000Y-81510000D01*
G75*
G02*
X31290000Y-81440000I70000J0D01*
G01*
X31990000Y-81440000D01*
G75*
G02*
X32060000Y-81510000I0J-70000D01*
G01*
G37*
G36*
G01*
X30160000Y-81510000D02*
X30160000Y-82810000D01*
G75*
G02*
X30090000Y-82880000I-70000J0D01*
G01*
X29390000Y-82880000D01*
G75*
G02*
X29320000Y-82810000I0J70000D01*
G01*
X29320000Y-81510000D01*
G75*
G02*
X29390000Y-81440000I70000J0D01*
G01*
X30090000Y-81440000D01*
G75*
G02*
X30160000Y-81510000I0J-70000D01*
G01*
G37*
G36*
G01*
X21840000Y-82720000D02*
X21840000Y-81420000D01*
G75*
G02*
X21910000Y-81350000I70000J0D01*
G01*
X22610000Y-81350000D01*
G75*
G02*
X22680000Y-81420000I0J-70000D01*
G01*
X22680000Y-82720000D01*
G75*
G02*
X22610000Y-82790000I-70000J0D01*
G01*
X21910000Y-82790000D01*
G75*
G02*
X21840000Y-82720000I0J70000D01*
G01*
G37*
G36*
G01*
X23740000Y-82720000D02*
X23740000Y-81420000D01*
G75*
G02*
X23810000Y-81350000I70000J0D01*
G01*
X24510000Y-81350000D01*
G75*
G02*
X24580000Y-81420000I0J-70000D01*
G01*
X24580000Y-82720000D01*
G75*
G02*
X24510000Y-82790000I-70000J0D01*
G01*
X23810000Y-82790000D01*
G75*
G02*
X23740000Y-82720000I0J70000D01*
G01*
G37*
G36*
G01*
X71660000Y-89710000D02*
X72960000Y-89710000D01*
G75*
G02*
X73030000Y-89780000I0J-70000D01*
G01*
X73030000Y-90480000D01*
G75*
G02*
X72960000Y-90550000I-70000J0D01*
G01*
X71660000Y-90550000D01*
G75*
G02*
X71590000Y-90480000I0J70000D01*
G01*
X71590000Y-89780000D01*
G75*
G02*
X71660000Y-89710000I70000J0D01*
G01*
G37*
G36*
G01*
X71660000Y-91610000D02*
X72960000Y-91610000D01*
G75*
G02*
X73030000Y-91680000I0J-70000D01*
G01*
X73030000Y-92380000D01*
G75*
G02*
X72960000Y-92450000I-70000J0D01*
G01*
X71660000Y-92450000D01*
G75*
G02*
X71590000Y-92380000I0J70000D01*
G01*
X71590000Y-91680000D01*
G75*
G02*
X71660000Y-91610000I70000J0D01*
G01*
G37*
G36*
G01*
X62450000Y-92480000D02*
X63750000Y-92480000D01*
G75*
G02*
X63820000Y-92550000I0J-70000D01*
G01*
X63820000Y-93250000D01*
G75*
G02*
X63750000Y-93320000I-70000J0D01*
G01*
X62450000Y-93320000D01*
G75*
G02*
X62380000Y-93250000I0J70000D01*
G01*
X62380000Y-92550000D01*
G75*
G02*
X62450000Y-92480000I70000J0D01*
G01*
G37*
G36*
G01*
X62450000Y-90580000D02*
X63750000Y-90580000D01*
G75*
G02*
X63820000Y-90650000I0J-70000D01*
G01*
X63820000Y-91350000D01*
G75*
G02*
X63750000Y-91420000I-70000J0D01*
G01*
X62450000Y-91420000D01*
G75*
G02*
X62380000Y-91350000I0J70000D01*
G01*
X62380000Y-90650000D01*
G75*
G02*
X62450000Y-90580000I70000J0D01*
G01*
G37*
G36*
G01*
X95310000Y-69860000D02*
X95310000Y-68560000D01*
G75*
G02*
X95380000Y-68490000I70000J0D01*
G01*
X96080000Y-68490000D01*
G75*
G02*
X96150000Y-68560000I0J-70000D01*
G01*
X96150000Y-69860000D01*
G75*
G02*
X96080000Y-69930000I-70000J0D01*
G01*
X95380000Y-69930000D01*
G75*
G02*
X95310000Y-69860000I0J70000D01*
G01*
G37*
G36*
G01*
X93410000Y-69860000D02*
X93410000Y-68560000D01*
G75*
G02*
X93480000Y-68490000I70000J0D01*
G01*
X94180000Y-68490000D01*
G75*
G02*
X94250000Y-68560000I0J-70000D01*
G01*
X94250000Y-69860000D01*
G75*
G02*
X94180000Y-69930000I-70000J0D01*
G01*
X93480000Y-69930000D01*
G75*
G02*
X93410000Y-69860000I0J70000D01*
G01*
G37*
G36*
G01*
X56520000Y-88970000D02*
X56520000Y-87670000D01*
G75*
G02*
X56590000Y-87600000I70000J0D01*
G01*
X57290000Y-87600000D01*
G75*
G02*
X57360000Y-87670000I0J-70000D01*
G01*
X57360000Y-88970000D01*
G75*
G02*
X57290000Y-89040000I-70000J0D01*
G01*
X56590000Y-89040000D01*
G75*
G02*
X56520000Y-88970000I0J70000D01*
G01*
G37*
G36*
G01*
X58420000Y-88970000D02*
X58420000Y-87670000D01*
G75*
G02*
X58490000Y-87600000I70000J0D01*
G01*
X59190000Y-87600000D01*
G75*
G02*
X59260000Y-87670000I0J-70000D01*
G01*
X59260000Y-88970000D01*
G75*
G02*
X59190000Y-89040000I-70000J0D01*
G01*
X58490000Y-89040000D01*
G75*
G02*
X58420000Y-88970000I0J70000D01*
G01*
G37*
G36*
G01*
X46120000Y-93420000D02*
X46120000Y-92120000D01*
G75*
G02*
X46190000Y-92050000I70000J0D01*
G01*
X46890000Y-92050000D01*
G75*
G02*
X46960000Y-92120000I0J-70000D01*
G01*
X46960000Y-93420000D01*
G75*
G02*
X46890000Y-93490000I-70000J0D01*
G01*
X46190000Y-93490000D01*
G75*
G02*
X46120000Y-93420000I0J70000D01*
G01*
G37*
G36*
G01*
X44220000Y-93420000D02*
X44220000Y-92120000D01*
G75*
G02*
X44290000Y-92050000I70000J0D01*
G01*
X44990000Y-92050000D01*
G75*
G02*
X45060000Y-92120000I0J-70000D01*
G01*
X45060000Y-93420000D01*
G75*
G02*
X44990000Y-93490000I-70000J0D01*
G01*
X44290000Y-93490000D01*
G75*
G02*
X44220000Y-93420000I0J70000D01*
G01*
G37*
G36*
G01*
X45070000Y-94300000D02*
X45070000Y-95600000D01*
G75*
G02*
X45000000Y-95670000I-70000J0D01*
G01*
X44300000Y-95670000D01*
G75*
G02*
X44230000Y-95600000I0J70000D01*
G01*
X44230000Y-94300000D01*
G75*
G02*
X44300000Y-94230000I70000J0D01*
G01*
X45000000Y-94230000D01*
G75*
G02*
X45070000Y-94300000I0J-70000D01*
G01*
G37*
G36*
G01*
X46970000Y-94300000D02*
X46970000Y-95600000D01*
G75*
G02*
X46900000Y-95670000I-70000J0D01*
G01*
X46200000Y-95670000D01*
G75*
G02*
X46130000Y-95600000I0J70000D01*
G01*
X46130000Y-94300000D01*
G75*
G02*
X46200000Y-94230000I70000J0D01*
G01*
X46900000Y-94230000D01*
G75*
G02*
X46970000Y-94300000I0J-70000D01*
G01*
G37*
D11*
G36*
X66807667Y-90784570D02*
G01*
X64612333Y-90784570D01*
X65158965Y-89143430D01*
X66261035Y-89143430D01*
X66807667Y-90784570D01*
G37*
G36*
X64601363Y-90964000D02*
G01*
X66818637Y-90964000D01*
X66272705Y-92628000D01*
X65147295Y-92628000D01*
X64601363Y-90964000D01*
G37*
G36*
G01*
X46115000Y-84170000D02*
X46115000Y-82870000D01*
G75*
G02*
X46185000Y-82800000I70000J0D01*
G01*
X47935000Y-82800000D01*
G75*
G02*
X48005000Y-82870000I0J-70000D01*
G01*
X48005000Y-84170000D01*
G75*
G02*
X47935000Y-84240000I-70000J0D01*
G01*
X46185000Y-84240000D01*
G75*
G02*
X46115000Y-84170000I0J70000D01*
G01*
G37*
G36*
G01*
X38315000Y-84170000D02*
X38315000Y-82870000D01*
G75*
G02*
X38385000Y-82800000I70000J0D01*
G01*
X40135000Y-82800000D01*
G75*
G02*
X40205000Y-82870000I0J-70000D01*
G01*
X40205000Y-84170000D01*
G75*
G02*
X40135000Y-84240000I-70000J0D01*
G01*
X38385000Y-84240000D01*
G75*
G02*
X38315000Y-84170000I0J70000D01*
G01*
G37*
G36*
G01*
X38315000Y-88670000D02*
X38315000Y-87370000D01*
G75*
G02*
X38385000Y-87300000I70000J0D01*
G01*
X40135000Y-87300000D01*
G75*
G02*
X40205000Y-87370000I0J-70000D01*
G01*
X40205000Y-88670000D01*
G75*
G02*
X40135000Y-88740000I-70000J0D01*
G01*
X38385000Y-88740000D01*
G75*
G02*
X38315000Y-88670000I0J70000D01*
G01*
G37*
G36*
G01*
X46115000Y-88670000D02*
X46115000Y-87370000D01*
G75*
G02*
X46185000Y-87300000I70000J0D01*
G01*
X47935000Y-87300000D01*
G75*
G02*
X48005000Y-87370000I0J-70000D01*
G01*
X48005000Y-88670000D01*
G75*
G02*
X47935000Y-88740000I-70000J0D01*
G01*
X46185000Y-88740000D01*
G75*
G02*
X46115000Y-88670000I0J70000D01*
G01*
G37*
G36*
G01*
X52934000Y-63923600D02*
X52934000Y-62196400D01*
G75*
G02*
X53004000Y-62126400I70000J0D01*
G01*
X55036000Y-62126400D01*
G75*
G02*
X55106000Y-62196400I0J-70000D01*
G01*
X55106000Y-63923600D01*
G75*
G02*
X55036000Y-63993600I-70000J0D01*
G01*
X53004000Y-63993600D01*
G75*
G02*
X52934000Y-63923600I0J70000D01*
G01*
G37*
D24*
X54020000Y-65600000D03*
X54020000Y-68140000D03*
X54020000Y-70680000D03*
G36*
G01*
X47440000Y-53810000D02*
X48040000Y-53810000D01*
G75*
G02*
X48100000Y-53870000I0J-60000D01*
G01*
X48100000Y-54970000D01*
G75*
G02*
X48040000Y-55030000I-60000J0D01*
G01*
X47440000Y-55030000D01*
G75*
G02*
X47380000Y-54970000I0J60000D01*
G01*
X47380000Y-53870000D01*
G75*
G02*
X47440000Y-53810000I60000J0D01*
G01*
G37*
G36*
G01*
X46490000Y-53810000D02*
X47090000Y-53810000D01*
G75*
G02*
X47150000Y-53870000I0J-60000D01*
G01*
X47150000Y-54970000D01*
G75*
G02*
X47090000Y-55030000I-60000J0D01*
G01*
X46490000Y-55030000D01*
G75*
G02*
X46430000Y-54970000I0J60000D01*
G01*
X46430000Y-53870000D01*
G75*
G02*
X46490000Y-53810000I60000J0D01*
G01*
G37*
G36*
G01*
X45540000Y-53810000D02*
X46140000Y-53810000D01*
G75*
G02*
X46200000Y-53870000I0J-60000D01*
G01*
X46200000Y-54970000D01*
G75*
G02*
X46140000Y-55030000I-60000J0D01*
G01*
X45540000Y-55030000D01*
G75*
G02*
X45480000Y-54970000I0J60000D01*
G01*
X45480000Y-53870000D01*
G75*
G02*
X45540000Y-53810000I60000J0D01*
G01*
G37*
G36*
G01*
X45540000Y-56410000D02*
X46140000Y-56410000D01*
G75*
G02*
X46200000Y-56470000I0J-60000D01*
G01*
X46200000Y-57570000D01*
G75*
G02*
X46140000Y-57630000I-60000J0D01*
G01*
X45540000Y-57630000D01*
G75*
G02*
X45480000Y-57570000I0J60000D01*
G01*
X45480000Y-56470000D01*
G75*
G02*
X45540000Y-56410000I60000J0D01*
G01*
G37*
G36*
G01*
X47440000Y-56410000D02*
X48040000Y-56410000D01*
G75*
G02*
X48100000Y-56470000I0J-60000D01*
G01*
X48100000Y-57570000D01*
G75*
G02*
X48040000Y-57630000I-60000J0D01*
G01*
X47440000Y-57630000D01*
G75*
G02*
X47380000Y-57570000I0J60000D01*
G01*
X47380000Y-56470000D01*
G75*
G02*
X47440000Y-56410000I60000J0D01*
G01*
G37*
G36*
G01*
X46490000Y-56410000D02*
X47090000Y-56410000D01*
G75*
G02*
X47150000Y-56470000I0J-60000D01*
G01*
X47150000Y-57570000D01*
G75*
G02*
X47090000Y-57630000I-60000J0D01*
G01*
X46490000Y-57630000D01*
G75*
G02*
X46430000Y-57570000I0J60000D01*
G01*
X46430000Y-56470000D01*
G75*
G02*
X46490000Y-56410000I60000J0D01*
G01*
G37*
G36*
G01*
X91280000Y-98545000D02*
X91280000Y-97895000D01*
G75*
G02*
X91340000Y-97835000I60000J0D01*
G01*
X92440000Y-97835000D01*
G75*
G02*
X92500000Y-97895000I0J-60000D01*
G01*
X92500000Y-98545000D01*
G75*
G02*
X92440000Y-98605000I-60000J0D01*
G01*
X91340000Y-98605000D01*
G75*
G02*
X91280000Y-98545000I0J60000D01*
G01*
G37*
G36*
G01*
X91280000Y-99495000D02*
X91280000Y-98845000D01*
G75*
G02*
X91340000Y-98785000I60000J0D01*
G01*
X92440000Y-98785000D01*
G75*
G02*
X92500000Y-98845000I0J-60000D01*
G01*
X92500000Y-99495000D01*
G75*
G02*
X92440000Y-99555000I-60000J0D01*
G01*
X91340000Y-99555000D01*
G75*
G02*
X91280000Y-99495000I0J60000D01*
G01*
G37*
G36*
G01*
X91280000Y-100445000D02*
X91280000Y-99795000D01*
G75*
G02*
X91340000Y-99735000I60000J0D01*
G01*
X92440000Y-99735000D01*
G75*
G02*
X92500000Y-99795000I0J-60000D01*
G01*
X92500000Y-100445000D01*
G75*
G02*
X92440000Y-100505000I-60000J0D01*
G01*
X91340000Y-100505000D01*
G75*
G02*
X91280000Y-100445000I0J60000D01*
G01*
G37*
G36*
G01*
X94080000Y-100445000D02*
X94080000Y-99795000D01*
G75*
G02*
X94140000Y-99735000I60000J0D01*
G01*
X95240000Y-99735000D01*
G75*
G02*
X95300000Y-99795000I0J-60000D01*
G01*
X95300000Y-100445000D01*
G75*
G02*
X95240000Y-100505000I-60000J0D01*
G01*
X94140000Y-100505000D01*
G75*
G02*
X94080000Y-100445000I0J60000D01*
G01*
G37*
G36*
G01*
X94080000Y-98545000D02*
X94080000Y-97895000D01*
G75*
G02*
X94140000Y-97835000I60000J0D01*
G01*
X95240000Y-97835000D01*
G75*
G02*
X95300000Y-97895000I0J-60000D01*
G01*
X95300000Y-98545000D01*
G75*
G02*
X95240000Y-98605000I-60000J0D01*
G01*
X94140000Y-98605000D01*
G75*
G02*
X94080000Y-98545000I0J60000D01*
G01*
G37*
G36*
G01*
X38770000Y-70185000D02*
X38770000Y-69535000D01*
G75*
G02*
X38840000Y-69465000I70000J0D01*
G01*
X39900000Y-69465000D01*
G75*
G02*
X39970000Y-69535000I0J-70000D01*
G01*
X39970000Y-70185000D01*
G75*
G02*
X39900000Y-70255000I-70000J0D01*
G01*
X38840000Y-70255000D01*
G75*
G02*
X38770000Y-70185000I0J70000D01*
G01*
G37*
G36*
G01*
X38770000Y-72085000D02*
X38770000Y-71435000D01*
G75*
G02*
X38840000Y-71365000I70000J0D01*
G01*
X39900000Y-71365000D01*
G75*
G02*
X39970000Y-71435000I0J-70000D01*
G01*
X39970000Y-72085000D01*
G75*
G02*
X39900000Y-72155000I-70000J0D01*
G01*
X38840000Y-72155000D01*
G75*
G02*
X38770000Y-72085000I0J70000D01*
G01*
G37*
G36*
G01*
X36570000Y-72085000D02*
X36570000Y-71435000D01*
G75*
G02*
X36640000Y-71365000I70000J0D01*
G01*
X37700000Y-71365000D01*
G75*
G02*
X37770000Y-71435000I0J-70000D01*
G01*
X37770000Y-72085000D01*
G75*
G02*
X37700000Y-72155000I-70000J0D01*
G01*
X36640000Y-72155000D01*
G75*
G02*
X36570000Y-72085000I0J70000D01*
G01*
G37*
G36*
G01*
X36570000Y-71135000D02*
X36570000Y-70485000D01*
G75*
G02*
X36640000Y-70415000I70000J0D01*
G01*
X37700000Y-70415000D01*
G75*
G02*
X37770000Y-70485000I0J-70000D01*
G01*
X37770000Y-71135000D01*
G75*
G02*
X37700000Y-71205000I-70000J0D01*
G01*
X36640000Y-71205000D01*
G75*
G02*
X36570000Y-71135000I0J70000D01*
G01*
G37*
G36*
G01*
X36570000Y-70185000D02*
X36570000Y-69535000D01*
G75*
G02*
X36640000Y-69465000I70000J0D01*
G01*
X37700000Y-69465000D01*
G75*
G02*
X37770000Y-69535000I0J-70000D01*
G01*
X37770000Y-70185000D01*
G75*
G02*
X37700000Y-70255000I-70000J0D01*
G01*
X36640000Y-70255000D01*
G75*
G02*
X36570000Y-70185000I0J70000D01*
G01*
G37*
G36*
G01*
X77400000Y-46115000D02*
X77400000Y-45465000D01*
G75*
G02*
X77460000Y-45405000I60000J0D01*
G01*
X78520000Y-45405000D01*
G75*
G02*
X78580000Y-45465000I0J-60000D01*
G01*
X78580000Y-46115000D01*
G75*
G02*
X78520000Y-46175000I-60000J0D01*
G01*
X77460000Y-46175000D01*
G75*
G02*
X77400000Y-46115000I0J60000D01*
G01*
G37*
G36*
G01*
X77400000Y-47065000D02*
X77400000Y-46415000D01*
G75*
G02*
X77460000Y-46355000I60000J0D01*
G01*
X78520000Y-46355000D01*
G75*
G02*
X78580000Y-46415000I0J-60000D01*
G01*
X78580000Y-47065000D01*
G75*
G02*
X78520000Y-47125000I-60000J0D01*
G01*
X77460000Y-47125000D01*
G75*
G02*
X77400000Y-47065000I0J60000D01*
G01*
G37*
G36*
G01*
X77400000Y-48015000D02*
X77400000Y-47365000D01*
G75*
G02*
X77460000Y-47305000I60000J0D01*
G01*
X78520000Y-47305000D01*
G75*
G02*
X78580000Y-47365000I0J-60000D01*
G01*
X78580000Y-48015000D01*
G75*
G02*
X78520000Y-48075000I-60000J0D01*
G01*
X77460000Y-48075000D01*
G75*
G02*
X77400000Y-48015000I0J60000D01*
G01*
G37*
G36*
G01*
X79600000Y-48015000D02*
X79600000Y-47365000D01*
G75*
G02*
X79660000Y-47305000I60000J0D01*
G01*
X80720000Y-47305000D01*
G75*
G02*
X80780000Y-47365000I0J-60000D01*
G01*
X80780000Y-48015000D01*
G75*
G02*
X80720000Y-48075000I-60000J0D01*
G01*
X79660000Y-48075000D01*
G75*
G02*
X79600000Y-48015000I0J60000D01*
G01*
G37*
G36*
G01*
X79600000Y-46115000D02*
X79600000Y-45465000D01*
G75*
G02*
X79660000Y-45405000I60000J0D01*
G01*
X80720000Y-45405000D01*
G75*
G02*
X80780000Y-45465000I0J-60000D01*
G01*
X80780000Y-46115000D01*
G75*
G02*
X80720000Y-46175000I-60000J0D01*
G01*
X79660000Y-46175000D01*
G75*
G02*
X79600000Y-46115000I0J60000D01*
G01*
G37*
G36*
G01*
X107834000Y-42953600D02*
X107834000Y-41226400D01*
G75*
G02*
X107904000Y-41156400I70000J0D01*
G01*
X109936000Y-41156400D01*
G75*
G02*
X110006000Y-41226400I0J-70000D01*
G01*
X110006000Y-42953600D01*
G75*
G02*
X109936000Y-43023600I-70000J0D01*
G01*
X107904000Y-43023600D01*
G75*
G02*
X107834000Y-42953600I0J70000D01*
G01*
G37*
X108920000Y-44630000D03*
X108920000Y-47170000D03*
X108920000Y-49710000D03*
X108920000Y-52250000D03*
X108920000Y-54790000D03*
G36*
G01*
X43026000Y-55284000D02*
X43026000Y-57316000D01*
G75*
G02*
X42956000Y-57386000I-70000J0D01*
G01*
X40924000Y-57386000D01*
G75*
G02*
X40854000Y-57316000I0J70000D01*
G01*
X40854000Y-55284000D01*
G75*
G02*
X40924000Y-55214000I70000J0D01*
G01*
X42956000Y-55214000D01*
G75*
G02*
X43026000Y-55284000I0J-70000D01*
G01*
G37*
D25*
X41940000Y-53760000D03*
G36*
G01*
X97156400Y-102114000D02*
X98883600Y-102114000D01*
G75*
G02*
X98953600Y-102184000I0J-70000D01*
G01*
X98953600Y-104216000D01*
G75*
G02*
X98883600Y-104286000I-70000J0D01*
G01*
X97156400Y-104286000D01*
G75*
G02*
X97086400Y-104216000I0J70000D01*
G01*
X97086400Y-102184000D01*
G75*
G02*
X97156400Y-102114000I70000J0D01*
G01*
G37*
D26*
X95480000Y-103200000D03*
X92940000Y-103200000D03*
X90400000Y-103200000D03*
X87860000Y-103200000D03*
X85320000Y-103200000D03*
X82780000Y-103200000D03*
X80240000Y-103200000D03*
X77700000Y-103200000D03*
X75160000Y-103200000D03*
G36*
G01*
X94420000Y-42440000D02*
X94420000Y-41140000D01*
G75*
G02*
X94490000Y-41070000I70000J0D01*
G01*
X95190000Y-41070000D01*
G75*
G02*
X95260000Y-41140000I0J-70000D01*
G01*
X95260000Y-42440000D01*
G75*
G02*
X95190000Y-42510000I-70000J0D01*
G01*
X94490000Y-42510000D01*
G75*
G02*
X94420000Y-42440000I0J70000D01*
G01*
G37*
G36*
G01*
X92520000Y-42440000D02*
X92520000Y-41140000D01*
G75*
G02*
X92590000Y-41070000I70000J0D01*
G01*
X93290000Y-41070000D01*
G75*
G02*
X93360000Y-41140000I0J-70000D01*
G01*
X93360000Y-42440000D01*
G75*
G02*
X93290000Y-42510000I-70000J0D01*
G01*
X92590000Y-42510000D01*
G75*
G02*
X92520000Y-42440000I0J70000D01*
G01*
G37*
G36*
G01*
X52600000Y-74160000D02*
X52600000Y-72860000D01*
G75*
G02*
X52670000Y-72790000I70000J0D01*
G01*
X53370000Y-72790000D01*
G75*
G02*
X53440000Y-72860000I0J-70000D01*
G01*
X53440000Y-74160000D01*
G75*
G02*
X53370000Y-74230000I-70000J0D01*
G01*
X52670000Y-74230000D01*
G75*
G02*
X52600000Y-74160000I0J70000D01*
G01*
G37*
G36*
G01*
X50700000Y-74160000D02*
X50700000Y-72860000D01*
G75*
G02*
X50770000Y-72790000I70000J0D01*
G01*
X51470000Y-72790000D01*
G75*
G02*
X51540000Y-72860000I0J-70000D01*
G01*
X51540000Y-74160000D01*
G75*
G02*
X51470000Y-74230000I-70000J0D01*
G01*
X50770000Y-74230000D01*
G75*
G02*
X50700000Y-74160000I0J70000D01*
G01*
G37*
G36*
G01*
X49990000Y-66210000D02*
X51290000Y-66210000D01*
G75*
G02*
X51360000Y-66280000I0J-70000D01*
G01*
X51360000Y-66980000D01*
G75*
G02*
X51290000Y-67050000I-70000J0D01*
G01*
X49990000Y-67050000D01*
G75*
G02*
X49920000Y-66980000I0J70000D01*
G01*
X49920000Y-66280000D01*
G75*
G02*
X49990000Y-66210000I70000J0D01*
G01*
G37*
G36*
G01*
X49990000Y-68110000D02*
X51290000Y-68110000D01*
G75*
G02*
X51360000Y-68180000I0J-70000D01*
G01*
X51360000Y-68880000D01*
G75*
G02*
X51290000Y-68950000I-70000J0D01*
G01*
X49990000Y-68950000D01*
G75*
G02*
X49920000Y-68880000I0J70000D01*
G01*
X49920000Y-68180000D01*
G75*
G02*
X49990000Y-68110000I70000J0D01*
G01*
G37*
G36*
G01*
X21343600Y-86806000D02*
X19616400Y-86806000D01*
G75*
G02*
X19546400Y-86736000I0J70000D01*
G01*
X19546400Y-84704000D01*
G75*
G02*
X19616400Y-84634000I70000J0D01*
G01*
X21343600Y-84634000D01*
G75*
G02*
X21413600Y-84704000I0J-70000D01*
G01*
X21413600Y-86736000D01*
G75*
G02*
X21343600Y-86806000I-70000J0D01*
G01*
G37*
X23020000Y-85720000D03*
X25560000Y-85720000D03*
X28100000Y-85720000D03*
G36*
G01*
X86086000Y-65735000D02*
X86086000Y-64975000D01*
G75*
G02*
X86156000Y-64905000I70000J0D01*
G01*
X87356000Y-64905000D01*
G75*
G02*
X87426000Y-64975000I0J-70000D01*
G01*
X87426000Y-65735000D01*
G75*
G02*
X87356000Y-65805000I-70000J0D01*
G01*
X86156000Y-65805000D01*
G75*
G02*
X86086000Y-65735000I0J70000D01*
G01*
G37*
G36*
G01*
X86086000Y-67005000D02*
X86086000Y-66245000D01*
G75*
G02*
X86156000Y-66175000I70000J0D01*
G01*
X87356000Y-66175000D01*
G75*
G02*
X87426000Y-66245000I0J-70000D01*
G01*
X87426000Y-67005000D01*
G75*
G02*
X87356000Y-67075000I-70000J0D01*
G01*
X86156000Y-67075000D01*
G75*
G02*
X86086000Y-67005000I0J70000D01*
G01*
G37*
G36*
G01*
X86086000Y-68275000D02*
X86086000Y-67515000D01*
G75*
G02*
X86156000Y-67445000I70000J0D01*
G01*
X87356000Y-67445000D01*
G75*
G02*
X87426000Y-67515000I0J-70000D01*
G01*
X87426000Y-68275000D01*
G75*
G02*
X87356000Y-68345000I-70000J0D01*
G01*
X86156000Y-68345000D01*
G75*
G02*
X86086000Y-68275000I0J70000D01*
G01*
G37*
G36*
G01*
X86086000Y-69545000D02*
X86086000Y-68785000D01*
G75*
G02*
X86156000Y-68715000I70000J0D01*
G01*
X87356000Y-68715000D01*
G75*
G02*
X87426000Y-68785000I0J-70000D01*
G01*
X87426000Y-69545000D01*
G75*
G02*
X87356000Y-69615000I-70000J0D01*
G01*
X86156000Y-69615000D01*
G75*
G02*
X86086000Y-69545000I0J70000D01*
G01*
G37*
G36*
G01*
X91294000Y-69545000D02*
X91294000Y-68785000D01*
G75*
G02*
X91364000Y-68715000I70000J0D01*
G01*
X92564000Y-68715000D01*
G75*
G02*
X92634000Y-68785000I0J-70000D01*
G01*
X92634000Y-69545000D01*
G75*
G02*
X92564000Y-69615000I-70000J0D01*
G01*
X91364000Y-69615000D01*
G75*
G02*
X91294000Y-69545000I0J70000D01*
G01*
G37*
G36*
G01*
X91294000Y-68275000D02*
X91294000Y-67515000D01*
G75*
G02*
X91364000Y-67445000I70000J0D01*
G01*
X92564000Y-67445000D01*
G75*
G02*
X92634000Y-67515000I0J-70000D01*
G01*
X92634000Y-68275000D01*
G75*
G02*
X92564000Y-68345000I-70000J0D01*
G01*
X91364000Y-68345000D01*
G75*
G02*
X91294000Y-68275000I0J70000D01*
G01*
G37*
G36*
G01*
X91294000Y-67005000D02*
X91294000Y-66245000D01*
G75*
G02*
X91364000Y-66175000I70000J0D01*
G01*
X92564000Y-66175000D01*
G75*
G02*
X92634000Y-66245000I0J-70000D01*
G01*
X92634000Y-67005000D01*
G75*
G02*
X92564000Y-67075000I-70000J0D01*
G01*
X91364000Y-67075000D01*
G75*
G02*
X91294000Y-67005000I0J70000D01*
G01*
G37*
G36*
G01*
X91294000Y-65735000D02*
X91294000Y-64975000D01*
G75*
G02*
X91364000Y-64905000I70000J0D01*
G01*
X92564000Y-64905000D01*
G75*
G02*
X92634000Y-64975000I0J-70000D01*
G01*
X92634000Y-65735000D01*
G75*
G02*
X92564000Y-65805000I-70000J0D01*
G01*
X91364000Y-65805000D01*
G75*
G02*
X91294000Y-65735000I0J70000D01*
G01*
G37*
G36*
G01*
X96100000Y-101010000D02*
X96100000Y-99710000D01*
G75*
G02*
X96170000Y-99640000I70000J0D01*
G01*
X96870000Y-99640000D01*
G75*
G02*
X96940000Y-99710000I0J-70000D01*
G01*
X96940000Y-101010000D01*
G75*
G02*
X96870000Y-101080000I-70000J0D01*
G01*
X96170000Y-101080000D01*
G75*
G02*
X96100000Y-101010000I0J70000D01*
G01*
G37*
G36*
G01*
X98000000Y-101010000D02*
X98000000Y-99710000D01*
G75*
G02*
X98070000Y-99640000I70000J0D01*
G01*
X98770000Y-99640000D01*
G75*
G02*
X98840000Y-99710000I0J-70000D01*
G01*
X98840000Y-101010000D01*
G75*
G02*
X98770000Y-101080000I-70000J0D01*
G01*
X98070000Y-101080000D01*
G75*
G02*
X98000000Y-101010000I0J70000D01*
G01*
G37*
G36*
G01*
X33490000Y-64000000D02*
X33490000Y-63100000D01*
G75*
G02*
X33560000Y-63030000I70000J0D01*
G01*
X34060000Y-63030000D01*
G75*
G02*
X34130000Y-63100000I0J-70000D01*
G01*
X34130000Y-64000000D01*
G75*
G02*
X34060000Y-64070000I-70000J0D01*
G01*
X33560000Y-64070000D01*
G75*
G02*
X33490000Y-64000000I0J70000D01*
G01*
G37*
G36*
G01*
X34990000Y-64000000D02*
X34990000Y-63100000D01*
G75*
G02*
X35060000Y-63030000I70000J0D01*
G01*
X35560000Y-63030000D01*
G75*
G02*
X35630000Y-63100000I0J-70000D01*
G01*
X35630000Y-64000000D01*
G75*
G02*
X35560000Y-64070000I-70000J0D01*
G01*
X35060000Y-64070000D01*
G75*
G02*
X34990000Y-64000000I0J70000D01*
G01*
G37*
G36*
G01*
X63885000Y-60980000D02*
X62635000Y-60980000D01*
G75*
G02*
X62565000Y-60910000I0J70000D01*
G01*
X62565000Y-59910000D01*
G75*
G02*
X62635000Y-59840000I70000J0D01*
G01*
X63885000Y-59840000D01*
G75*
G02*
X63955000Y-59910000I0J-70000D01*
G01*
X63955000Y-60910000D01*
G75*
G02*
X63885000Y-60980000I-70000J0D01*
G01*
G37*
G36*
G01*
X63885000Y-58980000D02*
X62635000Y-58980000D01*
G75*
G02*
X62565000Y-58910000I0J70000D01*
G01*
X62565000Y-57910000D01*
G75*
G02*
X62635000Y-57840000I70000J0D01*
G01*
X63885000Y-57840000D01*
G75*
G02*
X63955000Y-57910000I0J-70000D01*
G01*
X63955000Y-58910000D01*
G75*
G02*
X63885000Y-58980000I-70000J0D01*
G01*
G37*
G36*
G01*
X61970000Y-58070000D02*
X61970000Y-58670000D01*
G75*
G02*
X61900000Y-58740000I-70000J0D01*
G01*
X60800000Y-58740000D01*
G75*
G02*
X60730000Y-58670000I0J70000D01*
G01*
X60730000Y-58070000D01*
G75*
G02*
X60800000Y-58000000I70000J0D01*
G01*
X61900000Y-58000000D01*
G75*
G02*
X61970000Y-58070000I0J-70000D01*
G01*
G37*
G36*
G01*
X61970000Y-57120000D02*
X61970000Y-57720000D01*
G75*
G02*
X61900000Y-57790000I-70000J0D01*
G01*
X60800000Y-57790000D01*
G75*
G02*
X60730000Y-57720000I0J70000D01*
G01*
X60730000Y-57120000D01*
G75*
G02*
X60800000Y-57050000I70000J0D01*
G01*
X61900000Y-57050000D01*
G75*
G02*
X61970000Y-57120000I0J-70000D01*
G01*
G37*
G36*
G01*
X61970000Y-56170000D02*
X61970000Y-56770000D01*
G75*
G02*
X61900000Y-56840000I-70000J0D01*
G01*
X60800000Y-56840000D01*
G75*
G02*
X60730000Y-56770000I0J70000D01*
G01*
X60730000Y-56170000D01*
G75*
G02*
X60800000Y-56100000I70000J0D01*
G01*
X61900000Y-56100000D01*
G75*
G02*
X61970000Y-56170000I0J-70000D01*
G01*
G37*
G36*
G01*
X59370000Y-56170000D02*
X59370000Y-56770000D01*
G75*
G02*
X59300000Y-56840000I-70000J0D01*
G01*
X58200000Y-56840000D01*
G75*
G02*
X58130000Y-56770000I0J70000D01*
G01*
X58130000Y-56170000D01*
G75*
G02*
X58200000Y-56100000I70000J0D01*
G01*
X59300000Y-56100000D01*
G75*
G02*
X59370000Y-56170000I0J-70000D01*
G01*
G37*
G36*
G01*
X59370000Y-58070000D02*
X59370000Y-58670000D01*
G75*
G02*
X59300000Y-58740000I-70000J0D01*
G01*
X58200000Y-58740000D01*
G75*
G02*
X58130000Y-58670000I0J70000D01*
G01*
X58130000Y-58070000D01*
G75*
G02*
X58200000Y-58000000I70000J0D01*
G01*
X59300000Y-58000000D01*
G75*
G02*
X59370000Y-58070000I0J-70000D01*
G01*
G37*
G36*
G01*
X59370000Y-57120000D02*
X59370000Y-57720000D01*
G75*
G02*
X59300000Y-57790000I-70000J0D01*
G01*
X58200000Y-57790000D01*
G75*
G02*
X58130000Y-57720000I0J70000D01*
G01*
X58130000Y-57120000D01*
G75*
G02*
X58200000Y-57050000I70000J0D01*
G01*
X59300000Y-57050000D01*
G75*
G02*
X59370000Y-57120000I0J-70000D01*
G01*
G37*
G36*
G01*
X77335000Y-69140000D02*
X76685000Y-69140000D01*
G75*
G02*
X76625000Y-69080000I0J60000D01*
G01*
X76625000Y-68020000D01*
G75*
G02*
X76685000Y-67960000I60000J0D01*
G01*
X77335000Y-67960000D01*
G75*
G02*
X77395000Y-68020000I0J-60000D01*
G01*
X77395000Y-69080000D01*
G75*
G02*
X77335000Y-69140000I-60000J0D01*
G01*
G37*
G36*
G01*
X78285000Y-69140000D02*
X77635000Y-69140000D01*
G75*
G02*
X77575000Y-69080000I0J60000D01*
G01*
X77575000Y-68020000D01*
G75*
G02*
X77635000Y-67960000I60000J0D01*
G01*
X78285000Y-67960000D01*
G75*
G02*
X78345000Y-68020000I0J-60000D01*
G01*
X78345000Y-69080000D01*
G75*
G02*
X78285000Y-69140000I-60000J0D01*
G01*
G37*
G36*
G01*
X79235000Y-69140000D02*
X78585000Y-69140000D01*
G75*
G02*
X78525000Y-69080000I0J60000D01*
G01*
X78525000Y-68020000D01*
G75*
G02*
X78585000Y-67960000I60000J0D01*
G01*
X79235000Y-67960000D01*
G75*
G02*
X79295000Y-68020000I0J-60000D01*
G01*
X79295000Y-69080000D01*
G75*
G02*
X79235000Y-69140000I-60000J0D01*
G01*
G37*
G36*
G01*
X79235000Y-66940000D02*
X78585000Y-66940000D01*
G75*
G02*
X78525000Y-66880000I0J60000D01*
G01*
X78525000Y-65820000D01*
G75*
G02*
X78585000Y-65760000I60000J0D01*
G01*
X79235000Y-65760000D01*
G75*
G02*
X79295000Y-65820000I0J-60000D01*
G01*
X79295000Y-66880000D01*
G75*
G02*
X79235000Y-66940000I-60000J0D01*
G01*
G37*
G36*
G01*
X77335000Y-66940000D02*
X76685000Y-66940000D01*
G75*
G02*
X76625000Y-66880000I0J60000D01*
G01*
X76625000Y-65820000D01*
G75*
G02*
X76685000Y-65760000I60000J0D01*
G01*
X77335000Y-65760000D01*
G75*
G02*
X77395000Y-65820000I0J-60000D01*
G01*
X77395000Y-66880000D01*
G75*
G02*
X77335000Y-66940000I-60000J0D01*
G01*
G37*
D25*
X36060000Y-84560000D03*
G36*
G01*
X37146000Y-86084000D02*
X37146000Y-88116000D01*
G75*
G02*
X37076000Y-88186000I-70000J0D01*
G01*
X35044000Y-88186000D01*
G75*
G02*
X34974000Y-88116000I0J70000D01*
G01*
X34974000Y-86084000D01*
G75*
G02*
X35044000Y-86014000I70000J0D01*
G01*
X37076000Y-86014000D01*
G75*
G02*
X37146000Y-86084000I0J-70000D01*
G01*
G37*
G36*
G01*
X50046000Y-92176000D02*
X48014000Y-92176000D01*
G75*
G02*
X47944000Y-92106000I0J70000D01*
G01*
X47944000Y-90074000D01*
G75*
G02*
X48014000Y-90004000I70000J0D01*
G01*
X50046000Y-90004000D01*
G75*
G02*
X50116000Y-90074000I0J-70000D01*
G01*
X50116000Y-92106000D01*
G75*
G02*
X50046000Y-92176000I-70000J0D01*
G01*
G37*
X51570000Y-91090000D03*
G36*
G01*
X49956000Y-81506000D02*
X47924000Y-81506000D01*
G75*
G02*
X47854000Y-81436000I0J70000D01*
G01*
X47854000Y-79404000D01*
G75*
G02*
X47924000Y-79334000I70000J0D01*
G01*
X49956000Y-79334000D01*
G75*
G02*
X50026000Y-79404000I0J-70000D01*
G01*
X50026000Y-81436000D01*
G75*
G02*
X49956000Y-81506000I-70000J0D01*
G01*
G37*
X51480000Y-80420000D03*
G36*
G01*
X40110000Y-97155000D02*
X40110000Y-95905000D01*
G75*
G02*
X40180000Y-95835000I70000J0D01*
G01*
X41180000Y-95835000D01*
G75*
G02*
X41250000Y-95905000I0J-70000D01*
G01*
X41250000Y-97155000D01*
G75*
G02*
X41180000Y-97225000I-70000J0D01*
G01*
X40180000Y-97225000D01*
G75*
G02*
X40110000Y-97155000I0J70000D01*
G01*
G37*
G36*
G01*
X42110000Y-97155000D02*
X42110000Y-95905000D01*
G75*
G02*
X42180000Y-95835000I70000J0D01*
G01*
X43180000Y-95835000D01*
G75*
G02*
X43250000Y-95905000I0J-70000D01*
G01*
X43250000Y-97155000D01*
G75*
G02*
X43180000Y-97225000I-70000J0D01*
G01*
X42180000Y-97225000D01*
G75*
G02*
X42110000Y-97155000I0J70000D01*
G01*
G37*
D27*
X37960000Y-99350000D03*
D25*
X40500000Y-99350000D03*
G36*
G01*
X39460000Y-94520000D02*
X39460000Y-95120000D01*
G75*
G02*
X39400000Y-95180000I-60000J0D01*
G01*
X38300000Y-95180000D01*
G75*
G02*
X38240000Y-95120000I0J60000D01*
G01*
X38240000Y-94520000D01*
G75*
G02*
X38300000Y-94460000I60000J0D01*
G01*
X39400000Y-94460000D01*
G75*
G02*
X39460000Y-94520000I0J-60000D01*
G01*
G37*
G36*
G01*
X39460000Y-93570000D02*
X39460000Y-94170000D01*
G75*
G02*
X39400000Y-94230000I-60000J0D01*
G01*
X38300000Y-94230000D01*
G75*
G02*
X38240000Y-94170000I0J60000D01*
G01*
X38240000Y-93570000D01*
G75*
G02*
X38300000Y-93510000I60000J0D01*
G01*
X39400000Y-93510000D01*
G75*
G02*
X39460000Y-93570000I0J-60000D01*
G01*
G37*
G36*
G01*
X39460000Y-92620000D02*
X39460000Y-93220000D01*
G75*
G02*
X39400000Y-93280000I-60000J0D01*
G01*
X38300000Y-93280000D01*
G75*
G02*
X38240000Y-93220000I0J60000D01*
G01*
X38240000Y-92620000D01*
G75*
G02*
X38300000Y-92560000I60000J0D01*
G01*
X39400000Y-92560000D01*
G75*
G02*
X39460000Y-92620000I0J-60000D01*
G01*
G37*
G36*
G01*
X36860000Y-92620000D02*
X36860000Y-93220000D01*
G75*
G02*
X36800000Y-93280000I-60000J0D01*
G01*
X35700000Y-93280000D01*
G75*
G02*
X35640000Y-93220000I0J60000D01*
G01*
X35640000Y-92620000D01*
G75*
G02*
X35700000Y-92560000I60000J0D01*
G01*
X36800000Y-92560000D01*
G75*
G02*
X36860000Y-92620000I0J-60000D01*
G01*
G37*
G36*
G01*
X36860000Y-94520000D02*
X36860000Y-95120000D01*
G75*
G02*
X36800000Y-95180000I-60000J0D01*
G01*
X35700000Y-95180000D01*
G75*
G02*
X35640000Y-95120000I0J60000D01*
G01*
X35640000Y-94520000D01*
G75*
G02*
X35700000Y-94460000I60000J0D01*
G01*
X36800000Y-94460000D01*
G75*
G02*
X36860000Y-94520000I0J-60000D01*
G01*
G37*
G36*
G01*
X36860000Y-93570000D02*
X36860000Y-94170000D01*
G75*
G02*
X36800000Y-94230000I-60000J0D01*
G01*
X35700000Y-94230000D01*
G75*
G02*
X35640000Y-94170000I0J60000D01*
G01*
X35640000Y-93570000D01*
G75*
G02*
X35700000Y-93510000I60000J0D01*
G01*
X36800000Y-93510000D01*
G75*
G02*
X36860000Y-93570000I0J-60000D01*
G01*
G37*
D11*
G36*
X41624570Y-90262333D02*
G01*
X41624570Y-92457667D01*
X39983430Y-91911035D01*
X39983430Y-90808965D01*
X41624570Y-90262333D01*
G37*
G36*
X41804000Y-92468637D02*
G01*
X41804000Y-90251363D01*
X43468000Y-90797295D01*
X43468000Y-91922705D01*
X41804000Y-92468637D01*
G37*
D28*
X41793000Y-92353000D02*
X41577000Y-92353000D01*
X41577000Y-90317000D01*
X41793000Y-90317000D01*
X41793000Y-92353000D01*
D11*
G36*
X41793000Y-92353000D02*
G01*
X41577000Y-92353000D01*
X41577000Y-90317000D01*
X41793000Y-90317000D01*
X41793000Y-92353000D01*
G37*
M02*
