M48
; DRILL file {KiCad (5.1.9-0-10_14)} date Saturday, February 05, 2022 at 10:27:19 PM
; FORMAT={3:3/ absolute / metric / suppress leading zeros}
; #@! TF.CreationDate,2022-02-05T22:27:19-05:00
; #@! TF.GenerationSoftware,Kicad,Pcbnew,(5.1.9-0-10_14)
; #@! TF.FileFunction,NonPlated,1,4,NPTH
FMAT,2
METRIC,TZ
T1C0.500
T2C1.000
T3C1.300
%
G90
G05
T1
X117820Y-30400
X117820Y-31912
X117820Y-32668
X117820Y-33424
X117820Y-34180
X117820Y-34935
X117820Y-35691
X117820Y-37203
X117820Y-37959
X117820Y-38715
X117820Y-39471
X117820Y-40227
X117820Y-40983
X117820Y-42495
X117820Y-43250
X117820Y-44006
X117820Y-44762
X117820Y-45518
X117820Y-46274
X117840Y-31156
X117840Y-36447
X117840Y-41739
X117840Y-47030
T2
X61620Y-48600
T3
X69120Y-48600
T0
M30
