%TF.GenerationSoftware,KiCad,Pcbnew,(5.1.9-0-10_14)*%
%TF.CreationDate,2021-05-14T21:18:02-04:00*%
%TF.ProjectId,FlexFox80,466c6578-466f-4783-9830-2e6b69636164,1.10*%
%TF.SameCoordinates,Original*%
%TF.FileFunction,Soldermask,Bot*%
%TF.FilePolarity,Negative*%
%FSLAX46Y46*%
G04 Gerber Fmt 4.6, Leading zero omitted, Abs format (unit mm)*
G04 Created by KiCad (PCBNEW (5.1.9-0-10_14)) date 2021-05-14 21:18:02*
%MOMM*%
%LPD*%
G01*
G04 APERTURE LIST*
%ADD10C,0.740000*%
%ADD11C,2.640000*%
%ADD12C,2.240000*%
%ADD13C,2.140000*%
%ADD14C,1.440000*%
%ADD15C,1.140000*%
%ADD16C,6.140000*%
%ADD17O,2.172000X1.867200*%
%ADD18C,1.664000*%
%ADD19C,0.640000*%
%ADD20C,2.375200*%
%ADD21O,3.240000X1.140000*%
%ADD22O,1.839260X3.640120*%
%ADD23O,1.867200X2.172000*%
%ADD24C,2.440000*%
%ADD25C,3.640000*%
%ADD26O,2.172000X2.172000*%
G04 APERTURE END LIST*
%TO.C,U203*%
G36*
G01*
X90360000Y-78330000D02*
X90360000Y-81330000D01*
G75*
G02*
X90300000Y-81390000I-60000J0D01*
G01*
X85300000Y-81390000D01*
G75*
G02*
X85240000Y-81330000I0J60000D01*
G01*
X85240000Y-78330000D01*
G75*
G02*
X85300000Y-78270000I60000J0D01*
G01*
X90300000Y-78270000D01*
G75*
G02*
X90360000Y-78330000I0J-60000D01*
G01*
G37*
D10*
X86830000Y-80220000D03*
X86830000Y-79440000D03*
X87475000Y-80220000D03*
X87475000Y-79440000D03*
X88115000Y-80220000D03*
X88125000Y-79440000D03*
X88770000Y-80220000D03*
X88770000Y-79440000D03*
%TD*%
D11*
%TO.C,P203*%
X97390000Y-66085000D03*
G36*
G01*
X98640000Y-76165000D02*
X96140000Y-76165000D01*
G75*
G02*
X96070000Y-76095000I0J70000D01*
G01*
X96070000Y-73595000D01*
G75*
G02*
X96140000Y-73525000I70000J0D01*
G01*
X98640000Y-73525000D01*
G75*
G02*
X98710000Y-73595000I0J-70000D01*
G01*
X98710000Y-76095000D01*
G75*
G02*
X98640000Y-76165000I-70000J0D01*
G01*
G37*
D12*
X117390000Y-62965000D03*
X117390000Y-77965000D03*
%TD*%
D13*
%TO.C,L108*%
X32864900Y-54810000D03*
X30921800Y-58810000D03*
G36*
G01*
X32276000Y-54740000D02*
X33276000Y-54740000D01*
G75*
G02*
X33346000Y-54810000I0J-70000D01*
G01*
X33346000Y-58810000D01*
G75*
G02*
X33276000Y-58880000I-70000J0D01*
G01*
X32276000Y-58880000D01*
G75*
G02*
X32206000Y-58810000I0J70000D01*
G01*
X32206000Y-54810000D01*
G75*
G02*
X32276000Y-54740000I70000J0D01*
G01*
G37*
G36*
G01*
X30498000Y-54740000D02*
X31498000Y-54740000D01*
G75*
G02*
X31568000Y-54810000I0J-70000D01*
G01*
X31568000Y-58810000D01*
G75*
G02*
X31498000Y-58880000I-70000J0D01*
G01*
X30498000Y-58880000D01*
G75*
G02*
X30428000Y-58810000I0J70000D01*
G01*
X30428000Y-54810000D01*
G75*
G02*
X30498000Y-54740000I70000J0D01*
G01*
G37*
%TD*%
D14*
%TO.C,BT301*%
X69120000Y-48600000D03*
D15*
X61620000Y-48600000D03*
%TD*%
D16*
%TO.C,4mm thru*%
X110300000Y-104000000D03*
%TD*%
%TO.C,4mm thru*%
X33300000Y-104000000D03*
%TD*%
%TO.C,4mm thru*%
X110300000Y-36000000D03*
%TD*%
%TO.C,4mm thru*%
X33300000Y-36000000D03*
%TD*%
%TO.C,J302*%
G36*
G01*
X120886000Y-31496400D02*
X120886000Y-33223600D01*
G75*
G02*
X120816000Y-33293600I-70000J0D01*
G01*
X118784000Y-33293600D01*
G75*
G02*
X118714000Y-33223600I0J70000D01*
G01*
X118714000Y-31496400D01*
G75*
G02*
X118784000Y-31426400I70000J0D01*
G01*
X120816000Y-31426400D01*
G75*
G02*
X120886000Y-31496400I0J-70000D01*
G01*
G37*
D17*
X119800000Y-34900000D03*
X119800000Y-37440000D03*
X119800000Y-39980000D03*
X119800000Y-42520000D03*
X119800000Y-45060000D03*
%TD*%
%TO.C,W116*%
G36*
G01*
X28610000Y-95650000D02*
X28610000Y-90650000D01*
G75*
G02*
X28680000Y-90580000I70000J0D01*
G01*
X33680000Y-90580000D01*
G75*
G02*
X33750000Y-90650000I0J-70000D01*
G01*
X33750000Y-95650000D01*
G75*
G02*
X33680000Y-95720000I-70000J0D01*
G01*
X28680000Y-95720000D01*
G75*
G02*
X28610000Y-95650000I0J70000D01*
G01*
G37*
%TD*%
%TO.C,W308*%
G36*
G01*
X117020000Y-58190000D02*
X117020000Y-53190000D01*
G75*
G02*
X117090000Y-53120000I70000J0D01*
G01*
X122090000Y-53120000D01*
G75*
G02*
X122160000Y-53190000I0J-70000D01*
G01*
X122160000Y-58190000D01*
G75*
G02*
X122090000Y-58260000I-70000J0D01*
G01*
X117090000Y-58260000D01*
G75*
G02*
X117020000Y-58190000I0J70000D01*
G01*
G37*
%TD*%
D18*
%TO.C,W106*%
X55666854Y-51783146D03*
X50010000Y-57440000D03*
D10*
X50010000Y-57440000D03*
X55666854Y-51783146D03*
%TD*%
D19*
%TO.C,*%
X117840000Y-47030000D03*
%TD*%
%TO.C,*%
X117820000Y-46274089D03*
%TD*%
%TO.C,*%
X117820000Y-45518180D03*
%TD*%
%TO.C,*%
X117820000Y-44762271D03*
%TD*%
%TO.C,*%
X117820000Y-39470908D03*
%TD*%
%TO.C,*%
X117820000Y-40226817D03*
%TD*%
%TO.C,*%
X117820000Y-40982726D03*
%TD*%
%TO.C,*%
X117840000Y-41738635D03*
%TD*%
%TO.C,*%
X117820000Y-42494544D03*
%TD*%
%TO.C,*%
X117820000Y-43250453D03*
%TD*%
%TO.C,*%
X117820000Y-44006362D03*
%TD*%
%TO.C,*%
X117820000Y-34179545D03*
%TD*%
%TO.C,*%
X117820000Y-33423636D03*
%TD*%
%TO.C,*%
X117820000Y-32667727D03*
%TD*%
%TO.C,*%
X117840000Y-31155909D03*
%TD*%
%TO.C,*%
X117820000Y-30400000D03*
%TD*%
%TO.C,*%
X117820000Y-34935454D03*
%TD*%
%TO.C,*%
X117820000Y-35691363D03*
%TD*%
%TO.C,*%
X117840000Y-36447272D03*
%TD*%
%TO.C,*%
X117820000Y-37203181D03*
%TD*%
%TO.C,*%
X117820000Y-37959090D03*
%TD*%
%TO.C,*%
X117820000Y-38714999D03*
%TD*%
D20*
%TO.C,P302*%
X37750000Y-79420000D03*
%TD*%
%TO.C,P301*%
G36*
G01*
X65590000Y-77180000D02*
X65590000Y-76180000D01*
G75*
G02*
X65660000Y-76110000I70000J0D01*
G01*
X68760000Y-76110000D01*
G75*
G02*
X68830000Y-76180000I0J-70000D01*
G01*
X68830000Y-77180000D01*
G75*
G02*
X68760000Y-77250000I-70000J0D01*
G01*
X65660000Y-77250000D01*
G75*
G02*
X65590000Y-77180000I0J70000D01*
G01*
G37*
D21*
X75150000Y-76680000D03*
X67210000Y-74140000D03*
X75150000Y-74140000D03*
X67210000Y-71600000D03*
X75150000Y-71600000D03*
%TD*%
D22*
%TO.C,Q102*%
X49500000Y-49790000D03*
X46960000Y-49790000D03*
X52040000Y-49790000D03*
%TD*%
%TO.C,TP301*%
G36*
G01*
X23903600Y-86866000D02*
X22176400Y-86866000D01*
G75*
G02*
X22106400Y-86796000I0J70000D01*
G01*
X22106400Y-84764000D01*
G75*
G02*
X22176400Y-84694000I70000J0D01*
G01*
X23903600Y-84694000D01*
G75*
G02*
X23973600Y-84764000I0J-70000D01*
G01*
X23973600Y-86796000D01*
G75*
G02*
X23903600Y-86866000I-70000J0D01*
G01*
G37*
D23*
X25580000Y-85780000D03*
X28120000Y-85780000D03*
%TD*%
%TO.C,W307*%
G36*
G01*
X112522400Y-45497600D02*
X112522400Y-43262400D01*
G75*
G02*
X112592400Y-43192400I70000J0D01*
G01*
X114827600Y-43192400D01*
G75*
G02*
X114897600Y-43262400I0J-70000D01*
G01*
X114897600Y-45497600D01*
G75*
G02*
X114827600Y-45567600I-70000J0D01*
G01*
X112592400Y-45567600D01*
G75*
G02*
X112522400Y-45497600I0J70000D01*
G01*
G37*
%TD*%
D20*
%TO.C,J203*%
X50790000Y-36520000D03*
%TD*%
D18*
%TO.C,W204*%
X77260000Y-91240000D03*
X77260000Y-83240000D03*
D10*
X77260000Y-83240000D03*
X77260000Y-91240000D03*
%TD*%
D18*
%TO.C,W105*%
X38020000Y-60020000D03*
X46020000Y-60020000D03*
D10*
X46020000Y-60020000D03*
X38020000Y-60020000D03*
%TD*%
D18*
%TO.C,W111*%
X36930000Y-52760000D03*
X36930000Y-44760000D03*
D10*
X36930000Y-44760000D03*
X36930000Y-52760000D03*
%TD*%
D18*
%TO.C,W113*%
X20650000Y-53290000D03*
X28650000Y-53290000D03*
D10*
X28650000Y-53290000D03*
X20650000Y-53290000D03*
%TD*%
D18*
%TO.C,W108*%
X41580000Y-41880000D03*
X41580000Y-49880000D03*
D10*
X41580000Y-49880000D03*
X41580000Y-41880000D03*
%TD*%
D18*
%TO.C,W205*%
X83190000Y-106650000D03*
X83190000Y-98650000D03*
D10*
X83190000Y-98650000D03*
X83190000Y-106650000D03*
%TD*%
D19*
%TO.C,*%
X117820000Y-31911818D03*
%TD*%
D13*
%TO.C,L104*%
X45740000Y-44150000D03*
X45740000Y-38150000D03*
X48240000Y-38150000D03*
X43240000Y-44150000D03*
G36*
G01*
X45240000Y-38080000D02*
X46240000Y-38080000D01*
G75*
G02*
X46310000Y-38150000I0J-70000D01*
G01*
X46310000Y-44150000D01*
G75*
G02*
X46240000Y-44220000I-70000J0D01*
G01*
X45240000Y-44220000D01*
G75*
G02*
X45170000Y-44150000I0J70000D01*
G01*
X45170000Y-38150000D01*
G75*
G02*
X45240000Y-38080000I70000J0D01*
G01*
G37*
G36*
G01*
X47780000Y-38064000D02*
X48780000Y-38064000D01*
G75*
G02*
X48850000Y-38134000I0J-70000D01*
G01*
X48850000Y-42134000D01*
G75*
G02*
X48780000Y-42204000I-70000J0D01*
G01*
X47780000Y-42204000D01*
G75*
G02*
X47710000Y-42134000I0J70000D01*
G01*
X47710000Y-38134000D01*
G75*
G02*
X47780000Y-38064000I70000J0D01*
G01*
G37*
G36*
G01*
X42700000Y-40096000D02*
X43700000Y-40096000D01*
G75*
G02*
X43770000Y-40166000I0J-70000D01*
G01*
X43770000Y-44166000D01*
G75*
G02*
X43700000Y-44236000I-70000J0D01*
G01*
X42700000Y-44236000D01*
G75*
G02*
X42630000Y-44166000I0J70000D01*
G01*
X42630000Y-40166000D01*
G75*
G02*
X42700000Y-40096000I70000J0D01*
G01*
G37*
%TD*%
%TO.C,L106*%
X36464900Y-47490000D03*
X34521800Y-51490000D03*
G36*
G01*
X35876000Y-47420000D02*
X36876000Y-47420000D01*
G75*
G02*
X36946000Y-47490000I0J-70000D01*
G01*
X36946000Y-51490000D01*
G75*
G02*
X36876000Y-51560000I-70000J0D01*
G01*
X35876000Y-51560000D01*
G75*
G02*
X35806000Y-51490000I0J70000D01*
G01*
X35806000Y-47490000D01*
G75*
G02*
X35876000Y-47420000I70000J0D01*
G01*
G37*
G36*
G01*
X34098000Y-47420000D02*
X35098000Y-47420000D01*
G75*
G02*
X35168000Y-47490000I0J-70000D01*
G01*
X35168000Y-51490000D01*
G75*
G02*
X35098000Y-51560000I-70000J0D01*
G01*
X34098000Y-51560000D01*
G75*
G02*
X34028000Y-51490000I0J70000D01*
G01*
X34028000Y-47490000D01*
G75*
G02*
X34098000Y-47420000I70000J0D01*
G01*
G37*
%TD*%
D24*
%TO.C,J101*%
X31280000Y-65020000D03*
D25*
X24280000Y-77520000D03*
D24*
X28830000Y-62520000D03*
X28830000Y-70020000D03*
X28830000Y-77520000D03*
X31280000Y-75020000D03*
D25*
X24280000Y-62520000D03*
D24*
X19280000Y-72520000D03*
X19280000Y-67520000D03*
%TD*%
%TO.C,J301*%
G36*
G01*
X61310000Y-96230000D02*
X61310000Y-101310000D01*
G75*
G02*
X61240000Y-101380000I-70000J0D01*
G01*
X59462000Y-101380000D01*
G75*
G02*
X59392000Y-101310000I0J70000D01*
G01*
X59392000Y-96230000D01*
G75*
G02*
X59462000Y-96160000I70000J0D01*
G01*
X61240000Y-96160000D01*
G75*
G02*
X61310000Y-96230000I0J-70000D01*
G01*
G37*
G36*
G01*
X58516000Y-96230000D02*
X58516000Y-101310000D01*
G75*
G02*
X58446000Y-101380000I-70000J0D01*
G01*
X56668000Y-101380000D01*
G75*
G02*
X56598000Y-101310000I0J70000D01*
G01*
X56598000Y-96230000D01*
G75*
G02*
X56668000Y-96160000I70000J0D01*
G01*
X58446000Y-96160000D01*
G75*
G02*
X58516000Y-96230000I0J-70000D01*
G01*
G37*
G36*
G01*
X55722000Y-96230000D02*
X55722000Y-101310000D01*
G75*
G02*
X55652000Y-101380000I-70000J0D01*
G01*
X53874000Y-101380000D01*
G75*
G02*
X53804000Y-101310000I0J70000D01*
G01*
X53804000Y-96230000D01*
G75*
G02*
X53874000Y-96160000I70000J0D01*
G01*
X55652000Y-96160000D01*
G75*
G02*
X55722000Y-96230000I0J-70000D01*
G01*
G37*
G36*
G01*
X52928000Y-96230000D02*
X52928000Y-101310000D01*
G75*
G02*
X52858000Y-101380000I-70000J0D01*
G01*
X51080000Y-101380000D01*
G75*
G02*
X51010000Y-101310000I0J70000D01*
G01*
X51010000Y-96230000D01*
G75*
G02*
X51080000Y-96160000I70000J0D01*
G01*
X52858000Y-96160000D01*
G75*
G02*
X52928000Y-96230000I0J-70000D01*
G01*
G37*
%TD*%
%TO.C,TP302*%
G36*
G01*
X52934000Y-63923600D02*
X52934000Y-62196400D01*
G75*
G02*
X53004000Y-62126400I70000J0D01*
G01*
X55036000Y-62126400D01*
G75*
G02*
X55106000Y-62196400I0J-70000D01*
G01*
X55106000Y-63923600D01*
G75*
G02*
X55036000Y-63993600I-70000J0D01*
G01*
X53004000Y-63993600D01*
G75*
G02*
X52934000Y-63923600I0J70000D01*
G01*
G37*
D17*
X54020000Y-65600000D03*
X54020000Y-68140000D03*
X54020000Y-70680000D03*
%TD*%
%TO.C,P304*%
G36*
G01*
X107834000Y-42953600D02*
X107834000Y-41226400D01*
G75*
G02*
X107904000Y-41156400I70000J0D01*
G01*
X109936000Y-41156400D01*
G75*
G02*
X110006000Y-41226400I0J-70000D01*
G01*
X110006000Y-42953600D01*
G75*
G02*
X109936000Y-43023600I-70000J0D01*
G01*
X107904000Y-43023600D01*
G75*
G02*
X107834000Y-42953600I0J70000D01*
G01*
G37*
X108920000Y-44630000D03*
X108920000Y-47170000D03*
X108920000Y-49710000D03*
X108920000Y-52250000D03*
X108920000Y-54790000D03*
%TD*%
%TO.C,J303*%
G36*
G01*
X122120000Y-33530000D02*
X127200000Y-33530000D01*
G75*
G02*
X127270000Y-33600000I0J-70000D01*
G01*
X127270000Y-35378000D01*
G75*
G02*
X127200000Y-35448000I-70000J0D01*
G01*
X122120000Y-35448000D01*
G75*
G02*
X122050000Y-35378000I0J70000D01*
G01*
X122050000Y-33600000D01*
G75*
G02*
X122120000Y-33530000I70000J0D01*
G01*
G37*
G36*
G01*
X122120000Y-36324000D02*
X127200000Y-36324000D01*
G75*
G02*
X127270000Y-36394000I0J-70000D01*
G01*
X127270000Y-38172000D01*
G75*
G02*
X127200000Y-38242000I-70000J0D01*
G01*
X122120000Y-38242000D01*
G75*
G02*
X122050000Y-38172000I0J70000D01*
G01*
X122050000Y-36394000D01*
G75*
G02*
X122120000Y-36324000I70000J0D01*
G01*
G37*
G36*
G01*
X122120000Y-39118000D02*
X127200000Y-39118000D01*
G75*
G02*
X127270000Y-39188000I0J-70000D01*
G01*
X127270000Y-40966000D01*
G75*
G02*
X127200000Y-41036000I-70000J0D01*
G01*
X122120000Y-41036000D01*
G75*
G02*
X122050000Y-40966000I0J70000D01*
G01*
X122050000Y-39188000D01*
G75*
G02*
X122120000Y-39118000I70000J0D01*
G01*
G37*
G36*
G01*
X122120000Y-41912000D02*
X127200000Y-41912000D01*
G75*
G02*
X127270000Y-41982000I0J-70000D01*
G01*
X127270000Y-43760000D01*
G75*
G02*
X127200000Y-43830000I-70000J0D01*
G01*
X122120000Y-43830000D01*
G75*
G02*
X122050000Y-43760000I0J70000D01*
G01*
X122050000Y-41982000D01*
G75*
G02*
X122120000Y-41912000I70000J0D01*
G01*
G37*
%TD*%
%TO.C,J102*%
G36*
G01*
X43026000Y-55284000D02*
X43026000Y-57316000D01*
G75*
G02*
X42956000Y-57386000I-70000J0D01*
G01*
X40924000Y-57386000D01*
G75*
G02*
X40854000Y-57316000I0J70000D01*
G01*
X40854000Y-55284000D01*
G75*
G02*
X40924000Y-55214000I70000J0D01*
G01*
X42956000Y-55214000D01*
G75*
G02*
X43026000Y-55284000I0J-70000D01*
G01*
G37*
D26*
X41940000Y-53760000D03*
%TD*%
M02*
