M48
; DRILL file {KiCad (5.1.9-0-10_14)} date Friday, May 14, 2021 at 09:18:36 PM
; FORMAT={-:-/ absolute / metric / decimal}
; #@! TF.CreationDate,2021-05-14T21:18:36-04:00
; #@! TF.GenerationSoftware,Kicad,Pcbnew,(5.1.9-0-10_14)
; #@! TF.FileFunction,NonPlated,1,4,NPTH
FMAT,2
METRIC
T1C0.500
T2C1.000
T3C1.300
%
G90
G05
T1
X117.82Y-30.4
X117.82Y-31.912
X117.82Y-32.668
X117.82Y-33.424
X117.82Y-34.18
X117.82Y-34.935
X117.82Y-35.691
X117.82Y-37.203
X117.82Y-37.959
X117.82Y-38.715
X117.82Y-39.471
X117.82Y-40.227
X117.82Y-40.983
X117.82Y-42.495
X117.82Y-43.25
X117.82Y-44.006
X117.82Y-44.762
X117.82Y-45.518
X117.82Y-46.274
X117.84Y-31.156
X117.84Y-36.447
X117.84Y-41.739
X117.84Y-47.03
T2
X61.62Y-48.6
T3
X69.12Y-48.6
T0
M30
