G04 #@! TF.FileFunction,Soldermask,Bot*
%FSLAX46Y46*%
G04 Gerber Fmt 4.6, Leading zero omitted, Abs format (unit mm)*
G04 Created by KiCad (PCBNEW 4.0.6) date Friday, May 24, 2019 'PMt' 09:54:45 PM*
%MOMM*%
%LPD*%
G01*
G04 APERTURE LIST*
%ADD10C,0.100000*%
%ADD11C,1.664000*%
%ADD12C,0.740000*%
%ADD13R,2.375200X2.375200*%
%ADD14C,2.375200*%
%ADD15R,1.640000X1.390000*%
%ADD16C,0.640000*%
%ADD17R,1.840000X1.840000*%
%ADD18C,2.040000*%
%ADD19R,2.340000X2.340000*%
%ADD20C,2.340000*%
%ADD21R,1.867200X1.867200*%
%ADD22O,1.867200X1.867200*%
%ADD23C,1.140000*%
%ADD24C,1.440000*%
%ADD25R,1.390000X1.640000*%
%ADD26R,2.740000X2.540000*%
%ADD27R,1.180000X0.540000*%
%ADD28R,0.540000X1.180000*%
%ADD29R,2.172000X2.172000*%
%ADD30R,1.640000X1.440000*%
%ADD31R,2.140000X1.920000*%
%ADD32R,2.138980X3.739180*%
%ADD33O,1.839260X3.640120*%
%ADD34R,0.770000X1.420000*%
%ADD35R,2.840000X3.340000*%
%ADD36R,1.440000X1.640000*%
%ADD37R,2.172000X1.867200*%
%ADD38O,2.172000X1.867200*%
%ADD39R,1.620000X0.770000*%
%ADD40R,1.420000X0.770000*%
%ADD41R,0.940000X3.140000*%
%ADD42R,0.840000X3.140000*%
%ADD43R,1.720000X0.670000*%
%ADD44R,0.670000X1.720000*%
%ADD45R,2.020000X0.420000*%
%ADD46R,1.641140X1.641140*%
%ADD47R,1.570000X2.340000*%
%ADD48R,1.640000X2.040000*%
%ADD49R,1.867200X2.172000*%
%ADD50O,1.867200X2.172000*%
%ADD51R,1.440000X0.790000*%
%ADD52R,3.120000X3.120000*%
%ADD53C,0.420000*%
%ADD54C,1.320000*%
%ADD55R,3.740000X3.340000*%
%ADD56R,0.550000X1.850000*%
%ADD57C,1.620000*%
%ADD58R,5.120000X3.120000*%
%ADD59C,1.640000*%
%ADD60C,2.140000*%
%ADD61R,1.140000X6.140000*%
%ADD62R,1.140000X4.140000*%
%ADD63R,4.140000X1.140000*%
%ADD64C,0.254000*%
G04 APERTURE END LIST*
D10*
D11*
X38843146Y-44913146D03*
X44500000Y-50570000D03*
D12*
X44500000Y-50570000D03*
X38843146Y-44913146D03*
D13*
X125110000Y-41600000D03*
D14*
X120330000Y-41590000D03*
D15*
X124170000Y-36480000D03*
X121670000Y-36480000D03*
D16*
X117820000Y-49110000D03*
X117820000Y-48470000D03*
X117820000Y-47830000D03*
X117820000Y-47180000D03*
X117840000Y-46530000D03*
X117820000Y-45890000D03*
X117820000Y-45250000D03*
X117820000Y-44610000D03*
X117820000Y-39460000D03*
X117820000Y-40100000D03*
X117820000Y-40740000D03*
X117840000Y-41380000D03*
X117820000Y-42030000D03*
X117820000Y-42680000D03*
X117820000Y-43320000D03*
X117820000Y-43960000D03*
X117820000Y-33670000D03*
X117820000Y-33030000D03*
X117820000Y-32390000D03*
X117840000Y-31090000D03*
X117820000Y-30450000D03*
X117820000Y-34320000D03*
X117820000Y-34960000D03*
X117820000Y-35600000D03*
X117840000Y-36240000D03*
X117820000Y-36890000D03*
X117820000Y-37540000D03*
X117820000Y-38180000D03*
X117820000Y-38820000D03*
D13*
X23220000Y-41640000D03*
D14*
X18450000Y-41580000D03*
D15*
X19800000Y-36470000D03*
X22300000Y-36470000D03*
D16*
X25820000Y-38770000D03*
X25820000Y-38130000D03*
X25820000Y-37490000D03*
X25820000Y-36840000D03*
X25840000Y-36190000D03*
X25820000Y-35550000D03*
X25820000Y-34910000D03*
X25820000Y-34270000D03*
X25820000Y-30400000D03*
X25840000Y-31040000D03*
X25820000Y-31690000D03*
X25820000Y-32340000D03*
X25820000Y-32980000D03*
X25820000Y-33620000D03*
X25820000Y-43910000D03*
X25820000Y-43270000D03*
X25820000Y-42630000D03*
X25820000Y-41980000D03*
X25840000Y-41330000D03*
X25820000Y-40690000D03*
X25820000Y-40050000D03*
X25820000Y-39410000D03*
X25820000Y-44560000D03*
X25820000Y-45200000D03*
X25820000Y-45840000D03*
X25840000Y-46480000D03*
X25820000Y-47130000D03*
X25820000Y-47780000D03*
X25820000Y-48420000D03*
X25820000Y-49060000D03*
X25810000Y-109590000D03*
X25810000Y-108950000D03*
X25810000Y-108310000D03*
X25810000Y-107660000D03*
X25830000Y-107010000D03*
X25810000Y-106370000D03*
X25810000Y-105730000D03*
X25810000Y-105090000D03*
X25810000Y-99940000D03*
X25810000Y-100580000D03*
X25810000Y-101220000D03*
X25830000Y-101860000D03*
X25810000Y-102510000D03*
X25810000Y-103160000D03*
X25810000Y-103800000D03*
X25810000Y-104440000D03*
X25810000Y-94150000D03*
X25810000Y-93510000D03*
X25810000Y-92870000D03*
X25810000Y-92220000D03*
X25830000Y-91570000D03*
X25810000Y-90930000D03*
X25810000Y-94800000D03*
X25810000Y-95440000D03*
X25810000Y-96080000D03*
X25830000Y-96720000D03*
X25810000Y-97370000D03*
X25810000Y-98020000D03*
X25810000Y-98660000D03*
X25810000Y-99300000D03*
X117800000Y-99340000D03*
X117800000Y-98700000D03*
X117800000Y-98060000D03*
X117800000Y-97410000D03*
X117800000Y-104480000D03*
X117800000Y-103840000D03*
X117800000Y-103200000D03*
X117800000Y-102550000D03*
X117820000Y-101900000D03*
X117800000Y-101260000D03*
X117800000Y-100620000D03*
X117800000Y-99980000D03*
X117800000Y-105130000D03*
X117800000Y-105770000D03*
X117800000Y-106410000D03*
X117820000Y-107050000D03*
X117800000Y-107700000D03*
X117800000Y-108350000D03*
X117800000Y-108990000D03*
D17*
X52380000Y-101980000D03*
D18*
X56190000Y-101980000D03*
X60000000Y-101980000D03*
D17*
X60050000Y-38020000D03*
D18*
X56240000Y-38020000D03*
X52430000Y-38020000D03*
D14*
X44260000Y-69400000D03*
X24350000Y-64370000D03*
D13*
X24350000Y-58950000D03*
D19*
X119360000Y-78380000D03*
D20*
X119360000Y-74570000D03*
D21*
X122570000Y-83280000D03*
D22*
X122570000Y-85820000D03*
X120030000Y-83280000D03*
X120030000Y-85820000D03*
X117490000Y-83280000D03*
X117490000Y-85820000D03*
X114950000Y-83280000D03*
X114950000Y-85820000D03*
X112410000Y-83280000D03*
X112410000Y-85820000D03*
X109870000Y-83280000D03*
X109870000Y-85820000D03*
D23*
X99890000Y-84490000D03*
D24*
X92390000Y-84490000D03*
D25*
X48750000Y-83230000D03*
X48750000Y-85730000D03*
D15*
X49880000Y-89810000D03*
X47380000Y-89810000D03*
D25*
X40040000Y-67870000D03*
X40040000Y-70370000D03*
D15*
X40510000Y-86420000D03*
X38010000Y-86420000D03*
X42030000Y-80820000D03*
X39530000Y-80820000D03*
D25*
X44515000Y-95655000D03*
X44515000Y-93155000D03*
D26*
X73950000Y-93150000D03*
X79950000Y-93150000D03*
D15*
X53130000Y-94690000D03*
X50630000Y-94690000D03*
D25*
X50350000Y-66140000D03*
X50350000Y-68640000D03*
D15*
X43510000Y-72930000D03*
X46010000Y-72930000D03*
D25*
X106900000Y-74140000D03*
X106900000Y-76640000D03*
D15*
X60290000Y-80850000D03*
X62790000Y-80850000D03*
X62970000Y-76820000D03*
X65470000Y-76820000D03*
X64710000Y-67540000D03*
X67210000Y-67540000D03*
X57130000Y-68310000D03*
X54630000Y-68310000D03*
X89300000Y-76260000D03*
X86800000Y-76260000D03*
D25*
X81650000Y-59690000D03*
X81650000Y-62190000D03*
D15*
X35040000Y-65230000D03*
X32540000Y-65230000D03*
X37920000Y-63280000D03*
X40420000Y-63280000D03*
X71010000Y-68520000D03*
X73510000Y-68520000D03*
X46690000Y-58890000D03*
X44190000Y-58890000D03*
D27*
X74440000Y-61770000D03*
X74440000Y-61120000D03*
X74440000Y-60470000D03*
X76640000Y-60470000D03*
X76640000Y-61770000D03*
X76640000Y-61120000D03*
D28*
X95290000Y-68130000D03*
X95940000Y-68130000D03*
X96590000Y-68130000D03*
X96590000Y-70330000D03*
X95290000Y-70330000D03*
X95940000Y-70330000D03*
D10*
G36*
X77730570Y-56454570D02*
X75589430Y-56454570D01*
X76089430Y-54813430D01*
X77230570Y-54813430D01*
X77730570Y-56454570D01*
X77730570Y-56454570D01*
G37*
G36*
X75578000Y-56834000D02*
X77742000Y-56834000D01*
X77242000Y-58498000D01*
X76078000Y-58498000D01*
X75578000Y-56834000D01*
X75578000Y-56834000D01*
G37*
G36*
X82924570Y-67779430D02*
X82924570Y-69920570D01*
X81283430Y-69420570D01*
X81283430Y-68279430D01*
X82924570Y-67779430D01*
X82924570Y-67779430D01*
G37*
G36*
X83304000Y-69932000D02*
X83304000Y-67768000D01*
X84968000Y-68268000D01*
X84968000Y-69432000D01*
X83304000Y-69932000D01*
X83304000Y-69932000D01*
G37*
G36*
X91580570Y-38714570D02*
X89439430Y-38714570D01*
X89939430Y-37073430D01*
X91080570Y-37073430D01*
X91580570Y-38714570D01*
X91580570Y-38714570D01*
G37*
G36*
X89428000Y-39094000D02*
X91592000Y-39094000D01*
X91092000Y-40758000D01*
X89928000Y-40758000D01*
X89428000Y-39094000D01*
X89428000Y-39094000D01*
G37*
G36*
X115332000Y-64883000D02*
X113168000Y-64883000D01*
X113668000Y-63219000D01*
X114832000Y-63219000D01*
X115332000Y-64883000D01*
X115332000Y-64883000D01*
G37*
G36*
X113179430Y-67548430D02*
X115320570Y-67548430D01*
X114820570Y-69189570D01*
X113679430Y-69189570D01*
X113179430Y-67548430D01*
X113179430Y-67548430D01*
G37*
D29*
X114250000Y-66210000D03*
D10*
G36*
X77805430Y-73500570D02*
X77805430Y-71359430D01*
X79446570Y-71859430D01*
X79446570Y-73000570D01*
X77805430Y-73500570D01*
X77805430Y-73500570D01*
G37*
G36*
X77426000Y-71348000D02*
X77426000Y-73512000D01*
X75762000Y-73012000D01*
X75762000Y-71848000D01*
X77426000Y-71348000D01*
X77426000Y-71348000D01*
G37*
D30*
X51480000Y-87820000D03*
X48780000Y-87820000D03*
D31*
X35400000Y-74010000D03*
X38200000Y-74010000D03*
D15*
X50690000Y-96770000D03*
X53190000Y-96770000D03*
D10*
G36*
X63591313Y-66239590D02*
X63591313Y-62500410D01*
X65730293Y-62500410D01*
X65730293Y-66239590D01*
X63591313Y-66239590D01*
X63591313Y-66239590D01*
G37*
D32*
X56939197Y-64370000D03*
D33*
X56310000Y-56270000D03*
X53770000Y-56270000D03*
X58850000Y-56270000D03*
D34*
X74320000Y-89650000D03*
X73370000Y-87050000D03*
X74320000Y-87050000D03*
X75270000Y-87050000D03*
X75270000Y-89650000D03*
X73370000Y-89650000D03*
D30*
X40940000Y-88410000D03*
X43640000Y-88410000D03*
D35*
X40770000Y-77030000D03*
X32870000Y-77030000D03*
D36*
X109080000Y-74100000D03*
X109080000Y-76800000D03*
D30*
X51780000Y-78490000D03*
X49080000Y-78490000D03*
X48890000Y-80750000D03*
X51590000Y-80750000D03*
X60280000Y-78820000D03*
X62980000Y-78820000D03*
X59890000Y-70080000D03*
X57190000Y-70080000D03*
D36*
X89210000Y-70860000D03*
X89210000Y-73560000D03*
D30*
X90050000Y-68600000D03*
X87350000Y-68600000D03*
D36*
X93150000Y-71680000D03*
X93150000Y-68980000D03*
X28040000Y-76220000D03*
X28040000Y-78920000D03*
X25500000Y-74890000D03*
X25500000Y-77590000D03*
D37*
X22150000Y-78660000D03*
D38*
X22150000Y-81200000D03*
X22150000Y-83740000D03*
D39*
X37740000Y-70370000D03*
X37740000Y-71320000D03*
X37740000Y-72270000D03*
X35040000Y-72270000D03*
X35040000Y-70370000D03*
X35040000Y-71320000D03*
D40*
X38430000Y-84420000D03*
X38430000Y-83470000D03*
X38430000Y-82520000D03*
X41030000Y-82520000D03*
X41030000Y-84420000D03*
D41*
X88095000Y-79080000D03*
D42*
X89415000Y-79080000D03*
X90685000Y-79080000D03*
X91955000Y-79080000D03*
X93225000Y-79080000D03*
X94495000Y-79080000D03*
X95765000Y-79080000D03*
D41*
X97085000Y-79080000D03*
X97085000Y-87880000D03*
D42*
X95765000Y-87880000D03*
X94495000Y-87880000D03*
X93225000Y-87880000D03*
X91955000Y-87880000D03*
X90685000Y-87880000D03*
X89415000Y-87880000D03*
D41*
X88095000Y-87880000D03*
D43*
X87670000Y-63150000D03*
X87670000Y-62350000D03*
X87670000Y-61550000D03*
X87670000Y-60750000D03*
X87670000Y-59950000D03*
X87670000Y-59150000D03*
X87670000Y-58350000D03*
X87670000Y-57550000D03*
D44*
X89120000Y-56100000D03*
X89920000Y-56100000D03*
X90720000Y-56100000D03*
X91520000Y-56100000D03*
X92320000Y-56100000D03*
X93120000Y-56100000D03*
X93920000Y-56100000D03*
X94720000Y-56100000D03*
D43*
X96170000Y-57550000D03*
X96170000Y-58350000D03*
X96170000Y-59150000D03*
X96170000Y-59950000D03*
X96170000Y-60750000D03*
X96170000Y-61550000D03*
X96170000Y-62350000D03*
X96170000Y-63150000D03*
D44*
X94720000Y-64600000D03*
X93920000Y-64600000D03*
X93120000Y-64600000D03*
X92320000Y-64600000D03*
X91520000Y-64600000D03*
X90720000Y-64600000D03*
X89920000Y-64600000D03*
X89120000Y-64600000D03*
D45*
X37440000Y-61290000D03*
X37440000Y-60790000D03*
X37440000Y-60290000D03*
X37440000Y-59790000D03*
X37440000Y-59290000D03*
X41840000Y-59290000D03*
X41840000Y-59790000D03*
X41840000Y-60290000D03*
X41840000Y-60790000D03*
X41840000Y-61290000D03*
D40*
X78470000Y-68340000D03*
X78470000Y-69290000D03*
X78470000Y-70240000D03*
X75870000Y-70240000D03*
X75870000Y-68340000D03*
D13*
X81190000Y-107020000D03*
D46*
X84800000Y-76000000D03*
X91950000Y-75750000D03*
D13*
X113270000Y-41800000D03*
X31740000Y-46180000D03*
D47*
X32790000Y-62800000D03*
X32790000Y-59660000D03*
X34950000Y-59660000D03*
X34950000Y-62800000D03*
D15*
X53220000Y-98860000D03*
X50720000Y-98860000D03*
X27850000Y-59010000D03*
X30350000Y-59010000D03*
D48*
X28380000Y-62760000D03*
X28380000Y-67560000D03*
D21*
X28390000Y-52580000D03*
D22*
X28390000Y-55570000D03*
X30390000Y-52580000D03*
X30390000Y-55570000D03*
D49*
X82790000Y-33110000D03*
D50*
X85330000Y-33110000D03*
X87870000Y-33110000D03*
X90410000Y-33110000D03*
X92950000Y-33110000D03*
X95490000Y-33110000D03*
D37*
X109190000Y-44650000D03*
D38*
X109190000Y-47190000D03*
X109190000Y-49730000D03*
X109190000Y-52270000D03*
X109190000Y-54810000D03*
X109190000Y-57350000D03*
D25*
X47810000Y-66140000D03*
X47810000Y-68640000D03*
D15*
X40010000Y-90420000D03*
X37510000Y-90420000D03*
D14*
X75360000Y-77380000D03*
D51*
X50450000Y-70450000D03*
X50450000Y-71400000D03*
X50450000Y-72350000D03*
X47850000Y-72350000D03*
X47850000Y-70450000D03*
D16*
X117800000Y-109630000D03*
D15*
X121650000Y-97000000D03*
X124150000Y-97000000D03*
X19790000Y-97000000D03*
X22290000Y-97000000D03*
D14*
X120310000Y-102110000D03*
D13*
X125090000Y-102120000D03*
D14*
X18440000Y-102110000D03*
D13*
X23210000Y-102170000D03*
D15*
X111660000Y-68120000D03*
X109160000Y-68120000D03*
D36*
X111730000Y-70230000D03*
X111730000Y-72930000D03*
D52*
X34710000Y-88770000D03*
D53*
X34986860Y-88018160D03*
X34461080Y-88018160D03*
X33965780Y-88028320D03*
X33958160Y-88490600D03*
X33955620Y-89008760D03*
X33975940Y-89511680D03*
X34438220Y-89516760D03*
X34946220Y-89529460D03*
X35444060Y-89506600D03*
X35459300Y-89006220D03*
X35459300Y-88505840D03*
X35433900Y-88038480D03*
D54*
X34710000Y-88770000D03*
D30*
X121560000Y-38480000D03*
X124260000Y-38480000D03*
X124240000Y-99000000D03*
X121540000Y-99000000D03*
X22390000Y-38470000D03*
X19690000Y-38470000D03*
X22380000Y-99000000D03*
X19680000Y-99000000D03*
D55*
X121410000Y-59440000D03*
X113210000Y-59440000D03*
D11*
X39670000Y-97290000D03*
X47670000Y-97290000D03*
D12*
X47670000Y-97290000D03*
X39670000Y-97290000D03*
D11*
X22831538Y-86889185D03*
X30710000Y-85500000D03*
D12*
X30710000Y-85500000D03*
X22831538Y-86889185D03*
D11*
X29580000Y-80660000D03*
X37580000Y-80660000D03*
D12*
X37580000Y-80660000D03*
X29580000Y-80660000D03*
D11*
X29813146Y-73776854D03*
X35470000Y-68120000D03*
D12*
X35470000Y-68120000D03*
X29813146Y-73776854D03*
D11*
X52840000Y-91400000D03*
X52840000Y-83400000D03*
D12*
X52840000Y-83400000D03*
X52840000Y-91400000D03*
D11*
X52200000Y-71740000D03*
X52200000Y-63740000D03*
D12*
X52200000Y-63740000D03*
X52200000Y-71740000D03*
D11*
X33630000Y-56970000D03*
X41630000Y-56970000D03*
D12*
X41630000Y-56970000D03*
X33630000Y-56970000D03*
D11*
X38100000Y-65360000D03*
X46100000Y-65360000D03*
D12*
X46100000Y-65360000D03*
X38100000Y-65360000D03*
D11*
X45620000Y-39180000D03*
X45620000Y-47180000D03*
D12*
X45620000Y-47180000D03*
X45620000Y-39180000D03*
D11*
X75810000Y-36940000D03*
X67810000Y-36940000D03*
D12*
X67810000Y-36940000D03*
X75810000Y-36940000D03*
D11*
X63220000Y-57210000D03*
X71220000Y-57210000D03*
D12*
X71220000Y-57210000D03*
X63220000Y-57210000D03*
D11*
X42190000Y-39330000D03*
X42190000Y-47330000D03*
D12*
X42190000Y-47330000D03*
X42190000Y-39330000D03*
D11*
X118500000Y-65070000D03*
X110500000Y-65070000D03*
D12*
X110500000Y-65070000D03*
X118500000Y-65070000D03*
D11*
X106560000Y-79690000D03*
X106560000Y-71690000D03*
D12*
X106560000Y-71690000D03*
X106560000Y-79690000D03*
D11*
X111430946Y-96400462D03*
X108050000Y-89150000D03*
D12*
X108050000Y-89150000D03*
X111430946Y-96400462D03*
D11*
X85920000Y-79840000D03*
X85920000Y-87840000D03*
D12*
X85920000Y-87840000D03*
X85920000Y-79840000D03*
D11*
X66524385Y-38970646D03*
X59740000Y-43210000D03*
D12*
X59740000Y-43210000D03*
X66524385Y-38970646D03*
D11*
X50890000Y-85440000D03*
X42890000Y-85440000D03*
D12*
X42890000Y-85440000D03*
X50890000Y-85440000D03*
D56*
X45045000Y-82750000D03*
X45695000Y-82750000D03*
X46345000Y-82750000D03*
X46995000Y-82750000D03*
X46995000Y-87550000D03*
X46345000Y-87550000D03*
X45695000Y-87550000D03*
X45045000Y-87550000D03*
D57*
X63762700Y-72977140D03*
D58*
X63750000Y-73000000D03*
D57*
X65350000Y-73000000D03*
X62150000Y-73000000D03*
D26*
X59610000Y-95280000D03*
X65610000Y-95280000D03*
D28*
X84530000Y-65680000D03*
X83880000Y-65680000D03*
X83230000Y-65680000D03*
X83230000Y-63480000D03*
X84530000Y-63480000D03*
X83880000Y-63480000D03*
D16*
X117820000Y-31740000D03*
X117820000Y-91610000D03*
X117800000Y-92260000D03*
X117800000Y-92910000D03*
X117800000Y-93550000D03*
X117800000Y-94190000D03*
X117800000Y-94840000D03*
X117800000Y-95480000D03*
X117800000Y-96120000D03*
X117820000Y-96760000D03*
X117800000Y-90970000D03*
D59*
X56760000Y-84730000D03*
X56760000Y-86730000D03*
D60*
X54590000Y-45950000D03*
X54590000Y-51950000D03*
X52090000Y-51950000D03*
X57090000Y-45950000D03*
D61*
X54590000Y-48950000D03*
D62*
X52050000Y-49966000D03*
X57130000Y-47934000D03*
D60*
X51325100Y-44520000D03*
X53268200Y-40520000D03*
D62*
X51414000Y-42520000D03*
X53192000Y-42520000D03*
D60*
X62930000Y-41195100D03*
X66930000Y-43138200D03*
D63*
X64930000Y-41284000D03*
X64930000Y-43062000D03*
D64*
G36*
X66373605Y-71611436D02*
X66411463Y-74782072D01*
X61105551Y-74743900D01*
X61067972Y-71493326D01*
X61106067Y-71477000D01*
X66245571Y-71477000D01*
X66373605Y-71611436D01*
X66373605Y-71611436D01*
G37*
X66373605Y-71611436D02*
X66411463Y-74782072D01*
X61105551Y-74743900D01*
X61067972Y-71493326D01*
X61106067Y-71477000D01*
X66245571Y-71477000D01*
X66373605Y-71611436D01*
G36*
X36393000Y-90177394D02*
X36297394Y-90273000D01*
X35990000Y-90273000D01*
X35940590Y-90283006D01*
X35900197Y-90310197D01*
X35867394Y-90343000D01*
X33057000Y-90343000D01*
X33057000Y-87107000D01*
X36393000Y-87107000D01*
X36393000Y-90177394D01*
X36393000Y-90177394D01*
G37*
X36393000Y-90177394D02*
X36297394Y-90273000D01*
X35990000Y-90273000D01*
X35940590Y-90283006D01*
X35900197Y-90310197D01*
X35867394Y-90343000D01*
X33057000Y-90343000D01*
X33057000Y-87107000D01*
X36393000Y-87107000D01*
X36393000Y-90177394D01*
M02*
