M48
;DRILL file {KiCad 4.0.6} date Friday, May 24, 2019 'PMt' 09:54:31 PM
;FORMAT={-:-/ absolute / inch / decimal}
FMAT,2
INCH,TZ
T1C0.020
T2C0.039
T3C0.051
%
G90
G05
M72
T1
X1.0161Y-3.5799
X1.0161Y-3.6307
X1.0161Y-3.6563
X1.0161Y-3.6815
X1.0161Y-3.7067
X1.0161Y-3.7323
X1.0161Y-3.7575
X1.0161Y-3.7827
X1.0161Y-3.8335
X1.0161Y-3.8591
X1.0161Y-3.8843
X1.0161Y-3.9094
X1.0161Y-3.9346
X1.0161Y-3.9598
X1.0161Y-3.985
X1.0161Y-4.0358
X1.0161Y-4.0614
X1.0161Y-4.0866
X1.0161Y-4.1118
X1.0161Y-4.1374
X1.0161Y-4.1626
X1.0161Y-4.1878
X1.0161Y-4.2386
X1.0161Y-4.2642
X1.0161Y-4.2894
X1.0161Y-4.3146
X1.0165Y-1.1969
X1.0165Y-1.2476
X1.0165Y-1.2732
X1.0165Y-1.2984
X1.0165Y-1.3236
X1.0165Y-1.3492
X1.0165Y-1.3744
X1.0165Y-1.3996
X1.0165Y-1.4504
X1.0165Y-1.476
X1.0165Y-1.5012
X1.0165Y-1.5264
X1.0165Y-1.5516
X1.0165Y-1.5768
X1.0165Y-1.602
X1.0165Y-1.6528
X1.0165Y-1.6783
X1.0165Y-1.7035
X1.0165Y-1.7287
X1.0165Y-1.7543
X1.0165Y-1.7795
X1.0165Y-1.8047
X1.0165Y-1.8555
X1.0165Y-1.8811
X1.0165Y-1.9063
X1.0165Y-1.9315
X1.0169Y-3.6051
X1.0169Y-3.8079
X1.0169Y-4.0102
X1.0169Y-4.213
X1.0173Y-1.222
X1.0173Y-1.4248
X1.0173Y-1.6272
X1.0173Y-1.8299
X4.6378Y-3.5815
X4.6378Y-3.6323
X4.6378Y-3.6579
X4.6378Y-3.6831
X4.6378Y-3.7083
X4.6378Y-3.7339
X4.6378Y-3.7591
X4.6378Y-3.7843
X4.6378Y-3.835
X4.6378Y-3.8606
X4.6378Y-3.8858
X4.6378Y-3.911
X4.6378Y-3.9362
X4.6378Y-3.9614
X4.6378Y-3.9866
X4.6378Y-4.0374
X4.6378Y-4.063
X4.6378Y-4.0882
X4.6378Y-4.1134
X4.6378Y-4.139
X4.6378Y-4.1642
X4.6378Y-4.1894
X4.6378Y-4.2402
X4.6378Y-4.2657
X4.6378Y-4.2909
X4.6378Y-4.3161
X4.6386Y-1.1988
X4.6386Y-1.2496
X4.6386Y-1.2752
X4.6386Y-1.3004
X4.6386Y-1.3256
X4.6386Y-1.3512
X4.6386Y-1.3764
X4.6386Y-1.4016
X4.6386Y-1.4524
X4.6386Y-1.478
X4.6386Y-1.5031
X4.6386Y-1.5283
X4.6386Y-1.5535
X4.6386Y-1.5787
X4.6386Y-1.6039
X4.6386Y-1.6547
X4.6386Y-1.6803
X4.6386Y-1.7055
X4.6386Y-1.7307
X4.6386Y-1.7563
X4.6386Y-1.7815
X4.6386Y-1.8067
X4.6386Y-1.8575
X4.6386Y-1.8831
X4.6386Y-1.9083
X4.6386Y-1.9335
X4.6386Y-3.6067
X4.6386Y-3.8094
X4.6386Y-4.0118
X4.6386Y-4.2146
X4.6394Y-1.224
X4.6394Y-1.4268
X4.6394Y-1.6291
X4.6394Y-1.8319
T2
X3.9327Y-3.3264
T3
X3.6374Y-3.3264
T0
M30
