%TF.GenerationSoftware,KiCad,Pcbnew,(5.1.9-0-10_14)*%
%TF.CreationDate,2021-05-14T21:18:02-04:00*%
%TF.ProjectId,FlexFox80,466c6578-466f-4783-9830-2e6b69636164,1.10*%
%TF.SameCoordinates,Original*%
%TF.FileFunction,Soldermask,Top*%
%TF.FilePolarity,Negative*%
%FSLAX46Y46*%
G04 Gerber Fmt 4.6, Leading zero omitted, Abs format (unit mm)*
G04 Created by KiCad (PCBNEW (5.1.9-0-10_14)) date 2021-05-14 21:18:02*
%MOMM*%
%LPD*%
G01*
G04 APERTURE LIST*
%ADD10C,0.740000*%
%ADD11C,2.640000*%
%ADD12C,2.240000*%
%ADD13C,2.140000*%
%ADD14C,1.440000*%
%ADD15C,1.140000*%
%ADD16C,6.140000*%
%ADD17O,2.172000X1.867200*%
%ADD18C,1.664000*%
%ADD19C,0.640000*%
%ADD20C,2.375200*%
%ADD21C,0.100000*%
%ADD22O,1.839260X3.640120*%
%ADD23O,1.867200X2.172000*%
%ADD24C,2.440000*%
%ADD25C,3.640000*%
%ADD26O,2.172000X2.172000*%
G04 APERTURE END LIST*
%TO.C,U203*%
G36*
G01*
X86460000Y-77208000D02*
X86460000Y-78097000D01*
G75*
G02*
X86400000Y-78157000I-60000J0D01*
G01*
X85950000Y-78157000D01*
G75*
G02*
X85890000Y-78097000I0J60000D01*
G01*
X85890000Y-77208000D01*
G75*
G02*
X85950000Y-77148000I60000J0D01*
G01*
X86400000Y-77148000D01*
G75*
G02*
X86460000Y-77208000I0J-60000D01*
G01*
G37*
G36*
G01*
X87110000Y-77208000D02*
X87110000Y-78097000D01*
G75*
G02*
X87050000Y-78157000I-60000J0D01*
G01*
X86600000Y-78157000D01*
G75*
G02*
X86540000Y-78097000I0J60000D01*
G01*
X86540000Y-77208000D01*
G75*
G02*
X86600000Y-77148000I60000J0D01*
G01*
X87050000Y-77148000D01*
G75*
G02*
X87110000Y-77208000I0J-60000D01*
G01*
G37*
G36*
G01*
X89710000Y-81563000D02*
X89710000Y-82452000D01*
G75*
G02*
X89650000Y-82512000I-60000J0D01*
G01*
X89200000Y-82512000D01*
G75*
G02*
X89140000Y-82452000I0J60000D01*
G01*
X89140000Y-81563000D01*
G75*
G02*
X89200000Y-81503000I60000J0D01*
G01*
X89650000Y-81503000D01*
G75*
G02*
X89710000Y-81563000I0J-60000D01*
G01*
G37*
G36*
G01*
X89060000Y-81563000D02*
X89060000Y-82452000D01*
G75*
G02*
X89000000Y-82512000I-60000J0D01*
G01*
X88550000Y-82512000D01*
G75*
G02*
X88490000Y-82452000I0J60000D01*
G01*
X88490000Y-81563000D01*
G75*
G02*
X88550000Y-81503000I60000J0D01*
G01*
X89000000Y-81503000D01*
G75*
G02*
X89060000Y-81563000I0J-60000D01*
G01*
G37*
G36*
G01*
X89710000Y-77208000D02*
X89710000Y-78097000D01*
G75*
G02*
X89650000Y-78157000I-60000J0D01*
G01*
X89200000Y-78157000D01*
G75*
G02*
X89140000Y-78097000I0J60000D01*
G01*
X89140000Y-77208000D01*
G75*
G02*
X89200000Y-77148000I60000J0D01*
G01*
X89650000Y-77148000D01*
G75*
G02*
X89710000Y-77208000I0J-60000D01*
G01*
G37*
G36*
G01*
X89060000Y-77208000D02*
X89060000Y-78097000D01*
G75*
G02*
X89000000Y-78157000I-60000J0D01*
G01*
X88550000Y-78157000D01*
G75*
G02*
X88490000Y-78097000I0J60000D01*
G01*
X88490000Y-77208000D01*
G75*
G02*
X88550000Y-77148000I60000J0D01*
G01*
X89000000Y-77148000D01*
G75*
G02*
X89060000Y-77208000I0J-60000D01*
G01*
G37*
G36*
G01*
X88410000Y-77208000D02*
X88410000Y-78097000D01*
G75*
G02*
X88350000Y-78157000I-60000J0D01*
G01*
X87900000Y-78157000D01*
G75*
G02*
X87840000Y-78097000I0J60000D01*
G01*
X87840000Y-77208000D01*
G75*
G02*
X87900000Y-77148000I60000J0D01*
G01*
X88350000Y-77148000D01*
G75*
G02*
X88410000Y-77208000I0J-60000D01*
G01*
G37*
G36*
G01*
X87760000Y-77208000D02*
X87760000Y-78097000D01*
G75*
G02*
X87700000Y-78157000I-60000J0D01*
G01*
X87250000Y-78157000D01*
G75*
G02*
X87190000Y-78097000I0J60000D01*
G01*
X87190000Y-77208000D01*
G75*
G02*
X87250000Y-77148000I60000J0D01*
G01*
X87700000Y-77148000D01*
G75*
G02*
X87760000Y-77208000I0J-60000D01*
G01*
G37*
G36*
G01*
X86460000Y-81563000D02*
X86460000Y-82452000D01*
G75*
G02*
X86400000Y-82512000I-60000J0D01*
G01*
X85950000Y-82512000D01*
G75*
G02*
X85890000Y-82452000I0J60000D01*
G01*
X85890000Y-81563000D01*
G75*
G02*
X85950000Y-81503000I60000J0D01*
G01*
X86400000Y-81503000D01*
G75*
G02*
X86460000Y-81563000I0J-60000D01*
G01*
G37*
G36*
G01*
X87110000Y-81563000D02*
X87110000Y-82452000D01*
G75*
G02*
X87050000Y-82512000I-60000J0D01*
G01*
X86600000Y-82512000D01*
G75*
G02*
X86540000Y-82452000I0J60000D01*
G01*
X86540000Y-81563000D01*
G75*
G02*
X86600000Y-81503000I60000J0D01*
G01*
X87050000Y-81503000D01*
G75*
G02*
X87110000Y-81563000I0J-60000D01*
G01*
G37*
G36*
G01*
X87760000Y-81563000D02*
X87760000Y-82452000D01*
G75*
G02*
X87700000Y-82512000I-60000J0D01*
G01*
X87250000Y-82512000D01*
G75*
G02*
X87190000Y-82452000I0J60000D01*
G01*
X87190000Y-81563000D01*
G75*
G02*
X87250000Y-81503000I60000J0D01*
G01*
X87700000Y-81503000D01*
G75*
G02*
X87760000Y-81563000I0J-60000D01*
G01*
G37*
G36*
G01*
X88410000Y-81563000D02*
X88410000Y-82452000D01*
G75*
G02*
X88350000Y-82512000I-60000J0D01*
G01*
X87900000Y-82512000D01*
G75*
G02*
X87840000Y-82452000I0J60000D01*
G01*
X87840000Y-81563000D01*
G75*
G02*
X87900000Y-81503000I60000J0D01*
G01*
X88350000Y-81503000D01*
G75*
G02*
X88410000Y-81563000I0J-60000D01*
G01*
G37*
G36*
G01*
X89292500Y-79004500D02*
X89292500Y-80655500D01*
G75*
G02*
X89222500Y-80725500I-70000J0D01*
G01*
X86377500Y-80725500D01*
G75*
G02*
X86307500Y-80655500I0J70000D01*
G01*
X86307500Y-79004500D01*
G75*
G02*
X86377500Y-78934500I70000J0D01*
G01*
X89222500Y-78934500D01*
G75*
G02*
X89292500Y-79004500I0J-70000D01*
G01*
G37*
D10*
X86830000Y-80220000D03*
X86830000Y-79440000D03*
X87475000Y-80220000D03*
X87475000Y-79440000D03*
X88115000Y-80220000D03*
X88125000Y-79440000D03*
X88770000Y-80220000D03*
X88770000Y-79440000D03*
%TD*%
%TO.C,U301*%
G36*
G01*
X83625000Y-54460000D02*
X83625000Y-52060000D01*
G75*
G02*
X83695000Y-51990000I70000J0D01*
G01*
X84495000Y-51990000D01*
G75*
G02*
X84565000Y-52060000I0J-70000D01*
G01*
X84565000Y-54460000D01*
G75*
G02*
X84495000Y-54530000I-70000J0D01*
G01*
X83695000Y-54530000D01*
G75*
G02*
X83625000Y-54460000I0J70000D01*
G01*
G37*
G36*
G01*
X84995000Y-54460000D02*
X84995000Y-52060000D01*
G75*
G02*
X85065000Y-51990000I70000J0D01*
G01*
X85765000Y-51990000D01*
G75*
G02*
X85835000Y-52060000I0J-70000D01*
G01*
X85835000Y-54460000D01*
G75*
G02*
X85765000Y-54530000I-70000J0D01*
G01*
X85065000Y-54530000D01*
G75*
G02*
X84995000Y-54460000I0J70000D01*
G01*
G37*
G36*
G01*
X86265000Y-54460000D02*
X86265000Y-52060000D01*
G75*
G02*
X86335000Y-51990000I70000J0D01*
G01*
X87035000Y-51990000D01*
G75*
G02*
X87105000Y-52060000I0J-70000D01*
G01*
X87105000Y-54460000D01*
G75*
G02*
X87035000Y-54530000I-70000J0D01*
G01*
X86335000Y-54530000D01*
G75*
G02*
X86265000Y-54460000I0J70000D01*
G01*
G37*
G36*
G01*
X87535000Y-54460000D02*
X87535000Y-52060000D01*
G75*
G02*
X87605000Y-51990000I70000J0D01*
G01*
X88305000Y-51990000D01*
G75*
G02*
X88375000Y-52060000I0J-70000D01*
G01*
X88375000Y-54460000D01*
G75*
G02*
X88305000Y-54530000I-70000J0D01*
G01*
X87605000Y-54530000D01*
G75*
G02*
X87535000Y-54460000I0J70000D01*
G01*
G37*
G36*
G01*
X88805000Y-54460000D02*
X88805000Y-52060000D01*
G75*
G02*
X88875000Y-51990000I70000J0D01*
G01*
X89575000Y-51990000D01*
G75*
G02*
X89645000Y-52060000I0J-70000D01*
G01*
X89645000Y-54460000D01*
G75*
G02*
X89575000Y-54530000I-70000J0D01*
G01*
X88875000Y-54530000D01*
G75*
G02*
X88805000Y-54460000I0J70000D01*
G01*
G37*
G36*
G01*
X90075000Y-54460000D02*
X90075000Y-52060000D01*
G75*
G02*
X90145000Y-51990000I70000J0D01*
G01*
X90845000Y-51990000D01*
G75*
G02*
X90915000Y-52060000I0J-70000D01*
G01*
X90915000Y-54460000D01*
G75*
G02*
X90845000Y-54530000I-70000J0D01*
G01*
X90145000Y-54530000D01*
G75*
G02*
X90075000Y-54460000I0J70000D01*
G01*
G37*
G36*
G01*
X91345000Y-54460000D02*
X91345000Y-52060000D01*
G75*
G02*
X91415000Y-51990000I70000J0D01*
G01*
X92115000Y-51990000D01*
G75*
G02*
X92185000Y-52060000I0J-70000D01*
G01*
X92185000Y-54460000D01*
G75*
G02*
X92115000Y-54530000I-70000J0D01*
G01*
X91415000Y-54530000D01*
G75*
G02*
X91345000Y-54460000I0J70000D01*
G01*
G37*
G36*
G01*
X92615000Y-54460000D02*
X92615000Y-52060000D01*
G75*
G02*
X92685000Y-51990000I70000J0D01*
G01*
X93485000Y-51990000D01*
G75*
G02*
X93555000Y-52060000I0J-70000D01*
G01*
X93555000Y-54460000D01*
G75*
G02*
X93485000Y-54530000I-70000J0D01*
G01*
X92685000Y-54530000D01*
G75*
G02*
X92615000Y-54460000I0J70000D01*
G01*
G37*
G36*
G01*
X92615000Y-45660000D02*
X92615000Y-43260000D01*
G75*
G02*
X92685000Y-43190000I70000J0D01*
G01*
X93485000Y-43190000D01*
G75*
G02*
X93555000Y-43260000I0J-70000D01*
G01*
X93555000Y-45660000D01*
G75*
G02*
X93485000Y-45730000I-70000J0D01*
G01*
X92685000Y-45730000D01*
G75*
G02*
X92615000Y-45660000I0J70000D01*
G01*
G37*
G36*
G01*
X91345000Y-45660000D02*
X91345000Y-43260000D01*
G75*
G02*
X91415000Y-43190000I70000J0D01*
G01*
X92115000Y-43190000D01*
G75*
G02*
X92185000Y-43260000I0J-70000D01*
G01*
X92185000Y-45660000D01*
G75*
G02*
X92115000Y-45730000I-70000J0D01*
G01*
X91415000Y-45730000D01*
G75*
G02*
X91345000Y-45660000I0J70000D01*
G01*
G37*
G36*
G01*
X90075000Y-45660000D02*
X90075000Y-43260000D01*
G75*
G02*
X90145000Y-43190000I70000J0D01*
G01*
X90845000Y-43190000D01*
G75*
G02*
X90915000Y-43260000I0J-70000D01*
G01*
X90915000Y-45660000D01*
G75*
G02*
X90845000Y-45730000I-70000J0D01*
G01*
X90145000Y-45730000D01*
G75*
G02*
X90075000Y-45660000I0J70000D01*
G01*
G37*
G36*
G01*
X88805000Y-45660000D02*
X88805000Y-43260000D01*
G75*
G02*
X88875000Y-43190000I70000J0D01*
G01*
X89575000Y-43190000D01*
G75*
G02*
X89645000Y-43260000I0J-70000D01*
G01*
X89645000Y-45660000D01*
G75*
G02*
X89575000Y-45730000I-70000J0D01*
G01*
X88875000Y-45730000D01*
G75*
G02*
X88805000Y-45660000I0J70000D01*
G01*
G37*
G36*
G01*
X87535000Y-45660000D02*
X87535000Y-43260000D01*
G75*
G02*
X87605000Y-43190000I70000J0D01*
G01*
X88305000Y-43190000D01*
G75*
G02*
X88375000Y-43260000I0J-70000D01*
G01*
X88375000Y-45660000D01*
G75*
G02*
X88305000Y-45730000I-70000J0D01*
G01*
X87605000Y-45730000D01*
G75*
G02*
X87535000Y-45660000I0J70000D01*
G01*
G37*
G36*
G01*
X86265000Y-45660000D02*
X86265000Y-43260000D01*
G75*
G02*
X86335000Y-43190000I70000J0D01*
G01*
X87035000Y-43190000D01*
G75*
G02*
X87105000Y-43260000I0J-70000D01*
G01*
X87105000Y-45660000D01*
G75*
G02*
X87035000Y-45730000I-70000J0D01*
G01*
X86335000Y-45730000D01*
G75*
G02*
X86265000Y-45660000I0J70000D01*
G01*
G37*
G36*
G01*
X84995000Y-45660000D02*
X84995000Y-43260000D01*
G75*
G02*
X85065000Y-43190000I70000J0D01*
G01*
X85765000Y-43190000D01*
G75*
G02*
X85835000Y-43260000I0J-70000D01*
G01*
X85835000Y-45660000D01*
G75*
G02*
X85765000Y-45730000I-70000J0D01*
G01*
X85065000Y-45730000D01*
G75*
G02*
X84995000Y-45660000I0J70000D01*
G01*
G37*
G36*
G01*
X83625000Y-45660000D02*
X83625000Y-43260000D01*
G75*
G02*
X83695000Y-43190000I70000J0D01*
G01*
X84495000Y-43190000D01*
G75*
G02*
X84565000Y-43260000I0J-70000D01*
G01*
X84565000Y-45660000D01*
G75*
G02*
X84495000Y-45730000I-70000J0D01*
G01*
X83695000Y-45730000D01*
G75*
G02*
X83625000Y-45660000I0J70000D01*
G01*
G37*
%TD*%
%TO.C,Q201*%
G36*
G01*
X108544410Y-81570240D02*
X107993230Y-81570240D01*
G75*
G02*
X107933230Y-81510240I0J60000D01*
G01*
X107933230Y-81210520D01*
G75*
G02*
X107993230Y-81150520I60000J0D01*
G01*
X108544410Y-81150520D01*
G75*
G02*
X108604410Y-81210520I0J-60000D01*
G01*
X108604410Y-81510240D01*
G75*
G02*
X108544410Y-81570240I-60000J0D01*
G01*
G37*
G36*
G01*
X108544410Y-80919860D02*
X107993230Y-80919860D01*
G75*
G02*
X107933230Y-80859860I0J60000D01*
G01*
X107933230Y-80560140D01*
G75*
G02*
X107993230Y-80500140I60000J0D01*
G01*
X108544410Y-80500140D01*
G75*
G02*
X108604410Y-80560140I0J-60000D01*
G01*
X108604410Y-80859860D01*
G75*
G02*
X108544410Y-80919860I-60000J0D01*
G01*
G37*
G36*
G01*
X108544410Y-80269480D02*
X107993230Y-80269480D01*
G75*
G02*
X107933230Y-80209480I0J60000D01*
G01*
X107933230Y-79909760D01*
G75*
G02*
X107993230Y-79849760I60000J0D01*
G01*
X108544410Y-79849760D01*
G75*
G02*
X108604410Y-79909760I0J-60000D01*
G01*
X108604410Y-80209480D01*
G75*
G02*
X108544410Y-80269480I-60000J0D01*
G01*
G37*
G36*
G01*
X107106770Y-80269480D02*
X106555590Y-80269480D01*
G75*
G02*
X106495590Y-80209480I0J60000D01*
G01*
X106495590Y-79909760D01*
G75*
G02*
X106555590Y-79849760I60000J0D01*
G01*
X107106770Y-79849760D01*
G75*
G02*
X107166770Y-79909760I0J-60000D01*
G01*
X107166770Y-80209480D01*
G75*
G02*
X107106770Y-80269480I-60000J0D01*
G01*
G37*
G36*
G01*
X107106770Y-80919860D02*
X106555590Y-80919860D01*
G75*
G02*
X106495590Y-80859860I0J60000D01*
G01*
X106495590Y-80560140D01*
G75*
G02*
X106555590Y-80500140I60000J0D01*
G01*
X107106770Y-80500140D01*
G75*
G02*
X107166770Y-80560140I0J-60000D01*
G01*
X107166770Y-80859860D01*
G75*
G02*
X107106770Y-80919860I-60000J0D01*
G01*
G37*
G36*
G01*
X107106770Y-81570240D02*
X106555590Y-81570240D01*
G75*
G02*
X106495590Y-81510240I0J60000D01*
G01*
X106495590Y-81210520D01*
G75*
G02*
X106555590Y-81150520I60000J0D01*
G01*
X107106770Y-81150520D01*
G75*
G02*
X107166770Y-81210520I0J-60000D01*
G01*
X107166770Y-81510240D01*
G75*
G02*
X107106770Y-81570240I-60000J0D01*
G01*
G37*
%TD*%
%TO.C,U302*%
G36*
G01*
X71770000Y-72585000D02*
X71770000Y-72035000D01*
G75*
G02*
X71830000Y-71975000I60000J0D01*
G01*
X73330000Y-71975000D01*
G75*
G02*
X73390000Y-72035000I0J-60000D01*
G01*
X73390000Y-72585000D01*
G75*
G02*
X73330000Y-72645000I-60000J0D01*
G01*
X71830000Y-72645000D01*
G75*
G02*
X71770000Y-72585000I0J60000D01*
G01*
G37*
G36*
G01*
X71770000Y-73385000D02*
X71770000Y-72835000D01*
G75*
G02*
X71830000Y-72775000I60000J0D01*
G01*
X73330000Y-72775000D01*
G75*
G02*
X73390000Y-72835000I0J-60000D01*
G01*
X73390000Y-73385000D01*
G75*
G02*
X73330000Y-73445000I-60000J0D01*
G01*
X71830000Y-73445000D01*
G75*
G02*
X71770000Y-73385000I0J60000D01*
G01*
G37*
G36*
G01*
X71770000Y-74185000D02*
X71770000Y-73635000D01*
G75*
G02*
X71830000Y-73575000I60000J0D01*
G01*
X73330000Y-73575000D01*
G75*
G02*
X73390000Y-73635000I0J-60000D01*
G01*
X73390000Y-74185000D01*
G75*
G02*
X73330000Y-74245000I-60000J0D01*
G01*
X71830000Y-74245000D01*
G75*
G02*
X71770000Y-74185000I0J60000D01*
G01*
G37*
G36*
G01*
X71770000Y-74985000D02*
X71770000Y-74435000D01*
G75*
G02*
X71830000Y-74375000I60000J0D01*
G01*
X73330000Y-74375000D01*
G75*
G02*
X73390000Y-74435000I0J-60000D01*
G01*
X73390000Y-74985000D01*
G75*
G02*
X73330000Y-75045000I-60000J0D01*
G01*
X71830000Y-75045000D01*
G75*
G02*
X71770000Y-74985000I0J60000D01*
G01*
G37*
G36*
G01*
X71770000Y-75785000D02*
X71770000Y-75235000D01*
G75*
G02*
X71830000Y-75175000I60000J0D01*
G01*
X73330000Y-75175000D01*
G75*
G02*
X73390000Y-75235000I0J-60000D01*
G01*
X73390000Y-75785000D01*
G75*
G02*
X73330000Y-75845000I-60000J0D01*
G01*
X71830000Y-75845000D01*
G75*
G02*
X71770000Y-75785000I0J60000D01*
G01*
G37*
G36*
G01*
X71770000Y-76585000D02*
X71770000Y-76035000D01*
G75*
G02*
X71830000Y-75975000I60000J0D01*
G01*
X73330000Y-75975000D01*
G75*
G02*
X73390000Y-76035000I0J-60000D01*
G01*
X73390000Y-76585000D01*
G75*
G02*
X73330000Y-76645000I-60000J0D01*
G01*
X71830000Y-76645000D01*
G75*
G02*
X71770000Y-76585000I0J60000D01*
G01*
G37*
G36*
G01*
X71770000Y-77385000D02*
X71770000Y-76835000D01*
G75*
G02*
X71830000Y-76775000I60000J0D01*
G01*
X73330000Y-76775000D01*
G75*
G02*
X73390000Y-76835000I0J-60000D01*
G01*
X73390000Y-77385000D01*
G75*
G02*
X73330000Y-77445000I-60000J0D01*
G01*
X71830000Y-77445000D01*
G75*
G02*
X71770000Y-77385000I0J60000D01*
G01*
G37*
G36*
G01*
X71770000Y-78185000D02*
X71770000Y-77635000D01*
G75*
G02*
X71830000Y-77575000I60000J0D01*
G01*
X73330000Y-77575000D01*
G75*
G02*
X73390000Y-77635000I0J-60000D01*
G01*
X73390000Y-78185000D01*
G75*
G02*
X73330000Y-78245000I-60000J0D01*
G01*
X71830000Y-78245000D01*
G75*
G02*
X71770000Y-78185000I0J60000D01*
G01*
G37*
G36*
G01*
X71770000Y-78985000D02*
X71770000Y-78435000D01*
G75*
G02*
X71830000Y-78375000I60000J0D01*
G01*
X73330000Y-78375000D01*
G75*
G02*
X73390000Y-78435000I0J-60000D01*
G01*
X73390000Y-78985000D01*
G75*
G02*
X73330000Y-79045000I-60000J0D01*
G01*
X71830000Y-79045000D01*
G75*
G02*
X71770000Y-78985000I0J60000D01*
G01*
G37*
G36*
G01*
X71770000Y-79785000D02*
X71770000Y-79235000D01*
G75*
G02*
X71830000Y-79175000I60000J0D01*
G01*
X73330000Y-79175000D01*
G75*
G02*
X73390000Y-79235000I0J-60000D01*
G01*
X73390000Y-79785000D01*
G75*
G02*
X73330000Y-79845000I-60000J0D01*
G01*
X71830000Y-79845000D01*
G75*
G02*
X71770000Y-79785000I0J60000D01*
G01*
G37*
G36*
G01*
X71770000Y-80585000D02*
X71770000Y-80035000D01*
G75*
G02*
X71830000Y-79975000I60000J0D01*
G01*
X73330000Y-79975000D01*
G75*
G02*
X73390000Y-80035000I0J-60000D01*
G01*
X73390000Y-80585000D01*
G75*
G02*
X73330000Y-80645000I-60000J0D01*
G01*
X71830000Y-80645000D01*
G75*
G02*
X71770000Y-80585000I0J60000D01*
G01*
G37*
G36*
G01*
X70605000Y-81200000D02*
X71155000Y-81200000D01*
G75*
G02*
X71215000Y-81260000I0J-60000D01*
G01*
X71215000Y-82760000D01*
G75*
G02*
X71155000Y-82820000I-60000J0D01*
G01*
X70605000Y-82820000D01*
G75*
G02*
X70545000Y-82760000I0J60000D01*
G01*
X70545000Y-81260000D01*
G75*
G02*
X70605000Y-81200000I60000J0D01*
G01*
G37*
G36*
G01*
X69805000Y-81200000D02*
X70355000Y-81200000D01*
G75*
G02*
X70415000Y-81260000I0J-60000D01*
G01*
X70415000Y-82760000D01*
G75*
G02*
X70355000Y-82820000I-60000J0D01*
G01*
X69805000Y-82820000D01*
G75*
G02*
X69745000Y-82760000I0J60000D01*
G01*
X69745000Y-81260000D01*
G75*
G02*
X69805000Y-81200000I60000J0D01*
G01*
G37*
G36*
G01*
X69005000Y-81200000D02*
X69555000Y-81200000D01*
G75*
G02*
X69615000Y-81260000I0J-60000D01*
G01*
X69615000Y-82760000D01*
G75*
G02*
X69555000Y-82820000I-60000J0D01*
G01*
X69005000Y-82820000D01*
G75*
G02*
X68945000Y-82760000I0J60000D01*
G01*
X68945000Y-81260000D01*
G75*
G02*
X69005000Y-81200000I60000J0D01*
G01*
G37*
G36*
G01*
X68205000Y-81200000D02*
X68755000Y-81200000D01*
G75*
G02*
X68815000Y-81260000I0J-60000D01*
G01*
X68815000Y-82760000D01*
G75*
G02*
X68755000Y-82820000I-60000J0D01*
G01*
X68205000Y-82820000D01*
G75*
G02*
X68145000Y-82760000I0J60000D01*
G01*
X68145000Y-81260000D01*
G75*
G02*
X68205000Y-81200000I60000J0D01*
G01*
G37*
G36*
G01*
X67405000Y-81200000D02*
X67955000Y-81200000D01*
G75*
G02*
X68015000Y-81260000I0J-60000D01*
G01*
X68015000Y-82760000D01*
G75*
G02*
X67955000Y-82820000I-60000J0D01*
G01*
X67405000Y-82820000D01*
G75*
G02*
X67345000Y-82760000I0J60000D01*
G01*
X67345000Y-81260000D01*
G75*
G02*
X67405000Y-81200000I60000J0D01*
G01*
G37*
G36*
G01*
X66605000Y-81200000D02*
X67155000Y-81200000D01*
G75*
G02*
X67215000Y-81260000I0J-60000D01*
G01*
X67215000Y-82760000D01*
G75*
G02*
X67155000Y-82820000I-60000J0D01*
G01*
X66605000Y-82820000D01*
G75*
G02*
X66545000Y-82760000I0J60000D01*
G01*
X66545000Y-81260000D01*
G75*
G02*
X66605000Y-81200000I60000J0D01*
G01*
G37*
G36*
G01*
X65805000Y-81200000D02*
X66355000Y-81200000D01*
G75*
G02*
X66415000Y-81260000I0J-60000D01*
G01*
X66415000Y-82760000D01*
G75*
G02*
X66355000Y-82820000I-60000J0D01*
G01*
X65805000Y-82820000D01*
G75*
G02*
X65745000Y-82760000I0J60000D01*
G01*
X65745000Y-81260000D01*
G75*
G02*
X65805000Y-81200000I60000J0D01*
G01*
G37*
G36*
G01*
X65005000Y-81200000D02*
X65555000Y-81200000D01*
G75*
G02*
X65615000Y-81260000I0J-60000D01*
G01*
X65615000Y-82760000D01*
G75*
G02*
X65555000Y-82820000I-60000J0D01*
G01*
X65005000Y-82820000D01*
G75*
G02*
X64945000Y-82760000I0J60000D01*
G01*
X64945000Y-81260000D01*
G75*
G02*
X65005000Y-81200000I60000J0D01*
G01*
G37*
G36*
G01*
X64205000Y-81200000D02*
X64755000Y-81200000D01*
G75*
G02*
X64815000Y-81260000I0J-60000D01*
G01*
X64815000Y-82760000D01*
G75*
G02*
X64755000Y-82820000I-60000J0D01*
G01*
X64205000Y-82820000D01*
G75*
G02*
X64145000Y-82760000I0J60000D01*
G01*
X64145000Y-81260000D01*
G75*
G02*
X64205000Y-81200000I60000J0D01*
G01*
G37*
G36*
G01*
X63405000Y-81200000D02*
X63955000Y-81200000D01*
G75*
G02*
X64015000Y-81260000I0J-60000D01*
G01*
X64015000Y-82760000D01*
G75*
G02*
X63955000Y-82820000I-60000J0D01*
G01*
X63405000Y-82820000D01*
G75*
G02*
X63345000Y-82760000I0J60000D01*
G01*
X63345000Y-81260000D01*
G75*
G02*
X63405000Y-81200000I60000J0D01*
G01*
G37*
G36*
G01*
X62605000Y-81200000D02*
X63155000Y-81200000D01*
G75*
G02*
X63215000Y-81260000I0J-60000D01*
G01*
X63215000Y-82760000D01*
G75*
G02*
X63155000Y-82820000I-60000J0D01*
G01*
X62605000Y-82820000D01*
G75*
G02*
X62545000Y-82760000I0J60000D01*
G01*
X62545000Y-81260000D01*
G75*
G02*
X62605000Y-81200000I60000J0D01*
G01*
G37*
G36*
G01*
X60370000Y-80585000D02*
X60370000Y-80035000D01*
G75*
G02*
X60430000Y-79975000I60000J0D01*
G01*
X61930000Y-79975000D01*
G75*
G02*
X61990000Y-80035000I0J-60000D01*
G01*
X61990000Y-80585000D01*
G75*
G02*
X61930000Y-80645000I-60000J0D01*
G01*
X60430000Y-80645000D01*
G75*
G02*
X60370000Y-80585000I0J60000D01*
G01*
G37*
G36*
G01*
X60370000Y-79785000D02*
X60370000Y-79235000D01*
G75*
G02*
X60430000Y-79175000I60000J0D01*
G01*
X61930000Y-79175000D01*
G75*
G02*
X61990000Y-79235000I0J-60000D01*
G01*
X61990000Y-79785000D01*
G75*
G02*
X61930000Y-79845000I-60000J0D01*
G01*
X60430000Y-79845000D01*
G75*
G02*
X60370000Y-79785000I0J60000D01*
G01*
G37*
G36*
G01*
X60370000Y-78985000D02*
X60370000Y-78435000D01*
G75*
G02*
X60430000Y-78375000I60000J0D01*
G01*
X61930000Y-78375000D01*
G75*
G02*
X61990000Y-78435000I0J-60000D01*
G01*
X61990000Y-78985000D01*
G75*
G02*
X61930000Y-79045000I-60000J0D01*
G01*
X60430000Y-79045000D01*
G75*
G02*
X60370000Y-78985000I0J60000D01*
G01*
G37*
G36*
G01*
X60370000Y-78185000D02*
X60370000Y-77635000D01*
G75*
G02*
X60430000Y-77575000I60000J0D01*
G01*
X61930000Y-77575000D01*
G75*
G02*
X61990000Y-77635000I0J-60000D01*
G01*
X61990000Y-78185000D01*
G75*
G02*
X61930000Y-78245000I-60000J0D01*
G01*
X60430000Y-78245000D01*
G75*
G02*
X60370000Y-78185000I0J60000D01*
G01*
G37*
G36*
G01*
X60370000Y-77385000D02*
X60370000Y-76835000D01*
G75*
G02*
X60430000Y-76775000I60000J0D01*
G01*
X61930000Y-76775000D01*
G75*
G02*
X61990000Y-76835000I0J-60000D01*
G01*
X61990000Y-77385000D01*
G75*
G02*
X61930000Y-77445000I-60000J0D01*
G01*
X60430000Y-77445000D01*
G75*
G02*
X60370000Y-77385000I0J60000D01*
G01*
G37*
G36*
G01*
X60370000Y-76585000D02*
X60370000Y-76035000D01*
G75*
G02*
X60430000Y-75975000I60000J0D01*
G01*
X61930000Y-75975000D01*
G75*
G02*
X61990000Y-76035000I0J-60000D01*
G01*
X61990000Y-76585000D01*
G75*
G02*
X61930000Y-76645000I-60000J0D01*
G01*
X60430000Y-76645000D01*
G75*
G02*
X60370000Y-76585000I0J60000D01*
G01*
G37*
G36*
G01*
X60370000Y-75785000D02*
X60370000Y-75235000D01*
G75*
G02*
X60430000Y-75175000I60000J0D01*
G01*
X61930000Y-75175000D01*
G75*
G02*
X61990000Y-75235000I0J-60000D01*
G01*
X61990000Y-75785000D01*
G75*
G02*
X61930000Y-75845000I-60000J0D01*
G01*
X60430000Y-75845000D01*
G75*
G02*
X60370000Y-75785000I0J60000D01*
G01*
G37*
G36*
G01*
X60370000Y-74985000D02*
X60370000Y-74435000D01*
G75*
G02*
X60430000Y-74375000I60000J0D01*
G01*
X61930000Y-74375000D01*
G75*
G02*
X61990000Y-74435000I0J-60000D01*
G01*
X61990000Y-74985000D01*
G75*
G02*
X61930000Y-75045000I-60000J0D01*
G01*
X60430000Y-75045000D01*
G75*
G02*
X60370000Y-74985000I0J60000D01*
G01*
G37*
G36*
G01*
X60370000Y-74185000D02*
X60370000Y-73635000D01*
G75*
G02*
X60430000Y-73575000I60000J0D01*
G01*
X61930000Y-73575000D01*
G75*
G02*
X61990000Y-73635000I0J-60000D01*
G01*
X61990000Y-74185000D01*
G75*
G02*
X61930000Y-74245000I-60000J0D01*
G01*
X60430000Y-74245000D01*
G75*
G02*
X60370000Y-74185000I0J60000D01*
G01*
G37*
G36*
G01*
X60370000Y-73385000D02*
X60370000Y-72835000D01*
G75*
G02*
X60430000Y-72775000I60000J0D01*
G01*
X61930000Y-72775000D01*
G75*
G02*
X61990000Y-72835000I0J-60000D01*
G01*
X61990000Y-73385000D01*
G75*
G02*
X61930000Y-73445000I-60000J0D01*
G01*
X60430000Y-73445000D01*
G75*
G02*
X60370000Y-73385000I0J60000D01*
G01*
G37*
G36*
G01*
X60370000Y-72585000D02*
X60370000Y-72035000D01*
G75*
G02*
X60430000Y-71975000I60000J0D01*
G01*
X61930000Y-71975000D01*
G75*
G02*
X61990000Y-72035000I0J-60000D01*
G01*
X61990000Y-72585000D01*
G75*
G02*
X61930000Y-72645000I-60000J0D01*
G01*
X60430000Y-72645000D01*
G75*
G02*
X60370000Y-72585000I0J60000D01*
G01*
G37*
G36*
G01*
X62605000Y-69800000D02*
X63155000Y-69800000D01*
G75*
G02*
X63215000Y-69860000I0J-60000D01*
G01*
X63215000Y-71360000D01*
G75*
G02*
X63155000Y-71420000I-60000J0D01*
G01*
X62605000Y-71420000D01*
G75*
G02*
X62545000Y-71360000I0J60000D01*
G01*
X62545000Y-69860000D01*
G75*
G02*
X62605000Y-69800000I60000J0D01*
G01*
G37*
G36*
G01*
X63405000Y-69800000D02*
X63955000Y-69800000D01*
G75*
G02*
X64015000Y-69860000I0J-60000D01*
G01*
X64015000Y-71360000D01*
G75*
G02*
X63955000Y-71420000I-60000J0D01*
G01*
X63405000Y-71420000D01*
G75*
G02*
X63345000Y-71360000I0J60000D01*
G01*
X63345000Y-69860000D01*
G75*
G02*
X63405000Y-69800000I60000J0D01*
G01*
G37*
G36*
G01*
X64205000Y-69800000D02*
X64755000Y-69800000D01*
G75*
G02*
X64815000Y-69860000I0J-60000D01*
G01*
X64815000Y-71360000D01*
G75*
G02*
X64755000Y-71420000I-60000J0D01*
G01*
X64205000Y-71420000D01*
G75*
G02*
X64145000Y-71360000I0J60000D01*
G01*
X64145000Y-69860000D01*
G75*
G02*
X64205000Y-69800000I60000J0D01*
G01*
G37*
G36*
G01*
X65005000Y-69800000D02*
X65555000Y-69800000D01*
G75*
G02*
X65615000Y-69860000I0J-60000D01*
G01*
X65615000Y-71360000D01*
G75*
G02*
X65555000Y-71420000I-60000J0D01*
G01*
X65005000Y-71420000D01*
G75*
G02*
X64945000Y-71360000I0J60000D01*
G01*
X64945000Y-69860000D01*
G75*
G02*
X65005000Y-69800000I60000J0D01*
G01*
G37*
G36*
G01*
X65805000Y-69800000D02*
X66355000Y-69800000D01*
G75*
G02*
X66415000Y-69860000I0J-60000D01*
G01*
X66415000Y-71360000D01*
G75*
G02*
X66355000Y-71420000I-60000J0D01*
G01*
X65805000Y-71420000D01*
G75*
G02*
X65745000Y-71360000I0J60000D01*
G01*
X65745000Y-69860000D01*
G75*
G02*
X65805000Y-69800000I60000J0D01*
G01*
G37*
G36*
G01*
X66605000Y-69800000D02*
X67155000Y-69800000D01*
G75*
G02*
X67215000Y-69860000I0J-60000D01*
G01*
X67215000Y-71360000D01*
G75*
G02*
X67155000Y-71420000I-60000J0D01*
G01*
X66605000Y-71420000D01*
G75*
G02*
X66545000Y-71360000I0J60000D01*
G01*
X66545000Y-69860000D01*
G75*
G02*
X66605000Y-69800000I60000J0D01*
G01*
G37*
G36*
G01*
X67405000Y-69800000D02*
X67955000Y-69800000D01*
G75*
G02*
X68015000Y-69860000I0J-60000D01*
G01*
X68015000Y-71360000D01*
G75*
G02*
X67955000Y-71420000I-60000J0D01*
G01*
X67405000Y-71420000D01*
G75*
G02*
X67345000Y-71360000I0J60000D01*
G01*
X67345000Y-69860000D01*
G75*
G02*
X67405000Y-69800000I60000J0D01*
G01*
G37*
G36*
G01*
X68205000Y-69800000D02*
X68755000Y-69800000D01*
G75*
G02*
X68815000Y-69860000I0J-60000D01*
G01*
X68815000Y-71360000D01*
G75*
G02*
X68755000Y-71420000I-60000J0D01*
G01*
X68205000Y-71420000D01*
G75*
G02*
X68145000Y-71360000I0J60000D01*
G01*
X68145000Y-69860000D01*
G75*
G02*
X68205000Y-69800000I60000J0D01*
G01*
G37*
G36*
G01*
X69005000Y-69800000D02*
X69555000Y-69800000D01*
G75*
G02*
X69615000Y-69860000I0J-60000D01*
G01*
X69615000Y-71360000D01*
G75*
G02*
X69555000Y-71420000I-60000J0D01*
G01*
X69005000Y-71420000D01*
G75*
G02*
X68945000Y-71360000I0J60000D01*
G01*
X68945000Y-69860000D01*
G75*
G02*
X69005000Y-69800000I60000J0D01*
G01*
G37*
G36*
G01*
X69805000Y-69800000D02*
X70355000Y-69800000D01*
G75*
G02*
X70415000Y-69860000I0J-60000D01*
G01*
X70415000Y-71360000D01*
G75*
G02*
X70355000Y-71420000I-60000J0D01*
G01*
X69805000Y-71420000D01*
G75*
G02*
X69745000Y-71360000I0J60000D01*
G01*
X69745000Y-69860000D01*
G75*
G02*
X69805000Y-69800000I60000J0D01*
G01*
G37*
G36*
G01*
X70605000Y-69800000D02*
X71155000Y-69800000D01*
G75*
G02*
X71215000Y-69860000I0J-60000D01*
G01*
X71215000Y-71360000D01*
G75*
G02*
X71155000Y-71420000I-60000J0D01*
G01*
X70605000Y-71420000D01*
G75*
G02*
X70545000Y-71360000I0J60000D01*
G01*
X70545000Y-69860000D01*
G75*
G02*
X70605000Y-69800000I60000J0D01*
G01*
G37*
%TD*%
%TO.C,U201*%
G36*
G01*
X78415000Y-101110000D02*
X78415000Y-100660000D01*
G75*
G02*
X78475000Y-100600000I60000J0D01*
G01*
X79925000Y-100600000D01*
G75*
G02*
X79985000Y-100660000I0J-60000D01*
G01*
X79985000Y-101110000D01*
G75*
G02*
X79925000Y-101170000I-60000J0D01*
G01*
X78475000Y-101170000D01*
G75*
G02*
X78415000Y-101110000I0J60000D01*
G01*
G37*
G36*
G01*
X78415000Y-101760000D02*
X78415000Y-101310000D01*
G75*
G02*
X78475000Y-101250000I60000J0D01*
G01*
X79925000Y-101250000D01*
G75*
G02*
X79985000Y-101310000I0J-60000D01*
G01*
X79985000Y-101760000D01*
G75*
G02*
X79925000Y-101820000I-60000J0D01*
G01*
X78475000Y-101820000D01*
G75*
G02*
X78415000Y-101760000I0J60000D01*
G01*
G37*
G36*
G01*
X78415000Y-102410000D02*
X78415000Y-101960000D01*
G75*
G02*
X78475000Y-101900000I60000J0D01*
G01*
X79925000Y-101900000D01*
G75*
G02*
X79985000Y-101960000I0J-60000D01*
G01*
X79985000Y-102410000D01*
G75*
G02*
X79925000Y-102470000I-60000J0D01*
G01*
X78475000Y-102470000D01*
G75*
G02*
X78415000Y-102410000I0J60000D01*
G01*
G37*
G36*
G01*
X78415000Y-103060000D02*
X78415000Y-102610000D01*
G75*
G02*
X78475000Y-102550000I60000J0D01*
G01*
X79925000Y-102550000D01*
G75*
G02*
X79985000Y-102610000I0J-60000D01*
G01*
X79985000Y-103060000D01*
G75*
G02*
X79925000Y-103120000I-60000J0D01*
G01*
X78475000Y-103120000D01*
G75*
G02*
X78415000Y-103060000I0J60000D01*
G01*
G37*
G36*
G01*
X74015000Y-103060000D02*
X74015000Y-102610000D01*
G75*
G02*
X74075000Y-102550000I60000J0D01*
G01*
X75525000Y-102550000D01*
G75*
G02*
X75585000Y-102610000I0J-60000D01*
G01*
X75585000Y-103060000D01*
G75*
G02*
X75525000Y-103120000I-60000J0D01*
G01*
X74075000Y-103120000D01*
G75*
G02*
X74015000Y-103060000I0J60000D01*
G01*
G37*
G36*
G01*
X74015000Y-102410000D02*
X74015000Y-101960000D01*
G75*
G02*
X74075000Y-101900000I60000J0D01*
G01*
X75525000Y-101900000D01*
G75*
G02*
X75585000Y-101960000I0J-60000D01*
G01*
X75585000Y-102410000D01*
G75*
G02*
X75525000Y-102470000I-60000J0D01*
G01*
X74075000Y-102470000D01*
G75*
G02*
X74015000Y-102410000I0J60000D01*
G01*
G37*
G36*
G01*
X74015000Y-101760000D02*
X74015000Y-101310000D01*
G75*
G02*
X74075000Y-101250000I60000J0D01*
G01*
X75525000Y-101250000D01*
G75*
G02*
X75585000Y-101310000I0J-60000D01*
G01*
X75585000Y-101760000D01*
G75*
G02*
X75525000Y-101820000I-60000J0D01*
G01*
X74075000Y-101820000D01*
G75*
G02*
X74015000Y-101760000I0J60000D01*
G01*
G37*
G36*
G01*
X74015000Y-101110000D02*
X74015000Y-100660000D01*
G75*
G02*
X74075000Y-100600000I60000J0D01*
G01*
X75525000Y-100600000D01*
G75*
G02*
X75585000Y-100660000I0J-60000D01*
G01*
X75585000Y-101110000D01*
G75*
G02*
X75525000Y-101170000I-60000J0D01*
G01*
X74075000Y-101170000D01*
G75*
G02*
X74015000Y-101110000I0J60000D01*
G01*
G37*
%TD*%
%TO.C,U204*%
G36*
G01*
X111305000Y-70445000D02*
X110705000Y-70445000D01*
G75*
G02*
X110635000Y-70375000I0J70000D01*
G01*
X110635000Y-68825000D01*
G75*
G02*
X110705000Y-68755000I70000J0D01*
G01*
X111305000Y-68755000D01*
G75*
G02*
X111375000Y-68825000I0J-70000D01*
G01*
X111375000Y-70375000D01*
G75*
G02*
X111305000Y-70445000I-70000J0D01*
G01*
G37*
G36*
G01*
X112575000Y-70445000D02*
X111975000Y-70445000D01*
G75*
G02*
X111905000Y-70375000I0J70000D01*
G01*
X111905000Y-68825000D01*
G75*
G02*
X111975000Y-68755000I70000J0D01*
G01*
X112575000Y-68755000D01*
G75*
G02*
X112645000Y-68825000I0J-70000D01*
G01*
X112645000Y-70375000D01*
G75*
G02*
X112575000Y-70445000I-70000J0D01*
G01*
G37*
G36*
G01*
X113845000Y-70445000D02*
X113245000Y-70445000D01*
G75*
G02*
X113175000Y-70375000I0J70000D01*
G01*
X113175000Y-68825000D01*
G75*
G02*
X113245000Y-68755000I70000J0D01*
G01*
X113845000Y-68755000D01*
G75*
G02*
X113915000Y-68825000I0J-70000D01*
G01*
X113915000Y-70375000D01*
G75*
G02*
X113845000Y-70445000I-70000J0D01*
G01*
G37*
G36*
G01*
X115115000Y-70445000D02*
X114515000Y-70445000D01*
G75*
G02*
X114445000Y-70375000I0J70000D01*
G01*
X114445000Y-68825000D01*
G75*
G02*
X114515000Y-68755000I70000J0D01*
G01*
X115115000Y-68755000D01*
G75*
G02*
X115185000Y-68825000I0J-70000D01*
G01*
X115185000Y-70375000D01*
G75*
G02*
X115115000Y-70445000I-70000J0D01*
G01*
G37*
G36*
G01*
X115115000Y-75845000D02*
X114515000Y-75845000D01*
G75*
G02*
X114445000Y-75775000I0J70000D01*
G01*
X114445000Y-74225000D01*
G75*
G02*
X114515000Y-74155000I70000J0D01*
G01*
X115115000Y-74155000D01*
G75*
G02*
X115185000Y-74225000I0J-70000D01*
G01*
X115185000Y-75775000D01*
G75*
G02*
X115115000Y-75845000I-70000J0D01*
G01*
G37*
G36*
G01*
X113845000Y-75845000D02*
X113245000Y-75845000D01*
G75*
G02*
X113175000Y-75775000I0J70000D01*
G01*
X113175000Y-74225000D01*
G75*
G02*
X113245000Y-74155000I70000J0D01*
G01*
X113845000Y-74155000D01*
G75*
G02*
X113915000Y-74225000I0J-70000D01*
G01*
X113915000Y-75775000D01*
G75*
G02*
X113845000Y-75845000I-70000J0D01*
G01*
G37*
G36*
G01*
X112575000Y-75845000D02*
X111975000Y-75845000D01*
G75*
G02*
X111905000Y-75775000I0J70000D01*
G01*
X111905000Y-74225000D01*
G75*
G02*
X111975000Y-74155000I70000J0D01*
G01*
X112575000Y-74155000D01*
G75*
G02*
X112645000Y-74225000I0J-70000D01*
G01*
X112645000Y-75775000D01*
G75*
G02*
X112575000Y-75845000I-70000J0D01*
G01*
G37*
G36*
G01*
X111305000Y-75845000D02*
X110705000Y-75845000D01*
G75*
G02*
X110635000Y-75775000I0J70000D01*
G01*
X110635000Y-74225000D01*
G75*
G02*
X110705000Y-74155000I70000J0D01*
G01*
X111305000Y-74155000D01*
G75*
G02*
X111375000Y-74225000I0J-70000D01*
G01*
X111375000Y-75775000D01*
G75*
G02*
X111305000Y-75845000I-70000J0D01*
G01*
G37*
%TD*%
%TO.C,Q203*%
G36*
G01*
X114295000Y-83765000D02*
X114895000Y-83765000D01*
G75*
G02*
X114965000Y-83835000I0J-70000D01*
G01*
X114965000Y-85385000D01*
G75*
G02*
X114895000Y-85455000I-70000J0D01*
G01*
X114295000Y-85455000D01*
G75*
G02*
X114225000Y-85385000I0J70000D01*
G01*
X114225000Y-83835000D01*
G75*
G02*
X114295000Y-83765000I70000J0D01*
G01*
G37*
G36*
G01*
X113025000Y-83765000D02*
X113625000Y-83765000D01*
G75*
G02*
X113695000Y-83835000I0J-70000D01*
G01*
X113695000Y-85385000D01*
G75*
G02*
X113625000Y-85455000I-70000J0D01*
G01*
X113025000Y-85455000D01*
G75*
G02*
X112955000Y-85385000I0J70000D01*
G01*
X112955000Y-83835000D01*
G75*
G02*
X113025000Y-83765000I70000J0D01*
G01*
G37*
G36*
G01*
X111755000Y-83765000D02*
X112355000Y-83765000D01*
G75*
G02*
X112425000Y-83835000I0J-70000D01*
G01*
X112425000Y-85385000D01*
G75*
G02*
X112355000Y-85455000I-70000J0D01*
G01*
X111755000Y-85455000D01*
G75*
G02*
X111685000Y-85385000I0J70000D01*
G01*
X111685000Y-83835000D01*
G75*
G02*
X111755000Y-83765000I70000J0D01*
G01*
G37*
G36*
G01*
X110485000Y-83765000D02*
X111085000Y-83765000D01*
G75*
G02*
X111155000Y-83835000I0J-70000D01*
G01*
X111155000Y-85385000D01*
G75*
G02*
X111085000Y-85455000I-70000J0D01*
G01*
X110485000Y-85455000D01*
G75*
G02*
X110415000Y-85385000I0J70000D01*
G01*
X110415000Y-83835000D01*
G75*
G02*
X110485000Y-83765000I70000J0D01*
G01*
G37*
G36*
G01*
X110485000Y-78365000D02*
X111085000Y-78365000D01*
G75*
G02*
X111155000Y-78435000I0J-70000D01*
G01*
X111155000Y-79985000D01*
G75*
G02*
X111085000Y-80055000I-70000J0D01*
G01*
X110485000Y-80055000D01*
G75*
G02*
X110415000Y-79985000I0J70000D01*
G01*
X110415000Y-78435000D01*
G75*
G02*
X110485000Y-78365000I70000J0D01*
G01*
G37*
G36*
G01*
X111755000Y-78365000D02*
X112355000Y-78365000D01*
G75*
G02*
X112425000Y-78435000I0J-70000D01*
G01*
X112425000Y-79985000D01*
G75*
G02*
X112355000Y-80055000I-70000J0D01*
G01*
X111755000Y-80055000D01*
G75*
G02*
X111685000Y-79985000I0J70000D01*
G01*
X111685000Y-78435000D01*
G75*
G02*
X111755000Y-78365000I70000J0D01*
G01*
G37*
G36*
G01*
X113025000Y-78365000D02*
X113625000Y-78365000D01*
G75*
G02*
X113695000Y-78435000I0J-70000D01*
G01*
X113695000Y-79985000D01*
G75*
G02*
X113625000Y-80055000I-70000J0D01*
G01*
X113025000Y-80055000D01*
G75*
G02*
X112955000Y-79985000I0J70000D01*
G01*
X112955000Y-78435000D01*
G75*
G02*
X113025000Y-78365000I70000J0D01*
G01*
G37*
G36*
G01*
X114295000Y-78365000D02*
X114895000Y-78365000D01*
G75*
G02*
X114965000Y-78435000I0J-70000D01*
G01*
X114965000Y-79985000D01*
G75*
G02*
X114895000Y-80055000I-70000J0D01*
G01*
X114295000Y-80055000D01*
G75*
G02*
X114225000Y-79985000I0J70000D01*
G01*
X114225000Y-78435000D01*
G75*
G02*
X114295000Y-78365000I70000J0D01*
G01*
G37*
%TD*%
%TO.C,Q202*%
G36*
G01*
X98835000Y-89075000D02*
X98835000Y-89675000D01*
G75*
G02*
X98765000Y-89745000I-70000J0D01*
G01*
X97215000Y-89745000D01*
G75*
G02*
X97145000Y-89675000I0J70000D01*
G01*
X97145000Y-89075000D01*
G75*
G02*
X97215000Y-89005000I70000J0D01*
G01*
X98765000Y-89005000D01*
G75*
G02*
X98835000Y-89075000I0J-70000D01*
G01*
G37*
G36*
G01*
X98835000Y-87805000D02*
X98835000Y-88405000D01*
G75*
G02*
X98765000Y-88475000I-70000J0D01*
G01*
X97215000Y-88475000D01*
G75*
G02*
X97145000Y-88405000I0J70000D01*
G01*
X97145000Y-87805000D01*
G75*
G02*
X97215000Y-87735000I70000J0D01*
G01*
X98765000Y-87735000D01*
G75*
G02*
X98835000Y-87805000I0J-70000D01*
G01*
G37*
G36*
G01*
X98835000Y-86535000D02*
X98835000Y-87135000D01*
G75*
G02*
X98765000Y-87205000I-70000J0D01*
G01*
X97215000Y-87205000D01*
G75*
G02*
X97145000Y-87135000I0J70000D01*
G01*
X97145000Y-86535000D01*
G75*
G02*
X97215000Y-86465000I70000J0D01*
G01*
X98765000Y-86465000D01*
G75*
G02*
X98835000Y-86535000I0J-70000D01*
G01*
G37*
G36*
G01*
X98835000Y-85265000D02*
X98835000Y-85865000D01*
G75*
G02*
X98765000Y-85935000I-70000J0D01*
G01*
X97215000Y-85935000D01*
G75*
G02*
X97145000Y-85865000I0J70000D01*
G01*
X97145000Y-85265000D01*
G75*
G02*
X97215000Y-85195000I70000J0D01*
G01*
X98765000Y-85195000D01*
G75*
G02*
X98835000Y-85265000I0J-70000D01*
G01*
G37*
G36*
G01*
X104235000Y-85265000D02*
X104235000Y-85865000D01*
G75*
G02*
X104165000Y-85935000I-70000J0D01*
G01*
X102615000Y-85935000D01*
G75*
G02*
X102545000Y-85865000I0J70000D01*
G01*
X102545000Y-85265000D01*
G75*
G02*
X102615000Y-85195000I70000J0D01*
G01*
X104165000Y-85195000D01*
G75*
G02*
X104235000Y-85265000I0J-70000D01*
G01*
G37*
G36*
G01*
X104235000Y-86535000D02*
X104235000Y-87135000D01*
G75*
G02*
X104165000Y-87205000I-70000J0D01*
G01*
X102615000Y-87205000D01*
G75*
G02*
X102545000Y-87135000I0J70000D01*
G01*
X102545000Y-86535000D01*
G75*
G02*
X102615000Y-86465000I70000J0D01*
G01*
X104165000Y-86465000D01*
G75*
G02*
X104235000Y-86535000I0J-70000D01*
G01*
G37*
G36*
G01*
X104235000Y-87805000D02*
X104235000Y-88405000D01*
G75*
G02*
X104165000Y-88475000I-70000J0D01*
G01*
X102615000Y-88475000D01*
G75*
G02*
X102545000Y-88405000I0J70000D01*
G01*
X102545000Y-87805000D01*
G75*
G02*
X102615000Y-87735000I70000J0D01*
G01*
X104165000Y-87735000D01*
G75*
G02*
X104235000Y-87805000I0J-70000D01*
G01*
G37*
G36*
G01*
X104235000Y-89075000D02*
X104235000Y-89675000D01*
G75*
G02*
X104165000Y-89745000I-70000J0D01*
G01*
X102615000Y-89745000D01*
G75*
G02*
X102545000Y-89675000I0J70000D01*
G01*
X102545000Y-89075000D01*
G75*
G02*
X102615000Y-89005000I70000J0D01*
G01*
X104165000Y-89005000D01*
G75*
G02*
X104235000Y-89075000I0J-70000D01*
G01*
G37*
%TD*%
%TO.C,Q101*%
G36*
G01*
X60124410Y-57450240D02*
X59573230Y-57450240D01*
G75*
G02*
X59513230Y-57390240I0J60000D01*
G01*
X59513230Y-57090520D01*
G75*
G02*
X59573230Y-57030520I60000J0D01*
G01*
X60124410Y-57030520D01*
G75*
G02*
X60184410Y-57090520I0J-60000D01*
G01*
X60184410Y-57390240D01*
G75*
G02*
X60124410Y-57450240I-60000J0D01*
G01*
G37*
G36*
G01*
X60124410Y-56799860D02*
X59573230Y-56799860D01*
G75*
G02*
X59513230Y-56739860I0J60000D01*
G01*
X59513230Y-56440140D01*
G75*
G02*
X59573230Y-56380140I60000J0D01*
G01*
X60124410Y-56380140D01*
G75*
G02*
X60184410Y-56440140I0J-60000D01*
G01*
X60184410Y-56739860D01*
G75*
G02*
X60124410Y-56799860I-60000J0D01*
G01*
G37*
G36*
G01*
X60124410Y-56149480D02*
X59573230Y-56149480D01*
G75*
G02*
X59513230Y-56089480I0J60000D01*
G01*
X59513230Y-55789760D01*
G75*
G02*
X59573230Y-55729760I60000J0D01*
G01*
X60124410Y-55729760D01*
G75*
G02*
X60184410Y-55789760I0J-60000D01*
G01*
X60184410Y-56089480D01*
G75*
G02*
X60124410Y-56149480I-60000J0D01*
G01*
G37*
G36*
G01*
X58686770Y-56149480D02*
X58135590Y-56149480D01*
G75*
G02*
X58075590Y-56089480I0J60000D01*
G01*
X58075590Y-55789760D01*
G75*
G02*
X58135590Y-55729760I60000J0D01*
G01*
X58686770Y-55729760D01*
G75*
G02*
X58746770Y-55789760I0J-60000D01*
G01*
X58746770Y-56089480D01*
G75*
G02*
X58686770Y-56149480I-60000J0D01*
G01*
G37*
G36*
G01*
X58686770Y-56799860D02*
X58135590Y-56799860D01*
G75*
G02*
X58075590Y-56739860I0J60000D01*
G01*
X58075590Y-56440140D01*
G75*
G02*
X58135590Y-56380140I60000J0D01*
G01*
X58686770Y-56380140D01*
G75*
G02*
X58746770Y-56440140I0J-60000D01*
G01*
X58746770Y-56739860D01*
G75*
G02*
X58686770Y-56799860I-60000J0D01*
G01*
G37*
G36*
G01*
X58686770Y-57450240D02*
X58135590Y-57450240D01*
G75*
G02*
X58075590Y-57390240I0J60000D01*
G01*
X58075590Y-57090520D01*
G75*
G02*
X58135590Y-57030520I60000J0D01*
G01*
X58686770Y-57030520D01*
G75*
G02*
X58746770Y-57090520I0J-60000D01*
G01*
X58746770Y-57390240D01*
G75*
G02*
X58686770Y-57450240I-60000J0D01*
G01*
G37*
%TD*%
D11*
%TO.C,P203*%
X97390000Y-66085000D03*
G36*
G01*
X98640000Y-76165000D02*
X96140000Y-76165000D01*
G75*
G02*
X96070000Y-76095000I0J70000D01*
G01*
X96070000Y-73595000D01*
G75*
G02*
X96140000Y-73525000I70000J0D01*
G01*
X98640000Y-73525000D01*
G75*
G02*
X98710000Y-73595000I0J-70000D01*
G01*
X98710000Y-76095000D01*
G75*
G02*
X98640000Y-76165000I-70000J0D01*
G01*
G37*
D12*
X117390000Y-62965000D03*
X117390000Y-77965000D03*
%TD*%
D13*
%TO.C,L108*%
X32864900Y-54810000D03*
X30921800Y-58810000D03*
%TD*%
D14*
%TO.C,BT301*%
X69120000Y-48600000D03*
D15*
X61620000Y-48600000D03*
G36*
G01*
X71510000Y-49900000D02*
X71510000Y-47300000D01*
G75*
G02*
X71580000Y-47230000I70000J0D01*
G01*
X75120000Y-47230000D01*
G75*
G02*
X75190000Y-47300000I0J-70000D01*
G01*
X75190000Y-49900000D01*
G75*
G02*
X75120000Y-49970000I-70000J0D01*
G01*
X71580000Y-49970000D01*
G75*
G02*
X71510000Y-49900000I0J70000D01*
G01*
G37*
G36*
G01*
X55650000Y-49900000D02*
X55650000Y-47300000D01*
G75*
G02*
X55720000Y-47230000I70000J0D01*
G01*
X59380000Y-47230000D01*
G75*
G02*
X59450000Y-47300000I0J-70000D01*
G01*
X59450000Y-49900000D01*
G75*
G02*
X59380000Y-49970000I-70000J0D01*
G01*
X55720000Y-49970000D01*
G75*
G02*
X55650000Y-49900000I0J70000D01*
G01*
G37*
%TD*%
D16*
%TO.C,4mm thru*%
X110300000Y-104000000D03*
%TD*%
%TO.C,4mm thru*%
X33300000Y-104000000D03*
%TD*%
%TO.C,4mm thru*%
X110300000Y-36000000D03*
%TD*%
%TO.C,4mm thru*%
X33300000Y-36000000D03*
%TD*%
%TO.C,D202*%
G36*
G01*
X105580000Y-90840000D02*
X105580000Y-87640000D01*
G75*
G02*
X105650000Y-87570000I70000J0D01*
G01*
X108250000Y-87570000D01*
G75*
G02*
X108320000Y-87640000I0J-70000D01*
G01*
X108320000Y-90840000D01*
G75*
G02*
X108250000Y-90910000I-70000J0D01*
G01*
X105650000Y-90910000D01*
G75*
G02*
X105580000Y-90840000I0J70000D01*
G01*
G37*
G36*
G01*
X112780000Y-90840000D02*
X112780000Y-87640000D01*
G75*
G02*
X112850000Y-87570000I70000J0D01*
G01*
X115450000Y-87570000D01*
G75*
G02*
X115520000Y-87640000I0J-70000D01*
G01*
X115520000Y-90840000D01*
G75*
G02*
X115450000Y-90910000I-70000J0D01*
G01*
X112850000Y-90910000D01*
G75*
G02*
X112780000Y-90840000I0J70000D01*
G01*
G37*
%TD*%
%TO.C,D201*%
G36*
G01*
X102260000Y-62980000D02*
X102260000Y-66180000D01*
G75*
G02*
X102190000Y-66250000I-70000J0D01*
G01*
X99590000Y-66250000D01*
G75*
G02*
X99520000Y-66180000I0J70000D01*
G01*
X99520000Y-62980000D01*
G75*
G02*
X99590000Y-62910000I70000J0D01*
G01*
X102190000Y-62910000D01*
G75*
G02*
X102260000Y-62980000I0J-70000D01*
G01*
G37*
G36*
G01*
X109460000Y-62980000D02*
X109460000Y-66180000D01*
G75*
G02*
X109390000Y-66250000I-70000J0D01*
G01*
X106790000Y-66250000D01*
G75*
G02*
X106720000Y-66180000I0J70000D01*
G01*
X106720000Y-62980000D01*
G75*
G02*
X106790000Y-62910000I70000J0D01*
G01*
X109390000Y-62910000D01*
G75*
G02*
X109460000Y-62980000I0J-70000D01*
G01*
G37*
%TD*%
%TO.C,MOD301*%
G36*
G01*
X73250000Y-55020000D02*
X74250000Y-55020000D01*
G75*
G02*
X74320000Y-55090000I0J-70000D01*
G01*
X74320000Y-58090000D01*
G75*
G02*
X74250000Y-58160000I-70000J0D01*
G01*
X73250000Y-58160000D01*
G75*
G02*
X73180000Y-58090000I0J70000D01*
G01*
X73180000Y-55090000D01*
G75*
G02*
X73250000Y-55020000I70000J0D01*
G01*
G37*
G36*
G01*
X75790000Y-59320000D02*
X76790000Y-59320000D01*
G75*
G02*
X76860000Y-59390000I0J-70000D01*
G01*
X76860000Y-62390000D01*
G75*
G02*
X76790000Y-62460000I-70000J0D01*
G01*
X75790000Y-62460000D01*
G75*
G02*
X75720000Y-62390000I0J70000D01*
G01*
X75720000Y-59390000D01*
G75*
G02*
X75790000Y-59320000I70000J0D01*
G01*
G37*
G36*
G01*
X78330000Y-55020000D02*
X79330000Y-55020000D01*
G75*
G02*
X79400000Y-55090000I0J-70000D01*
G01*
X79400000Y-58090000D01*
G75*
G02*
X79330000Y-58160000I-70000J0D01*
G01*
X78330000Y-58160000D01*
G75*
G02*
X78260000Y-58090000I0J70000D01*
G01*
X78260000Y-55090000D01*
G75*
G02*
X78330000Y-55020000I70000J0D01*
G01*
G37*
G36*
G01*
X80870000Y-59320000D02*
X81870000Y-59320000D01*
G75*
G02*
X81940000Y-59390000I0J-70000D01*
G01*
X81940000Y-62390000D01*
G75*
G02*
X81870000Y-62460000I-70000J0D01*
G01*
X80870000Y-62460000D01*
G75*
G02*
X80800000Y-62390000I0J70000D01*
G01*
X80800000Y-59390000D01*
G75*
G02*
X80870000Y-59320000I70000J0D01*
G01*
G37*
G36*
G01*
X83410000Y-55020000D02*
X84410000Y-55020000D01*
G75*
G02*
X84480000Y-55090000I0J-70000D01*
G01*
X84480000Y-58090000D01*
G75*
G02*
X84410000Y-58160000I-70000J0D01*
G01*
X83410000Y-58160000D01*
G75*
G02*
X83340000Y-58090000I0J70000D01*
G01*
X83340000Y-55090000D01*
G75*
G02*
X83410000Y-55020000I70000J0D01*
G01*
G37*
G36*
G01*
X85950000Y-59320000D02*
X86950000Y-59320000D01*
G75*
G02*
X87020000Y-59390000I0J-70000D01*
G01*
X87020000Y-62390000D01*
G75*
G02*
X86950000Y-62460000I-70000J0D01*
G01*
X85950000Y-62460000D01*
G75*
G02*
X85880000Y-62390000I0J70000D01*
G01*
X85880000Y-59390000D01*
G75*
G02*
X85950000Y-59320000I70000J0D01*
G01*
G37*
G36*
G01*
X88490000Y-55020000D02*
X89490000Y-55020000D01*
G75*
G02*
X89560000Y-55090000I0J-70000D01*
G01*
X89560000Y-58090000D01*
G75*
G02*
X89490000Y-58160000I-70000J0D01*
G01*
X88490000Y-58160000D01*
G75*
G02*
X88420000Y-58090000I0J70000D01*
G01*
X88420000Y-55090000D01*
G75*
G02*
X88490000Y-55020000I70000J0D01*
G01*
G37*
G36*
G01*
X91030000Y-59320000D02*
X92030000Y-59320000D01*
G75*
G02*
X92100000Y-59390000I0J-70000D01*
G01*
X92100000Y-62390000D01*
G75*
G02*
X92030000Y-62460000I-70000J0D01*
G01*
X91030000Y-62460000D01*
G75*
G02*
X90960000Y-62390000I0J70000D01*
G01*
X90960000Y-59390000D01*
G75*
G02*
X91030000Y-59320000I70000J0D01*
G01*
G37*
G36*
G01*
X93570000Y-55020000D02*
X94570000Y-55020000D01*
G75*
G02*
X94640000Y-55090000I0J-70000D01*
G01*
X94640000Y-58090000D01*
G75*
G02*
X94570000Y-58160000I-70000J0D01*
G01*
X93570000Y-58160000D01*
G75*
G02*
X93500000Y-58090000I0J70000D01*
G01*
X93500000Y-55090000D01*
G75*
G02*
X93570000Y-55020000I70000J0D01*
G01*
G37*
G36*
G01*
X96110000Y-59320000D02*
X97110000Y-59320000D01*
G75*
G02*
X97180000Y-59390000I0J-70000D01*
G01*
X97180000Y-62390000D01*
G75*
G02*
X97110000Y-62460000I-70000J0D01*
G01*
X96110000Y-62460000D01*
G75*
G02*
X96040000Y-62390000I0J70000D01*
G01*
X96040000Y-59390000D01*
G75*
G02*
X96110000Y-59320000I70000J0D01*
G01*
G37*
G36*
G01*
X73224600Y-35025100D02*
X74224600Y-35025100D01*
G75*
G02*
X74294600Y-35095100I0J-70000D01*
G01*
X74294600Y-38095100D01*
G75*
G02*
X74224600Y-38165100I-70000J0D01*
G01*
X73224600Y-38165100D01*
G75*
G02*
X73154600Y-38095100I0J70000D01*
G01*
X73154600Y-35095100D01*
G75*
G02*
X73224600Y-35025100I70000J0D01*
G01*
G37*
G36*
G01*
X75764600Y-39325100D02*
X76764600Y-39325100D01*
G75*
G02*
X76834600Y-39395100I0J-70000D01*
G01*
X76834600Y-42395100D01*
G75*
G02*
X76764600Y-42465100I-70000J0D01*
G01*
X75764600Y-42465100D01*
G75*
G02*
X75694600Y-42395100I0J70000D01*
G01*
X75694600Y-39395100D01*
G75*
G02*
X75764600Y-39325100I70000J0D01*
G01*
G37*
G36*
G01*
X78304600Y-35025100D02*
X79304600Y-35025100D01*
G75*
G02*
X79374600Y-35095100I0J-70000D01*
G01*
X79374600Y-38095100D01*
G75*
G02*
X79304600Y-38165100I-70000J0D01*
G01*
X78304600Y-38165100D01*
G75*
G02*
X78234600Y-38095100I0J70000D01*
G01*
X78234600Y-35095100D01*
G75*
G02*
X78304600Y-35025100I70000J0D01*
G01*
G37*
G36*
G01*
X80844600Y-39325100D02*
X81844600Y-39325100D01*
G75*
G02*
X81914600Y-39395100I0J-70000D01*
G01*
X81914600Y-42395100D01*
G75*
G02*
X81844600Y-42465100I-70000J0D01*
G01*
X80844600Y-42465100D01*
G75*
G02*
X80774600Y-42395100I0J70000D01*
G01*
X80774600Y-39395100D01*
G75*
G02*
X80844600Y-39325100I70000J0D01*
G01*
G37*
G36*
G01*
X83384600Y-35025100D02*
X84384600Y-35025100D01*
G75*
G02*
X84454600Y-35095100I0J-70000D01*
G01*
X84454600Y-38095100D01*
G75*
G02*
X84384600Y-38165100I-70000J0D01*
G01*
X83384600Y-38165100D01*
G75*
G02*
X83314600Y-38095100I0J70000D01*
G01*
X83314600Y-35095100D01*
G75*
G02*
X83384600Y-35025100I70000J0D01*
G01*
G37*
G36*
G01*
X85924600Y-39325100D02*
X86924600Y-39325100D01*
G75*
G02*
X86994600Y-39395100I0J-70000D01*
G01*
X86994600Y-42395100D01*
G75*
G02*
X86924600Y-42465100I-70000J0D01*
G01*
X85924600Y-42465100D01*
G75*
G02*
X85854600Y-42395100I0J70000D01*
G01*
X85854600Y-39395100D01*
G75*
G02*
X85924600Y-39325100I70000J0D01*
G01*
G37*
G36*
G01*
X88464600Y-35025100D02*
X89464600Y-35025100D01*
G75*
G02*
X89534600Y-35095100I0J-70000D01*
G01*
X89534600Y-38095100D01*
G75*
G02*
X89464600Y-38165100I-70000J0D01*
G01*
X88464600Y-38165100D01*
G75*
G02*
X88394600Y-38095100I0J70000D01*
G01*
X88394600Y-35095100D01*
G75*
G02*
X88464600Y-35025100I70000J0D01*
G01*
G37*
G36*
G01*
X91004600Y-39325100D02*
X92004600Y-39325100D01*
G75*
G02*
X92074600Y-39395100I0J-70000D01*
G01*
X92074600Y-42395100D01*
G75*
G02*
X92004600Y-42465100I-70000J0D01*
G01*
X91004600Y-42465100D01*
G75*
G02*
X90934600Y-42395100I0J70000D01*
G01*
X90934600Y-39395100D01*
G75*
G02*
X91004600Y-39325100I70000J0D01*
G01*
G37*
G36*
G01*
X93544600Y-35025100D02*
X94544600Y-35025100D01*
G75*
G02*
X94614600Y-35095100I0J-70000D01*
G01*
X94614600Y-38095100D01*
G75*
G02*
X94544600Y-38165100I-70000J0D01*
G01*
X93544600Y-38165100D01*
G75*
G02*
X93474600Y-38095100I0J70000D01*
G01*
X93474600Y-35095100D01*
G75*
G02*
X93544600Y-35025100I70000J0D01*
G01*
G37*
G36*
G01*
X96084600Y-39325100D02*
X97084600Y-39325100D01*
G75*
G02*
X97154600Y-39395100I0J-70000D01*
G01*
X97154600Y-42395100D01*
G75*
G02*
X97084600Y-42465100I-70000J0D01*
G01*
X96084600Y-42465100D01*
G75*
G02*
X96014600Y-42395100I0J70000D01*
G01*
X96014600Y-39395100D01*
G75*
G02*
X96084600Y-39325100I70000J0D01*
G01*
G37*
G36*
G01*
X98874850Y-55532850D02*
X98874850Y-54532850D01*
G75*
G02*
X98944850Y-54462850I70000J0D01*
G01*
X101944850Y-54462850D01*
G75*
G02*
X102014850Y-54532850I0J-70000D01*
G01*
X102014850Y-55532850D01*
G75*
G02*
X101944850Y-55602850I-70000J0D01*
G01*
X98944850Y-55602850D01*
G75*
G02*
X98874850Y-55532850I0J70000D01*
G01*
G37*
G36*
G01*
X103174850Y-52992850D02*
X103174850Y-51992850D01*
G75*
G02*
X103244850Y-51922850I70000J0D01*
G01*
X106244850Y-51922850D01*
G75*
G02*
X106314850Y-51992850I0J-70000D01*
G01*
X106314850Y-52992850D01*
G75*
G02*
X106244850Y-53062850I-70000J0D01*
G01*
X103244850Y-53062850D01*
G75*
G02*
X103174850Y-52992850I0J70000D01*
G01*
G37*
G36*
G01*
X98874850Y-50452850D02*
X98874850Y-49452850D01*
G75*
G02*
X98944850Y-49382850I70000J0D01*
G01*
X101944850Y-49382850D01*
G75*
G02*
X102014850Y-49452850I0J-70000D01*
G01*
X102014850Y-50452850D01*
G75*
G02*
X101944850Y-50522850I-70000J0D01*
G01*
X98944850Y-50522850D01*
G75*
G02*
X98874850Y-50452850I0J70000D01*
G01*
G37*
G36*
G01*
X103174850Y-47912850D02*
X103174850Y-46912850D01*
G75*
G02*
X103244850Y-46842850I70000J0D01*
G01*
X106244850Y-46842850D01*
G75*
G02*
X106314850Y-46912850I0J-70000D01*
G01*
X106314850Y-47912850D01*
G75*
G02*
X106244850Y-47982850I-70000J0D01*
G01*
X103244850Y-47982850D01*
G75*
G02*
X103174850Y-47912850I0J70000D01*
G01*
G37*
G36*
G01*
X98874850Y-45372850D02*
X98874850Y-44372850D01*
G75*
G02*
X98944850Y-44302850I70000J0D01*
G01*
X101944850Y-44302850D01*
G75*
G02*
X102014850Y-44372850I0J-70000D01*
G01*
X102014850Y-45372850D01*
G75*
G02*
X101944850Y-45442850I-70000J0D01*
G01*
X98944850Y-45442850D01*
G75*
G02*
X98874850Y-45372850I0J70000D01*
G01*
G37*
G36*
G01*
X103174850Y-42832850D02*
X103174850Y-41832850D01*
G75*
G02*
X103244850Y-41762850I70000J0D01*
G01*
X106244850Y-41762850D01*
G75*
G02*
X106314850Y-41832850I0J-70000D01*
G01*
X106314850Y-42832850D01*
G75*
G02*
X106244850Y-42902850I-70000J0D01*
G01*
X103244850Y-42902850D01*
G75*
G02*
X103174850Y-42832850I0J70000D01*
G01*
G37*
%TD*%
%TO.C,D301*%
G36*
G01*
X57279760Y-90156770D02*
X57279760Y-89605590D01*
G75*
G02*
X57339760Y-89545590I60000J0D01*
G01*
X57639480Y-89545590D01*
G75*
G02*
X57699480Y-89605590I0J-60000D01*
G01*
X57699480Y-90156770D01*
G75*
G02*
X57639480Y-90216770I-60000J0D01*
G01*
X57339760Y-90216770D01*
G75*
G02*
X57279760Y-90156770I0J60000D01*
G01*
G37*
G36*
G01*
X57930140Y-90156770D02*
X57930140Y-89605590D01*
G75*
G02*
X57990140Y-89545590I60000J0D01*
G01*
X58289860Y-89545590D01*
G75*
G02*
X58349860Y-89605590I0J-60000D01*
G01*
X58349860Y-90156770D01*
G75*
G02*
X58289860Y-90216770I-60000J0D01*
G01*
X57990140Y-90216770D01*
G75*
G02*
X57930140Y-90156770I0J60000D01*
G01*
G37*
G36*
G01*
X58580520Y-90156770D02*
X58580520Y-89605590D01*
G75*
G02*
X58640520Y-89545590I60000J0D01*
G01*
X58940240Y-89545590D01*
G75*
G02*
X59000240Y-89605590I0J-60000D01*
G01*
X59000240Y-90156770D01*
G75*
G02*
X58940240Y-90216770I-60000J0D01*
G01*
X58640520Y-90216770D01*
G75*
G02*
X58580520Y-90156770I0J60000D01*
G01*
G37*
G36*
G01*
X58580520Y-91594410D02*
X58580520Y-91043230D01*
G75*
G02*
X58640520Y-90983230I60000J0D01*
G01*
X58940240Y-90983230D01*
G75*
G02*
X59000240Y-91043230I0J-60000D01*
G01*
X59000240Y-91594410D01*
G75*
G02*
X58940240Y-91654410I-60000J0D01*
G01*
X58640520Y-91654410D01*
G75*
G02*
X58580520Y-91594410I0J60000D01*
G01*
G37*
G36*
G01*
X57930140Y-91594410D02*
X57930140Y-91043230D01*
G75*
G02*
X57990140Y-90983230I60000J0D01*
G01*
X58289860Y-90983230D01*
G75*
G02*
X58349860Y-91043230I0J-60000D01*
G01*
X58349860Y-91594410D01*
G75*
G02*
X58289860Y-91654410I-60000J0D01*
G01*
X57990140Y-91654410D01*
G75*
G02*
X57930140Y-91594410I0J60000D01*
G01*
G37*
G36*
G01*
X57279760Y-91594410D02*
X57279760Y-91043230D01*
G75*
G02*
X57339760Y-90983230I60000J0D01*
G01*
X57639480Y-90983230D01*
G75*
G02*
X57699480Y-91043230I0J-60000D01*
G01*
X57699480Y-91594410D01*
G75*
G02*
X57639480Y-91654410I-60000J0D01*
G01*
X57339760Y-91654410D01*
G75*
G02*
X57279760Y-91594410I0J60000D01*
G01*
G37*
%TD*%
%TO.C,X301*%
G36*
G01*
X41910000Y-64400000D02*
X43010000Y-64400000D01*
G75*
G02*
X43080000Y-64470000I0J-70000D01*
G01*
X43080000Y-65770000D01*
G75*
G02*
X43010000Y-65840000I-70000J0D01*
G01*
X41910000Y-65840000D01*
G75*
G02*
X41840000Y-65770000I0J70000D01*
G01*
X41840000Y-64470000D01*
G75*
G02*
X41910000Y-64400000I70000J0D01*
G01*
G37*
G36*
G01*
X41910000Y-66740000D02*
X43010000Y-66740000D01*
G75*
G02*
X43080000Y-66810000I0J-70000D01*
G01*
X43080000Y-68110000D01*
G75*
G02*
X43010000Y-68180000I-70000J0D01*
G01*
X41910000Y-68180000D01*
G75*
G02*
X41840000Y-68110000I0J70000D01*
G01*
X41840000Y-66810000D01*
G75*
G02*
X41910000Y-66740000I70000J0D01*
G01*
G37*
G36*
G01*
X43870000Y-66740000D02*
X44970000Y-66740000D01*
G75*
G02*
X45040000Y-66810000I0J-70000D01*
G01*
X45040000Y-68110000D01*
G75*
G02*
X44970000Y-68180000I-70000J0D01*
G01*
X43870000Y-68180000D01*
G75*
G02*
X43800000Y-68110000I0J70000D01*
G01*
X43800000Y-66810000D01*
G75*
G02*
X43870000Y-66740000I70000J0D01*
G01*
G37*
G36*
G01*
X43870000Y-64400000D02*
X44970000Y-64400000D01*
G75*
G02*
X45040000Y-64470000I0J-70000D01*
G01*
X45040000Y-65770000D01*
G75*
G02*
X44970000Y-65840000I-70000J0D01*
G01*
X43870000Y-65840000D01*
G75*
G02*
X43800000Y-65770000I0J70000D01*
G01*
X43800000Y-64470000D01*
G75*
G02*
X43870000Y-64400000I70000J0D01*
G01*
G37*
%TD*%
%TO.C,U304*%
G36*
G01*
X46860000Y-68820000D02*
X46560000Y-68820000D01*
G75*
G02*
X46500000Y-68760000I0J60000D01*
G01*
X46500000Y-67360000D01*
G75*
G02*
X46560000Y-67300000I60000J0D01*
G01*
X46860000Y-67300000D01*
G75*
G02*
X46920000Y-67360000I0J-60000D01*
G01*
X46920000Y-68760000D01*
G75*
G02*
X46860000Y-68820000I-60000J0D01*
G01*
G37*
G36*
G01*
X47360000Y-68820000D02*
X47060000Y-68820000D01*
G75*
G02*
X47000000Y-68760000I0J60000D01*
G01*
X47000000Y-67360000D01*
G75*
G02*
X47060000Y-67300000I60000J0D01*
G01*
X47360000Y-67300000D01*
G75*
G02*
X47420000Y-67360000I0J-60000D01*
G01*
X47420000Y-68760000D01*
G75*
G02*
X47360000Y-68820000I-60000J0D01*
G01*
G37*
G36*
G01*
X47860000Y-68820000D02*
X47560000Y-68820000D01*
G75*
G02*
X47500000Y-68760000I0J60000D01*
G01*
X47500000Y-67360000D01*
G75*
G02*
X47560000Y-67300000I60000J0D01*
G01*
X47860000Y-67300000D01*
G75*
G02*
X47920000Y-67360000I0J-60000D01*
G01*
X47920000Y-68760000D01*
G75*
G02*
X47860000Y-68820000I-60000J0D01*
G01*
G37*
G36*
G01*
X48360000Y-68820000D02*
X48060000Y-68820000D01*
G75*
G02*
X48000000Y-68760000I0J60000D01*
G01*
X48000000Y-67360000D01*
G75*
G02*
X48060000Y-67300000I60000J0D01*
G01*
X48360000Y-67300000D01*
G75*
G02*
X48420000Y-67360000I0J-60000D01*
G01*
X48420000Y-68760000D01*
G75*
G02*
X48360000Y-68820000I-60000J0D01*
G01*
G37*
G36*
G01*
X48860000Y-68820000D02*
X48560000Y-68820000D01*
G75*
G02*
X48500000Y-68760000I0J60000D01*
G01*
X48500000Y-67360000D01*
G75*
G02*
X48560000Y-67300000I60000J0D01*
G01*
X48860000Y-67300000D01*
G75*
G02*
X48920000Y-67360000I0J-60000D01*
G01*
X48920000Y-68760000D01*
G75*
G02*
X48860000Y-68820000I-60000J0D01*
G01*
G37*
G36*
G01*
X48860000Y-64420000D02*
X48560000Y-64420000D01*
G75*
G02*
X48500000Y-64360000I0J60000D01*
G01*
X48500000Y-62960000D01*
G75*
G02*
X48560000Y-62900000I60000J0D01*
G01*
X48860000Y-62900000D01*
G75*
G02*
X48920000Y-62960000I0J-60000D01*
G01*
X48920000Y-64360000D01*
G75*
G02*
X48860000Y-64420000I-60000J0D01*
G01*
G37*
G36*
G01*
X48360000Y-64420000D02*
X48060000Y-64420000D01*
G75*
G02*
X48000000Y-64360000I0J60000D01*
G01*
X48000000Y-62960000D01*
G75*
G02*
X48060000Y-62900000I60000J0D01*
G01*
X48360000Y-62900000D01*
G75*
G02*
X48420000Y-62960000I0J-60000D01*
G01*
X48420000Y-64360000D01*
G75*
G02*
X48360000Y-64420000I-60000J0D01*
G01*
G37*
G36*
G01*
X47860000Y-64420000D02*
X47560000Y-64420000D01*
G75*
G02*
X47500000Y-64360000I0J60000D01*
G01*
X47500000Y-62960000D01*
G75*
G02*
X47560000Y-62900000I60000J0D01*
G01*
X47860000Y-62900000D01*
G75*
G02*
X47920000Y-62960000I0J-60000D01*
G01*
X47920000Y-64360000D01*
G75*
G02*
X47860000Y-64420000I-60000J0D01*
G01*
G37*
G36*
G01*
X47360000Y-64420000D02*
X47060000Y-64420000D01*
G75*
G02*
X47000000Y-64360000I0J60000D01*
G01*
X47000000Y-62960000D01*
G75*
G02*
X47060000Y-62900000I60000J0D01*
G01*
X47360000Y-62900000D01*
G75*
G02*
X47420000Y-62960000I0J-60000D01*
G01*
X47420000Y-64360000D01*
G75*
G02*
X47360000Y-64420000I-60000J0D01*
G01*
G37*
G36*
G01*
X46860000Y-64420000D02*
X46560000Y-64420000D01*
G75*
G02*
X46500000Y-64360000I0J60000D01*
G01*
X46500000Y-62960000D01*
G75*
G02*
X46560000Y-62900000I60000J0D01*
G01*
X46860000Y-62900000D01*
G75*
G02*
X46920000Y-62960000I0J-60000D01*
G01*
X46920000Y-64360000D01*
G75*
G02*
X46860000Y-64420000I-60000J0D01*
G01*
G37*
%TD*%
%TO.C,RV301*%
G36*
G01*
X68040000Y-95710000D02*
X65340000Y-95710000D01*
G75*
G02*
X65270000Y-95640000I0J70000D01*
G01*
X65270000Y-94040000D01*
G75*
G02*
X65340000Y-93970000I70000J0D01*
G01*
X68040000Y-93970000D01*
G75*
G02*
X68110000Y-94040000I0J-70000D01*
G01*
X68110000Y-95640000D01*
G75*
G02*
X68040000Y-95710000I-70000J0D01*
G01*
G37*
G36*
G01*
X72440000Y-96510000D02*
X69940000Y-96510000D01*
G75*
G02*
X69870000Y-96440000I0J70000D01*
G01*
X69870000Y-95240000D01*
G75*
G02*
X69940000Y-95170000I70000J0D01*
G01*
X72440000Y-95170000D01*
G75*
G02*
X72510000Y-95240000I0J-70000D01*
G01*
X72510000Y-96440000D01*
G75*
G02*
X72440000Y-96510000I-70000J0D01*
G01*
G37*
G36*
G01*
X72440000Y-94510000D02*
X69940000Y-94510000D01*
G75*
G02*
X69870000Y-94440000I0J70000D01*
G01*
X69870000Y-93240000D01*
G75*
G02*
X69940000Y-93170000I70000J0D01*
G01*
X72440000Y-93170000D01*
G75*
G02*
X72510000Y-93240000I0J-70000D01*
G01*
X72510000Y-94440000D01*
G75*
G02*
X72440000Y-94510000I-70000J0D01*
G01*
G37*
%TD*%
%TO.C,J302*%
G36*
G01*
X120886000Y-31496400D02*
X120886000Y-33223600D01*
G75*
G02*
X120816000Y-33293600I-70000J0D01*
G01*
X118784000Y-33293600D01*
G75*
G02*
X118714000Y-33223600I0J70000D01*
G01*
X118714000Y-31496400D01*
G75*
G02*
X118784000Y-31426400I70000J0D01*
G01*
X120816000Y-31426400D01*
G75*
G02*
X120886000Y-31496400I0J-70000D01*
G01*
G37*
D17*
X119800000Y-34900000D03*
X119800000Y-37440000D03*
X119800000Y-39980000D03*
X119800000Y-42520000D03*
X119800000Y-45060000D03*
%TD*%
%TO.C,W116*%
G36*
G01*
X28610000Y-95650000D02*
X28610000Y-90650000D01*
G75*
G02*
X28680000Y-90580000I70000J0D01*
G01*
X33680000Y-90580000D01*
G75*
G02*
X33750000Y-90650000I0J-70000D01*
G01*
X33750000Y-95650000D01*
G75*
G02*
X33680000Y-95720000I-70000J0D01*
G01*
X28680000Y-95720000D01*
G75*
G02*
X28610000Y-95650000I0J70000D01*
G01*
G37*
%TD*%
%TO.C,W308*%
G36*
G01*
X117020000Y-58190000D02*
X117020000Y-53190000D01*
G75*
G02*
X117090000Y-53120000I70000J0D01*
G01*
X122090000Y-53120000D01*
G75*
G02*
X122160000Y-53190000I0J-70000D01*
G01*
X122160000Y-58190000D01*
G75*
G02*
X122090000Y-58260000I-70000J0D01*
G01*
X117090000Y-58260000D01*
G75*
G02*
X117020000Y-58190000I0J70000D01*
G01*
G37*
%TD*%
D18*
%TO.C,W106*%
X55666854Y-51783146D03*
X50010000Y-57440000D03*
D10*
X50010000Y-57440000D03*
X55666854Y-51783146D03*
%TD*%
D19*
%TO.C,*%
X117840000Y-47030000D03*
%TD*%
%TO.C,*%
X117820000Y-46274089D03*
%TD*%
%TO.C,*%
X117820000Y-45518180D03*
%TD*%
%TO.C,*%
X117820000Y-44762271D03*
%TD*%
%TO.C,*%
X117820000Y-39470908D03*
%TD*%
%TO.C,*%
X117820000Y-40226817D03*
%TD*%
%TO.C,*%
X117820000Y-40982726D03*
%TD*%
%TO.C,*%
X117840000Y-41738635D03*
%TD*%
%TO.C,*%
X117820000Y-42494544D03*
%TD*%
%TO.C,*%
X117820000Y-43250453D03*
%TD*%
%TO.C,*%
X117820000Y-44006362D03*
%TD*%
%TO.C,*%
X117820000Y-34179545D03*
%TD*%
%TO.C,*%
X117820000Y-33423636D03*
%TD*%
%TO.C,*%
X117820000Y-32667727D03*
%TD*%
%TO.C,*%
X117840000Y-31155909D03*
%TD*%
%TO.C,*%
X117820000Y-30400000D03*
%TD*%
%TO.C,*%
X117820000Y-34935454D03*
%TD*%
%TO.C,*%
X117820000Y-35691363D03*
%TD*%
%TO.C,*%
X117840000Y-36447272D03*
%TD*%
%TO.C,*%
X117820000Y-37203181D03*
%TD*%
%TO.C,*%
X117820000Y-37959090D03*
%TD*%
%TO.C,*%
X117820000Y-38714999D03*
%TD*%
D20*
%TO.C,P302*%
X37750000Y-79420000D03*
%TD*%
D21*
%TO.C,L202*%
G36*
X84099590Y-85668687D02*
G01*
X80360410Y-85668687D01*
X80360410Y-83529707D01*
X84099590Y-83529707D01*
X84099590Y-85668687D01*
G37*
G36*
G01*
X84029590Y-93390293D02*
X80430410Y-93390293D01*
G75*
G02*
X80360410Y-93320293I0J70000D01*
G01*
X80360410Y-91321313D01*
G75*
G02*
X80430410Y-91251313I70000J0D01*
G01*
X84029590Y-91251313D01*
G75*
G02*
X84099590Y-91321313I0J-70000D01*
G01*
X84099590Y-93320293D01*
G75*
G02*
X84029590Y-93390293I-70000J0D01*
G01*
G37*
%TD*%
D22*
%TO.C,Q102*%
X49500000Y-49790000D03*
X46960000Y-49790000D03*
X52040000Y-49790000D03*
%TD*%
%TO.C,TP301*%
G36*
G01*
X23903600Y-86866000D02*
X22176400Y-86866000D01*
G75*
G02*
X22106400Y-86796000I0J70000D01*
G01*
X22106400Y-84764000D01*
G75*
G02*
X22176400Y-84694000I70000J0D01*
G01*
X23903600Y-84694000D01*
G75*
G02*
X23973600Y-84764000I0J-70000D01*
G01*
X23973600Y-86796000D01*
G75*
G02*
X23903600Y-86866000I-70000J0D01*
G01*
G37*
D23*
X25580000Y-85780000D03*
X28120000Y-85780000D03*
%TD*%
%TO.C,W307*%
G36*
G01*
X112522400Y-45497600D02*
X112522400Y-43262400D01*
G75*
G02*
X112592400Y-43192400I70000J0D01*
G01*
X114827600Y-43192400D01*
G75*
G02*
X114897600Y-43262400I0J-70000D01*
G01*
X114897600Y-45497600D01*
G75*
G02*
X114827600Y-45567600I-70000J0D01*
G01*
X112592400Y-45567600D01*
G75*
G02*
X112522400Y-45497600I0J70000D01*
G01*
G37*
%TD*%
D20*
%TO.C,J203*%
X50790000Y-36520000D03*
%TD*%
%TO.C,D102*%
G36*
G01*
X57680000Y-56680000D02*
X57680000Y-57900000D01*
G75*
G02*
X57610000Y-57970000I-70000J0D01*
G01*
X55700000Y-57970000D01*
G75*
G02*
X55630000Y-57900000I0J70000D01*
G01*
X55630000Y-56680000D01*
G75*
G02*
X55700000Y-56610000I70000J0D01*
G01*
X57610000Y-56610000D01*
G75*
G02*
X57680000Y-56680000I0J-70000D01*
G01*
G37*
G36*
G01*
X53410000Y-56680000D02*
X53410000Y-57900000D01*
G75*
G02*
X53340000Y-57970000I-70000J0D01*
G01*
X51430000Y-57970000D01*
G75*
G02*
X51360000Y-57900000I0J70000D01*
G01*
X51360000Y-56680000D01*
G75*
G02*
X51430000Y-56610000I70000J0D01*
G01*
X53340000Y-56610000D01*
G75*
G02*
X53410000Y-56680000I0J-70000D01*
G01*
G37*
%TD*%
D18*
%TO.C,W204*%
X77260000Y-91240000D03*
X77260000Y-83240000D03*
D10*
X77260000Y-83240000D03*
X77260000Y-91240000D03*
%TD*%
D18*
%TO.C,W105*%
X38020000Y-60020000D03*
X46020000Y-60020000D03*
D10*
X46020000Y-60020000D03*
X38020000Y-60020000D03*
%TD*%
D18*
%TO.C,W111*%
X36930000Y-52760000D03*
X36930000Y-44760000D03*
D10*
X36930000Y-44760000D03*
X36930000Y-52760000D03*
%TD*%
D18*
%TO.C,W113*%
X20650000Y-53290000D03*
X28650000Y-53290000D03*
D10*
X28650000Y-53290000D03*
X20650000Y-53290000D03*
%TD*%
D18*
%TO.C,W108*%
X41580000Y-41880000D03*
X41580000Y-49880000D03*
D10*
X41580000Y-49880000D03*
X41580000Y-41880000D03*
%TD*%
D18*
%TO.C,W205*%
X83190000Y-106650000D03*
X83190000Y-98650000D03*
D10*
X83190000Y-98650000D03*
X83190000Y-106650000D03*
%TD*%
D19*
%TO.C,*%
X117820000Y-31911818D03*
%TD*%
D13*
%TO.C,L104*%
X45740000Y-44150000D03*
X45740000Y-38150000D03*
X48240000Y-38150000D03*
X43240000Y-44150000D03*
%TD*%
%TO.C,L106*%
X36464900Y-47490000D03*
X34521800Y-51490000D03*
%TD*%
%TO.C,C117*%
G36*
G01*
X49100000Y-55770000D02*
X49100000Y-53270000D01*
G75*
G02*
X49170000Y-53200000I70000J0D01*
G01*
X50170000Y-53200000D01*
G75*
G02*
X50240000Y-53270000I0J-70000D01*
G01*
X50240000Y-55770000D01*
G75*
G02*
X50170000Y-55840000I-70000J0D01*
G01*
X49170000Y-55840000D01*
G75*
G02*
X49100000Y-55770000I0J70000D01*
G01*
G37*
G36*
G01*
X52100000Y-55770000D02*
X52100000Y-53270000D01*
G75*
G02*
X52170000Y-53200000I70000J0D01*
G01*
X53170000Y-53200000D01*
G75*
G02*
X53240000Y-53270000I0J-70000D01*
G01*
X53240000Y-55770000D01*
G75*
G02*
X53170000Y-55840000I-70000J0D01*
G01*
X52170000Y-55840000D01*
G75*
G02*
X52100000Y-55770000I0J70000D01*
G01*
G37*
%TD*%
%TO.C,C119*%
G36*
G01*
X53615000Y-39545000D02*
X53615000Y-36995000D01*
G75*
G02*
X53685000Y-36925000I70000J0D01*
G01*
X56455000Y-36925000D01*
G75*
G02*
X56525000Y-36995000I0J-70000D01*
G01*
X56525000Y-39545000D01*
G75*
G02*
X56455000Y-39615000I-70000J0D01*
G01*
X53685000Y-39615000D01*
G75*
G02*
X53615000Y-39545000I0J70000D01*
G01*
G37*
G36*
G01*
X60075000Y-39545000D02*
X60075000Y-36995000D01*
G75*
G02*
X60145000Y-36925000I70000J0D01*
G01*
X62915000Y-36925000D01*
G75*
G02*
X62985000Y-36995000I0J-70000D01*
G01*
X62985000Y-39545000D01*
G75*
G02*
X62915000Y-39615000I-70000J0D01*
G01*
X60145000Y-39615000D01*
G75*
G02*
X60075000Y-39545000I0J70000D01*
G01*
G37*
%TD*%
%TO.C,C120*%
G36*
G01*
X51345000Y-40770000D02*
X52595000Y-40770000D01*
G75*
G02*
X52665000Y-40840000I0J-70000D01*
G01*
X52665000Y-41840000D01*
G75*
G02*
X52595000Y-41910000I-70000J0D01*
G01*
X51345000Y-41910000D01*
G75*
G02*
X51275000Y-41840000I0J70000D01*
G01*
X51275000Y-40840000D01*
G75*
G02*
X51345000Y-40770000I70000J0D01*
G01*
G37*
G36*
G01*
X51345000Y-38770000D02*
X52595000Y-38770000D01*
G75*
G02*
X52665000Y-38840000I0J-70000D01*
G01*
X52665000Y-39840000D01*
G75*
G02*
X52595000Y-39910000I-70000J0D01*
G01*
X51345000Y-39910000D01*
G75*
G02*
X51275000Y-39840000I0J70000D01*
G01*
X51275000Y-38840000D01*
G75*
G02*
X51345000Y-38770000I70000J0D01*
G01*
G37*
%TD*%
%TO.C,C122*%
G36*
G01*
X39325000Y-45760000D02*
X40575000Y-45760000D01*
G75*
G02*
X40645000Y-45830000I0J-70000D01*
G01*
X40645000Y-46830000D01*
G75*
G02*
X40575000Y-46900000I-70000J0D01*
G01*
X39325000Y-46900000D01*
G75*
G02*
X39255000Y-46830000I0J70000D01*
G01*
X39255000Y-45830000D01*
G75*
G02*
X39325000Y-45760000I70000J0D01*
G01*
G37*
G36*
G01*
X39325000Y-43760000D02*
X40575000Y-43760000D01*
G75*
G02*
X40645000Y-43830000I0J-70000D01*
G01*
X40645000Y-44830000D01*
G75*
G02*
X40575000Y-44900000I-70000J0D01*
G01*
X39325000Y-44900000D01*
G75*
G02*
X39255000Y-44830000I0J70000D01*
G01*
X39255000Y-43830000D01*
G75*
G02*
X39325000Y-43760000I70000J0D01*
G01*
G37*
%TD*%
%TO.C,C123*%
G36*
G01*
X34965000Y-44400000D02*
X33715000Y-44400000D01*
G75*
G02*
X33645000Y-44330000I0J70000D01*
G01*
X33645000Y-43330000D01*
G75*
G02*
X33715000Y-43260000I70000J0D01*
G01*
X34965000Y-43260000D01*
G75*
G02*
X35035000Y-43330000I0J-70000D01*
G01*
X35035000Y-44330000D01*
G75*
G02*
X34965000Y-44400000I-70000J0D01*
G01*
G37*
G36*
G01*
X34965000Y-46400000D02*
X33715000Y-46400000D01*
G75*
G02*
X33645000Y-46330000I0J70000D01*
G01*
X33645000Y-45330000D01*
G75*
G02*
X33715000Y-45260000I70000J0D01*
G01*
X34965000Y-45260000D01*
G75*
G02*
X35035000Y-45330000I0J-70000D01*
G01*
X35035000Y-46330000D01*
G75*
G02*
X34965000Y-46400000I-70000J0D01*
G01*
G37*
%TD*%
%TO.C,C126*%
G36*
G01*
X29810000Y-52155000D02*
X29810000Y-50905000D01*
G75*
G02*
X29880000Y-50835000I70000J0D01*
G01*
X30880000Y-50835000D01*
G75*
G02*
X30950000Y-50905000I0J-70000D01*
G01*
X30950000Y-52155000D01*
G75*
G02*
X30880000Y-52225000I-70000J0D01*
G01*
X29880000Y-52225000D01*
G75*
G02*
X29810000Y-52155000I0J70000D01*
G01*
G37*
G36*
G01*
X31810000Y-52155000D02*
X31810000Y-50905000D01*
G75*
G02*
X31880000Y-50835000I70000J0D01*
G01*
X32880000Y-50835000D01*
G75*
G02*
X32950000Y-50905000I0J-70000D01*
G01*
X32950000Y-52155000D01*
G75*
G02*
X32880000Y-52225000I-70000J0D01*
G01*
X31880000Y-52225000D01*
G75*
G02*
X31810000Y-52155000I0J70000D01*
G01*
G37*
%TD*%
%TO.C,C128*%
G36*
G01*
X31035000Y-54910000D02*
X29785000Y-54910000D01*
G75*
G02*
X29715000Y-54840000I0J70000D01*
G01*
X29715000Y-53840000D01*
G75*
G02*
X29785000Y-53770000I70000J0D01*
G01*
X31035000Y-53770000D01*
G75*
G02*
X31105000Y-53840000I0J-70000D01*
G01*
X31105000Y-54840000D01*
G75*
G02*
X31035000Y-54910000I-70000J0D01*
G01*
G37*
G36*
G01*
X31035000Y-56910000D02*
X29785000Y-56910000D01*
G75*
G02*
X29715000Y-56840000I0J70000D01*
G01*
X29715000Y-55840000D01*
G75*
G02*
X29785000Y-55770000I70000J0D01*
G01*
X31035000Y-55770000D01*
G75*
G02*
X31105000Y-55840000I0J-70000D01*
G01*
X31105000Y-56840000D01*
G75*
G02*
X31035000Y-56910000I-70000J0D01*
G01*
G37*
%TD*%
%TO.C,C131*%
G36*
G01*
X29210000Y-57985000D02*
X29210000Y-59235000D01*
G75*
G02*
X29140000Y-59305000I-70000J0D01*
G01*
X28140000Y-59305000D01*
G75*
G02*
X28070000Y-59235000I0J70000D01*
G01*
X28070000Y-57985000D01*
G75*
G02*
X28140000Y-57915000I70000J0D01*
G01*
X29140000Y-57915000D01*
G75*
G02*
X29210000Y-57985000I0J-70000D01*
G01*
G37*
G36*
G01*
X27210000Y-57985000D02*
X27210000Y-59235000D01*
G75*
G02*
X27140000Y-59305000I-70000J0D01*
G01*
X26140000Y-59305000D01*
G75*
G02*
X26070000Y-59235000I0J70000D01*
G01*
X26070000Y-57985000D01*
G75*
G02*
X26140000Y-57915000I70000J0D01*
G01*
X27140000Y-57915000D01*
G75*
G02*
X27210000Y-57985000I0J-70000D01*
G01*
G37*
%TD*%
%TO.C,C201*%
G36*
G01*
X81875000Y-106160000D02*
X80625000Y-106160000D01*
G75*
G02*
X80555000Y-106090000I0J70000D01*
G01*
X80555000Y-105090000D01*
G75*
G02*
X80625000Y-105020000I70000J0D01*
G01*
X81875000Y-105020000D01*
G75*
G02*
X81945000Y-105090000I0J-70000D01*
G01*
X81945000Y-106090000D01*
G75*
G02*
X81875000Y-106160000I-70000J0D01*
G01*
G37*
G36*
G01*
X81875000Y-104160000D02*
X80625000Y-104160000D01*
G75*
G02*
X80555000Y-104090000I0J70000D01*
G01*
X80555000Y-103090000D01*
G75*
G02*
X80625000Y-103020000I70000J0D01*
G01*
X81875000Y-103020000D01*
G75*
G02*
X81945000Y-103090000I0J-70000D01*
G01*
X81945000Y-104090000D01*
G75*
G02*
X81875000Y-104160000I-70000J0D01*
G01*
G37*
%TD*%
%TO.C,C202*%
G36*
G01*
X99990000Y-80875000D02*
X99990000Y-82125000D01*
G75*
G02*
X99920000Y-82195000I-70000J0D01*
G01*
X98920000Y-82195000D01*
G75*
G02*
X98850000Y-82125000I0J70000D01*
G01*
X98850000Y-80875000D01*
G75*
G02*
X98920000Y-80805000I70000J0D01*
G01*
X99920000Y-80805000D01*
G75*
G02*
X99990000Y-80875000I0J-70000D01*
G01*
G37*
G36*
G01*
X97990000Y-80875000D02*
X97990000Y-82125000D01*
G75*
G02*
X97920000Y-82195000I-70000J0D01*
G01*
X96920000Y-82195000D01*
G75*
G02*
X96850000Y-82125000I0J70000D01*
G01*
X96850000Y-80875000D01*
G75*
G02*
X96920000Y-80805000I70000J0D01*
G01*
X97920000Y-80805000D01*
G75*
G02*
X97990000Y-80875000I0J-70000D01*
G01*
G37*
%TD*%
%TO.C,C203*%
G36*
G01*
X82270000Y-100515000D02*
X82270000Y-101765000D01*
G75*
G02*
X82200000Y-101835000I-70000J0D01*
G01*
X81200000Y-101835000D01*
G75*
G02*
X81130000Y-101765000I0J70000D01*
G01*
X81130000Y-100515000D01*
G75*
G02*
X81200000Y-100445000I70000J0D01*
G01*
X82200000Y-100445000D01*
G75*
G02*
X82270000Y-100515000I0J-70000D01*
G01*
G37*
G36*
G01*
X84270000Y-100515000D02*
X84270000Y-101765000D01*
G75*
G02*
X84200000Y-101835000I-70000J0D01*
G01*
X83200000Y-101835000D01*
G75*
G02*
X83130000Y-101765000I0J70000D01*
G01*
X83130000Y-100515000D01*
G75*
G02*
X83200000Y-100445000I70000J0D01*
G01*
X84200000Y-100445000D01*
G75*
G02*
X84270000Y-100515000I0J-70000D01*
G01*
G37*
%TD*%
%TO.C,C204*%
G36*
G01*
X109480000Y-57155000D02*
X109480000Y-58405000D01*
G75*
G02*
X109410000Y-58475000I-70000J0D01*
G01*
X108410000Y-58475000D01*
G75*
G02*
X108340000Y-58405000I0J70000D01*
G01*
X108340000Y-57155000D01*
G75*
G02*
X108410000Y-57085000I70000J0D01*
G01*
X109410000Y-57085000D01*
G75*
G02*
X109480000Y-57155000I0J-70000D01*
G01*
G37*
G36*
G01*
X107480000Y-57155000D02*
X107480000Y-58405000D01*
G75*
G02*
X107410000Y-58475000I-70000J0D01*
G01*
X106410000Y-58475000D01*
G75*
G02*
X106340000Y-58405000I0J70000D01*
G01*
X106340000Y-57155000D01*
G75*
G02*
X106410000Y-57085000I70000J0D01*
G01*
X107410000Y-57085000D01*
G75*
G02*
X107480000Y-57155000I0J-70000D01*
G01*
G37*
%TD*%
%TO.C,C205*%
G36*
G01*
X98840000Y-97495000D02*
X98840000Y-98745000D01*
G75*
G02*
X98770000Y-98815000I-70000J0D01*
G01*
X97770000Y-98815000D01*
G75*
G02*
X97700000Y-98745000I0J70000D01*
G01*
X97700000Y-97495000D01*
G75*
G02*
X97770000Y-97425000I70000J0D01*
G01*
X98770000Y-97425000D01*
G75*
G02*
X98840000Y-97495000I0J-70000D01*
G01*
G37*
G36*
G01*
X96840000Y-97495000D02*
X96840000Y-98745000D01*
G75*
G02*
X96770000Y-98815000I-70000J0D01*
G01*
X95770000Y-98815000D01*
G75*
G02*
X95700000Y-98745000I0J70000D01*
G01*
X95700000Y-97495000D01*
G75*
G02*
X95770000Y-97425000I70000J0D01*
G01*
X96770000Y-97425000D01*
G75*
G02*
X96840000Y-97495000I0J-70000D01*
G01*
G37*
%TD*%
%TO.C,C206*%
G36*
G01*
X99375000Y-90670000D02*
X100625000Y-90670000D01*
G75*
G02*
X100695000Y-90740000I0J-70000D01*
G01*
X100695000Y-91740000D01*
G75*
G02*
X100625000Y-91810000I-70000J0D01*
G01*
X99375000Y-91810000D01*
G75*
G02*
X99305000Y-91740000I0J70000D01*
G01*
X99305000Y-90740000D01*
G75*
G02*
X99375000Y-90670000I70000J0D01*
G01*
G37*
G36*
G01*
X99375000Y-92670000D02*
X100625000Y-92670000D01*
G75*
G02*
X100695000Y-92740000I0J-70000D01*
G01*
X100695000Y-93740000D01*
G75*
G02*
X100625000Y-93810000I-70000J0D01*
G01*
X99375000Y-93810000D01*
G75*
G02*
X99305000Y-93740000I0J70000D01*
G01*
X99305000Y-92740000D01*
G75*
G02*
X99375000Y-92670000I70000J0D01*
G01*
G37*
%TD*%
%TO.C,C207*%
G36*
G01*
X94235000Y-80070000D02*
X95485000Y-80070000D01*
G75*
G02*
X95555000Y-80140000I0J-70000D01*
G01*
X95555000Y-81140000D01*
G75*
G02*
X95485000Y-81210000I-70000J0D01*
G01*
X94235000Y-81210000D01*
G75*
G02*
X94165000Y-81140000I0J70000D01*
G01*
X94165000Y-80140000D01*
G75*
G02*
X94235000Y-80070000I70000J0D01*
G01*
G37*
G36*
G01*
X94235000Y-78070000D02*
X95485000Y-78070000D01*
G75*
G02*
X95555000Y-78140000I0J-70000D01*
G01*
X95555000Y-79140000D01*
G75*
G02*
X95485000Y-79210000I-70000J0D01*
G01*
X94235000Y-79210000D01*
G75*
G02*
X94165000Y-79140000I0J70000D01*
G01*
X94165000Y-78140000D01*
G75*
G02*
X94235000Y-78070000I70000J0D01*
G01*
G37*
%TD*%
%TO.C,C208*%
G36*
G01*
X92190000Y-75185000D02*
X92190000Y-73935000D01*
G75*
G02*
X92260000Y-73865000I70000J0D01*
G01*
X93260000Y-73865000D01*
G75*
G02*
X93330000Y-73935000I0J-70000D01*
G01*
X93330000Y-75185000D01*
G75*
G02*
X93260000Y-75255000I-70000J0D01*
G01*
X92260000Y-75255000D01*
G75*
G02*
X92190000Y-75185000I0J70000D01*
G01*
G37*
G36*
G01*
X94190000Y-75185000D02*
X94190000Y-73935000D01*
G75*
G02*
X94260000Y-73865000I70000J0D01*
G01*
X95260000Y-73865000D01*
G75*
G02*
X95330000Y-73935000I0J-70000D01*
G01*
X95330000Y-75185000D01*
G75*
G02*
X95260000Y-75255000I-70000J0D01*
G01*
X94260000Y-75255000D01*
G75*
G02*
X94190000Y-75185000I0J70000D01*
G01*
G37*
%TD*%
%TO.C,C209*%
G36*
G01*
X105915000Y-96915000D02*
X105915000Y-94365000D01*
G75*
G02*
X105985000Y-94295000I70000J0D01*
G01*
X108755000Y-94295000D01*
G75*
G02*
X108825000Y-94365000I0J-70000D01*
G01*
X108825000Y-96915000D01*
G75*
G02*
X108755000Y-96985000I-70000J0D01*
G01*
X105985000Y-96985000D01*
G75*
G02*
X105915000Y-96915000I0J70000D01*
G01*
G37*
G36*
G01*
X112375000Y-96915000D02*
X112375000Y-94365000D01*
G75*
G02*
X112445000Y-94295000I70000J0D01*
G01*
X115215000Y-94295000D01*
G75*
G02*
X115285000Y-94365000I0J-70000D01*
G01*
X115285000Y-96915000D01*
G75*
G02*
X115215000Y-96985000I-70000J0D01*
G01*
X112445000Y-96985000D01*
G75*
G02*
X112375000Y-96915000I0J70000D01*
G01*
G37*
%TD*%
%TO.C,C210*%
G36*
G01*
X90560000Y-87850000D02*
X90560000Y-85350000D01*
G75*
G02*
X90630000Y-85280000I70000J0D01*
G01*
X91630000Y-85280000D01*
G75*
G02*
X91700000Y-85350000I0J-70000D01*
G01*
X91700000Y-87850000D01*
G75*
G02*
X91630000Y-87920000I-70000J0D01*
G01*
X90630000Y-87920000D01*
G75*
G02*
X90560000Y-87850000I0J70000D01*
G01*
G37*
G36*
G01*
X87560000Y-87850000D02*
X87560000Y-85350000D01*
G75*
G02*
X87630000Y-85280000I70000J0D01*
G01*
X88630000Y-85280000D01*
G75*
G02*
X88700000Y-85350000I0J-70000D01*
G01*
X88700000Y-87850000D01*
G75*
G02*
X88630000Y-87920000I-70000J0D01*
G01*
X87630000Y-87920000D01*
G75*
G02*
X87560000Y-87850000I0J70000D01*
G01*
G37*
%TD*%
%TO.C,C211*%
G36*
G01*
X91710000Y-90655000D02*
X91710000Y-89405000D01*
G75*
G02*
X91780000Y-89335000I70000J0D01*
G01*
X92780000Y-89335000D01*
G75*
G02*
X92850000Y-89405000I0J-70000D01*
G01*
X92850000Y-90655000D01*
G75*
G02*
X92780000Y-90725000I-70000J0D01*
G01*
X91780000Y-90725000D01*
G75*
G02*
X91710000Y-90655000I0J70000D01*
G01*
G37*
G36*
G01*
X89710000Y-90655000D02*
X89710000Y-89405000D01*
G75*
G02*
X89780000Y-89335000I70000J0D01*
G01*
X90780000Y-89335000D01*
G75*
G02*
X90850000Y-89405000I0J-70000D01*
G01*
X90850000Y-90655000D01*
G75*
G02*
X90780000Y-90725000I-70000J0D01*
G01*
X89780000Y-90725000D01*
G75*
G02*
X89710000Y-90655000I0J70000D01*
G01*
G37*
%TD*%
%TO.C,C212*%
G36*
G01*
X76770000Y-94325000D02*
X76770000Y-93075000D01*
G75*
G02*
X76840000Y-93005000I70000J0D01*
G01*
X77840000Y-93005000D01*
G75*
G02*
X77910000Y-93075000I0J-70000D01*
G01*
X77910000Y-94325000D01*
G75*
G02*
X77840000Y-94395000I-70000J0D01*
G01*
X76840000Y-94395000D01*
G75*
G02*
X76770000Y-94325000I0J70000D01*
G01*
G37*
G36*
G01*
X78770000Y-94325000D02*
X78770000Y-93075000D01*
G75*
G02*
X78840000Y-93005000I70000J0D01*
G01*
X79840000Y-93005000D01*
G75*
G02*
X79910000Y-93075000I0J-70000D01*
G01*
X79910000Y-94325000D01*
G75*
G02*
X79840000Y-94395000I-70000J0D01*
G01*
X78840000Y-94395000D01*
G75*
G02*
X78770000Y-94325000I0J70000D01*
G01*
G37*
%TD*%
%TO.C,C213*%
G36*
G01*
X86225000Y-75300000D02*
X84975000Y-75300000D01*
G75*
G02*
X84905000Y-75230000I0J70000D01*
G01*
X84905000Y-74230000D01*
G75*
G02*
X84975000Y-74160000I70000J0D01*
G01*
X86225000Y-74160000D01*
G75*
G02*
X86295000Y-74230000I0J-70000D01*
G01*
X86295000Y-75230000D01*
G75*
G02*
X86225000Y-75300000I-70000J0D01*
G01*
G37*
G36*
G01*
X86225000Y-73300000D02*
X84975000Y-73300000D01*
G75*
G02*
X84905000Y-73230000I0J70000D01*
G01*
X84905000Y-72230000D01*
G75*
G02*
X84975000Y-72160000I70000J0D01*
G01*
X86225000Y-72160000D01*
G75*
G02*
X86295000Y-72230000I0J-70000D01*
G01*
X86295000Y-73230000D01*
G75*
G02*
X86225000Y-73300000I-70000J0D01*
G01*
G37*
%TD*%
%TO.C,C214*%
G36*
G01*
X91995000Y-95255000D02*
X91995000Y-92705000D01*
G75*
G02*
X92065000Y-92635000I70000J0D01*
G01*
X94835000Y-92635000D01*
G75*
G02*
X94905000Y-92705000I0J-70000D01*
G01*
X94905000Y-95255000D01*
G75*
G02*
X94835000Y-95325000I-70000J0D01*
G01*
X92065000Y-95325000D01*
G75*
G02*
X91995000Y-95255000I0J70000D01*
G01*
G37*
G36*
G01*
X85535000Y-95255000D02*
X85535000Y-92705000D01*
G75*
G02*
X85605000Y-92635000I70000J0D01*
G01*
X88375000Y-92635000D01*
G75*
G02*
X88445000Y-92705000I0J-70000D01*
G01*
X88445000Y-95255000D01*
G75*
G02*
X88375000Y-95325000I-70000J0D01*
G01*
X85605000Y-95325000D01*
G75*
G02*
X85535000Y-95255000I0J70000D01*
G01*
G37*
%TD*%
%TO.C,C215*%
G36*
G01*
X100745000Y-95135000D02*
X103295000Y-95135000D01*
G75*
G02*
X103365000Y-95205000I0J-70000D01*
G01*
X103365000Y-97975000D01*
G75*
G02*
X103295000Y-98045000I-70000J0D01*
G01*
X100745000Y-98045000D01*
G75*
G02*
X100675000Y-97975000I0J70000D01*
G01*
X100675000Y-95205000D01*
G75*
G02*
X100745000Y-95135000I70000J0D01*
G01*
G37*
G36*
G01*
X100745000Y-101595000D02*
X103295000Y-101595000D01*
G75*
G02*
X103365000Y-101665000I0J-70000D01*
G01*
X103365000Y-104435000D01*
G75*
G02*
X103295000Y-104505000I-70000J0D01*
G01*
X100745000Y-104505000D01*
G75*
G02*
X100675000Y-104435000I0J70000D01*
G01*
X100675000Y-101665000D01*
G75*
G02*
X100745000Y-101595000I70000J0D01*
G01*
G37*
%TD*%
%TO.C,C216*%
G36*
G01*
X108490000Y-70155000D02*
X108490000Y-68905000D01*
G75*
G02*
X108560000Y-68835000I70000J0D01*
G01*
X109560000Y-68835000D01*
G75*
G02*
X109630000Y-68905000I0J-70000D01*
G01*
X109630000Y-70155000D01*
G75*
G02*
X109560000Y-70225000I-70000J0D01*
G01*
X108560000Y-70225000D01*
G75*
G02*
X108490000Y-70155000I0J70000D01*
G01*
G37*
G36*
G01*
X106490000Y-70155000D02*
X106490000Y-68905000D01*
G75*
G02*
X106560000Y-68835000I70000J0D01*
G01*
X107560000Y-68835000D01*
G75*
G02*
X107630000Y-68905000I0J-70000D01*
G01*
X107630000Y-70155000D01*
G75*
G02*
X107560000Y-70225000I-70000J0D01*
G01*
X106560000Y-70225000D01*
G75*
G02*
X106490000Y-70155000I0J70000D01*
G01*
G37*
%TD*%
%TO.C,C217*%
G36*
G01*
X113995000Y-61295000D02*
X111445000Y-61295000D01*
G75*
G02*
X111375000Y-61225000I0J70000D01*
G01*
X111375000Y-58455000D01*
G75*
G02*
X111445000Y-58385000I70000J0D01*
G01*
X113995000Y-58385000D01*
G75*
G02*
X114065000Y-58455000I0J-70000D01*
G01*
X114065000Y-61225000D01*
G75*
G02*
X113995000Y-61295000I-70000J0D01*
G01*
G37*
G36*
G01*
X113995000Y-67755000D02*
X111445000Y-67755000D01*
G75*
G02*
X111375000Y-67685000I0J70000D01*
G01*
X111375000Y-64915000D01*
G75*
G02*
X111445000Y-64845000I70000J0D01*
G01*
X113995000Y-64845000D01*
G75*
G02*
X114065000Y-64915000I0J-70000D01*
G01*
X114065000Y-67685000D01*
G75*
G02*
X113995000Y-67755000I-70000J0D01*
G01*
G37*
%TD*%
%TO.C,C218*%
G36*
G01*
X120995000Y-70670000D02*
X119745000Y-70670000D01*
G75*
G02*
X119675000Y-70600000I0J70000D01*
G01*
X119675000Y-69600000D01*
G75*
G02*
X119745000Y-69530000I70000J0D01*
G01*
X120995000Y-69530000D01*
G75*
G02*
X121065000Y-69600000I0J-70000D01*
G01*
X121065000Y-70600000D01*
G75*
G02*
X120995000Y-70670000I-70000J0D01*
G01*
G37*
G36*
G01*
X120995000Y-72670000D02*
X119745000Y-72670000D01*
G75*
G02*
X119675000Y-72600000I0J70000D01*
G01*
X119675000Y-71600000D01*
G75*
G02*
X119745000Y-71530000I70000J0D01*
G01*
X120995000Y-71530000D01*
G75*
G02*
X121065000Y-71600000I0J-70000D01*
G01*
X121065000Y-72600000D01*
G75*
G02*
X120995000Y-72670000I-70000J0D01*
G01*
G37*
%TD*%
%TO.C,C219*%
G36*
G01*
X116070000Y-67795000D02*
X116070000Y-66545000D01*
G75*
G02*
X116140000Y-66475000I70000J0D01*
G01*
X117140000Y-66475000D01*
G75*
G02*
X117210000Y-66545000I0J-70000D01*
G01*
X117210000Y-67795000D01*
G75*
G02*
X117140000Y-67865000I-70000J0D01*
G01*
X116140000Y-67865000D01*
G75*
G02*
X116070000Y-67795000I0J70000D01*
G01*
G37*
G36*
G01*
X118070000Y-67795000D02*
X118070000Y-66545000D01*
G75*
G02*
X118140000Y-66475000I70000J0D01*
G01*
X119140000Y-66475000D01*
G75*
G02*
X119210000Y-66545000I0J-70000D01*
G01*
X119210000Y-67795000D01*
G75*
G02*
X119140000Y-67865000I-70000J0D01*
G01*
X118140000Y-67865000D01*
G75*
G02*
X118070000Y-67795000I0J70000D01*
G01*
G37*
%TD*%
%TO.C,C301*%
G36*
G01*
X81070000Y-50575000D02*
X81070000Y-51825000D01*
G75*
G02*
X81000000Y-51895000I-70000J0D01*
G01*
X80000000Y-51895000D01*
G75*
G02*
X79930000Y-51825000I0J70000D01*
G01*
X79930000Y-50575000D01*
G75*
G02*
X80000000Y-50505000I70000J0D01*
G01*
X81000000Y-50505000D01*
G75*
G02*
X81070000Y-50575000I0J-70000D01*
G01*
G37*
G36*
G01*
X83070000Y-50575000D02*
X83070000Y-51825000D01*
G75*
G02*
X83000000Y-51895000I-70000J0D01*
G01*
X82000000Y-51895000D01*
G75*
G02*
X81930000Y-51825000I0J70000D01*
G01*
X81930000Y-50575000D01*
G75*
G02*
X82000000Y-50505000I70000J0D01*
G01*
X83000000Y-50505000D01*
G75*
G02*
X83070000Y-50575000I0J-70000D01*
G01*
G37*
%TD*%
%TO.C,C302*%
G36*
G01*
X67115000Y-65540000D02*
X68365000Y-65540000D01*
G75*
G02*
X68435000Y-65610000I0J-70000D01*
G01*
X68435000Y-66610000D01*
G75*
G02*
X68365000Y-66680000I-70000J0D01*
G01*
X67115000Y-66680000D01*
G75*
G02*
X67045000Y-66610000I0J70000D01*
G01*
X67045000Y-65610000D01*
G75*
G02*
X67115000Y-65540000I70000J0D01*
G01*
G37*
G36*
G01*
X67115000Y-67540000D02*
X68365000Y-67540000D01*
G75*
G02*
X68435000Y-67610000I0J-70000D01*
G01*
X68435000Y-68610000D01*
G75*
G02*
X68365000Y-68680000I-70000J0D01*
G01*
X67115000Y-68680000D01*
G75*
G02*
X67045000Y-68610000I0J70000D01*
G01*
X67045000Y-67610000D01*
G75*
G02*
X67115000Y-67540000I70000J0D01*
G01*
G37*
%TD*%
%TO.C,C303*%
G36*
G01*
X35995000Y-70280000D02*
X34745000Y-70280000D01*
G75*
G02*
X34675000Y-70210000I0J70000D01*
G01*
X34675000Y-69210000D01*
G75*
G02*
X34745000Y-69140000I70000J0D01*
G01*
X35995000Y-69140000D01*
G75*
G02*
X36065000Y-69210000I0J-70000D01*
G01*
X36065000Y-70210000D01*
G75*
G02*
X35995000Y-70280000I-70000J0D01*
G01*
G37*
G36*
G01*
X35995000Y-72280000D02*
X34745000Y-72280000D01*
G75*
G02*
X34675000Y-72210000I0J70000D01*
G01*
X34675000Y-71210000D01*
G75*
G02*
X34745000Y-71140000I70000J0D01*
G01*
X35995000Y-71140000D01*
G75*
G02*
X36065000Y-71210000I0J-70000D01*
G01*
X36065000Y-72210000D01*
G75*
G02*
X35995000Y-72280000I-70000J0D01*
G01*
G37*
%TD*%
%TO.C,C304*%
G36*
G01*
X68295000Y-87290000D02*
X67045000Y-87290000D01*
G75*
G02*
X66975000Y-87220000I0J70000D01*
G01*
X66975000Y-86220000D01*
G75*
G02*
X67045000Y-86150000I70000J0D01*
G01*
X68295000Y-86150000D01*
G75*
G02*
X68365000Y-86220000I0J-70000D01*
G01*
X68365000Y-87220000D01*
G75*
G02*
X68295000Y-87290000I-70000J0D01*
G01*
G37*
G36*
G01*
X68295000Y-85290000D02*
X67045000Y-85290000D01*
G75*
G02*
X66975000Y-85220000I0J70000D01*
G01*
X66975000Y-84220000D01*
G75*
G02*
X67045000Y-84150000I70000J0D01*
G01*
X68295000Y-84150000D01*
G75*
G02*
X68365000Y-84220000I0J-70000D01*
G01*
X68365000Y-85220000D01*
G75*
G02*
X68295000Y-85290000I-70000J0D01*
G01*
G37*
%TD*%
%TO.C,C305*%
G36*
G01*
X66205000Y-85290000D02*
X64955000Y-85290000D01*
G75*
G02*
X64885000Y-85220000I0J70000D01*
G01*
X64885000Y-84220000D01*
G75*
G02*
X64955000Y-84150000I70000J0D01*
G01*
X66205000Y-84150000D01*
G75*
G02*
X66275000Y-84220000I0J-70000D01*
G01*
X66275000Y-85220000D01*
G75*
G02*
X66205000Y-85290000I-70000J0D01*
G01*
G37*
G36*
G01*
X66205000Y-87290000D02*
X64955000Y-87290000D01*
G75*
G02*
X64885000Y-87220000I0J70000D01*
G01*
X64885000Y-86220000D01*
G75*
G02*
X64955000Y-86150000I70000J0D01*
G01*
X66205000Y-86150000D01*
G75*
G02*
X66275000Y-86220000I0J-70000D01*
G01*
X66275000Y-87220000D01*
G75*
G02*
X66205000Y-87290000I-70000J0D01*
G01*
G37*
%TD*%
%TO.C,C306*%
G36*
G01*
X55360000Y-76905000D02*
X55360000Y-75655000D01*
G75*
G02*
X55430000Y-75585000I70000J0D01*
G01*
X56430000Y-75585000D01*
G75*
G02*
X56500000Y-75655000I0J-70000D01*
G01*
X56500000Y-76905000D01*
G75*
G02*
X56430000Y-76975000I-70000J0D01*
G01*
X55430000Y-76975000D01*
G75*
G02*
X55360000Y-76905000I0J70000D01*
G01*
G37*
G36*
G01*
X57360000Y-76905000D02*
X57360000Y-75655000D01*
G75*
G02*
X57430000Y-75585000I70000J0D01*
G01*
X58430000Y-75585000D01*
G75*
G02*
X58500000Y-75655000I0J-70000D01*
G01*
X58500000Y-76905000D01*
G75*
G02*
X58430000Y-76975000I-70000J0D01*
G01*
X57430000Y-76975000D01*
G75*
G02*
X57360000Y-76905000I0J70000D01*
G01*
G37*
%TD*%
%TO.C,C307*%
G36*
G01*
X76290000Y-76455000D02*
X76290000Y-77705000D01*
G75*
G02*
X76220000Y-77775000I-70000J0D01*
G01*
X75220000Y-77775000D01*
G75*
G02*
X75150000Y-77705000I0J70000D01*
G01*
X75150000Y-76455000D01*
G75*
G02*
X75220000Y-76385000I70000J0D01*
G01*
X76220000Y-76385000D01*
G75*
G02*
X76290000Y-76455000I0J-70000D01*
G01*
G37*
G36*
G01*
X78290000Y-76455000D02*
X78290000Y-77705000D01*
G75*
G02*
X78220000Y-77775000I-70000J0D01*
G01*
X77220000Y-77775000D01*
G75*
G02*
X77150000Y-77705000I0J70000D01*
G01*
X77150000Y-76455000D01*
G75*
G02*
X77220000Y-76385000I70000J0D01*
G01*
X78220000Y-76385000D01*
G75*
G02*
X78290000Y-76455000I0J-70000D01*
G01*
G37*
%TD*%
%TO.C,C308*%
G36*
G01*
X43220000Y-62425000D02*
X43220000Y-63675000D01*
G75*
G02*
X43150000Y-63745000I-70000J0D01*
G01*
X42150000Y-63745000D01*
G75*
G02*
X42080000Y-63675000I0J70000D01*
G01*
X42080000Y-62425000D01*
G75*
G02*
X42150000Y-62355000I70000J0D01*
G01*
X43150000Y-62355000D01*
G75*
G02*
X43220000Y-62425000I0J-70000D01*
G01*
G37*
G36*
G01*
X45220000Y-62425000D02*
X45220000Y-63675000D01*
G75*
G02*
X45150000Y-63745000I-70000J0D01*
G01*
X44150000Y-63745000D01*
G75*
G02*
X44080000Y-63675000I0J70000D01*
G01*
X44080000Y-62425000D01*
G75*
G02*
X44150000Y-62355000I70000J0D01*
G01*
X45150000Y-62355000D01*
G75*
G02*
X45220000Y-62425000I0J-70000D01*
G01*
G37*
%TD*%
%TO.C,C309*%
G36*
G01*
X58345000Y-92660000D02*
X59595000Y-92660000D01*
G75*
G02*
X59665000Y-92730000I0J-70000D01*
G01*
X59665000Y-93730000D01*
G75*
G02*
X59595000Y-93800000I-70000J0D01*
G01*
X58345000Y-93800000D01*
G75*
G02*
X58275000Y-93730000I0J70000D01*
G01*
X58275000Y-92730000D01*
G75*
G02*
X58345000Y-92660000I70000J0D01*
G01*
G37*
G36*
G01*
X58345000Y-94660000D02*
X59595000Y-94660000D01*
G75*
G02*
X59665000Y-94730000I0J-70000D01*
G01*
X59665000Y-95730000D01*
G75*
G02*
X59595000Y-95800000I-70000J0D01*
G01*
X58345000Y-95800000D01*
G75*
G02*
X58275000Y-95730000I0J70000D01*
G01*
X58275000Y-94730000D01*
G75*
G02*
X58345000Y-94660000I70000J0D01*
G01*
G37*
%TD*%
%TO.C,C310*%
G36*
G01*
X47270000Y-69465000D02*
X47270000Y-70715000D01*
G75*
G02*
X47200000Y-70785000I-70000J0D01*
G01*
X46200000Y-70785000D01*
G75*
G02*
X46130000Y-70715000I0J70000D01*
G01*
X46130000Y-69465000D01*
G75*
G02*
X46200000Y-69395000I70000J0D01*
G01*
X47200000Y-69395000D01*
G75*
G02*
X47270000Y-69465000I0J-70000D01*
G01*
G37*
G36*
G01*
X45270000Y-69465000D02*
X45270000Y-70715000D01*
G75*
G02*
X45200000Y-70785000I-70000J0D01*
G01*
X44200000Y-70785000D01*
G75*
G02*
X44130000Y-70715000I0J70000D01*
G01*
X44130000Y-69465000D01*
G75*
G02*
X44200000Y-69395000I70000J0D01*
G01*
X45200000Y-69395000D01*
G75*
G02*
X45270000Y-69465000I0J-70000D01*
G01*
G37*
%TD*%
%TO.C,C311*%
G36*
G01*
X77510000Y-44495000D02*
X77510000Y-43245000D01*
G75*
G02*
X77580000Y-43175000I70000J0D01*
G01*
X78580000Y-43175000D01*
G75*
G02*
X78650000Y-43245000I0J-70000D01*
G01*
X78650000Y-44495000D01*
G75*
G02*
X78580000Y-44565000I-70000J0D01*
G01*
X77580000Y-44565000D01*
G75*
G02*
X77510000Y-44495000I0J70000D01*
G01*
G37*
G36*
G01*
X79510000Y-44495000D02*
X79510000Y-43245000D01*
G75*
G02*
X79580000Y-43175000I70000J0D01*
G01*
X80580000Y-43175000D01*
G75*
G02*
X80650000Y-43245000I0J-70000D01*
G01*
X80650000Y-44495000D01*
G75*
G02*
X80580000Y-44565000I-70000J0D01*
G01*
X79580000Y-44565000D01*
G75*
G02*
X79510000Y-44495000I0J70000D01*
G01*
G37*
%TD*%
%TO.C,C312*%
G36*
G01*
X47640000Y-62215000D02*
X47640000Y-60965000D01*
G75*
G02*
X47710000Y-60895000I70000J0D01*
G01*
X48710000Y-60895000D01*
G75*
G02*
X48780000Y-60965000I0J-70000D01*
G01*
X48780000Y-62215000D01*
G75*
G02*
X48710000Y-62285000I-70000J0D01*
G01*
X47710000Y-62285000D01*
G75*
G02*
X47640000Y-62215000I0J70000D01*
G01*
G37*
G36*
G01*
X49640000Y-62215000D02*
X49640000Y-60965000D01*
G75*
G02*
X49710000Y-60895000I70000J0D01*
G01*
X50710000Y-60895000D01*
G75*
G02*
X50780000Y-60965000I0J-70000D01*
G01*
X50780000Y-62215000D01*
G75*
G02*
X50710000Y-62285000I-70000J0D01*
G01*
X49710000Y-62285000D01*
G75*
G02*
X49640000Y-62215000I0J70000D01*
G01*
G37*
%TD*%
%TO.C,C313*%
G36*
G01*
X94635000Y-67150000D02*
X93385000Y-67150000D01*
G75*
G02*
X93315000Y-67080000I0J70000D01*
G01*
X93315000Y-66080000D01*
G75*
G02*
X93385000Y-66010000I70000J0D01*
G01*
X94635000Y-66010000D01*
G75*
G02*
X94705000Y-66080000I0J-70000D01*
G01*
X94705000Y-67080000D01*
G75*
G02*
X94635000Y-67150000I-70000J0D01*
G01*
G37*
G36*
G01*
X94635000Y-65150000D02*
X93385000Y-65150000D01*
G75*
G02*
X93315000Y-65080000I0J70000D01*
G01*
X93315000Y-64080000D01*
G75*
G02*
X93385000Y-64010000I70000J0D01*
G01*
X94635000Y-64010000D01*
G75*
G02*
X94705000Y-64080000I0J-70000D01*
G01*
X94705000Y-65080000D01*
G75*
G02*
X94635000Y-65150000I-70000J0D01*
G01*
G37*
%TD*%
%TO.C,C314*%
G36*
G01*
X79845000Y-67460000D02*
X81095000Y-67460000D01*
G75*
G02*
X81165000Y-67530000I0J-70000D01*
G01*
X81165000Y-68530000D01*
G75*
G02*
X81095000Y-68600000I-70000J0D01*
G01*
X79845000Y-68600000D01*
G75*
G02*
X79775000Y-68530000I0J70000D01*
G01*
X79775000Y-67530000D01*
G75*
G02*
X79845000Y-67460000I70000J0D01*
G01*
G37*
G36*
G01*
X79845000Y-65460000D02*
X81095000Y-65460000D01*
G75*
G02*
X81165000Y-65530000I0J-70000D01*
G01*
X81165000Y-66530000D01*
G75*
G02*
X81095000Y-66600000I-70000J0D01*
G01*
X79845000Y-66600000D01*
G75*
G02*
X79775000Y-66530000I0J70000D01*
G01*
X79775000Y-65530000D01*
G75*
G02*
X79845000Y-65460000I70000J0D01*
G01*
G37*
%TD*%
%TO.C,C315*%
G36*
G01*
X87510000Y-65235000D02*
X87510000Y-63985000D01*
G75*
G02*
X87580000Y-63915000I70000J0D01*
G01*
X88580000Y-63915000D01*
G75*
G02*
X88650000Y-63985000I0J-70000D01*
G01*
X88650000Y-65235000D01*
G75*
G02*
X88580000Y-65305000I-70000J0D01*
G01*
X87580000Y-65305000D01*
G75*
G02*
X87510000Y-65235000I0J70000D01*
G01*
G37*
G36*
G01*
X85510000Y-65235000D02*
X85510000Y-63985000D01*
G75*
G02*
X85580000Y-63915000I70000J0D01*
G01*
X86580000Y-63915000D01*
G75*
G02*
X86650000Y-63985000I0J-70000D01*
G01*
X86650000Y-65235000D01*
G75*
G02*
X86580000Y-65305000I-70000J0D01*
G01*
X85580000Y-65305000D01*
G75*
G02*
X85510000Y-65235000I0J70000D01*
G01*
G37*
%TD*%
%TO.C,C316*%
G36*
G01*
X43510000Y-73095000D02*
X43510000Y-71845000D01*
G75*
G02*
X43580000Y-71775000I70000J0D01*
G01*
X44580000Y-71775000D01*
G75*
G02*
X44650000Y-71845000I0J-70000D01*
G01*
X44650000Y-73095000D01*
G75*
G02*
X44580000Y-73165000I-70000J0D01*
G01*
X43580000Y-73165000D01*
G75*
G02*
X43510000Y-73095000I0J70000D01*
G01*
G37*
G36*
G01*
X41510000Y-73095000D02*
X41510000Y-71845000D01*
G75*
G02*
X41580000Y-71775000I70000J0D01*
G01*
X42580000Y-71775000D01*
G75*
G02*
X42650000Y-71845000I0J-70000D01*
G01*
X42650000Y-73095000D01*
G75*
G02*
X42580000Y-73165000I-70000J0D01*
G01*
X41580000Y-73165000D01*
G75*
G02*
X41510000Y-73095000I0J70000D01*
G01*
G37*
%TD*%
%TO.C,C317*%
G36*
G01*
X73520000Y-64675000D02*
X73520000Y-63425000D01*
G75*
G02*
X73590000Y-63355000I70000J0D01*
G01*
X74590000Y-63355000D01*
G75*
G02*
X74660000Y-63425000I0J-70000D01*
G01*
X74660000Y-64675000D01*
G75*
G02*
X74590000Y-64745000I-70000J0D01*
G01*
X73590000Y-64745000D01*
G75*
G02*
X73520000Y-64675000I0J70000D01*
G01*
G37*
G36*
G01*
X75520000Y-64675000D02*
X75520000Y-63425000D01*
G75*
G02*
X75590000Y-63355000I70000J0D01*
G01*
X76590000Y-63355000D01*
G75*
G02*
X76660000Y-63425000I0J-70000D01*
G01*
X76660000Y-64675000D01*
G75*
G02*
X76590000Y-64745000I-70000J0D01*
G01*
X75590000Y-64745000D01*
G75*
G02*
X75520000Y-64675000I0J70000D01*
G01*
G37*
%TD*%
%TO.C,C318*%
G36*
G01*
X38730000Y-68395000D02*
X38730000Y-67145000D01*
G75*
G02*
X38800000Y-67075000I70000J0D01*
G01*
X39800000Y-67075000D01*
G75*
G02*
X39870000Y-67145000I0J-70000D01*
G01*
X39870000Y-68395000D01*
G75*
G02*
X39800000Y-68465000I-70000J0D01*
G01*
X38800000Y-68465000D01*
G75*
G02*
X38730000Y-68395000I0J70000D01*
G01*
G37*
G36*
G01*
X36730000Y-68395000D02*
X36730000Y-67145000D01*
G75*
G02*
X36800000Y-67075000I70000J0D01*
G01*
X37800000Y-67075000D01*
G75*
G02*
X37870000Y-67145000I0J-70000D01*
G01*
X37870000Y-68395000D01*
G75*
G02*
X37800000Y-68465000I-70000J0D01*
G01*
X36800000Y-68465000D01*
G75*
G02*
X36730000Y-68395000I0J70000D01*
G01*
G37*
%TD*%
%TO.C,C319*%
G36*
G01*
X62560000Y-94275000D02*
X62560000Y-95525000D01*
G75*
G02*
X62490000Y-95595000I-70000J0D01*
G01*
X61490000Y-95595000D01*
G75*
G02*
X61420000Y-95525000I0J70000D01*
G01*
X61420000Y-94275000D01*
G75*
G02*
X61490000Y-94205000I70000J0D01*
G01*
X62490000Y-94205000D01*
G75*
G02*
X62560000Y-94275000I0J-70000D01*
G01*
G37*
G36*
G01*
X64560000Y-94275000D02*
X64560000Y-95525000D01*
G75*
G02*
X64490000Y-95595000I-70000J0D01*
G01*
X63490000Y-95595000D01*
G75*
G02*
X63420000Y-95525000I0J70000D01*
G01*
X63420000Y-94275000D01*
G75*
G02*
X63490000Y-94205000I70000J0D01*
G01*
X64490000Y-94205000D01*
G75*
G02*
X64560000Y-94275000I0J-70000D01*
G01*
G37*
%TD*%
%TO.C,C320*%
G36*
G01*
X49930000Y-95535000D02*
X49930000Y-94285000D01*
G75*
G02*
X50000000Y-94215000I70000J0D01*
G01*
X51000000Y-94215000D01*
G75*
G02*
X51070000Y-94285000I0J-70000D01*
G01*
X51070000Y-95535000D01*
G75*
G02*
X51000000Y-95605000I-70000J0D01*
G01*
X50000000Y-95605000D01*
G75*
G02*
X49930000Y-95535000I0J70000D01*
G01*
G37*
G36*
G01*
X47930000Y-95535000D02*
X47930000Y-94285000D01*
G75*
G02*
X48000000Y-94215000I70000J0D01*
G01*
X49000000Y-94215000D01*
G75*
G02*
X49070000Y-94285000I0J-70000D01*
G01*
X49070000Y-95535000D01*
G75*
G02*
X49000000Y-95605000I-70000J0D01*
G01*
X48000000Y-95605000D01*
G75*
G02*
X47930000Y-95535000I0J70000D01*
G01*
G37*
%TD*%
%TO.C,D101*%
G36*
G01*
X34079760Y-65326770D02*
X34079760Y-64775590D01*
G75*
G02*
X34149760Y-64705590I70000J0D01*
G01*
X34449480Y-64705590D01*
G75*
G02*
X34519480Y-64775590I0J-70000D01*
G01*
X34519480Y-65326770D01*
G75*
G02*
X34449480Y-65396770I-70000J0D01*
G01*
X34149760Y-65396770D01*
G75*
G02*
X34079760Y-65326770I0J70000D01*
G01*
G37*
G36*
G01*
X34730140Y-65326770D02*
X34730140Y-64775590D01*
G75*
G02*
X34800140Y-64705590I70000J0D01*
G01*
X35099860Y-64705590D01*
G75*
G02*
X35169860Y-64775590I0J-70000D01*
G01*
X35169860Y-65326770D01*
G75*
G02*
X35099860Y-65396770I-70000J0D01*
G01*
X34800140Y-65396770D01*
G75*
G02*
X34730140Y-65326770I0J70000D01*
G01*
G37*
G36*
G01*
X35380520Y-65326770D02*
X35380520Y-64775590D01*
G75*
G02*
X35450520Y-64705590I70000J0D01*
G01*
X35750240Y-64705590D01*
G75*
G02*
X35820240Y-64775590I0J-70000D01*
G01*
X35820240Y-65326770D01*
G75*
G02*
X35750240Y-65396770I-70000J0D01*
G01*
X35450520Y-65396770D01*
G75*
G02*
X35380520Y-65326770I0J70000D01*
G01*
G37*
G36*
G01*
X35380520Y-66764410D02*
X35380520Y-66213230D01*
G75*
G02*
X35450520Y-66143230I70000J0D01*
G01*
X35750240Y-66143230D01*
G75*
G02*
X35820240Y-66213230I0J-70000D01*
G01*
X35820240Y-66764410D01*
G75*
G02*
X35750240Y-66834410I-70000J0D01*
G01*
X35450520Y-66834410D01*
G75*
G02*
X35380520Y-66764410I0J70000D01*
G01*
G37*
G36*
G01*
X34730140Y-66764410D02*
X34730140Y-66213230D01*
G75*
G02*
X34800140Y-66143230I70000J0D01*
G01*
X35099860Y-66143230D01*
G75*
G02*
X35169860Y-66213230I0J-70000D01*
G01*
X35169860Y-66764410D01*
G75*
G02*
X35099860Y-66834410I-70000J0D01*
G01*
X34800140Y-66834410D01*
G75*
G02*
X34730140Y-66764410I0J70000D01*
G01*
G37*
G36*
G01*
X34079760Y-66764410D02*
X34079760Y-66213230D01*
G75*
G02*
X34149760Y-66143230I70000J0D01*
G01*
X34449480Y-66143230D01*
G75*
G02*
X34519480Y-66213230I0J-70000D01*
G01*
X34519480Y-66764410D01*
G75*
G02*
X34449480Y-66834410I-70000J0D01*
G01*
X34149760Y-66834410D01*
G75*
G02*
X34079760Y-66764410I0J70000D01*
G01*
G37*
%TD*%
%TO.C,D104*%
G36*
G01*
X33340000Y-63925000D02*
X33340000Y-63175000D01*
G75*
G02*
X33410000Y-63105000I70000J0D01*
G01*
X34210000Y-63105000D01*
G75*
G02*
X34280000Y-63175000I0J-70000D01*
G01*
X34280000Y-63925000D01*
G75*
G02*
X34210000Y-63995000I-70000J0D01*
G01*
X33410000Y-63995000D01*
G75*
G02*
X33340000Y-63925000I0J70000D01*
G01*
G37*
G36*
G01*
X34840000Y-63925000D02*
X34840000Y-63175000D01*
G75*
G02*
X34910000Y-63105000I70000J0D01*
G01*
X35710000Y-63105000D01*
G75*
G02*
X35780000Y-63175000I0J-70000D01*
G01*
X35780000Y-63925000D01*
G75*
G02*
X35710000Y-63995000I-70000J0D01*
G01*
X34910000Y-63995000D01*
G75*
G02*
X34840000Y-63925000I0J70000D01*
G01*
G37*
%TD*%
%TO.C,D304*%
G36*
G01*
X49430000Y-85130000D02*
X49430000Y-83830000D01*
G75*
G02*
X49500000Y-83760000I70000J0D01*
G01*
X50200000Y-83760000D01*
G75*
G02*
X50270000Y-83830000I0J-70000D01*
G01*
X50270000Y-85130000D01*
G75*
G02*
X50200000Y-85200000I-70000J0D01*
G01*
X49500000Y-85200000D01*
G75*
G02*
X49430000Y-85130000I0J70000D01*
G01*
G37*
G36*
G01*
X51330000Y-85130000D02*
X51330000Y-83830000D01*
G75*
G02*
X51400000Y-83760000I70000J0D01*
G01*
X52100000Y-83760000D01*
G75*
G02*
X52170000Y-83830000I0J-70000D01*
G01*
X52170000Y-85130000D01*
G75*
G02*
X52100000Y-85200000I-70000J0D01*
G01*
X51400000Y-85200000D01*
G75*
G02*
X51330000Y-85130000I0J70000D01*
G01*
G37*
%TD*%
%TO.C,D305*%
G36*
G01*
X51330000Y-87480000D02*
X51330000Y-86180000D01*
G75*
G02*
X51400000Y-86110000I70000J0D01*
G01*
X52100000Y-86110000D01*
G75*
G02*
X52170000Y-86180000I0J-70000D01*
G01*
X52170000Y-87480000D01*
G75*
G02*
X52100000Y-87550000I-70000J0D01*
G01*
X51400000Y-87550000D01*
G75*
G02*
X51330000Y-87480000I0J70000D01*
G01*
G37*
G36*
G01*
X49430000Y-87480000D02*
X49430000Y-86180000D01*
G75*
G02*
X49500000Y-86110000I70000J0D01*
G01*
X50200000Y-86110000D01*
G75*
G02*
X50270000Y-86180000I0J-70000D01*
G01*
X50270000Y-87480000D01*
G75*
G02*
X50200000Y-87550000I-70000J0D01*
G01*
X49500000Y-87550000D01*
G75*
G02*
X49430000Y-87480000I0J70000D01*
G01*
G37*
%TD*%
%TO.C,D306*%
G36*
G01*
X51610000Y-95470000D02*
X51610000Y-94570000D01*
G75*
G02*
X51680000Y-94500000I70000J0D01*
G01*
X52180000Y-94500000D01*
G75*
G02*
X52250000Y-94570000I0J-70000D01*
G01*
X52250000Y-95470000D01*
G75*
G02*
X52180000Y-95540000I-70000J0D01*
G01*
X51680000Y-95540000D01*
G75*
G02*
X51610000Y-95470000I0J70000D01*
G01*
G37*
G36*
G01*
X53110000Y-95470000D02*
X53110000Y-94570000D01*
G75*
G02*
X53180000Y-94500000I70000J0D01*
G01*
X53680000Y-94500000D01*
G75*
G02*
X53750000Y-94570000I0J-70000D01*
G01*
X53750000Y-95470000D01*
G75*
G02*
X53680000Y-95540000I-70000J0D01*
G01*
X53180000Y-95540000D01*
G75*
G02*
X53110000Y-95470000I0J70000D01*
G01*
G37*
%TD*%
%TO.C,D307*%
G36*
G01*
X55350000Y-94120000D02*
X54450000Y-94120000D01*
G75*
G02*
X54380000Y-94050000I0J70000D01*
G01*
X54380000Y-93550000D01*
G75*
G02*
X54450000Y-93480000I70000J0D01*
G01*
X55350000Y-93480000D01*
G75*
G02*
X55420000Y-93550000I0J-70000D01*
G01*
X55420000Y-94050000D01*
G75*
G02*
X55350000Y-94120000I-70000J0D01*
G01*
G37*
G36*
G01*
X55350000Y-95620000D02*
X54450000Y-95620000D01*
G75*
G02*
X54380000Y-95550000I0J70000D01*
G01*
X54380000Y-95050000D01*
G75*
G02*
X54450000Y-94980000I70000J0D01*
G01*
X55350000Y-94980000D01*
G75*
G02*
X55420000Y-95050000I0J-70000D01*
G01*
X55420000Y-95550000D01*
G75*
G02*
X55350000Y-95620000I-70000J0D01*
G01*
G37*
%TD*%
D24*
%TO.C,J101*%
X31280000Y-65020000D03*
D25*
X24280000Y-77520000D03*
D24*
X28830000Y-62520000D03*
X28830000Y-70020000D03*
X28830000Y-77520000D03*
X31280000Y-75020000D03*
D25*
X24280000Y-62520000D03*
D24*
X19280000Y-72520000D03*
X19280000Y-67520000D03*
%TD*%
%TO.C,J301*%
G36*
G01*
X54325000Y-96230000D02*
X54325000Y-101310000D01*
G75*
G02*
X54255000Y-101380000I-70000J0D01*
G01*
X52477000Y-101380000D01*
G75*
G02*
X52407000Y-101310000I0J70000D01*
G01*
X52407000Y-96230000D01*
G75*
G02*
X52477000Y-96160000I70000J0D01*
G01*
X54255000Y-96160000D01*
G75*
G02*
X54325000Y-96230000I0J-70000D01*
G01*
G37*
G36*
G01*
X57119000Y-96230000D02*
X57119000Y-101310000D01*
G75*
G02*
X57049000Y-101380000I-70000J0D01*
G01*
X55271000Y-101380000D01*
G75*
G02*
X55201000Y-101310000I0J70000D01*
G01*
X55201000Y-96230000D01*
G75*
G02*
X55271000Y-96160000I70000J0D01*
G01*
X57049000Y-96160000D01*
G75*
G02*
X57119000Y-96230000I0J-70000D01*
G01*
G37*
G36*
G01*
X59913000Y-96230000D02*
X59913000Y-101310000D01*
G75*
G02*
X59843000Y-101380000I-70000J0D01*
G01*
X58065000Y-101380000D01*
G75*
G02*
X57995000Y-101310000I0J70000D01*
G01*
X57995000Y-96230000D01*
G75*
G02*
X58065000Y-96160000I70000J0D01*
G01*
X59843000Y-96160000D01*
G75*
G02*
X59913000Y-96230000I0J-70000D01*
G01*
G37*
G36*
G01*
X62707000Y-96230000D02*
X62707000Y-101310000D01*
G75*
G02*
X62637000Y-101380000I-70000J0D01*
G01*
X60859000Y-101380000D01*
G75*
G02*
X60789000Y-101310000I0J70000D01*
G01*
X60789000Y-96230000D01*
G75*
G02*
X60859000Y-96160000I70000J0D01*
G01*
X62637000Y-96160000D01*
G75*
G02*
X62707000Y-96230000I0J-70000D01*
G01*
G37*
G36*
G01*
X51531000Y-96230000D02*
X51531000Y-101310000D01*
G75*
G02*
X51461000Y-101380000I-70000J0D01*
G01*
X49683000Y-101380000D01*
G75*
G02*
X49613000Y-101310000I0J70000D01*
G01*
X49613000Y-96230000D01*
G75*
G02*
X49683000Y-96160000I70000J0D01*
G01*
X51461000Y-96160000D01*
G75*
G02*
X51531000Y-96230000I0J-70000D01*
G01*
G37*
%TD*%
%TO.C,L201*%
G36*
G01*
X83950000Y-103340000D02*
X82650000Y-103340000D01*
G75*
G02*
X82580000Y-103270000I0J70000D01*
G01*
X82580000Y-102570000D01*
G75*
G02*
X82650000Y-102500000I70000J0D01*
G01*
X83950000Y-102500000D01*
G75*
G02*
X84020000Y-102570000I0J-70000D01*
G01*
X84020000Y-103270000D01*
G75*
G02*
X83950000Y-103340000I-70000J0D01*
G01*
G37*
G36*
G01*
X83950000Y-105240000D02*
X82650000Y-105240000D01*
G75*
G02*
X82580000Y-105170000I0J70000D01*
G01*
X82580000Y-104470000D01*
G75*
G02*
X82650000Y-104400000I70000J0D01*
G01*
X83950000Y-104400000D01*
G75*
G02*
X84020000Y-104470000I0J-70000D01*
G01*
X84020000Y-105170000D01*
G75*
G02*
X83950000Y-105240000I-70000J0D01*
G01*
G37*
%TD*%
D21*
%TO.C,L203*%
G36*
X100990410Y-80171313D02*
G01*
X104729590Y-80171313D01*
X104729590Y-82310293D01*
X100990410Y-82310293D01*
X100990410Y-80171313D01*
G37*
G36*
G01*
X101060410Y-72449707D02*
X104659590Y-72449707D01*
G75*
G02*
X104729590Y-72519707I0J-70000D01*
G01*
X104729590Y-74518687D01*
G75*
G02*
X104659590Y-74588687I-70000J0D01*
G01*
X101060410Y-74588687D01*
G75*
G02*
X100990410Y-74518687I0J70000D01*
G01*
X100990410Y-72519707D01*
G75*
G02*
X101060410Y-72449707I70000J0D01*
G01*
G37*
%TD*%
%TO.C,Q301*%
G36*
G01*
X56440050Y-89719190D02*
X56440050Y-90519290D01*
G75*
G02*
X56370050Y-90589290I-70000J0D01*
G01*
X55569950Y-90589290D01*
G75*
G02*
X55499950Y-90519290I0J70000D01*
G01*
X55499950Y-89719190D01*
G75*
G02*
X55569950Y-89649190I70000J0D01*
G01*
X56370050Y-89649190D01*
G75*
G02*
X56440050Y-89719190I0J-70000D01*
G01*
G37*
G36*
G01*
X54540050Y-89719190D02*
X54540050Y-90519290D01*
G75*
G02*
X54470050Y-90589290I-70000J0D01*
G01*
X53669950Y-90589290D01*
G75*
G02*
X53599950Y-90519290I0J70000D01*
G01*
X53599950Y-89719190D01*
G75*
G02*
X53669950Y-89649190I70000J0D01*
G01*
X54470050Y-89649190D01*
G75*
G02*
X54540050Y-89719190I0J-70000D01*
G01*
G37*
G36*
G01*
X55490050Y-91718170D02*
X55490050Y-92518270D01*
G75*
G02*
X55420050Y-92588270I-70000J0D01*
G01*
X54619950Y-92588270D01*
G75*
G02*
X54549950Y-92518270I0J70000D01*
G01*
X54549950Y-91718170D01*
G75*
G02*
X54619950Y-91648170I70000J0D01*
G01*
X55420050Y-91648170D01*
G75*
G02*
X55490050Y-91718170I0J-70000D01*
G01*
G37*
%TD*%
%TO.C,R201*%
G36*
G01*
X98140000Y-82970000D02*
X98140000Y-84270000D01*
G75*
G02*
X98070000Y-84340000I-70000J0D01*
G01*
X97370000Y-84340000D01*
G75*
G02*
X97300000Y-84270000I0J70000D01*
G01*
X97300000Y-82970000D01*
G75*
G02*
X97370000Y-82900000I70000J0D01*
G01*
X98070000Y-82900000D01*
G75*
G02*
X98140000Y-82970000I0J-70000D01*
G01*
G37*
G36*
G01*
X100040000Y-82970000D02*
X100040000Y-84270000D01*
G75*
G02*
X99970000Y-84340000I-70000J0D01*
G01*
X99270000Y-84340000D01*
G75*
G02*
X99200000Y-84270000I0J70000D01*
G01*
X99200000Y-82970000D01*
G75*
G02*
X99270000Y-82900000I70000J0D01*
G01*
X99970000Y-82900000D01*
G75*
G02*
X100040000Y-82970000I0J-70000D01*
G01*
G37*
%TD*%
%TO.C,R202*%
G36*
G01*
X102530000Y-84270000D02*
X102530000Y-82970000D01*
G75*
G02*
X102600000Y-82900000I70000J0D01*
G01*
X103300000Y-82900000D01*
G75*
G02*
X103370000Y-82970000I0J-70000D01*
G01*
X103370000Y-84270000D01*
G75*
G02*
X103300000Y-84340000I-70000J0D01*
G01*
X102600000Y-84340000D01*
G75*
G02*
X102530000Y-84270000I0J70000D01*
G01*
G37*
G36*
G01*
X100630000Y-84270000D02*
X100630000Y-82970000D01*
G75*
G02*
X100700000Y-82900000I70000J0D01*
G01*
X101400000Y-82900000D01*
G75*
G02*
X101470000Y-82970000I0J-70000D01*
G01*
X101470000Y-84270000D01*
G75*
G02*
X101400000Y-84340000I-70000J0D01*
G01*
X100700000Y-84340000D01*
G75*
G02*
X100630000Y-84270000I0J70000D01*
G01*
G37*
%TD*%
%TO.C,R203*%
G36*
G01*
X78750000Y-99350000D02*
X78750000Y-98050000D01*
G75*
G02*
X78820000Y-97980000I70000J0D01*
G01*
X79520000Y-97980000D01*
G75*
G02*
X79590000Y-98050000I0J-70000D01*
G01*
X79590000Y-99350000D01*
G75*
G02*
X79520000Y-99420000I-70000J0D01*
G01*
X78820000Y-99420000D01*
G75*
G02*
X78750000Y-99350000I0J70000D01*
G01*
G37*
G36*
G01*
X80650000Y-99350000D02*
X80650000Y-98050000D01*
G75*
G02*
X80720000Y-97980000I70000J0D01*
G01*
X81420000Y-97980000D01*
G75*
G02*
X81490000Y-98050000I0J-70000D01*
G01*
X81490000Y-99350000D01*
G75*
G02*
X81420000Y-99420000I-70000J0D01*
G01*
X80720000Y-99420000D01*
G75*
G02*
X80650000Y-99350000I0J70000D01*
G01*
G37*
%TD*%
%TO.C,R204*%
G36*
G01*
X75410000Y-99320000D02*
X75410000Y-98020000D01*
G75*
G02*
X75480000Y-97950000I70000J0D01*
G01*
X76180000Y-97950000D01*
G75*
G02*
X76250000Y-98020000I0J-70000D01*
G01*
X76250000Y-99320000D01*
G75*
G02*
X76180000Y-99390000I-70000J0D01*
G01*
X75480000Y-99390000D01*
G75*
G02*
X75410000Y-99320000I0J70000D01*
G01*
G37*
G36*
G01*
X77310000Y-99320000D02*
X77310000Y-98020000D01*
G75*
G02*
X77380000Y-97950000I70000J0D01*
G01*
X78080000Y-97950000D01*
G75*
G02*
X78150000Y-98020000I0J-70000D01*
G01*
X78150000Y-99320000D01*
G75*
G02*
X78080000Y-99390000I-70000J0D01*
G01*
X77380000Y-99390000D01*
G75*
G02*
X77310000Y-99320000I0J70000D01*
G01*
G37*
%TD*%
%TO.C,R205*%
G36*
G01*
X103280000Y-60480000D02*
X103280000Y-59180000D01*
G75*
G02*
X103350000Y-59110000I70000J0D01*
G01*
X104050000Y-59110000D01*
G75*
G02*
X104120000Y-59180000I0J-70000D01*
G01*
X104120000Y-60480000D01*
G75*
G02*
X104050000Y-60550000I-70000J0D01*
G01*
X103350000Y-60550000D01*
G75*
G02*
X103280000Y-60480000I0J70000D01*
G01*
G37*
G36*
G01*
X105180000Y-60480000D02*
X105180000Y-59180000D01*
G75*
G02*
X105250000Y-59110000I70000J0D01*
G01*
X105950000Y-59110000D01*
G75*
G02*
X106020000Y-59180000I0J-70000D01*
G01*
X106020000Y-60480000D01*
G75*
G02*
X105950000Y-60550000I-70000J0D01*
G01*
X105250000Y-60550000D01*
G75*
G02*
X105180000Y-60480000I0J70000D01*
G01*
G37*
%TD*%
%TO.C,R206*%
G36*
G01*
X93950000Y-101290000D02*
X95250000Y-101290000D01*
G75*
G02*
X95320000Y-101360000I0J-70000D01*
G01*
X95320000Y-102060000D01*
G75*
G02*
X95250000Y-102130000I-70000J0D01*
G01*
X93950000Y-102130000D01*
G75*
G02*
X93880000Y-102060000I0J70000D01*
G01*
X93880000Y-101360000D01*
G75*
G02*
X93950000Y-101290000I70000J0D01*
G01*
G37*
G36*
G01*
X93950000Y-103190000D02*
X95250000Y-103190000D01*
G75*
G02*
X95320000Y-103260000I0J-70000D01*
G01*
X95320000Y-103960000D01*
G75*
G02*
X95250000Y-104030000I-70000J0D01*
G01*
X93950000Y-104030000D01*
G75*
G02*
X93880000Y-103960000I0J70000D01*
G01*
X93880000Y-103260000D01*
G75*
G02*
X93950000Y-103190000I70000J0D01*
G01*
G37*
%TD*%
%TO.C,R207*%
G36*
G01*
X89110000Y-101510000D02*
X90410000Y-101510000D01*
G75*
G02*
X90480000Y-101580000I0J-70000D01*
G01*
X90480000Y-102280000D01*
G75*
G02*
X90410000Y-102350000I-70000J0D01*
G01*
X89110000Y-102350000D01*
G75*
G02*
X89040000Y-102280000I0J70000D01*
G01*
X89040000Y-101580000D01*
G75*
G02*
X89110000Y-101510000I70000J0D01*
G01*
G37*
G36*
G01*
X89110000Y-99610000D02*
X90410000Y-99610000D01*
G75*
G02*
X90480000Y-99680000I0J-70000D01*
G01*
X90480000Y-100380000D01*
G75*
G02*
X90410000Y-100450000I-70000J0D01*
G01*
X89110000Y-100450000D01*
G75*
G02*
X89040000Y-100380000I0J70000D01*
G01*
X89040000Y-99680000D01*
G75*
G02*
X89110000Y-99610000I70000J0D01*
G01*
G37*
%TD*%
%TO.C,R208*%
G36*
G01*
X92790000Y-77320000D02*
X92790000Y-76020000D01*
G75*
G02*
X92860000Y-75950000I70000J0D01*
G01*
X93560000Y-75950000D01*
G75*
G02*
X93630000Y-76020000I0J-70000D01*
G01*
X93630000Y-77320000D01*
G75*
G02*
X93560000Y-77390000I-70000J0D01*
G01*
X92860000Y-77390000D01*
G75*
G02*
X92790000Y-77320000I0J70000D01*
G01*
G37*
G36*
G01*
X94690000Y-77320000D02*
X94690000Y-76020000D01*
G75*
G02*
X94760000Y-75950000I70000J0D01*
G01*
X95460000Y-75950000D01*
G75*
G02*
X95530000Y-76020000I0J-70000D01*
G01*
X95530000Y-77320000D01*
G75*
G02*
X95460000Y-77390000I-70000J0D01*
G01*
X94760000Y-77390000D01*
G75*
G02*
X94690000Y-77320000I0J70000D01*
G01*
G37*
%TD*%
%TO.C,R209*%
G36*
G01*
X103260000Y-92070000D02*
X103260000Y-90770000D01*
G75*
G02*
X103330000Y-90700000I70000J0D01*
G01*
X104030000Y-90700000D01*
G75*
G02*
X104100000Y-90770000I0J-70000D01*
G01*
X104100000Y-92070000D01*
G75*
G02*
X104030000Y-92140000I-70000J0D01*
G01*
X103330000Y-92140000D01*
G75*
G02*
X103260000Y-92070000I0J70000D01*
G01*
G37*
G36*
G01*
X101360000Y-92070000D02*
X101360000Y-90770000D01*
G75*
G02*
X101430000Y-90700000I70000J0D01*
G01*
X102130000Y-90700000D01*
G75*
G02*
X102200000Y-90770000I0J-70000D01*
G01*
X102200000Y-92070000D01*
G75*
G02*
X102130000Y-92140000I-70000J0D01*
G01*
X101430000Y-92140000D01*
G75*
G02*
X101360000Y-92070000I0J70000D01*
G01*
G37*
%TD*%
%TO.C,R210*%
G36*
G01*
X88740000Y-74890000D02*
X87440000Y-74890000D01*
G75*
G02*
X87370000Y-74820000I0J70000D01*
G01*
X87370000Y-74120000D01*
G75*
G02*
X87440000Y-74050000I70000J0D01*
G01*
X88740000Y-74050000D01*
G75*
G02*
X88810000Y-74120000I0J-70000D01*
G01*
X88810000Y-74820000D01*
G75*
G02*
X88740000Y-74890000I-70000J0D01*
G01*
G37*
G36*
G01*
X88740000Y-72990000D02*
X87440000Y-72990000D01*
G75*
G02*
X87370000Y-72920000I0J70000D01*
G01*
X87370000Y-72220000D01*
G75*
G02*
X87440000Y-72150000I70000J0D01*
G01*
X88740000Y-72150000D01*
G75*
G02*
X88810000Y-72220000I0J-70000D01*
G01*
X88810000Y-72920000D01*
G75*
G02*
X88740000Y-72990000I-70000J0D01*
G01*
G37*
%TD*%
%TO.C,R211*%
G36*
G01*
X81040000Y-95260000D02*
X81040000Y-96560000D01*
G75*
G02*
X80970000Y-96630000I-70000J0D01*
G01*
X80270000Y-96630000D01*
G75*
G02*
X80200000Y-96560000I0J70000D01*
G01*
X80200000Y-95260000D01*
G75*
G02*
X80270000Y-95190000I70000J0D01*
G01*
X80970000Y-95190000D01*
G75*
G02*
X81040000Y-95260000I0J-70000D01*
G01*
G37*
G36*
G01*
X79140000Y-95260000D02*
X79140000Y-96560000D01*
G75*
G02*
X79070000Y-96630000I-70000J0D01*
G01*
X78370000Y-96630000D01*
G75*
G02*
X78300000Y-96560000I0J70000D01*
G01*
X78300000Y-95260000D01*
G75*
G02*
X78370000Y-95190000I70000J0D01*
G01*
X79070000Y-95190000D01*
G75*
G02*
X79140000Y-95260000I0J-70000D01*
G01*
G37*
%TD*%
%TO.C,R212*%
G36*
G01*
X82440000Y-95240000D02*
X82440000Y-96540000D01*
G75*
G02*
X82370000Y-96610000I-70000J0D01*
G01*
X81670000Y-96610000D01*
G75*
G02*
X81600000Y-96540000I0J70000D01*
G01*
X81600000Y-95240000D01*
G75*
G02*
X81670000Y-95170000I70000J0D01*
G01*
X82370000Y-95170000D01*
G75*
G02*
X82440000Y-95240000I0J-70000D01*
G01*
G37*
G36*
G01*
X84340000Y-95240000D02*
X84340000Y-96540000D01*
G75*
G02*
X84270000Y-96610000I-70000J0D01*
G01*
X83570000Y-96610000D01*
G75*
G02*
X83500000Y-96540000I0J70000D01*
G01*
X83500000Y-95240000D01*
G75*
G02*
X83570000Y-95170000I70000J0D01*
G01*
X84270000Y-95170000D01*
G75*
G02*
X84340000Y-95240000I0J-70000D01*
G01*
G37*
%TD*%
%TO.C,R213*%
G36*
G01*
X108440000Y-60480000D02*
X108440000Y-59180000D01*
G75*
G02*
X108510000Y-59110000I70000J0D01*
G01*
X109210000Y-59110000D01*
G75*
G02*
X109280000Y-59180000I0J-70000D01*
G01*
X109280000Y-60480000D01*
G75*
G02*
X109210000Y-60550000I-70000J0D01*
G01*
X108510000Y-60550000D01*
G75*
G02*
X108440000Y-60480000I0J70000D01*
G01*
G37*
G36*
G01*
X106540000Y-60480000D02*
X106540000Y-59180000D01*
G75*
G02*
X106610000Y-59110000I70000J0D01*
G01*
X107310000Y-59110000D01*
G75*
G02*
X107380000Y-59180000I0J-70000D01*
G01*
X107380000Y-60480000D01*
G75*
G02*
X107310000Y-60550000I-70000J0D01*
G01*
X106610000Y-60550000D01*
G75*
G02*
X106540000Y-60480000I0J70000D01*
G01*
G37*
%TD*%
%TO.C,R214*%
G36*
G01*
X107710000Y-73720000D02*
X107710000Y-75020000D01*
G75*
G02*
X107640000Y-75090000I-70000J0D01*
G01*
X106940000Y-75090000D01*
G75*
G02*
X106870000Y-75020000I0J70000D01*
G01*
X106870000Y-73720000D01*
G75*
G02*
X106940000Y-73650000I70000J0D01*
G01*
X107640000Y-73650000D01*
G75*
G02*
X107710000Y-73720000I0J-70000D01*
G01*
G37*
G36*
G01*
X109610000Y-73720000D02*
X109610000Y-75020000D01*
G75*
G02*
X109540000Y-75090000I-70000J0D01*
G01*
X108840000Y-75090000D01*
G75*
G02*
X108770000Y-75020000I0J70000D01*
G01*
X108770000Y-73720000D01*
G75*
G02*
X108840000Y-73650000I70000J0D01*
G01*
X109540000Y-73650000D01*
G75*
G02*
X109610000Y-73720000I0J-70000D01*
G01*
G37*
%TD*%
%TO.C,R215*%
G36*
G01*
X118800000Y-73400000D02*
X118800000Y-74700000D01*
G75*
G02*
X118730000Y-74770000I-70000J0D01*
G01*
X118030000Y-74770000D01*
G75*
G02*
X117960000Y-74700000I0J70000D01*
G01*
X117960000Y-73400000D01*
G75*
G02*
X118030000Y-73330000I70000J0D01*
G01*
X118730000Y-73330000D01*
G75*
G02*
X118800000Y-73400000I0J-70000D01*
G01*
G37*
G36*
G01*
X116900000Y-73400000D02*
X116900000Y-74700000D01*
G75*
G02*
X116830000Y-74770000I-70000J0D01*
G01*
X116130000Y-74770000D01*
G75*
G02*
X116060000Y-74700000I0J70000D01*
G01*
X116060000Y-73400000D01*
G75*
G02*
X116130000Y-73330000I70000J0D01*
G01*
X116830000Y-73330000D01*
G75*
G02*
X116900000Y-73400000I0J-70000D01*
G01*
G37*
%TD*%
%TO.C,R216*%
G36*
G01*
X116960000Y-71160000D02*
X116960000Y-72460000D01*
G75*
G02*
X116890000Y-72530000I-70000J0D01*
G01*
X116190000Y-72530000D01*
G75*
G02*
X116120000Y-72460000I0J70000D01*
G01*
X116120000Y-71160000D01*
G75*
G02*
X116190000Y-71090000I70000J0D01*
G01*
X116890000Y-71090000D01*
G75*
G02*
X116960000Y-71160000I0J-70000D01*
G01*
G37*
G36*
G01*
X118860000Y-71160000D02*
X118860000Y-72460000D01*
G75*
G02*
X118790000Y-72530000I-70000J0D01*
G01*
X118090000Y-72530000D01*
G75*
G02*
X118020000Y-72460000I0J70000D01*
G01*
X118020000Y-71160000D01*
G75*
G02*
X118090000Y-71090000I70000J0D01*
G01*
X118790000Y-71090000D01*
G75*
G02*
X118860000Y-71160000I0J-70000D01*
G01*
G37*
%TD*%
%TO.C,R217*%
G36*
G01*
X106940000Y-72500000D02*
X106940000Y-71200000D01*
G75*
G02*
X107010000Y-71130000I70000J0D01*
G01*
X107710000Y-71130000D01*
G75*
G02*
X107780000Y-71200000I0J-70000D01*
G01*
X107780000Y-72500000D01*
G75*
G02*
X107710000Y-72570000I-70000J0D01*
G01*
X107010000Y-72570000D01*
G75*
G02*
X106940000Y-72500000I0J70000D01*
G01*
G37*
G36*
G01*
X108840000Y-72500000D02*
X108840000Y-71200000D01*
G75*
G02*
X108910000Y-71130000I70000J0D01*
G01*
X109610000Y-71130000D01*
G75*
G02*
X109680000Y-71200000I0J-70000D01*
G01*
X109680000Y-72500000D01*
G75*
G02*
X109610000Y-72570000I-70000J0D01*
G01*
X108910000Y-72570000D01*
G75*
G02*
X108840000Y-72500000I0J70000D01*
G01*
G37*
%TD*%
%TO.C,R218*%
G36*
G01*
X117290000Y-82700000D02*
X115990000Y-82700000D01*
G75*
G02*
X115920000Y-82630000I0J70000D01*
G01*
X115920000Y-81930000D01*
G75*
G02*
X115990000Y-81860000I70000J0D01*
G01*
X117290000Y-81860000D01*
G75*
G02*
X117360000Y-81930000I0J-70000D01*
G01*
X117360000Y-82630000D01*
G75*
G02*
X117290000Y-82700000I-70000J0D01*
G01*
G37*
G36*
G01*
X117290000Y-80800000D02*
X115990000Y-80800000D01*
G75*
G02*
X115920000Y-80730000I0J70000D01*
G01*
X115920000Y-80030000D01*
G75*
G02*
X115990000Y-79960000I70000J0D01*
G01*
X117290000Y-79960000D01*
G75*
G02*
X117360000Y-80030000I0J-70000D01*
G01*
X117360000Y-80730000D01*
G75*
G02*
X117290000Y-80800000I-70000J0D01*
G01*
G37*
%TD*%
%TO.C,R301*%
G36*
G01*
X55200000Y-85080000D02*
X55200000Y-83780000D01*
G75*
G02*
X55270000Y-83710000I70000J0D01*
G01*
X55970000Y-83710000D01*
G75*
G02*
X56040000Y-83780000I0J-70000D01*
G01*
X56040000Y-85080000D01*
G75*
G02*
X55970000Y-85150000I-70000J0D01*
G01*
X55270000Y-85150000D01*
G75*
G02*
X55200000Y-85080000I0J70000D01*
G01*
G37*
G36*
G01*
X53300000Y-85080000D02*
X53300000Y-83780000D01*
G75*
G02*
X53370000Y-83710000I70000J0D01*
G01*
X54070000Y-83710000D01*
G75*
G02*
X54140000Y-83780000I0J-70000D01*
G01*
X54140000Y-85080000D01*
G75*
G02*
X54070000Y-85150000I-70000J0D01*
G01*
X53370000Y-85150000D01*
G75*
G02*
X53300000Y-85080000I0J70000D01*
G01*
G37*
%TD*%
%TO.C,R302*%
G36*
G01*
X53300000Y-87450000D02*
X53300000Y-86150000D01*
G75*
G02*
X53370000Y-86080000I70000J0D01*
G01*
X54070000Y-86080000D01*
G75*
G02*
X54140000Y-86150000I0J-70000D01*
G01*
X54140000Y-87450000D01*
G75*
G02*
X54070000Y-87520000I-70000J0D01*
G01*
X53370000Y-87520000D01*
G75*
G02*
X53300000Y-87450000I0J70000D01*
G01*
G37*
G36*
G01*
X55200000Y-87450000D02*
X55200000Y-86150000D01*
G75*
G02*
X55270000Y-86080000I70000J0D01*
G01*
X55970000Y-86080000D01*
G75*
G02*
X56040000Y-86150000I0J-70000D01*
G01*
X56040000Y-87450000D01*
G75*
G02*
X55970000Y-87520000I-70000J0D01*
G01*
X55270000Y-87520000D01*
G75*
G02*
X55200000Y-87450000I0J70000D01*
G01*
G37*
%TD*%
%TO.C,R303*%
G36*
G01*
X36730000Y-74290000D02*
X36730000Y-72990000D01*
G75*
G02*
X36800000Y-72920000I70000J0D01*
G01*
X37500000Y-72920000D01*
G75*
G02*
X37570000Y-72990000I0J-70000D01*
G01*
X37570000Y-74290000D01*
G75*
G02*
X37500000Y-74360000I-70000J0D01*
G01*
X36800000Y-74360000D01*
G75*
G02*
X36730000Y-74290000I0J70000D01*
G01*
G37*
G36*
G01*
X34830000Y-74290000D02*
X34830000Y-72990000D01*
G75*
G02*
X34900000Y-72920000I70000J0D01*
G01*
X35600000Y-72920000D01*
G75*
G02*
X35670000Y-72990000I0J-70000D01*
G01*
X35670000Y-74290000D01*
G75*
G02*
X35600000Y-74360000I-70000J0D01*
G01*
X34900000Y-74360000D01*
G75*
G02*
X34830000Y-74290000I0J70000D01*
G01*
G37*
%TD*%
%TO.C,R304*%
G36*
G01*
X62150000Y-66280000D02*
X62150000Y-67580000D01*
G75*
G02*
X62080000Y-67650000I-70000J0D01*
G01*
X61380000Y-67650000D01*
G75*
G02*
X61310000Y-67580000I0J70000D01*
G01*
X61310000Y-66280000D01*
G75*
G02*
X61380000Y-66210000I70000J0D01*
G01*
X62080000Y-66210000D01*
G75*
G02*
X62150000Y-66280000I0J-70000D01*
G01*
G37*
G36*
G01*
X60250000Y-66280000D02*
X60250000Y-67580000D01*
G75*
G02*
X60180000Y-67650000I-70000J0D01*
G01*
X59480000Y-67650000D01*
G75*
G02*
X59410000Y-67580000I0J70000D01*
G01*
X59410000Y-66280000D01*
G75*
G02*
X59480000Y-66210000I70000J0D01*
G01*
X60180000Y-66210000D01*
G75*
G02*
X60250000Y-66280000I0J-70000D01*
G01*
G37*
%TD*%
%TO.C,R305*%
G36*
G01*
X62050000Y-89750000D02*
X62050000Y-88450000D01*
G75*
G02*
X62120000Y-88380000I70000J0D01*
G01*
X62820000Y-88380000D01*
G75*
G02*
X62890000Y-88450000I0J-70000D01*
G01*
X62890000Y-89750000D01*
G75*
G02*
X62820000Y-89820000I-70000J0D01*
G01*
X62120000Y-89820000D01*
G75*
G02*
X62050000Y-89750000I0J70000D01*
G01*
G37*
G36*
G01*
X60150000Y-89750000D02*
X60150000Y-88450000D01*
G75*
G02*
X60220000Y-88380000I70000J0D01*
G01*
X60920000Y-88380000D01*
G75*
G02*
X60990000Y-88450000I0J-70000D01*
G01*
X60990000Y-89750000D01*
G75*
G02*
X60920000Y-89820000I-70000J0D01*
G01*
X60220000Y-89820000D01*
G75*
G02*
X60150000Y-89750000I0J70000D01*
G01*
G37*
%TD*%
%TO.C,R306*%
G36*
G01*
X32060000Y-81510000D02*
X32060000Y-82810000D01*
G75*
G02*
X31990000Y-82880000I-70000J0D01*
G01*
X31290000Y-82880000D01*
G75*
G02*
X31220000Y-82810000I0J70000D01*
G01*
X31220000Y-81510000D01*
G75*
G02*
X31290000Y-81440000I70000J0D01*
G01*
X31990000Y-81440000D01*
G75*
G02*
X32060000Y-81510000I0J-70000D01*
G01*
G37*
G36*
G01*
X30160000Y-81510000D02*
X30160000Y-82810000D01*
G75*
G02*
X30090000Y-82880000I-70000J0D01*
G01*
X29390000Y-82880000D01*
G75*
G02*
X29320000Y-82810000I0J70000D01*
G01*
X29320000Y-81510000D01*
G75*
G02*
X29390000Y-81440000I70000J0D01*
G01*
X30090000Y-81440000D01*
G75*
G02*
X30160000Y-81510000I0J-70000D01*
G01*
G37*
%TD*%
%TO.C,R307*%
G36*
G01*
X21840000Y-82720000D02*
X21840000Y-81420000D01*
G75*
G02*
X21910000Y-81350000I70000J0D01*
G01*
X22610000Y-81350000D01*
G75*
G02*
X22680000Y-81420000I0J-70000D01*
G01*
X22680000Y-82720000D01*
G75*
G02*
X22610000Y-82790000I-70000J0D01*
G01*
X21910000Y-82790000D01*
G75*
G02*
X21840000Y-82720000I0J70000D01*
G01*
G37*
G36*
G01*
X23740000Y-82720000D02*
X23740000Y-81420000D01*
G75*
G02*
X23810000Y-81350000I70000J0D01*
G01*
X24510000Y-81350000D01*
G75*
G02*
X24580000Y-81420000I0J-70000D01*
G01*
X24580000Y-82720000D01*
G75*
G02*
X24510000Y-82790000I-70000J0D01*
G01*
X23810000Y-82790000D01*
G75*
G02*
X23740000Y-82720000I0J70000D01*
G01*
G37*
%TD*%
%TO.C,R308*%
G36*
G01*
X71660000Y-89710000D02*
X72960000Y-89710000D01*
G75*
G02*
X73030000Y-89780000I0J-70000D01*
G01*
X73030000Y-90480000D01*
G75*
G02*
X72960000Y-90550000I-70000J0D01*
G01*
X71660000Y-90550000D01*
G75*
G02*
X71590000Y-90480000I0J70000D01*
G01*
X71590000Y-89780000D01*
G75*
G02*
X71660000Y-89710000I70000J0D01*
G01*
G37*
G36*
G01*
X71660000Y-91610000D02*
X72960000Y-91610000D01*
G75*
G02*
X73030000Y-91680000I0J-70000D01*
G01*
X73030000Y-92380000D01*
G75*
G02*
X72960000Y-92450000I-70000J0D01*
G01*
X71660000Y-92450000D01*
G75*
G02*
X71590000Y-92380000I0J70000D01*
G01*
X71590000Y-91680000D01*
G75*
G02*
X71660000Y-91610000I70000J0D01*
G01*
G37*
%TD*%
%TO.C,R309*%
G36*
G01*
X62450000Y-92480000D02*
X63750000Y-92480000D01*
G75*
G02*
X63820000Y-92550000I0J-70000D01*
G01*
X63820000Y-93250000D01*
G75*
G02*
X63750000Y-93320000I-70000J0D01*
G01*
X62450000Y-93320000D01*
G75*
G02*
X62380000Y-93250000I0J70000D01*
G01*
X62380000Y-92550000D01*
G75*
G02*
X62450000Y-92480000I70000J0D01*
G01*
G37*
G36*
G01*
X62450000Y-90580000D02*
X63750000Y-90580000D01*
G75*
G02*
X63820000Y-90650000I0J-70000D01*
G01*
X63820000Y-91350000D01*
G75*
G02*
X63750000Y-91420000I-70000J0D01*
G01*
X62450000Y-91420000D01*
G75*
G02*
X62380000Y-91350000I0J70000D01*
G01*
X62380000Y-90650000D01*
G75*
G02*
X62450000Y-90580000I70000J0D01*
G01*
G37*
%TD*%
%TO.C,R310*%
G36*
G01*
X88100000Y-67580000D02*
X88100000Y-68880000D01*
G75*
G02*
X88030000Y-68950000I-70000J0D01*
G01*
X87330000Y-68950000D01*
G75*
G02*
X87260000Y-68880000I0J70000D01*
G01*
X87260000Y-67580000D01*
G75*
G02*
X87330000Y-67510000I70000J0D01*
G01*
X88030000Y-67510000D01*
G75*
G02*
X88100000Y-67580000I0J-70000D01*
G01*
G37*
G36*
G01*
X90000000Y-67580000D02*
X90000000Y-68880000D01*
G75*
G02*
X89930000Y-68950000I-70000J0D01*
G01*
X89230000Y-68950000D01*
G75*
G02*
X89160000Y-68880000I0J70000D01*
G01*
X89160000Y-67580000D01*
G75*
G02*
X89230000Y-67510000I70000J0D01*
G01*
X89930000Y-67510000D01*
G75*
G02*
X90000000Y-67580000I0J-70000D01*
G01*
G37*
%TD*%
%TO.C,R311*%
G36*
G01*
X57790000Y-87260000D02*
X57790000Y-85960000D01*
G75*
G02*
X57860000Y-85890000I70000J0D01*
G01*
X58560000Y-85890000D01*
G75*
G02*
X58630000Y-85960000I0J-70000D01*
G01*
X58630000Y-87260000D01*
G75*
G02*
X58560000Y-87330000I-70000J0D01*
G01*
X57860000Y-87330000D01*
G75*
G02*
X57790000Y-87260000I0J70000D01*
G01*
G37*
G36*
G01*
X59690000Y-87260000D02*
X59690000Y-85960000D01*
G75*
G02*
X59760000Y-85890000I70000J0D01*
G01*
X60460000Y-85890000D01*
G75*
G02*
X60530000Y-85960000I0J-70000D01*
G01*
X60530000Y-87260000D01*
G75*
G02*
X60460000Y-87330000I-70000J0D01*
G01*
X59760000Y-87330000D01*
G75*
G02*
X59690000Y-87260000I0J70000D01*
G01*
G37*
%TD*%
%TO.C,R312*%
G36*
G01*
X46370000Y-93470000D02*
X46370000Y-92170000D01*
G75*
G02*
X46440000Y-92100000I70000J0D01*
G01*
X47140000Y-92100000D01*
G75*
G02*
X47210000Y-92170000I0J-70000D01*
G01*
X47210000Y-93470000D01*
G75*
G02*
X47140000Y-93540000I-70000J0D01*
G01*
X46440000Y-93540000D01*
G75*
G02*
X46370000Y-93470000I0J70000D01*
G01*
G37*
G36*
G01*
X44470000Y-93470000D02*
X44470000Y-92170000D01*
G75*
G02*
X44540000Y-92100000I70000J0D01*
G01*
X45240000Y-92100000D01*
G75*
G02*
X45310000Y-92170000I0J-70000D01*
G01*
X45310000Y-93470000D01*
G75*
G02*
X45240000Y-93540000I-70000J0D01*
G01*
X44540000Y-93540000D01*
G75*
G02*
X44470000Y-93470000I0J70000D01*
G01*
G37*
%TD*%
%TO.C,R313*%
G36*
G01*
X45330000Y-94290000D02*
X45330000Y-95590000D01*
G75*
G02*
X45260000Y-95660000I-70000J0D01*
G01*
X44560000Y-95660000D01*
G75*
G02*
X44490000Y-95590000I0J70000D01*
G01*
X44490000Y-94290000D01*
G75*
G02*
X44560000Y-94220000I70000J0D01*
G01*
X45260000Y-94220000D01*
G75*
G02*
X45330000Y-94290000I0J-70000D01*
G01*
G37*
G36*
G01*
X47230000Y-94290000D02*
X47230000Y-95590000D01*
G75*
G02*
X47160000Y-95660000I-70000J0D01*
G01*
X46460000Y-95660000D01*
G75*
G02*
X46390000Y-95590000I0J70000D01*
G01*
X46390000Y-94290000D01*
G75*
G02*
X46460000Y-94220000I70000J0D01*
G01*
X47160000Y-94220000D01*
G75*
G02*
X47230000Y-94290000I0J-70000D01*
G01*
G37*
%TD*%
%TO.C,SJ301*%
G36*
X66807667Y-90784570D02*
G01*
X64612333Y-90784570D01*
X65158965Y-89143430D01*
X66261035Y-89143430D01*
X66807667Y-90784570D01*
G37*
G36*
X64601363Y-90964000D02*
G01*
X66818637Y-90964000D01*
X66272705Y-92628000D01*
X65147295Y-92628000D01*
X64601363Y-90964000D01*
G37*
%TD*%
%TO.C,SW301*%
G36*
G01*
X46115000Y-84170000D02*
X46115000Y-82870000D01*
G75*
G02*
X46185000Y-82800000I70000J0D01*
G01*
X47935000Y-82800000D01*
G75*
G02*
X48005000Y-82870000I0J-70000D01*
G01*
X48005000Y-84170000D01*
G75*
G02*
X47935000Y-84240000I-70000J0D01*
G01*
X46185000Y-84240000D01*
G75*
G02*
X46115000Y-84170000I0J70000D01*
G01*
G37*
G36*
G01*
X38315000Y-84170000D02*
X38315000Y-82870000D01*
G75*
G02*
X38385000Y-82800000I70000J0D01*
G01*
X40135000Y-82800000D01*
G75*
G02*
X40205000Y-82870000I0J-70000D01*
G01*
X40205000Y-84170000D01*
G75*
G02*
X40135000Y-84240000I-70000J0D01*
G01*
X38385000Y-84240000D01*
G75*
G02*
X38315000Y-84170000I0J70000D01*
G01*
G37*
G36*
G01*
X38315000Y-88670000D02*
X38315000Y-87370000D01*
G75*
G02*
X38385000Y-87300000I70000J0D01*
G01*
X40135000Y-87300000D01*
G75*
G02*
X40205000Y-87370000I0J-70000D01*
G01*
X40205000Y-88670000D01*
G75*
G02*
X40135000Y-88740000I-70000J0D01*
G01*
X38385000Y-88740000D01*
G75*
G02*
X38315000Y-88670000I0J70000D01*
G01*
G37*
G36*
G01*
X46115000Y-88670000D02*
X46115000Y-87370000D01*
G75*
G02*
X46185000Y-87300000I70000J0D01*
G01*
X47935000Y-87300000D01*
G75*
G02*
X48005000Y-87370000I0J-70000D01*
G01*
X48005000Y-88670000D01*
G75*
G02*
X47935000Y-88740000I-70000J0D01*
G01*
X46185000Y-88740000D01*
G75*
G02*
X46115000Y-88670000I0J70000D01*
G01*
G37*
%TD*%
%TO.C,TP302*%
G36*
G01*
X52934000Y-63923600D02*
X52934000Y-62196400D01*
G75*
G02*
X53004000Y-62126400I70000J0D01*
G01*
X55036000Y-62126400D01*
G75*
G02*
X55106000Y-62196400I0J-70000D01*
G01*
X55106000Y-63923600D01*
G75*
G02*
X55036000Y-63993600I-70000J0D01*
G01*
X53004000Y-63993600D01*
G75*
G02*
X52934000Y-63923600I0J70000D01*
G01*
G37*
D17*
X54020000Y-65600000D03*
X54020000Y-68140000D03*
X54020000Y-70680000D03*
%TD*%
%TO.C,U107*%
G36*
G01*
X47440000Y-53810000D02*
X48040000Y-53810000D01*
G75*
G02*
X48100000Y-53870000I0J-60000D01*
G01*
X48100000Y-54970000D01*
G75*
G02*
X48040000Y-55030000I-60000J0D01*
G01*
X47440000Y-55030000D01*
G75*
G02*
X47380000Y-54970000I0J60000D01*
G01*
X47380000Y-53870000D01*
G75*
G02*
X47440000Y-53810000I60000J0D01*
G01*
G37*
G36*
G01*
X46490000Y-53810000D02*
X47090000Y-53810000D01*
G75*
G02*
X47150000Y-53870000I0J-60000D01*
G01*
X47150000Y-54970000D01*
G75*
G02*
X47090000Y-55030000I-60000J0D01*
G01*
X46490000Y-55030000D01*
G75*
G02*
X46430000Y-54970000I0J60000D01*
G01*
X46430000Y-53870000D01*
G75*
G02*
X46490000Y-53810000I60000J0D01*
G01*
G37*
G36*
G01*
X45540000Y-53810000D02*
X46140000Y-53810000D01*
G75*
G02*
X46200000Y-53870000I0J-60000D01*
G01*
X46200000Y-54970000D01*
G75*
G02*
X46140000Y-55030000I-60000J0D01*
G01*
X45540000Y-55030000D01*
G75*
G02*
X45480000Y-54970000I0J60000D01*
G01*
X45480000Y-53870000D01*
G75*
G02*
X45540000Y-53810000I60000J0D01*
G01*
G37*
G36*
G01*
X45540000Y-56410000D02*
X46140000Y-56410000D01*
G75*
G02*
X46200000Y-56470000I0J-60000D01*
G01*
X46200000Y-57570000D01*
G75*
G02*
X46140000Y-57630000I-60000J0D01*
G01*
X45540000Y-57630000D01*
G75*
G02*
X45480000Y-57570000I0J60000D01*
G01*
X45480000Y-56470000D01*
G75*
G02*
X45540000Y-56410000I60000J0D01*
G01*
G37*
G36*
G01*
X47440000Y-56410000D02*
X48040000Y-56410000D01*
G75*
G02*
X48100000Y-56470000I0J-60000D01*
G01*
X48100000Y-57570000D01*
G75*
G02*
X48040000Y-57630000I-60000J0D01*
G01*
X47440000Y-57630000D01*
G75*
G02*
X47380000Y-57570000I0J60000D01*
G01*
X47380000Y-56470000D01*
G75*
G02*
X47440000Y-56410000I60000J0D01*
G01*
G37*
G36*
G01*
X46490000Y-56410000D02*
X47090000Y-56410000D01*
G75*
G02*
X47150000Y-56470000I0J-60000D01*
G01*
X47150000Y-57570000D01*
G75*
G02*
X47090000Y-57630000I-60000J0D01*
G01*
X46490000Y-57630000D01*
G75*
G02*
X46430000Y-57570000I0J60000D01*
G01*
X46430000Y-56470000D01*
G75*
G02*
X46490000Y-56410000I60000J0D01*
G01*
G37*
%TD*%
%TO.C,U202*%
G36*
G01*
X91280000Y-98545000D02*
X91280000Y-97895000D01*
G75*
G02*
X91340000Y-97835000I60000J0D01*
G01*
X92440000Y-97835000D01*
G75*
G02*
X92500000Y-97895000I0J-60000D01*
G01*
X92500000Y-98545000D01*
G75*
G02*
X92440000Y-98605000I-60000J0D01*
G01*
X91340000Y-98605000D01*
G75*
G02*
X91280000Y-98545000I0J60000D01*
G01*
G37*
G36*
G01*
X91280000Y-99495000D02*
X91280000Y-98845000D01*
G75*
G02*
X91340000Y-98785000I60000J0D01*
G01*
X92440000Y-98785000D01*
G75*
G02*
X92500000Y-98845000I0J-60000D01*
G01*
X92500000Y-99495000D01*
G75*
G02*
X92440000Y-99555000I-60000J0D01*
G01*
X91340000Y-99555000D01*
G75*
G02*
X91280000Y-99495000I0J60000D01*
G01*
G37*
G36*
G01*
X91280000Y-100445000D02*
X91280000Y-99795000D01*
G75*
G02*
X91340000Y-99735000I60000J0D01*
G01*
X92440000Y-99735000D01*
G75*
G02*
X92500000Y-99795000I0J-60000D01*
G01*
X92500000Y-100445000D01*
G75*
G02*
X92440000Y-100505000I-60000J0D01*
G01*
X91340000Y-100505000D01*
G75*
G02*
X91280000Y-100445000I0J60000D01*
G01*
G37*
G36*
G01*
X94080000Y-100445000D02*
X94080000Y-99795000D01*
G75*
G02*
X94140000Y-99735000I60000J0D01*
G01*
X95240000Y-99735000D01*
G75*
G02*
X95300000Y-99795000I0J-60000D01*
G01*
X95300000Y-100445000D01*
G75*
G02*
X95240000Y-100505000I-60000J0D01*
G01*
X94140000Y-100505000D01*
G75*
G02*
X94080000Y-100445000I0J60000D01*
G01*
G37*
G36*
G01*
X94080000Y-98545000D02*
X94080000Y-97895000D01*
G75*
G02*
X94140000Y-97835000I60000J0D01*
G01*
X95240000Y-97835000D01*
G75*
G02*
X95300000Y-97895000I0J-60000D01*
G01*
X95300000Y-98545000D01*
G75*
G02*
X95240000Y-98605000I-60000J0D01*
G01*
X94140000Y-98605000D01*
G75*
G02*
X94080000Y-98545000I0J60000D01*
G01*
G37*
%TD*%
%TO.C,U303*%
G36*
G01*
X38770000Y-70185000D02*
X38770000Y-69535000D01*
G75*
G02*
X38840000Y-69465000I70000J0D01*
G01*
X39900000Y-69465000D01*
G75*
G02*
X39970000Y-69535000I0J-70000D01*
G01*
X39970000Y-70185000D01*
G75*
G02*
X39900000Y-70255000I-70000J0D01*
G01*
X38840000Y-70255000D01*
G75*
G02*
X38770000Y-70185000I0J70000D01*
G01*
G37*
G36*
G01*
X38770000Y-72085000D02*
X38770000Y-71435000D01*
G75*
G02*
X38840000Y-71365000I70000J0D01*
G01*
X39900000Y-71365000D01*
G75*
G02*
X39970000Y-71435000I0J-70000D01*
G01*
X39970000Y-72085000D01*
G75*
G02*
X39900000Y-72155000I-70000J0D01*
G01*
X38840000Y-72155000D01*
G75*
G02*
X38770000Y-72085000I0J70000D01*
G01*
G37*
G36*
G01*
X36570000Y-72085000D02*
X36570000Y-71435000D01*
G75*
G02*
X36640000Y-71365000I70000J0D01*
G01*
X37700000Y-71365000D01*
G75*
G02*
X37770000Y-71435000I0J-70000D01*
G01*
X37770000Y-72085000D01*
G75*
G02*
X37700000Y-72155000I-70000J0D01*
G01*
X36640000Y-72155000D01*
G75*
G02*
X36570000Y-72085000I0J70000D01*
G01*
G37*
G36*
G01*
X36570000Y-71135000D02*
X36570000Y-70485000D01*
G75*
G02*
X36640000Y-70415000I70000J0D01*
G01*
X37700000Y-70415000D01*
G75*
G02*
X37770000Y-70485000I0J-70000D01*
G01*
X37770000Y-71135000D01*
G75*
G02*
X37700000Y-71205000I-70000J0D01*
G01*
X36640000Y-71205000D01*
G75*
G02*
X36570000Y-71135000I0J70000D01*
G01*
G37*
G36*
G01*
X36570000Y-70185000D02*
X36570000Y-69535000D01*
G75*
G02*
X36640000Y-69465000I70000J0D01*
G01*
X37700000Y-69465000D01*
G75*
G02*
X37770000Y-69535000I0J-70000D01*
G01*
X37770000Y-70185000D01*
G75*
G02*
X37700000Y-70255000I-70000J0D01*
G01*
X36640000Y-70255000D01*
G75*
G02*
X36570000Y-70185000I0J70000D01*
G01*
G37*
%TD*%
%TO.C,U305*%
G36*
G01*
X77400000Y-46115000D02*
X77400000Y-45465000D01*
G75*
G02*
X77460000Y-45405000I60000J0D01*
G01*
X78520000Y-45405000D01*
G75*
G02*
X78580000Y-45465000I0J-60000D01*
G01*
X78580000Y-46115000D01*
G75*
G02*
X78520000Y-46175000I-60000J0D01*
G01*
X77460000Y-46175000D01*
G75*
G02*
X77400000Y-46115000I0J60000D01*
G01*
G37*
G36*
G01*
X77400000Y-47065000D02*
X77400000Y-46415000D01*
G75*
G02*
X77460000Y-46355000I60000J0D01*
G01*
X78520000Y-46355000D01*
G75*
G02*
X78580000Y-46415000I0J-60000D01*
G01*
X78580000Y-47065000D01*
G75*
G02*
X78520000Y-47125000I-60000J0D01*
G01*
X77460000Y-47125000D01*
G75*
G02*
X77400000Y-47065000I0J60000D01*
G01*
G37*
G36*
G01*
X77400000Y-48015000D02*
X77400000Y-47365000D01*
G75*
G02*
X77460000Y-47305000I60000J0D01*
G01*
X78520000Y-47305000D01*
G75*
G02*
X78580000Y-47365000I0J-60000D01*
G01*
X78580000Y-48015000D01*
G75*
G02*
X78520000Y-48075000I-60000J0D01*
G01*
X77460000Y-48075000D01*
G75*
G02*
X77400000Y-48015000I0J60000D01*
G01*
G37*
G36*
G01*
X79600000Y-48015000D02*
X79600000Y-47365000D01*
G75*
G02*
X79660000Y-47305000I60000J0D01*
G01*
X80720000Y-47305000D01*
G75*
G02*
X80780000Y-47365000I0J-60000D01*
G01*
X80780000Y-48015000D01*
G75*
G02*
X80720000Y-48075000I-60000J0D01*
G01*
X79660000Y-48075000D01*
G75*
G02*
X79600000Y-48015000I0J60000D01*
G01*
G37*
G36*
G01*
X79600000Y-46115000D02*
X79600000Y-45465000D01*
G75*
G02*
X79660000Y-45405000I60000J0D01*
G01*
X80720000Y-45405000D01*
G75*
G02*
X80780000Y-45465000I0J-60000D01*
G01*
X80780000Y-46115000D01*
G75*
G02*
X80720000Y-46175000I-60000J0D01*
G01*
X79660000Y-46175000D01*
G75*
G02*
X79600000Y-46115000I0J60000D01*
G01*
G37*
%TD*%
%TO.C,U306*%
G36*
G01*
X91410000Y-64905000D02*
X91410000Y-64255000D01*
G75*
G02*
X91470000Y-64195000I60000J0D01*
G01*
X92530000Y-64195000D01*
G75*
G02*
X92590000Y-64255000I0J-60000D01*
G01*
X92590000Y-64905000D01*
G75*
G02*
X92530000Y-64965000I-60000J0D01*
G01*
X91470000Y-64965000D01*
G75*
G02*
X91410000Y-64905000I0J60000D01*
G01*
G37*
G36*
G01*
X91410000Y-66805000D02*
X91410000Y-66155000D01*
G75*
G02*
X91470000Y-66095000I60000J0D01*
G01*
X92530000Y-66095000D01*
G75*
G02*
X92590000Y-66155000I0J-60000D01*
G01*
X92590000Y-66805000D01*
G75*
G02*
X92530000Y-66865000I-60000J0D01*
G01*
X91470000Y-66865000D01*
G75*
G02*
X91410000Y-66805000I0J60000D01*
G01*
G37*
G36*
G01*
X89210000Y-66805000D02*
X89210000Y-66155000D01*
G75*
G02*
X89270000Y-66095000I60000J0D01*
G01*
X90330000Y-66095000D01*
G75*
G02*
X90390000Y-66155000I0J-60000D01*
G01*
X90390000Y-66805000D01*
G75*
G02*
X90330000Y-66865000I-60000J0D01*
G01*
X89270000Y-66865000D01*
G75*
G02*
X89210000Y-66805000I0J60000D01*
G01*
G37*
G36*
G01*
X89210000Y-65855000D02*
X89210000Y-65205000D01*
G75*
G02*
X89270000Y-65145000I60000J0D01*
G01*
X90330000Y-65145000D01*
G75*
G02*
X90390000Y-65205000I0J-60000D01*
G01*
X90390000Y-65855000D01*
G75*
G02*
X90330000Y-65915000I-60000J0D01*
G01*
X89270000Y-65915000D01*
G75*
G02*
X89210000Y-65855000I0J60000D01*
G01*
G37*
G36*
G01*
X89210000Y-64905000D02*
X89210000Y-64255000D01*
G75*
G02*
X89270000Y-64195000I60000J0D01*
G01*
X90330000Y-64195000D01*
G75*
G02*
X90390000Y-64255000I0J-60000D01*
G01*
X90390000Y-64905000D01*
G75*
G02*
X90330000Y-64965000I-60000J0D01*
G01*
X89270000Y-64965000D01*
G75*
G02*
X89210000Y-64905000I0J60000D01*
G01*
G37*
%TD*%
%TO.C,U307*%
G36*
G01*
X44125000Y-79210000D02*
X43725000Y-79210000D01*
G75*
G02*
X43665000Y-79150000I0J60000D01*
G01*
X43665000Y-78050000D01*
G75*
G02*
X43725000Y-77990000I60000J0D01*
G01*
X44125000Y-77990000D01*
G75*
G02*
X44185000Y-78050000I0J-60000D01*
G01*
X44185000Y-79150000D01*
G75*
G02*
X44125000Y-79210000I-60000J0D01*
G01*
G37*
G36*
G01*
X44775000Y-79210000D02*
X44375000Y-79210000D01*
G75*
G02*
X44315000Y-79150000I0J60000D01*
G01*
X44315000Y-78050000D01*
G75*
G02*
X44375000Y-77990000I60000J0D01*
G01*
X44775000Y-77990000D01*
G75*
G02*
X44835000Y-78050000I0J-60000D01*
G01*
X44835000Y-79150000D01*
G75*
G02*
X44775000Y-79210000I-60000J0D01*
G01*
G37*
G36*
G01*
X45425000Y-79210000D02*
X45025000Y-79210000D01*
G75*
G02*
X44965000Y-79150000I0J60000D01*
G01*
X44965000Y-78050000D01*
G75*
G02*
X45025000Y-77990000I60000J0D01*
G01*
X45425000Y-77990000D01*
G75*
G02*
X45485000Y-78050000I0J-60000D01*
G01*
X45485000Y-79150000D01*
G75*
G02*
X45425000Y-79210000I-60000J0D01*
G01*
G37*
G36*
G01*
X46075000Y-79210000D02*
X45675000Y-79210000D01*
G75*
G02*
X45615000Y-79150000I0J60000D01*
G01*
X45615000Y-78050000D01*
G75*
G02*
X45675000Y-77990000I60000J0D01*
G01*
X46075000Y-77990000D01*
G75*
G02*
X46135000Y-78050000I0J-60000D01*
G01*
X46135000Y-79150000D01*
G75*
G02*
X46075000Y-79210000I-60000J0D01*
G01*
G37*
G36*
G01*
X46075000Y-74910000D02*
X45675000Y-74910000D01*
G75*
G02*
X45615000Y-74850000I0J60000D01*
G01*
X45615000Y-73750000D01*
G75*
G02*
X45675000Y-73690000I60000J0D01*
G01*
X46075000Y-73690000D01*
G75*
G02*
X46135000Y-73750000I0J-60000D01*
G01*
X46135000Y-74850000D01*
G75*
G02*
X46075000Y-74910000I-60000J0D01*
G01*
G37*
G36*
G01*
X45425000Y-74910000D02*
X45025000Y-74910000D01*
G75*
G02*
X44965000Y-74850000I0J60000D01*
G01*
X44965000Y-73750000D01*
G75*
G02*
X45025000Y-73690000I60000J0D01*
G01*
X45425000Y-73690000D01*
G75*
G02*
X45485000Y-73750000I0J-60000D01*
G01*
X45485000Y-74850000D01*
G75*
G02*
X45425000Y-74910000I-60000J0D01*
G01*
G37*
G36*
G01*
X44775000Y-74910000D02*
X44375000Y-74910000D01*
G75*
G02*
X44315000Y-74850000I0J60000D01*
G01*
X44315000Y-73750000D01*
G75*
G02*
X44375000Y-73690000I60000J0D01*
G01*
X44775000Y-73690000D01*
G75*
G02*
X44835000Y-73750000I0J-60000D01*
G01*
X44835000Y-74850000D01*
G75*
G02*
X44775000Y-74910000I-60000J0D01*
G01*
G37*
G36*
G01*
X44125000Y-74910000D02*
X43725000Y-74910000D01*
G75*
G02*
X43665000Y-74850000I0J60000D01*
G01*
X43665000Y-73750000D01*
G75*
G02*
X43725000Y-73690000I60000J0D01*
G01*
X44125000Y-73690000D01*
G75*
G02*
X44185000Y-73750000I0J-60000D01*
G01*
X44185000Y-74850000D01*
G75*
G02*
X44125000Y-74910000I-60000J0D01*
G01*
G37*
%TD*%
%TO.C,U308*%
G36*
G01*
X76595000Y-68630000D02*
X75945000Y-68630000D01*
G75*
G02*
X75885000Y-68570000I0J60000D01*
G01*
X75885000Y-67510000D01*
G75*
G02*
X75945000Y-67450000I60000J0D01*
G01*
X76595000Y-67450000D01*
G75*
G02*
X76655000Y-67510000I0J-60000D01*
G01*
X76655000Y-68570000D01*
G75*
G02*
X76595000Y-68630000I-60000J0D01*
G01*
G37*
G36*
G01*
X77545000Y-68630000D02*
X76895000Y-68630000D01*
G75*
G02*
X76835000Y-68570000I0J60000D01*
G01*
X76835000Y-67510000D01*
G75*
G02*
X76895000Y-67450000I60000J0D01*
G01*
X77545000Y-67450000D01*
G75*
G02*
X77605000Y-67510000I0J-60000D01*
G01*
X77605000Y-68570000D01*
G75*
G02*
X77545000Y-68630000I-60000J0D01*
G01*
G37*
G36*
G01*
X78495000Y-68630000D02*
X77845000Y-68630000D01*
G75*
G02*
X77785000Y-68570000I0J60000D01*
G01*
X77785000Y-67510000D01*
G75*
G02*
X77845000Y-67450000I60000J0D01*
G01*
X78495000Y-67450000D01*
G75*
G02*
X78555000Y-67510000I0J-60000D01*
G01*
X78555000Y-68570000D01*
G75*
G02*
X78495000Y-68630000I-60000J0D01*
G01*
G37*
G36*
G01*
X78495000Y-66430000D02*
X77845000Y-66430000D01*
G75*
G02*
X77785000Y-66370000I0J60000D01*
G01*
X77785000Y-65310000D01*
G75*
G02*
X77845000Y-65250000I60000J0D01*
G01*
X78495000Y-65250000D01*
G75*
G02*
X78555000Y-65310000I0J-60000D01*
G01*
X78555000Y-66370000D01*
G75*
G02*
X78495000Y-66430000I-60000J0D01*
G01*
G37*
G36*
G01*
X76595000Y-66430000D02*
X75945000Y-66430000D01*
G75*
G02*
X75885000Y-66370000I0J60000D01*
G01*
X75885000Y-65310000D01*
G75*
G02*
X75945000Y-65250000I60000J0D01*
G01*
X76595000Y-65250000D01*
G75*
G02*
X76655000Y-65310000I0J-60000D01*
G01*
X76655000Y-66370000D01*
G75*
G02*
X76595000Y-66430000I-60000J0D01*
G01*
G37*
%TD*%
%TO.C,Y301*%
G36*
G01*
X63970000Y-66670000D02*
X63970000Y-68570000D01*
G75*
G02*
X63900000Y-68640000I-70000J0D01*
G01*
X63500000Y-68640000D01*
G75*
G02*
X63430000Y-68570000I0J70000D01*
G01*
X63430000Y-66670000D01*
G75*
G02*
X63500000Y-66600000I70000J0D01*
G01*
X63900000Y-66600000D01*
G75*
G02*
X63970000Y-66670000I0J-70000D01*
G01*
G37*
G36*
G01*
X65170000Y-66670000D02*
X65170000Y-68570000D01*
G75*
G02*
X65100000Y-68640000I-70000J0D01*
G01*
X64700000Y-68640000D01*
G75*
G02*
X64630000Y-68570000I0J70000D01*
G01*
X64630000Y-66670000D01*
G75*
G02*
X64700000Y-66600000I70000J0D01*
G01*
X65100000Y-66600000D01*
G75*
G02*
X65170000Y-66670000I0J-70000D01*
G01*
G37*
G36*
G01*
X66370000Y-66670000D02*
X66370000Y-68570000D01*
G75*
G02*
X66300000Y-68640000I-70000J0D01*
G01*
X65900000Y-68640000D01*
G75*
G02*
X65830000Y-68570000I0J70000D01*
G01*
X65830000Y-66670000D01*
G75*
G02*
X65900000Y-66600000I70000J0D01*
G01*
X66300000Y-66600000D01*
G75*
G02*
X66370000Y-66670000I0J-70000D01*
G01*
G37*
%TD*%
%TO.C,P304*%
G36*
G01*
X107834000Y-42953600D02*
X107834000Y-41226400D01*
G75*
G02*
X107904000Y-41156400I70000J0D01*
G01*
X109936000Y-41156400D01*
G75*
G02*
X110006000Y-41226400I0J-70000D01*
G01*
X110006000Y-42953600D01*
G75*
G02*
X109936000Y-43023600I-70000J0D01*
G01*
X107904000Y-43023600D01*
G75*
G02*
X107834000Y-42953600I0J70000D01*
G01*
G37*
X108920000Y-44630000D03*
X108920000Y-47170000D03*
X108920000Y-49710000D03*
X108920000Y-52250000D03*
X108920000Y-54790000D03*
%TD*%
%TO.C,J303*%
G36*
G01*
X122120000Y-40515000D02*
X127200000Y-40515000D01*
G75*
G02*
X127270000Y-40585000I0J-70000D01*
G01*
X127270000Y-42363000D01*
G75*
G02*
X127200000Y-42433000I-70000J0D01*
G01*
X122120000Y-42433000D01*
G75*
G02*
X122050000Y-42363000I0J70000D01*
G01*
X122050000Y-40585000D01*
G75*
G02*
X122120000Y-40515000I70000J0D01*
G01*
G37*
G36*
G01*
X122120000Y-37721000D02*
X127200000Y-37721000D01*
G75*
G02*
X127270000Y-37791000I0J-70000D01*
G01*
X127270000Y-39569000D01*
G75*
G02*
X127200000Y-39639000I-70000J0D01*
G01*
X122120000Y-39639000D01*
G75*
G02*
X122050000Y-39569000I0J70000D01*
G01*
X122050000Y-37791000D01*
G75*
G02*
X122120000Y-37721000I70000J0D01*
G01*
G37*
G36*
G01*
X122120000Y-34927000D02*
X127200000Y-34927000D01*
G75*
G02*
X127270000Y-34997000I0J-70000D01*
G01*
X127270000Y-36775000D01*
G75*
G02*
X127200000Y-36845000I-70000J0D01*
G01*
X122120000Y-36845000D01*
G75*
G02*
X122050000Y-36775000I0J70000D01*
G01*
X122050000Y-34997000D01*
G75*
G02*
X122120000Y-34927000I70000J0D01*
G01*
G37*
G36*
G01*
X122120000Y-32133000D02*
X127200000Y-32133000D01*
G75*
G02*
X127270000Y-32203000I0J-70000D01*
G01*
X127270000Y-33981000D01*
G75*
G02*
X127200000Y-34051000I-70000J0D01*
G01*
X122120000Y-34051000D01*
G75*
G02*
X122050000Y-33981000I0J70000D01*
G01*
X122050000Y-32203000D01*
G75*
G02*
X122120000Y-32133000I70000J0D01*
G01*
G37*
G36*
G01*
X122120000Y-43309000D02*
X127200000Y-43309000D01*
G75*
G02*
X127270000Y-43379000I0J-70000D01*
G01*
X127270000Y-45157000D01*
G75*
G02*
X127200000Y-45227000I-70000J0D01*
G01*
X122120000Y-45227000D01*
G75*
G02*
X122050000Y-45157000I0J70000D01*
G01*
X122050000Y-43379000D01*
G75*
G02*
X122120000Y-43309000I70000J0D01*
G01*
G37*
%TD*%
%TO.C,J102*%
G36*
G01*
X43026000Y-55284000D02*
X43026000Y-57316000D01*
G75*
G02*
X42956000Y-57386000I-70000J0D01*
G01*
X40924000Y-57386000D01*
G75*
G02*
X40854000Y-57316000I0J70000D01*
G01*
X40854000Y-55284000D01*
G75*
G02*
X40924000Y-55214000I70000J0D01*
G01*
X42956000Y-55214000D01*
G75*
G02*
X43026000Y-55284000I0J-70000D01*
G01*
G37*
D26*
X41940000Y-53760000D03*
%TD*%
M02*
