M48
;DRILL file {KiCad 4.0.6} date Friday, May 24, 2019 'PMt' 09:54:31 PM
;FORMAT={-:-/ absolute / inch / decimal}
FMAT,2
INCH,TZ
T1C0.008
T2C0.013
T3C0.013
T4C0.031
T5C0.039
T6C0.039
T7C0.040
T8C0.047
T9C0.106
T10C0.157
%
G90
G05
M72
T1
X1.3368Y-3.5043
X1.3369Y-3.4839
X1.3372Y-3.4657
X1.3376Y-3.5241
X1.3558Y-3.5243
X1.3567Y-3.4653
X1.3758Y-3.5248
X1.3774Y-3.4653
X1.395Y-3.4661
X1.3954Y-3.5239
X1.396Y-3.4845
X1.396Y-3.5042
T2
X0.6634Y-4.2228
X0.6638Y-1.8398
X0.6638Y-4.1756
X0.6642Y-1.7925
X0.6665Y-4.2724
X0.6669Y-1.8894
X0.6669Y-4.1264
X0.6673Y-1.7433
X0.6776Y-3.6008
X0.678Y-1.2177
X0.6783Y-3.6969
X0.6787Y-1.3138
X0.7043Y-2.4449
X0.7043Y-2.6626
X0.7047Y-4.3004
X0.7051Y-1.9173
X0.7059Y-2.2469
X0.7059Y-2.3488
X0.7059Y-2.5425
X0.7059Y-3.7465
X0.7063Y-1.3634
X0.7063Y-3.6476
X0.7067Y-1.2646
X0.7067Y-3.863
X0.7067Y-3.9244
X0.7071Y-1.4799
X0.7071Y-1.5413
X0.7075Y-2.1496
X0.7075Y-3.8079
X0.7079Y-1.4248
X0.7106Y-2.8106
X0.7142Y-2.9402
X0.7142Y-3.0941
X0.7177Y-3.2165
X0.7177Y-3.3461
X0.7213Y-3.4512
X0.7335Y-3.6016
X0.7339Y-1.2185
X0.7346Y-2.0614
X0.7362Y-3.6961
X0.7366Y-1.313
X0.7626Y-4.3004
X0.763Y-1.9173
X0.7646Y-3.6488
X0.765Y-1.2657
X0.7669Y-3.7465
X0.7673Y-1.3634
X0.7748Y-3.8972
X0.7752Y-1.5142
X0.778Y-3.8189
X0.7783Y-1.4358
X0.7933Y-3.6028
X0.7937Y-1.2197
X0.7953Y-3.6972
X0.7957Y-1.3142
X0.8142Y-3.4937
X0.8205Y-4.3
X0.8209Y-1.9169
X0.822Y-3.65
X0.8224Y-1.2669
X0.8256Y-3.7453
X0.826Y-1.3622
X0.8449Y-2.037
X0.8547Y-3.6039
X0.8551Y-1.2209
X0.8563Y-3.6984
X0.8567Y-1.3154
X0.8776Y-3.8185
X0.878Y-1.4354
X0.8803Y-3.9008
X0.8807Y-1.5177
X0.8846Y-4.3
X0.885Y-1.9169
X0.8862Y-3.6512
X0.8862Y-3.7504
X0.8866Y-1.2681
X0.8866Y-1.3673
X0.9102Y-3.6051
X0.9106Y-1.222
X0.9134Y-3.7
X0.9138Y-1.3169
X0.9374Y-3.4913
X0.9398Y-3.6535
X0.9402Y-1.2705
X0.9409Y-3.7504
X0.9413Y-1.3673
X0.9441Y-3.8067
X0.9445Y-1.4236
X0.9457Y-4.3
X0.9461Y-1.9169
X0.9465Y-3.9276
X0.9469Y-1.5445
X0.948Y-3.8669
X0.9484Y-1.4839
X0.9638Y-2.0327
X0.9685Y-3.6043
X0.9689Y-1.2213
X0.9693Y-3.7012
X0.9697Y-1.3181
X0.9728Y-4.124
X0.9732Y-1.7409
X0.9799Y-4.2701
X0.9803Y-1.887
X0.9815Y-4.1717
X0.9819Y-1.7886
X0.9819Y-4.2224
X0.9823Y-1.8394
X1.0051Y-3.0539
X1.0453Y-3.2417
X1.0453Y-3.2882
X1.0583Y-1.9953
X1.0583Y-3.3272
X1.0606Y-3.9512
X1.063Y-4.0591
X1.0646Y-3.4055
X1.0661Y-3.2035
X1.0673Y-4.1646
X1.0713Y-1.463
X1.0713Y-1.5752
X1.0713Y-1.685
X1.0736Y-1.3618
X1.0736Y-1.8106
X1.076Y-1.9051
X1.078Y-2.8217
X1.0878Y-2.7776
X1.089Y-2.7315
X1.0976Y-1.265
X1.1004Y-4.2571
X1.1016Y-3.1697
X1.1024Y-3.328
X1.1035Y-3.2189
X1.1047Y-3.2776
X1.1098Y-2.3894
X1.115Y-3.652
X1.1173Y-2.6598
X1.1283Y-3.4803
X1.1287Y-2.7795
X1.1413Y-3.5661
X1.1457Y-3.826
X1.1614Y-2.7413
X1.1622Y-2.8417
X1.165Y-2.3949
X1.1811Y-3.7224
X1.1858Y-1.2429
X1.1957Y-2.3244
X1.1984Y-2.8102
X1.1996Y-3.0906
X1.2Y-2.7094
X1.2Y-2.9961
X1.2008Y-3.6256
X1.2055Y-3.2154
X1.2122Y-2.4035
X1.2122Y-2.6244
X1.2126Y-4.2791
X1.2146Y-2.5752
X1.2154Y-1.9697
X1.2154Y-2.5177
X1.2157Y-3.4909
X1.2157Y-3.5488
X1.2189Y-2.4618
X1.2201Y-2.9394
X1.226Y-3.1488
X1.2276Y-2.6728
X1.2303Y-2.7736
X1.2354Y-3.187
X1.2378Y-2.8728
X1.2402Y-2.8256
X1.2441Y-3.4646
X1.2453Y-3.5201
X1.2535Y-1.9343
X1.2559Y-3.8039
X1.2638Y-2.6421
X1.265Y-2.7343
X1.2661Y-2.2709
X1.2736Y-3.7028
X1.2744Y-2.0024
X1.2744Y-2.7807
X1.2898Y-1.8953
X1.2909Y-2.3488
X1.2913Y-1.2429
X1.3055Y-2.0512
X1.3079Y-2.1055
X1.3087Y-2.1575
X1.3335Y-1.8689
X1.3437Y-3.861
X1.3469Y-4.2811
X1.3528Y-3.7618
X1.3606Y-2.0839
X1.3697Y-1.9815
X1.3772Y-1.8618
X1.3791Y-2.8083
X1.3799Y-2.274
X1.3823Y-2.1583
X1.3835Y-3.3547
X1.3992Y-1.2429
X1.4094Y-1.9335
X1.411Y-2.1039
X1.4118Y-1.8303
X1.4157Y-3.6764
X1.4232Y-3.8236
X1.4244Y-3.413
X1.4252Y-3.5732
X1.4272Y-2.189
X1.4276Y-3.9358
X1.4295Y-2.2709
X1.4311Y-2.0232
X1.4335Y-2.7685
X1.4339Y-2.848
X1.4346Y-2.8114
X1.439Y-3.7083
X1.4441Y-1.972
X1.4591Y-3.6736
X1.4622Y-2.3031
X1.4634Y-2.0673
X1.4654Y-3.0378
X1.4657Y-2.1327
X1.4681Y-3.1024
X1.4693Y-3.7374
X1.4764Y-1.2717
X1.478Y-3.5598
X1.4803Y-3.7075
X1.4823Y-3.4665
X1.4846Y-2.1945
X1.485Y-3.5079
X1.4854Y-4.2614
X1.4858Y-2.7705
X1.4862Y-2.0169
X1.4906Y-1.9697
X1.4925Y-2.2634
X1.4957Y-3.8898
X1.5004Y-2.1
X1.5028Y-4.1669
X1.5102Y-3.1146
X1.5126Y-3.7398
X1.513Y-3.3236
X1.5134Y-1.3488
X1.5138Y-2.0567
X1.5146Y-2.1591
X1.528Y-3.011
X1.5293Y-1.7682
X1.5378Y-2.3539
X1.5398Y-3.9756
X1.5425Y-2.4476
X1.5433Y-2.2665
X1.55Y-2.6004
X1.5571Y-3.7382
X1.5622Y-3.3287
X1.5764Y-2.113
X1.5819Y-2.2736
X1.5862Y-4.1673
X1.589Y-3.2898
X1.5913Y-1.8874
X1.5949Y-3.4024
X1.5972Y-2.5433
X1.5984Y-3.7374
X1.602Y-2.0083
X1.6055Y-3.9094
X1.6067Y-2.3035
X1.6146Y-3.2496
X1.6169Y-1.3488
X1.6346Y-2.5709
X1.6417Y-3.7157
X1.6433Y-3.5591
X1.6461Y-2.3055
X1.65Y-2.5287
X1.6543Y-2.4606
X1.6606Y-3.9799
X1.6685Y-3.6465
X1.6697Y-3.5929
X1.6764Y-2.5972
X1.6768Y-3.535
X1.6776Y-2.1472
X1.6787Y-2.5496
X1.6795Y-2.4937
X1.6815Y-2.3075
X1.6823Y-4.1634
X1.6839Y-3.0256
X1.685Y-2.1902
X1.6886Y-3.7083
X1.6976Y-3.6748
X1.698Y-1.3492
X1.6984Y-3.0646
X1.6992Y-3.6181
X1.7Y-3.5673
X1.7024Y-3.9071
X1.7047Y-3.2681
X1.7071Y-3.0016
X1.711Y-3.1839
X1.7213Y-3.298
X1.7217Y-3.2394
X1.735Y-3.3425
X1.7358Y-3.0787
X1.7362Y-3.572
X1.748Y-2.224
X1.748Y-3.2079
X1.752Y-1.9909
X1.752Y-3.7654
X1.7543Y-3.7657
X1.7575Y-3.9799
X1.7642Y-3.548
X1.7657Y-2.3953
X1.7689Y-3.0461
X1.7709Y-3.337
X1.7791Y-4.1657
X1.7807Y-3.0921
X1.7831Y-3.0063
X1.7846Y-3.5728
X1.8Y-3.5469
X1.8008Y-2.5079
X1.8035Y-3.9071
X1.8106Y-3.0976
X1.8118Y-1.3484
X1.8118Y-3.0579
X1.8339Y-2.4728
X1.8413Y-2.9472
X1.8417Y-3.1417
X1.8441Y-3.1768
X1.8512Y-2.3748
X1.8512Y-2.5201
X1.8673Y-4.1665
X1.8697Y-3.0126
X1.8843Y-2.4717
X1.8898Y-2.4024
X1.8996Y-2.5079
X1.9075Y-2.9504
X1.913Y-2.5409
X1.9197Y-3.3748
X1.9244Y-1.3516
X1.9327Y-2.9886
X1.937Y-2.3047
X1.9461Y-2.5102
X1.9492Y-4.1646
X1.9685Y-3.026
X1.9697Y-2.9654
X1.9713Y-3.3157
X1.976Y-3.2472
X1.9811Y-2.6047
X1.9831Y-2.4697
X1.9846Y-2.2031
X1.9854Y-2.1551
X2.0016Y-2.902
X2.0055Y-3.6315
X2.0083Y-2.9882
X2.0083Y-3.0264
X2.0134Y-3.3126
X2.0165Y-4.1654
X2.0232Y-3.2457
X2.0252Y-2.5508
X2.0311Y-1.3488
X2.0382Y-2.6004
X2.0417Y-2.6433
X2.0417Y-3.0102
X2.0429Y-3.5343
X2.048Y-3.3394
X2.074Y-2.9807
X2.0756Y-3.228
X2.0756Y-4.1689
X2.0768Y-2.4354
X2.0768Y-3.3894
X2.0795Y-2.6921
X2.0854Y-2.5925
X2.0866Y-2.7386
X2.089Y-2.6346
X2.098Y-3.3472
X2.1012Y-2.5465
X2.1012Y-3.0386
X2.1016Y-1.3465
X2.1043Y-2.4858
X2.1079Y-2.9673
X2.113Y-3.4303
X2.126Y-3.2386
X2.139Y-2.7571
X2.1406Y-2.8201
X2.1496Y-3.5461
X2.1528Y-4.1693
X2.1657Y-2.9831
X2.1748Y-3.2402
X2.176Y-2.6047
X2.1764Y-2.8272
X2.1768Y-2.5587
X2.1803Y-3.8941
X2.1862Y-1.348
X2.1969Y-2.6457
X2.2031Y-2.8764
X2.2031Y-2.9299
X2.2181Y-2.828
X2.2295Y-4.1689
X2.2398Y-3.9039
X2.2402Y-2.9835
X2.2409Y-2.576
X2.2417Y-2.5394
X2.2449Y-2.5047
X2.2457Y-2.6327
X2.2516Y-2.7591
X2.2606Y-3.0744
X2.2654Y-3.1091
X2.2787Y-2.9791
X2.2823Y-1.3433
X2.289Y-2.635
X2.2965Y-2.8154
X2.3008Y-3.4303
X2.3024Y-3.0594
X2.3051Y-4.1693
X2.3071Y-3.1146
X2.3098Y-3.9028
X2.3118Y-3.1795
X2.3154Y-2.6622
X2.3154Y-2.7039
X2.3232Y-2.8953
X2.324Y-2.565
X2.3311Y-3.0299
X2.3382Y-2.8272
X2.3394Y-3.4634
X2.3417Y-2.9362
X2.3449Y-3.5185
X2.3465Y-3.752
X2.3496Y-2.8638
X2.3697Y-1.3441
X2.3748Y-3.9126
X2.3815Y-2.8984
X2.3823Y-2.8638
X2.3831Y-2.826
X2.3846Y-2.6193
X2.3862Y-2.5689
X2.387Y-3.5409
X2.3894Y-2.9768
X2.4043Y-4.1701
X2.4138Y-2.7465
X2.4185Y-2.6559
X2.4272Y-2.611
X2.4276Y-2.4343
X2.4295Y-2.5039
X2.4343Y-2.5642
X2.4386Y-3.5409
X2.4441Y-3.9126
X2.448Y-4.1236
X2.4591Y-1.3417
X2.4634Y-2.4614
X2.4642Y-2.5343
X2.4657Y-3.3378
X2.4657Y-3.3906
X2.4689Y-4.1681
X2.4709Y-3.0244
X2.4846Y-3.5425
X2.4862Y-2.7138
X2.5016Y-3.3425
X2.5063Y-1.3433
X2.5071Y-4.072
X2.5157Y-1.9547
X2.5161Y-3.9142
X2.5189Y-2.7217
X2.5433Y-2.0646
X2.5465Y-2.135
X2.548Y-2.2799
X2.5504Y-4.1189
X2.5551Y-2.0142
X2.5579Y-4.1622
X2.5654Y-2.2055
X2.5673Y-2.5815
X2.5709Y-4.0799
X2.5752Y-3.9142
X2.5768Y-3.0744
X2.5799Y-2.7114
X2.5831Y-3.7512
X2.5862Y-1.9547
X2.589Y-2.2657
X2.5937Y-3.2311
X2.5949Y-3.1909
X2.5965Y-2.3173
X2.6102Y-2.0528
X2.6114Y-2.1185
X2.6126Y-2.1748
X2.6161Y-3.1228
X2.6224Y-3.5047
X2.6232Y-2.2394
X2.628Y-4.0677
X2.6283Y-2.7543
X2.6303Y-2.8323
X2.6311Y-2.9043
X2.6327Y-2.2846
X2.6331Y-2.8665
X2.6346Y-3.1823
X2.6366Y-3.9421
X2.6378Y-3.5441
X2.6445Y-2.013
X2.6465Y-4.1602
X2.6535Y-2.2118
X2.661Y-1.9614
X2.6618Y-1.9106
X2.6642Y-3.063
X2.6654Y-1.8504
X2.6665Y-3.1425
X2.6669Y-2.2484
X2.6752Y-2.4539
X2.6776Y-3.5
X2.6783Y-2.4953
X2.6807Y-2.5398
X2.6823Y-3.5433
X2.6839Y-1.3449
X2.6917Y-2.176
X2.6929Y-4.0732
X2.7071Y-3.1118
X2.7083Y-2.0106
X2.7087Y-2.3224
X2.7154Y-2.4417
X2.7268Y-1.8205
X2.7268Y-1.8787
X2.728Y-2.2882
X2.7291Y-1.9437
X2.7291Y-2.639
X2.7303Y-3.2425
X2.7315Y-2.5961
X2.7323Y-2.6886
X2.7441Y-3.0713
X2.7472Y-2.3559
X2.748Y-3.9398
X2.7496Y-2.8201
X2.7496Y-3.1823
X2.7524Y-4.0984
X2.7543Y-4.1579
X2.7614Y-2.5689
X2.7622Y-2.487
X2.7634Y-2.8642
X2.765Y-3.5882
X2.7665Y-2.3169
X2.7669Y-1.3484
X2.7709Y-3.8768
X2.7843Y-2.7988
X2.7846Y-2.7531
X2.7854Y-3.0295
X2.7913Y-3.1402
X2.7937Y-3.2472
X2.7953Y-2.6984
X2.8071Y-2.635
X2.8079Y-2.5831
X2.8094Y-2.5335
X2.8118Y-2.4335
X2.8154Y-2.9102
X2.8169Y-4.1008
X2.8177Y-3.6161
X2.8217Y-1.7594
X2.8272Y-2.3913
X2.828Y-3.0969
X2.8303Y-3.8791
X2.8394Y-2.8807
X2.848Y-2.9591
X2.8488Y-2.8453
X2.8496Y-3.2736
X2.8512Y-3.1815
X2.8512Y-3.228
X2.8626Y-1.3465
X2.8665Y-4.1614
X2.8673Y-4.0382
X2.8787Y-2.4437
X2.8799Y-2.361
X2.8799Y-4.0976
X2.889Y-3.9638
X2.8898Y-2.5606
X2.8909Y-2.6083
X2.8917Y-2.6992
X2.8921Y-2.5024
X2.8933Y-3.8843
X2.9012Y-1.9661
X2.9236Y-3.3724
X2.9256Y-4.0362
X2.9291Y-3.2583
X2.9327Y-2.5783
X2.9327Y-3.1815
X2.9402Y-4.0984
X2.9445Y-2.8154
X2.9472Y-3.9638
X2.9484Y-2.6461
X2.9504Y-1.7862
X2.9567Y-1.728
X2.9583Y-3.3787
X2.9634Y-1.3457
X2.9657Y-3.3295
X2.9677Y-2.5291
X2.9681Y-4.1756
X2.9781Y-2.5766
X2.9843Y-4.0386
X2.9854Y-1.2453
X2.9854Y-4.2524
X2.9906Y-3.1807
X2.9921Y-2.6161
X2.9921Y-3.1177
X2.9929Y-2.6504
X3.0094Y-1.8075
X3.0102Y-3.9665
X3.0272Y-3.3307
X3.0311Y-3.3768
X3.0366Y-2.576
X3.0386Y-2.6551
X3.0433Y-4.0366
X3.048Y-1.9087
X3.0496Y-2.1264
X3.052Y-3.1161
X3.0559Y-1.9571
X3.0602Y-1.7984
X3.0618Y-2.3882
X3.0728Y-4.2874
X3.0752Y-3.9661
X3.0799Y-1.2429
X3.0799Y-2.6161
X3.0854Y-2.2402
X3.0858Y-3.5465
X3.0874Y-3.265
X3.0898Y-2.5717
X3.0902Y-2.6913
X3.0976Y-3.3287
X3.0976Y-3.476
X3.0996Y-3.4134
X3.1079Y-4.0366
X3.1094Y-3.0232
X3.1142Y-1.9394
X3.1256Y-3.5917
X3.1283Y-1.8118
X3.1433Y-1.5756
X3.1433Y-3.965
X3.148Y-1.7008
X3.1535Y-1.628
X3.1697Y-3.0256
X3.1713Y-1.9382
X3.1768Y-1.6819
X3.1823Y-1.7874
X3.1827Y-2.7925
X3.1831Y-2.9417
X3.1835Y-2.8854
X3.185Y-4.2909
X3.1878Y-3.9382
X3.1909Y-3.3831
X3.1976Y-1.8413
X3.1988Y-1.2409
X3.2039Y-3.1295
X3.211Y-1.5752
X3.2118Y-2.1429
X3.212Y-3.3545
X3.2146Y-2.35
X3.2146Y-3.4701
X3.2161Y-2.4528
X3.2224Y-1.6283
X3.2224Y-3.4059
X3.224Y-3.0606
X3.2374Y-1.737
X3.2484Y-1.6941
X3.2504Y-2.8083
X3.2539Y-2.9303
X3.2543Y-3.4654
X3.2563Y-2.8799
X3.2571Y-1.8591
X3.2598Y-2.637
X3.2657Y-3.1063
X3.2673Y-3.1736
X3.2673Y-3.3598
X3.2693Y-1.5752
X3.2764Y-3.3142
X3.2803Y-1.6677
X3.2815Y-3.7421
X3.2815Y-4.2878
X3.2819Y-2.3425
X3.2866Y-3.0413
X3.2913Y-3.6343
X3.2921Y-3.6882
X3.2933Y-1.8787
X3.2969Y-1.2319
X3.2976Y-2.1319
X3.2984Y-2.8319
X3.3083Y-3.4075
X3.3098Y-3.3634
X3.311Y-3.9382
X3.3126Y-2.7106
X3.3134Y-1.6323
X3.3154Y-3.8016
X3.3161Y-3.2102
X3.3169Y-3.148
X3.3185Y-2.8685
X3.3185Y-2.9224
X3.3185Y-3.0815
X3.3232Y-2.765
X3.324Y-2.3406
X3.3531Y-2.2756
X3.3571Y-3.7685
X3.3614Y-3.8819
X3.365Y-2.0417
X3.3661Y-3.6232
X3.3669Y-3.6685
X3.3669Y-3.7201
X3.3701Y-2.6768
X3.3724Y-3.3898
X3.3736Y-1.9516
X3.3744Y-2.5217
X3.3744Y-3.3516
X3.3752Y-2.2366
X3.3815Y-2.3378
X3.3823Y-2.3
X3.3823Y-3.0898
X3.3823Y-3.224
X3.3835Y-2.3894
X3.3846Y-2.424
X3.3878Y-2.9209
X3.3882Y-2.8374
X3.4063Y-2.6154
X3.4079Y-4.2965
X3.4098Y-1.9909
X3.4181Y-1.2335
X3.4201Y-2.8697
X3.422Y-3.6102
X3.4232Y-3.6685
X3.4244Y-3.7224
X3.4256Y-2.0437
X3.4264Y-3.1945
X3.4283Y-2.8291
X3.4287Y-3.8028
X3.4291Y-3.8909
X3.4295Y-2.2232
X3.4295Y-3.0984
X3.4378Y-2.5457
X3.4398Y-1.8283
X3.4453Y-3.3264
X3.4465Y-1.7665
X3.4496Y-2.7606
X3.4555Y-2.9035
X3.4657Y-3.4543
X3.4681Y-3.2331
X3.4705Y-2.5559
X3.4783Y-3.5508
X3.4783Y-3.6661
X3.4799Y-2.124
X3.4803Y-1.8677
X3.4803Y-3.728
X3.4815Y-3.6134
X3.4925Y-1.7457
X3.4937Y-3.8039
X3.4988Y-1.2362
X3.5012Y-1.815
X3.5024Y-3.8882
X3.5055Y-1.6732
X3.5063Y-4.2957
X3.5079Y-3.2043
X3.5134Y-3.3319
X3.5138Y-2.124
X3.5201Y-3.4614
X3.5268Y-2.4575
X3.5323Y-3.5606
X3.5354Y-3.6189
X3.5354Y-3.6807
X3.5386Y-1.8689
X3.5386Y-2.1461
X3.5421Y-1.7744
X3.5449Y-1.9146
X3.5465Y-3.7378
X3.5484Y-2.4043
X3.55Y-2.3232
X3.5508Y-1.7114
X3.5513Y-2.6535
X3.552Y-3.8016
X3.5587Y-1.6268
X3.5587Y-3.2583
X3.5634Y-1.5719
X3.5685Y-3.202
X3.5701Y-3.8909
X3.5705Y-2.9173
X3.5708Y-2.8236
X3.5724Y-2.4665
X3.5988Y-2.1409
X3.6Y-2.0138
X3.6008Y-2.2772
X3.6024Y-1.7535
X3.6079Y-1.915
X3.6091Y-1.6732
X3.6091Y-3.3705
X3.615Y-2.3803
X3.6157Y-2.3323
X3.6169Y-3.8047
X3.6181Y-3.7382
X3.6197Y-2.4677
X3.6232Y-4.2898
X3.6256Y-1.2343
X3.6307Y-2.3012
X3.6323Y-3.2791
X3.6358Y-2.139
X3.6366Y-2.6004
X3.6409Y-2.1031
X3.6465Y-3.8866
X3.6563Y-2.4421
X3.6661Y-1.8567
X3.6673Y-2.1528
X3.672Y-2.8815
X3.676Y-2.6154
X3.6807Y-2.1161
X3.6811Y-2.3819
X3.6811Y-3.7366
X3.6819Y-3.2055
X3.6862Y-3.8047
X3.6894Y-1.7524
X3.6937Y-2.9433
X3.6992Y-1.911
X3.702Y-1.2343
X3.7035Y-3.3693
X3.7138Y-1.861
X3.7142Y-2.6409
X3.7201Y-3.8882
X3.7228Y-3.6929
X3.724Y-4.2839
X3.7272Y-2.8906
X3.7303Y-2.3394
X3.7307Y-2.4232
X3.7323Y-1.7941
X3.7421Y-3.211
X3.7457Y-3.2583
X3.7465Y-3.8047
X3.7531Y-2.6354
X3.7551Y-2.9441
X3.7618Y-3.3693
X3.765Y-3.6496
X3.7764Y-2.7256
X3.7815Y-2.1488
X3.7858Y-3.7618
X3.7866Y-1.9469
X3.7882Y-2.887
X3.798Y-3.8791
X3.8039Y-4.2823
X3.8047Y-2.1862
X3.8114Y-3.2165
X3.8114Y-3.2657
X3.8114Y-3.6
X3.8161Y-2.9449
X3.8236Y-3.3717
X3.8276Y-1.2358
X3.8327Y-3.7169
X3.8382Y-2.5102
X3.8386Y-2.6587
X3.839Y-2.2913
X3.8429Y-3.8386
X3.8441Y-2.3831
X3.8449Y-1.2902
X3.8457Y-2.3287
X3.8524Y-2.0051
X3.8551Y-4.2402
X3.8559Y-2.889
X3.861Y-2.1583
X3.861Y-3.5626
X3.8642Y-1.3335
X3.8713Y-1.9354
X3.8744Y-3.2173
X3.876Y-3.0811
X3.8768Y-2.9457
X3.8791Y-3.1484
X3.8791Y-3.6689
X3.8799Y-1.7343
X3.8807Y-3.3232
X3.8819Y-3.2693
X3.885Y-3.378
X3.885Y-3.4429
X3.885Y-3.5067
X3.8933Y-2.0441
X3.8941Y-3.789
X3.8953Y-2.1906
X3.9031Y-1.9673
X3.9146Y-1.7945
X3.9161Y-2.6929
X3.9209Y-2.8898
X3.9264Y-2.9472
X3.9272Y-3.615
X3.9299Y-3.1484
X3.9303Y-2.2232
X3.9331Y-3.0811
X3.9331Y-3.222
X3.9366Y-1.9984
X3.939Y-3.7366
X3.9425Y-3.2693
X3.9488Y-1.7378
X3.9496Y-1.3606
X3.9622Y-4.1665
X3.9753Y-2.6416
X3.9795Y-3.5626
X3.9902Y-3.6854
X3.9953Y-1.7921
X4.0016Y-2.9386
X4.0028Y-2.4539
X4.0079Y-2.8898
X4.0244Y-3.0854
X4.0244Y-3.1606
X4.026Y-1.739
X4.0276Y-3.2252
X4.0366Y-3.5161
X4.0409Y-3.6331
X4.048Y-2.8945
X4.0496Y-2.8008
X4.0606Y-1.3606
X4.0622Y-4.1634
X4.0756Y-3.4665
X4.0807Y-2.8366
X4.0874Y-1.7429
X4.0906Y-3.0854
X4.0906Y-3.411
X4.0906Y-3.5803
X4.0921Y-3.1575
X4.0933Y-3.2205
X4.1402Y-3.5311
X4.1429Y-1.7205
X4.1461Y-1.3217
X4.1469Y-4.1657
X4.1492Y-2.75
X4.1622Y-4.2516
X4.1701Y-3.0878
X4.1717Y-1.2496
X4.1717Y-3.4126
X4.178Y-2.7016
X4.1803Y-3.4772
X4.1823Y-1.7819
X4.1933Y-3.2154
X4.1941Y-3.276
X4.2209Y-2.7476
X4.2264Y-2.6831
X4.2307Y-3.0854
X4.2327Y-1.715
X4.2339Y-4.2823
X4.2492Y-3.1902
X4.2614Y-3.137
X4.2646Y-1.2315
X4.2866Y-3.0866
X4.2909Y-2.7433
X4.2976Y-2.6819
X4.335Y-4.2854
X4.3429Y-2.7555
X4.3476Y-2.6413
X4.3476Y-2.8937
X4.3591Y-1.2346
X4.3626Y-1.7894
X4.365Y-2.9866
X4.3669Y-2.9315
X4.3815Y-3.0382
X4.3988Y-2.765
X4.4012Y-1.8161
X4.4177Y-2.9689
X4.4295Y-3.0437
X4.4453Y-4.2835
X4.4539Y-2.2417
X4.4539Y-3.0039
X4.4661Y-1.239
X4.4669Y-1.813
X4.4748Y-1.7665
X4.4909Y-3.1228
X4.5047Y-2.7642
X4.5299Y-3.0811
X4.5323Y-2.2441
X4.5346Y-3.1575
X4.5354Y-4.2693
X4.5535Y-1.2705
X4.5563Y-2.3079
X4.5606Y-2.3681
X4.5618Y-2.4354
X4.565Y-2.6992
X4.5661Y-2.9654
X4.5661Y-3.1185
X4.5665Y-2.5154
X4.5673Y-1.9535
X4.5681Y-2.6319
X4.5681Y-2.7634
X4.5681Y-2.8705
X4.5689Y-2.5783
X4.5697Y-2.8177
X4.5736Y-1.7382
X4.5736Y-1.8437
X4.5764Y-3.5925
X4.5776Y-3.1937
X4.578Y-1.498
X4.578Y-1.6205
X4.5783Y-4.0205
X4.5791Y-3.8083
X4.5791Y-4.2043
X4.5795Y-3.7094
X4.5803Y-4.113
X4.5811Y-3.5024
X4.5815Y-1.372
X4.5815Y-3.9193
X4.5882Y-2.9209
X4.6071Y-3.152
X4.622Y-2.0394
X4.6488Y-3.1937
X4.6736Y-4.2232
X4.674Y-4.176
X4.6744Y-1.8406
X4.6748Y-1.7933
X4.6752Y-3.2425
X4.6768Y-4.2728
X4.6772Y-4.1268
X4.6776Y-1.8902
X4.678Y-1.7441
X4.6874Y-3.4965
X4.6878Y-3.6012
X4.6886Y-1.2185
X4.6886Y-3.6972
X4.6894Y-1.3146
X4.715Y-4.3008
X4.7157Y-1.9181
X4.7161Y-3.7469
X4.7165Y-3.648
X4.7169Y-1.3642
X4.7169Y-3.8634
X4.7169Y-3.9248
X4.7173Y-1.2654
X4.7177Y-1.4807
X4.7177Y-1.5421
X4.7177Y-3.8083
X4.7185Y-1.4256
X4.728Y-2.037
X4.7437Y-3.602
X4.7445Y-1.2193
X4.7465Y-3.6965
X4.7472Y-1.3138
X4.7559Y-3.1976
X4.7728Y-4.3008
X4.7736Y-1.9181
X4.7748Y-3.6492
X4.7756Y-1.2665
X4.7772Y-3.7469
X4.778Y-1.3642
X4.785Y-3.8976
X4.7858Y-1.515
X4.7882Y-3.8193
X4.789Y-1.4366
X4.7941Y-3.4949
X4.7992Y-3.2154
X4.8035Y-3.6031
X4.8043Y-1.2205
X4.8055Y-3.6976
X4.8063Y-1.315
X4.8272Y-2.2441
X4.8307Y-4.3004
X4.8315Y-1.9177
X4.8323Y-3.6504
X4.8331Y-1.2677
X4.8358Y-3.7457
X4.8366Y-1.363
X4.8465Y-2.035
X4.8539Y-2.7945
X4.8555Y-2.1209
X4.8567Y-2.5622
X4.8575Y-2.2012
X4.8575Y-3.0311
X4.8575Y-3.489
X4.8591Y-2.4728
X4.8598Y-2.9173
X4.8618Y-3.2197
X4.863Y-2.676
X4.8642Y-3.1378
X4.865Y-3.6043
X4.8657Y-1.2217
X4.8665Y-3.6988
X4.8673Y-1.3161
X4.8673Y-3.4311
X4.8878Y-3.8189
X4.8886Y-1.4362
X4.8906Y-3.9012
X4.8913Y-1.5185
X4.8949Y-4.3004
X4.8957Y-1.9177
X4.8965Y-3.6516
X4.8965Y-3.7508
X4.8972Y-1.2689
X4.8972Y-1.3681
X4.9205Y-3.6055
X4.9213Y-1.2228
X4.9236Y-3.7004
X4.9244Y-1.3177
X4.95Y-3.6539
X4.9508Y-1.2713
X4.9512Y-3.7508
X4.952Y-1.3681
X4.9543Y-3.8071
X4.9551Y-1.4244
X4.9559Y-4.3004
X4.9567Y-1.9177
X4.9567Y-3.928
X4.9575Y-1.5453
X4.9583Y-3.8673
X4.9591Y-1.4846
X4.9787Y-3.6047
X4.9795Y-1.222
X4.9795Y-3.7016
X4.9803Y-1.3189
X4.9831Y-4.1244
X4.9839Y-1.7417
X4.9902Y-4.2705
X4.9909Y-1.8878
X4.9917Y-4.172
X4.9921Y-4.2228
X4.9925Y-1.7894
X4.9929Y-1.8402
T3
X0.8989Y-3.4208
X1.1646Y-3.1756
X1.1737Y-2.9046
X1.2091Y-3.3661
X1.324Y-2.2429
X1.3965Y-2.6819
X1.4795Y-3.1756
X1.5Y-2.5732
X1.5618Y-3.8303
X1.639Y-2.2429
X1.661Y-1.5484
X1.661Y-1.8634
X1.6886Y-3.3638
X1.7961Y-1.5425
X1.7961Y-1.8575
X1.815Y-2.5732
X1.8768Y-3.8303
X2.0035Y-3.3638
X2.0551Y-2.5094
X2.0551Y-2.8244
X2.0803Y-3.2835
X2.0803Y-3.5984
X2.352Y-1.7012
X2.489Y-2.2524
X2.6191Y-1.5343
X2.6697Y-1.4543
X2.8039Y-2.2524
X2.9846Y-1.4543
X3.3827Y-3.1433
X3.3827Y-3.4583
X4.1953Y-2.8224
X4.1953Y-3.1374
X4.2539Y-3.5098
X4.3504Y-2.5618
X4.387Y-3.7953
X4.6654Y-2.5618
T4
X2.2346Y-3.3358
X2.2346Y-3.4146
T5
X1.3665Y-3.4949
X2.4469Y-2.874
X2.5103Y-2.8731
X2.5728Y-2.874
T6
X2.1169Y-2.2154
X2.2169Y-2.2154
X2.3169Y-2.2154
T7
X0.726Y-4.0201
X0.7264Y-1.637
X0.872Y-3.0969
X0.872Y-3.1969
X0.872Y-3.2969
X0.9138Y-4.0224
X0.9142Y-1.6394
X0.9587Y-2.3209
X0.9587Y-2.5343
X1.1177Y-2.0701
X1.1177Y-2.1878
X1.1965Y-2.0701
X1.1965Y-2.1878
X1.2496Y-1.8181
X1.7425Y-2.7323
X2.0207Y-1.7528
X2.0508Y-2.0453
X2.0972Y-1.5953
X2.1492Y-1.8091
X2.1492Y-2.0453
X2.2476Y-1.8091
X2.4776Y-1.6219
X2.635Y-1.6984
X2.9669Y-3.0465
X3.1965Y-4.2134
X3.2594Y-1.3035
X3.3594Y-1.3035
X3.4594Y-1.3035
X3.5594Y-1.3035
X3.6594Y-1.3035
X3.7594Y-1.3035
X4.2988Y-1.7579
X4.2988Y-1.8579
X4.2988Y-1.9579
X4.2988Y-2.0579
X4.2988Y-2.1579
X4.2988Y-2.2579
X4.3256Y-3.2787
X4.3256Y-3.3787
X4.4256Y-3.2787
X4.4256Y-3.3787
X4.4594Y-1.6457
X4.5256Y-3.2787
X4.5256Y-3.3787
X4.6256Y-3.2787
X4.6256Y-3.3787
X4.7256Y-3.2787
X4.7256Y-3.3787
X4.7366Y-4.0201
X4.7374Y-1.6374
X4.8256Y-3.2787
X4.8256Y-3.3787
X4.9248Y-4.0205
X4.9256Y-1.6378
T8
X2.0622Y-4.015
X2.0642Y-1.4969
X2.2122Y-4.015
X2.2142Y-1.4969
X2.3622Y-4.015
X2.3642Y-1.4969
X4.6992Y-2.9358
X4.6992Y-3.0858
T9
X0.7358Y-4.2315
X0.7362Y-1.8484
X0.9102Y-4.2315
X0.9106Y-1.8484
X4.7461Y-4.2319
X4.7469Y-1.8492
X4.9205Y-4.2319
X4.9213Y-1.8492
T10
X1.311Y-1.4173
X1.311Y-4.0945
X4.3425Y-1.4173
X4.3425Y-4.0945
T0
M30
