M48
; DRILL file {KiCad (5.1.9-0-10_14)} date Friday, May 14, 2021 at 09:18:36 PM
; FORMAT={-:-/ absolute / metric / decimal}
; #@! TF.CreationDate,2021-05-14T21:18:36-04:00
; #@! TF.GenerationSoftware,Kicad,Pcbnew,(5.1.9-0-10_14)
; #@! TF.FileFunction,Plated,1,4,PTH
FMAT,2
METRIC
T1C0.200
T2C0.330
T3C0.331
T4C1.001
T5C1.016
T6C1.100
T7C1.300
T8C1.500
T9C2.400
T10C4.000
%
G90
G05
T1
X86.83Y-79.44
X86.83Y-80.22
X87.475Y-79.44
X87.475Y-80.22
X88.115Y-80.22
X88.125Y-79.44
X88.77Y-79.44
X88.77Y-80.22
T2
X17.88Y-61.92
X17.91Y-55.18
X17.91Y-58.53
X17.93Y-64.58
X17.94Y-52.65
X18.14Y-74.68
X18.14Y-78.59
X18.23Y-81.7
X18.23Y-84.99
X18.32Y-87.66
X18.92Y-51.67
X20.68Y-88.74
X21.46Y-51.74
X23.78Y-88.66
X24.48Y-51.63
X25.11Y-59.46
X25.68Y-57.22
X26.63Y-60.03
X26.88Y-50.68
X26.94Y-100.36
X26.96Y-96.05
X27.0Y-103.1
X27.09Y-88.64
X27.11Y-105.78
X27.13Y-92.15
X27.21Y-37.16
X27.21Y-40.01
X27.21Y-42.8
X27.27Y-34.59
X27.27Y-45.99
X27.33Y-48.39
X27.88Y-32.13
X27.95Y-108.13
X30.12Y-31.57
X30.38Y-50.12
X30.8Y-108.69
X31.71Y-50.12
X32.8Y-31.57
X32.9Y-42.69
X32.96Y-44.7
X33.07Y-50.1
X33.09Y-69.24
X33.82Y-72.27
X33.84Y-73.8
X34.16Y-68.79
X34.21Y-108.74
X34.3Y-75.28
X34.34Y-42.37
X34.94Y-67.56
X35.47Y-90.74
X35.54Y-31.57
X36.16Y-75.24
X36.31Y-90.36
X36.69Y-63.53
X37.5Y-32.3
X37.73Y-108.24
X38.17Y-105.84
X38.42Y-73.66
X38.44Y-34.26
X38.47Y-62.92
X38.49Y-64.29
X39.37Y-61.79
X39.43Y-70.77
X40.07Y-64.67
X40.2Y-66.07
X40.29Y-105.85
X40.38Y-63.44
X40.67Y-60.71
X40.8Y-70.79
X41.07Y-34.26
X41.51Y-63.08
X42.15Y-71.12
X42.27Y-60.71
X42.73Y-105.75
X43.13Y-34.27
X43.44Y-66.18
X43.51Y-69.51
X44.12Y-60.71
X44.87Y-75.68
X45.45Y-66.18
X45.48Y-71.31
X46.0Y-64.99
X46.02Y-34.25
X46.13Y-79.86
X46.64Y-62.24
X46.78Y-78.54
X47.18Y-77.15
X47.266Y-64.976
X47.4Y-75.45
X47.71Y-52.29
X48.04Y-69.69
X48.125Y-76.205
X48.73Y-74.61
X48.75Y-90.53
X48.88Y-34.33
X49.12Y-93.23
X49.53Y-64.99
X49.72Y-52.26
X50.01Y-57.44
X50.44Y-41.68
X50.46Y-64.0
X50.92Y-42.58
X51.21Y-72.93
X51.33Y-63.11
X51.54Y-47.06
X51.59Y-34.26
X52.03Y-52.29
X52.71Y-94.98
X53.06Y-42.52
X53.38Y-34.2
X53.55Y-41.6
X53.62Y-47.16
X53.78Y-51.45
X53.84Y-49.37
X53.98Y-54.53
X54.67Y-75.7
X54.861Y-76.709
X54.88Y-94.52
X55.46Y-54.46
X55.53Y-34.24
X55.62Y-91.13
X55.667Y-51.783
X55.95Y-74.67
X56.84Y-53.53
X57.12Y-74.69
X57.16Y-65.53
X57.18Y-67.0
X57.18Y-70.0
X57.18Y-71.325
X57.2Y-68.56
X57.48Y-93.38
X57.55Y-45.67
X57.97Y-34.12
X58.19Y-73.01
X58.58Y-64.5
X58.64Y-89.035
X58.79Y-75.15
X58.85Y-73.94
X59.44Y-64.24
X59.65Y-91.97
X59.77Y-74.81
X59.79Y-68.76
X60.19Y-34.14
X60.21Y-64.52
X60.57Y-51.09
X60.7Y-45.67
X60.82Y-93.13
X60.923Y-58.457
X61.294Y-68.504
X61.39Y-56.85
X61.43Y-70.71
X61.65Y-86.04
X61.754Y-57.71
X61.85Y-40.44
X62.23Y-52.0
X62.46Y-34.08
X62.66Y-75.48
X62.67Y-72.11
X62.67Y-77.12
X62.91Y-78.83
X63.23Y-80.32
X63.35Y-77.67
X63.36Y-72.89
X63.505Y-76.59
X63.58Y-40.25
X63.6Y-36.3
X64.0Y-86.95
X64.01Y-38.3
X64.02Y-88.16
X64.15Y-75.82
X64.19Y-85.0
X64.33Y-74.29
X64.53Y-73.27
X64.7Y-56.88
X64.7Y-58.32
X64.86Y-76.62
X65.09Y-72.25
X65.296Y-34.124
X65.42Y-88.1
X65.47Y-79.49
X66.03Y-65.9
X66.18Y-77.72
X66.26Y-80.21
X66.71Y-88.12
X66.76Y-65.03
X66.91Y-83.5
X67.1Y-78.98
X67.19Y-72.99
X67.6Y-75.3
X67.83Y-64.28
X68.03Y-89.03
X68.17Y-34.16
X68.27Y-87.96
X68.83Y-67.28
X68.87Y-64.65
X68.915Y-65.9
X69.15Y-80.07
X69.56Y-75.43
X69.57Y-79.05
X69.96Y-105.61
X70.12Y-79.85
X70.14Y-76.34
X70.28Y-34.25
X70.422Y-74.203
X70.65Y-72.69
X70.71Y-78.01
X70.73Y-85.75
X71.09Y-76.81
X71.13Y-74.83
X72.38Y-59.71
X72.495Y-70.73
X72.53Y-62.71
X72.53Y-64.02
X72.58Y-101.61
X72.58Y-102.81
X72.7Y-86.59
X72.71Y-34.2
X72.81Y-105.7
X73.09Y-68.99
X74.16Y-62.69
X74.24Y-69.54
X74.52Y-45.03
X74.86Y-41.32
X75.09Y-70.37
X75.27Y-34.18
X75.29Y-79.19
X75.39Y-106.06
X75.52Y-92.17
X75.704Y-62.852
X75.83Y-31.63
X75.83Y-108.01
X76.06Y-93.56
X76.41Y-79.02
X77.26Y-85.9
X77.63Y-95.17
X77.72Y-62.13
X78.05Y-108.9
X78.23Y-31.57
X78.43Y-64.61
X78.54Y-74.14
X78.57Y-75.01
X78.57Y-76.01
X78.83Y-104.72
X78.88Y-53.09
X79.1Y-91.63
X79.13Y-66.01
X79.22Y-42.27
X80.11Y-75.48
X80.12Y-76.92
X80.19Y-48.82
X80.42Y-64.85
X80.9Y-108.99
X81.03Y-31.36
X81.75Y-66.12
X81.81Y-63.46
X82.426Y-75.392
X82.55Y-49.46
X82.97Y-72.77
X83.03Y-64.68
X83.36Y-108.92
X83.65Y-47.06
X83.74Y-31.29
X83.87Y-80.2
X83.87Y-81.59
X83.95Y-78.48
X83.99Y-77.06
X84.09Y-73.9
X84.17Y-71.54
X84.19Y-41.8
X85.13Y-46.47
X85.507Y-77.018
X86.04Y-96.185
X86.08Y-50.88
X86.15Y-55.93
X86.75Y-71.65
X86.82Y-31.33
X86.89Y-108.96
X86.91Y-66.63
X87.59Y-65.95
X87.92Y-89.71
X87.92Y-96.185
X87.955Y-90.775
X87.97Y-42.04
X88.48Y-83.63
X88.87Y-31.4
X88.91Y-69.81
X89.17Y-46.51
X89.21Y-50.98
X89.35Y-71.71
X89.6Y-96.185
X89.76Y-98.62
X89.99Y-93.9
X90.06Y-109.0
X90.63Y-99.15
X90.79Y-83.15
X91.14Y-71.68
X91.3Y-76.31
X91.3Y-96.19
X91.33Y-92.41
X91.62Y-77.34
X91.7Y-80.28
X91.72Y-78.76
X91.72Y-81.67
X91.97Y-83.59
X92.03Y-108.96
X92.09Y-31.35
X92.44Y-86.89
X92.49Y-85.63
X92.55Y-88.15
X93.06Y-51.09
X93.06Y-96.26
X93.07Y-71.6
X93.1Y-46.69
X93.3Y-80.63
X93.351Y-86.329
X93.36Y-82.01
X93.43Y-88.61
X93.46Y-87.35
X93.54Y-99.09
X94.01Y-68.11
X94.03Y-31.35
X94.28Y-84.57
X94.31Y-83.06
X94.59Y-108.81
X95.28Y-42.9
X95.3Y-40.85
X95.33Y-38.77
X95.39Y-68.06
X95.42Y-64.83
X95.42Y-66.63
X96.28Y-83.7
X96.28Y-84.9
X96.62Y-108.77
X96.69Y-77.88
X97.22Y-31.39
X97.42Y-78.9
X97.42Y-96.26
X97.43Y-80.12
X97.66Y-32.77
X97.92Y-107.7
X98.04Y-40.93
X98.07Y-42.9
X98.12Y-38.71
X98.15Y-33.87
X98.49Y-93.24
X98.98Y-105.83
X99.22Y-96.26
X99.355Y-88.1
X99.57Y-85.66
X99.95Y-94.85
X100.32Y-34.56
X100.64Y-105.83
X101.58Y-93.22
X103.14Y-34.56
X103.18Y-105.75
X104.9Y-85.54
X105.31Y-33.57
X105.33Y-105.81
X105.4Y-61.92
X105.72Y-107.99
X105.96Y-31.74
X106.1Y-74.37
X107.28Y-82.24
X107.54Y-108.77
X108.32Y-31.28
X109.32Y-80.7
X110.11Y-108.85
X110.72Y-31.36
X110.77Y-77.52
X111.0Y-71.34
X112.91Y-108.8
X113.23Y-77.07
X113.44Y-31.47
X115.2Y-108.44
X115.66Y-32.27
X116.01Y-49.62
X116.17Y-44.15
X116.17Y-46.83
X116.24Y-91.25
X116.28Y-38.05
X116.28Y-41.16
X116.29Y-102.12
X116.31Y-96.73
X116.31Y-106.79
X116.32Y-94.22
X116.34Y-104.47
X116.36Y-88.96
X116.37Y-34.85
X116.37Y-99.55
X117.4Y-51.8
X119.06Y-88.81
X120.09Y-51.74
X121.21Y-30.93
X121.34Y-46.44
X121.77Y-88.77
X123.1Y-51.69
X123.11Y-30.9
X123.11Y-46.52
X123.29Y-70.98
X123.33Y-53.87
X123.36Y-65.08
X123.38Y-55.91
X123.38Y-76.99
X123.38Y-88.62
X123.42Y-62.81
X123.43Y-59.04
X123.44Y-74.1
X123.48Y-84.28
X123.52Y-67.97
X123.53Y-86.36
X123.55Y-79.7
X123.56Y-82.18
X123.56Y-82.18
X124.76Y-46.54
X124.87Y-30.87
X126.53Y-46.57
X126.61Y-30.87
T3
X20.65Y-53.29
X28.65Y-53.29
X36.93Y-44.76
X36.93Y-52.76
X38.02Y-60.02
X41.58Y-41.88
X41.58Y-49.88
X46.02Y-60.02
X77.26Y-83.24
X77.26Y-91.24
X83.19Y-98.65
X83.19Y-106.65
T4
X46.96Y-49.79
X49.5Y-49.79
X52.04Y-49.79
T5
X23.04Y-85.78
X25.58Y-85.78
X28.12Y-85.78
X30.922Y-58.81
X32.865Y-54.81
X34.522Y-51.49
X36.465Y-47.49
X37.75Y-79.42
X41.94Y-53.76
X41.94Y-56.3
X43.24Y-44.15
X45.74Y-38.15
X45.74Y-44.15
X48.24Y-38.15
X50.79Y-36.52
X54.02Y-63.06
X54.02Y-65.6
X54.02Y-68.14
X54.02Y-70.68
X108.92Y-42.09
X108.92Y-44.63
X108.92Y-47.17
X108.92Y-49.71
X108.92Y-52.25
X108.92Y-54.79
X113.71Y-44.38
X119.8Y-32.36
X119.8Y-34.9
X119.8Y-37.44
X119.8Y-39.98
X119.8Y-42.52
X119.8Y-45.06
T6
X117.39Y-62.965
X117.39Y-77.965
T7
X19.28Y-67.52
X19.28Y-72.52
X28.83Y-62.52
X28.83Y-70.02
X28.83Y-77.52
X31.28Y-65.02
X31.28Y-75.02
T8
X97.39Y-66.085
X97.39Y-74.845
T9
X24.28Y-62.52
X24.28Y-77.52
T10
X31.18Y-93.15
X33.3Y-36.0
X33.3Y-36.0
X33.3Y-104.0
X33.3Y-104.0
X110.3Y-36.0
X110.3Y-36.0
X110.3Y-104.0
X110.3Y-104.0
X119.59Y-55.69
T0
M30
